<svg id="Layer_1" enable-background="new 0 0 511.646 511.646" height="512" viewBox="0 0 511.646 511.646" width="512" xmlns="http://www.w3.org/2000/svg"><g><g><path d="m117.918 10.792c.95 32.85 14.528 58.069 38.271 77.736s60.969 22.014 89.083 11.624l-1.756-7.763c-4.342-17.288-14.985-33.937-30.123-41.144-9.029-4.299-18.932-5.014-28.515-6.761-8.621-1.572-16.683-4.889-24.829-8.059-13.362-5.2-26.78-15.201-36.231-27.637-1.903-2.506-5.9-1.142-5.9 2.004z" fill="#91deb6"/></g><g><path d="m245.269 100.15c-2.876 1.063-5.842 1.995-8.88 2.774-5.285-14.236-14.864-27.034-27.632-33.12-9.022-4.303-18.934-5.012-28.513-6.764-8.617-1.569-16.686-4.891-24.827-8.06-13.143-5.103-26.326-14.864-35.742-27.004-.992-5.478-1.59-11.209-1.762-17.183 0-3.149 3.999-4.516 5.903-2.005 9.457 12.434 22.873 22.438 36.228 27.632 8.151 3.169 16.211 6.49 24.837 8.06 9.579 1.752 19.481 2.46 28.513 6.764 15.137 7.209 25.779 23.855 30.123 41.139z" fill="#6ed5a1"/></g><g><path d="m309.749 148.148c-17.731-5.413-36.312-8.12-54.893-8.12l-13.745.192c-18.674-.941-37.495 1.72-55.332 7.998-94.143 33.136-128.036 150.888-109.49 231.922 10.029 43.819 37.248 84.818 77.272 105.42 24.593 12.659 52.608 17.196 80.243 18.592 11.994-.606 24.058-1.807 35.884-4.003 26.673-2.091 53.172-6.944 76.886-17.533 45.748-20.427 76.859-61.076 88.322-104.522 21.198-80.344-17.542-197.093-125.147-229.946z" fill="#fea95c"/></g><g><path d="m391.316 380.143c-10.024 43.812-37.241 84.819-77.266 105.414-18.084 9.315-38.01 14.226-58.281 16.727 13.203-2.876 26.022-7.128 38.03-13.305 40.025-20.605 67.242-61.602 77.266-105.424 18.549-81.032-15.35-198.779-109.484-231.919-19.957-7.027-41.149-9.528-61.987-7.513 27.115-6.592 55.76-5.225 82.237 4.091 94.135 33.14 128.034 150.887 109.485 231.929z" fill="#fe9738"/></g><g><path d="m434.895 378.098c-11.462 43.437-42.577 84.09-88.322 104.523-9.923 4.425-20.332 7.857-31.034 10.49 3.351-1.286 6.662-2.673 9.913-4.172 45.746-21.061 76.861-62.989 88.322-107.793 21.192-82.865-17.547-203.285-125.148-237.164-2.359-.739-4.739-1.438-7.128-2.076 9.568 1.337 19.025 3.422 28.249 6.237 107.611 32.857 146.35 149.611 125.148 229.955z" fill="#fe9738"/></g><path d="m426.684 240.612c-31.634-67.007-99.028-108.626-171.934-108.079l-6.008.084c2.846-31.329 11.538-72.766 25.372-97.667 2.01-3.618.708-8.18-2.911-10.19-3.621-2.011-8.181-.706-10.19 2.911-5.77 10.386-11.882 26.042-16.958 44.99-6.595-12.796-16.207-22.835-27.44-28.184-9.74-4.637-20.329-5.192-30.666-7.589-21.547-4.399-42.641-14.792-56.164-32.636-2.798-3.682-7.625-5.164-12.01-3.689-13.033 4.386-5.852 28.806-3.392 37.858 4.226 15.544 12.038 29.904 22.665 41.999 2.731 3.109 7.467 3.416 10.575.684 3.109-2.732 3.415-7.467.683-10.576-12.038-13.702-19.241-29.308-21.842-47.431 15.812 15.732 35.891 23.869 57.069 28.759 30.126 4.299 44.312 12.841 52.933 43.246-20.452 5.929-43.902 4.892-63.217-4.456-3.715-1.828-8.206-.296-10.032 3.417-1.827 3.714-.296 8.206 3.418 10.032 20.558 10.17 46.801 12.174 69.586 6.59-1.049 7.099-1.911 14.408-2.532 21.871-122.539-.867-189.91 140.035-164.705 249.256 20.295 82.736 79.725 127.898 164.441 129.824.254.013.503.013.757 0 13.312-.672 25.419-2.013 36.567-4.057 31.348-2.498 57.169-8.424 78.881-18.12 35.035-15.643 63.826-43.637 81.068-78.824 1.822-3.717.285-8.206-3.432-10.027-3.716-1.822-8.205-.285-10.026 3.432-15.702 32.043-41.883 57.518-73.72 71.734-.862.385-1.742.754-2.619 1.126 94.836-74.894 77.026-249.733-19.674-316.796 18.852 7.482 35.897 18.052 50.812 31.534 48.888 42.989 71.513 120.952 56.263 181.981-.984 4.02 1.477 8.077 5.497 9.061 3.913.992 8.092-1.446 9.061-5.497 10.478-42.803 4.432-93.857-16.176-136.571zm-54.786 8.448c16.771 40.9 21.3 89.277 12.116 129.408-18.368 77.504-75.616 116.776-150.211 118.18-135.204-.676-184.194-133.622-138.094-247.588 18.91-46.119 51.782-79.421 92.557-93.773 29.364-10.336 61.709-10.336 91.073 0 40.777 14.351 73.647 47.654 92.559 93.773z"/></g></svg>