<svg height="512" viewBox="0 0 48 48" width="512" xmlns="http://www.w3.org/2000/svg"><g id="_24-blueberry" data-name="24-blueberry"><ellipse cx="14" cy="14" fill="#39285e" rx="3" ry="2"/><path d="m25 19a11 11 0 1 1 -11-11 10.994 10.994 0 0 1 11 11zm-8-5c0-1.1-1.34-2-3-2s-3 .9-3 2 1.34 2 3 2 3-.9 3-2z" fill="#6f60ba"/><ellipse cx="34" cy="21" fill="#39285e" rx="3" ry="2"/><path d="m34 15a11 11 0 1 1 -11 11 10.994 10.994 0 0 1 11-11zm3 6c0-1.1-1.34-2-3-2s-3 .9-3 2 1.34 2 3 2 3-.9 3-2z" fill="#7e6dd4"/><ellipse cx="8" cy="36" fill="#39285e" rx="2" ry="3"/><path d="m14 25a11 11 0 1 1 -11 11 10.994 10.994 0 0 1 11-11zm-4 11c0-1.66-.9-3-2-3s-2 1.34-2 3 .9 3 2 3 2-1.34 2-3z" fill="#7e6dd4"/><path d="m25 18.906c.318.064.5.094.5.094l.027-.017c.17-.206.354-.4.539-.593a7.788 7.788 0 0 0 .934-4.3s0-10.64-10.5-13.09a22.365 22.365 0 0 0 -1.4 7.055 10.991 10.991 0 0 1 9.9 10.851z" fill="#4e8c00"/><path d="m34 15a10.956 10.956 0 0 1 7.643 3.1 6.921 6.921 0 0 0 2.357-5.1c0-8-2-12-2-12a84.43 84.43 0 0 0 -8.7 14.035c.232-.014.464-.035.7-.035z" fill="#63b300"/><path d="m42 1c-12.946 2.774-13.92 14.091-13.993 15.781a10.932 10.932 0 0 1 5.293-1.746 84.43 84.43 0 0 1 8.7-14.035z" fill="#4e8c00"/><ellipse cx="34" cy="21" fill="#39285e" rx="3" ry="2"/><path d="m34 15a11 11 0 1 1 -11 11 10.994 10.994 0 0 1 11-11zm3 6c0-1.1-1.34-2-3-2s-3 .9-3 2 1.34 2 3 2 3-.9 3-2z" fill="#7e6dd4"/><path d="m34 15a11 11 0 1 0 11 11 10.994 10.994 0 0 0 -11-11zm0 17c-5.527 0-10-3.578-10-8s4.473-8 10-8 10 3.578 10 8-4.473 8-10 8z" fill="#5f4a9e"/><ellipse cx="34" cy="20.5" fill="#9883ff" rx="7" ry="4.5"/><ellipse cx="34" cy="21" fill="#5f4a9e" rx="4" ry="3"/><ellipse cx="34" cy="21" fill="#39285e" rx="3" ry="2"/><path d="m34 20a3.023 3.023 0 0 1 2.893 1.5 1.367 1.367 0 0 0 .107-.5c0-1.1-1.34-2-3-2s-3 .9-3 2a1.367 1.367 0 0 0 .107.5 3.023 3.023 0 0 1 2.893-1.5z" fill="#261647"/><path d="m41.526 22.005a.75.75 0 0 0 -.208.062c-.556.25-.884 1-1.28 1.439a8.132 8.132 0 0 1 -4.079 2.44 1.26 1.26 0 0 0 -.89.479.786.786 0 0 0 .237.92 2.069 2.069 0 0 0 .93.387 7.2 7.2 0 0 0 3.842.008 4.681 4.681 0 0 0 2.722-2.53 2.346 2.346 0 0 0 -.265-2.311c-.251-.414-.529-.958-1.009-.894z" fill="#9883ff"/><ellipse cx="14" cy="14" fill="#39285e" rx="3" ry="2"/><path d="m25 19a11 11 0 1 1 -11-11 10.994 10.994 0 0 1 11 11zm-8-5c0-1.1-1.34-2-3-2s-3 .9-3 2 1.34 2 3 2 3-.9 3-2z" fill="#6f60ba"/><path d="m14 8a11 11 0 1 0 11 11 10.994 10.994 0 0 0 -11-11zm0 17c-5.527 0-10-3.578-10-8s4.473-8 10-8 10 3.578 10 8-4.473 8-10 8z" fill="#483584"/><ellipse cx="14" cy="13.5" fill="#9883ff" rx="7" ry="4.5"/><ellipse cx="14" cy="14" fill="#5f4a9e" rx="4" ry="3"/><ellipse cx="14" cy="14" fill="#39285e" rx="3" ry="2"/><path d="m14 13a3.023 3.023 0 0 1 2.893 1.5 1.367 1.367 0 0 0 .107-.5c0-1.1-1.34-2-3-2s-3 .9-3 2a1.367 1.367 0 0 0 .107.5 3.023 3.023 0 0 1 2.893-1.5z" fill="#261647"/><path d="m21.526 15.005a.75.75 0 0 0 -.208.062c-.556.25-.884 1-1.28 1.439a8.132 8.132 0 0 1 -4.079 2.44 1.26 1.26 0 0 0 -.89.479.786.786 0 0 0 .237.92 2.069 2.069 0 0 0 .93.387 7.2 7.2 0 0 0 3.842.008 4.681 4.681 0 0 0 2.722-2.53 2.346 2.346 0 0 0 -.265-2.311c-.251-.414-.529-.958-1.009-.894z" fill="#7e6dd4"/><path d="m7.015 27.5a10.955 10.955 0 0 1 6.985-2.5 11.764 11.764 0 0 1 -5.673-1.413 11.011 11.011 0 0 0 -2.816 2.413 11.1 11.1 0 0 0 1.504 1.5z" fill="#39285e"/><path d="m23.987 16.793a11.046 11.046 0 0 0 -1.007.736 2.212 2.212 0 0 1 -.176.681 4.7 4.7 0 0 1 -2.367 2.363 10.939 10.939 0 0 0 -1.11 2.8 10.965 10.965 0 0 0 -11 .211 12.1 12.1 0 0 0 10.891.23c.153-.075.308-.149.455-.23a7.691 7.691 0 0 0 4.327-6.584c0-.07-.011-.138-.013-.207z" fill="#483584"/><path d="m24.673 16.376c-.235.13-.463.271-.686.417 0 .069.013.137.013.207a7.691 7.691 0 0 1 -4.327 6.587c-.147.081-.3.155-.455.23a11.849 11.849 0 0 1 -5.218 1.183 11.132 11.132 0 0 1 6.985 2.5 11.1 11.1 0 0 0 1.5-1.5c.194-.235.374-.482.548-.733a10.934 10.934 0 0 1 1.926-5.534c.016-.243.037-.486.037-.733a11.022 11.022 0 0 0 -.323-2.624z" fill="#39285e"/><path d="m22.8 18.21a2.212 2.212 0 0 0 .176-.681 11.035 11.035 0 0 0 -2.543 3.044 4.7 4.7 0 0 0 2.367-2.363z" fill="#5f4a9e"/><ellipse cx="8" cy="36" fill="#39285e" rx="2" ry="3"/><path d="m14 25a11 11 0 1 1 -11 11 10.994 10.994 0 0 1 11-11zm-4 11c0-1.66-.9-3-2-3s-2 1.34-2 3 .9 3 2 3 2-1.34 2-3z" fill="#7e6dd4"/><path d="m3 36a11 11 0 1 0 11-11 10.994 10.994 0 0 0 -11 11zm17 0c0 5.527-3.578 10-8 10s-8-4.473-8-10 3.578-10 8-10 8 4.473 8 10z" fill="#5f4a9e"/><ellipse cx="8.5" cy="36" fill="#9883ff" rx="4.5" ry="7"/><ellipse cx="8" cy="36" fill="#5f4a9e" rx="3" ry="4"/><ellipse cx="8" cy="36" fill="#39285e" rx="2" ry="3"/><path d="m7 36a3.023 3.023 0 0 1 1.5-2.893 1.367 1.367 0 0 0 -.5-.107c-1.1 0-2 1.34-2 3s.9 3 2 3a1.367 1.367 0 0 0 .5-.107 3.023 3.023 0 0 1 -1.5-2.893z" fill="#261647"/><path d="m10.8 28.407a.76.76 0 0 0 .062.208c.251.556 1.006.884 1.44 1.279a8.14 8.14 0 0 1 2.439 4.08 1.259 1.259 0 0 0 .48.89.785.785 0 0 0 .919-.237 2.069 2.069 0 0 0 .387-.93 7.2 7.2 0 0 0 .008-3.843 4.679 4.679 0 0 0 -2.53-2.725 2.346 2.346 0 0 0 -2.311.265c-.409.255-.953.532-.894 1.013z" fill="#9883ff"/><path d="m25 18.906c.318.064.5.094.5.094l.027-.017c.17-.206.354-.4.539-.593a7.788 7.788 0 0 0 .934-4.3s0-10.64-10.5-13.09a22.365 22.365 0 0 0 -1.4 7.055 10.991 10.991 0 0 1 9.9 10.851z" fill="#4e8c00"/><path d="m34 15a10.956 10.956 0 0 1 7.643 3.1 6.921 6.921 0 0 0 2.357-5.1c0-8-2-12-2-12a84.43 84.43 0 0 0 -8.7 14.035c.232-.014.464-.035.7-.035z" fill="#63b300"/><path d="m42 1c-12.946 2.774-13.92 14.091-13.993 15.781a10.932 10.932 0 0 1 5.293-1.746 84.43 84.43 0 0 1 8.7-14.035z" fill="#4e8c00"/><path d="m35.375 11.1c-.7 1.238-1.4 2.553-2.075 3.94.232-.014.464-.035.7-.035a10.956 10.956 0 0 1 7.643 3.1 8.215 8.215 0 0 0 1.59-2.062 10.989 10.989 0 0 0 -7.858-4.943z" fill="#4e8c00"/><path d="m33.3 15.035c.68-1.387 1.38-2.7 2.075-3.94a11.139 11.139 0 0 0 -1.375-.095 10.944 10.944 0 0 0 -5.115 1.266 17.382 17.382 0 0 0 -.878 4.515 10.932 10.932 0 0 1 5.293-1.746z" fill="#3f7000"/><path d="m15.6 4.212a31.1 31.1 0 0 0 -.5 3.843 10.991 10.991 0 0 1 9.9 10.851c.318.064.5.094.5.094l.027-.017c.17-.206.354-.4.539-.593a7.788 7.788 0 0 0 .934-4.3 14.655 14.655 0 0 0 -.59-3.618 16.555 16.555 0 0 0 -10.81-6.26z" fill="#3f7000"/><ellipse cx="40" cy="20" fill="#f6fafd" rx="1.65" ry="2.297" transform="matrix(.707 -.707 .707 .707 -2.422 34.157)"/><ellipse cx="12" cy="30" fill="#f6fafd" rx="1.65" ry="2.297" transform="matrix(.707 -.707 .707 .707 -17.703 17.282)"/><ellipse cx="27" cy="26" fill="#c4b0ff" rx="1.65" ry="2.297" transform="matrix(.707 -.707 .707 .707 -10.476 26.72)"/><g fill="#f6fafd"><ellipse cx="40" cy="24" rx=".825" ry="1.148" transform="matrix(.707 -.707 .707 .707 -5.251 35.329)"/><ellipse cx="20" cy="15" rx=".825" ry="1.148" transform="matrix(.707 -.707 .707 .707 -4.748 18.544)"/><ellipse cx="19.746" cy="12.5" rx=".413" ry=".574" transform="matrix(.707 -.707 .707 .707 -3.054 17.632)"/></g></g></svg>