<svg height="512" viewBox="0 0 60 60" width="512" xmlns="http://www.w3.org/2000/svg"><g id="Page-1" fill="none" fill-rule="evenodd"><g id="017---Orange" fill-rule="nonzero" transform="translate(0 -1)"><path id="Shape" d="m45 35c.0027867 1.6213585-.1749753 3.2379859-.53 4.82l-7.45-7.45-2.08-2.08c-.1890989-.1892335-.4467321-.2938827-.714227-.2901152-.2674949.0037676-.5220786.1156311-.705773.3101152-6.0936114 6.8357086-6.0157941 17.1767702.18 23.92-9.9622657 5.5336335-22.5008945 2.5478556-28.8999948-6.8818503-6.39910032-9.4297059-4.54217037-22.1844655 4.2799948-29.3981497 1.63 1.03 4.86 2.67 7.8 1.81 3.68-1.08 5.65-5.74 6.05-6.76h.07c5.8347628 0 11.4305489 2.3178505 15.5563492 6.4436508s6.4436508 9.7215864 6.4436508 15.5563492z" fill="#ff9801"/><path id="Shape" d="m32.821 31.171-.881-.881c-.1890989-.1892335-.4467321-.2938827-.714227-.2901152-.2674949.0037676-.5220786.1156311-.705773.3101152-6.0936114 6.8357086-6.0157941 17.1767702.18 23.92-2.8200875 1.5702635-5.952554 2.4974026-9.173 2.715.487.033.977.055 1.473.055 3.7446716.0053971 7.4283436-.9482264 10.7-2.77-5.9044724-6.4322372-6.2766605-16.1959299-.879-23.059z" fill="#f57c00"/><path id="Shape" d="m23 13h-.07c-.021.052-.048.12-.077.19 10.952533 1.4324402 19.1448789 10.7641926 19.147 21.81-.0011707.746141-.0398863 1.4917504-.116 2.234l2.586 2.586c1.4568614-6.5191491-.1245906-13.3471757-4.2991828-18.5620132-4.1745921-5.2148376-10.4908681-8.2525336-17.1708172-8.2579868z" fill="#f57c00"/><path id="Shape" d="m22.82 12.67c-.9-.67-5.02-3.5-8.7-2.43-.18.05-.36.12-.54.19-2.35-3.04-1.38-8.23-1.38-8.23s5.83-1.09 8.76 1.84c2.68 2.68 2 7.77 1.86 8.63z" fill="#008a00"/><path id="Shape" d="m23 12.8s-.02.07-.07.2c-.4 1.02-2.37 5.68-6.05 6.76-2.94.86-6.17-.78-7.8-1.81-.37229611-.2318117-.73274769-.4821253-1.08-.75 0 0 1.8-5.24 5.58-6.77.18-.07.36-.14.54-.19 3.68-1.07 7.8 1.76 8.7 2.43.12.08.18.13.18.13z" fill="#60a917"/><path id="Shape" d="m22.82 12.67c-.874-.651-4.785-3.329-8.381-2.5 1.9454486.4574744 3.7766877 1.3082639 5.381 2.5.12.08.18.13.18.13s-.02.07-.07.2c-.4 1.02-2.37 5.68-6.05 6.76-.108.032-.216.053-.325.078 1.0984047.2425312 2.2391762.2157702 3.325-.078 3.68-1.08 5.65-5.74 6.05-6.76.05-.13.07-.2.07-.2s-.06-.05-.18-.13z" fill="#549414"/><path id="Shape" d="m58.69 55.48c-7.0537435 6.2870397-17.7871974 5.9799936-24.47-.7-.18-.18-.36-.37-.52-.55-6.1957941-6.7432298-6.2736114-17.0842914-.18-23.92.1836944-.1944841.4382781-.3063476.705773-.3101152.2674949-.0037675.5251281.1008817.714227.2901152l2.08 2.08c-5.415152 5.415152-5.415152 14.194848 0 19.61s14.194848 5.415152 19.61 0l2.08 2.08c.1892335.1890989.2938827.4467321.2901152.714227-.0037676.2674949-.1156311.5220786-.3101152.705773z" fill="#f57c00"/><path id="Shape" d="m56.63 51.98c-5.415152 5.415152-14.194848 5.415152-19.61 0s-5.415152-14.194848 0-19.61l7.45 7.45z" fill="#ffdc00"/><path id="Shape" d="m44.47 39.82-7.45-7.45c-.4984053.5073923-.9570886 1.0523294-1.372 1.63l5.822 5.82 12.16 12.16c-2.2344176 2.2340803-5.1670075 3.6349046-8.309 3.969 4.1765495.4608612 8.3365036-.9991139 11.309-3.969z" fill="#fec108"/><g fill="#000"><path id="Shape" d="m23 58c3.6486295-.0033848 7.24429-.8732529 10.491-2.538l.023.025c7.0556224 7.0553027 18.3906601 7.3794993 25.838.739.4009548-.3563993.6353861-.8636695.647-1.4.0154691-.5509753-.1964553-1.084041-.586-1.474l-13.86-13.86c1.3137585-6.5638491-.29989-13.3742805-4.4190925-18.6508559-4.1192024-5.2765754-10.3344519-8.4947287-17.0209075-8.8131441.568285-2.88571116 2.1732683-5.46357329 4.512-7.247.4313344-.34517797.501178-.97466561.156-1.406s-.9746656-.50117797-1.406-.156c-1.4697779 1.15905404-2.7089045 2.58372743-3.653 4.2-.272834-1.53382293-.986978-2.95481303-2.055-4.089-3.267-3.264-9.391-2.162-9.65-2.113-.406384.07568642-.7243136.393616-.8.8-.039.208-.836 4.684.938 8.02-3.424 2.076-5.025 6.621-5.1 6.842-.13757902.3999646-.00864355.8432303.322 1.107l.072.057c-6.98606399 6.4133553-9.32139922 16.4561063-5.88181331 25.293836 3.4395859 8.8377296 11.94934321 14.6596423 21.43281331 14.663164zm11.928-3.927c-6.2986703-6.2963851-6.602855-16.4094315-.694-23.073l1.408 1.407c-5.1582782 5.8807086-4.8685234 14.7550177.6623809 20.2867141 5.5309044 5.5316964 14.405172 5.822722 20.2866191.6652859l1.4 1.4c-6.6583626 5.909231-16.7676336 5.6085346-23.063-.686zm9.827-12.551-10.55 3.166c-.1625756-.8274433-.2442936-1.6687366-.244-2.512-.0053727-3.0657447 1.0933028-6.030926 3.095-8.353zm10.422 10.423c-2.3227085 2.0011695-5.2881193 3.0994435-8.354 3.094-.8222533-.0008308-1.6425809-.0795153-2.45-.235l2.8-10.864zm-17.448-.673c-1.3178478-1.3188485-2.3318003-2.9095697-2.971-4.661l10.471-3.143-2.782 10.794c-1.7736043-.6371894-3.3846243-1.6581622-4.718-2.99zm-24.64-48.183c1.535-.162 5.2-.307 7.164 1.658 1.624 1.625 1.807 4.4 1.732 6.17-1.846-1.086-4.974-2.467-7.975-1.673-.8930909-1.92023377-1.2128923-4.05745193-.921-6.155zm1.311 8.111c2.8-.821 6.059 1.064 7.377 1.95-.637 1.462-2.377 4.826-5.177 5.65s-6.061-1.066-7.378-1.951c.634-1.461 2.378-4.825 5.178-5.649zm-5.215 7.982c1.7980144 1.0978573 3.8444413 1.7232405 5.949 1.818.6856556.0031181 1.3682331-.0918434 2.027-.282 3.568-1.049 5.635-4.909 6.418-6.689 11.3572688.3195561 20.4033249 9.6092502 20.421 20.971-.0020627.9207019-.0638591 1.8403001-.185 2.753l-6.086-6.086-2.08-2.08c-.3824906-.3860941-.9067439-.5981868-1.450099-.5866542-.543355.0115326-1.058137.2456786-1.423901.6476542-6.1035762 6.8503098-6.3785847 17.1033532-.651 24.271-9.4706528 4.5790486-20.8681291 1.4442583-26.66495596-7.333996-5.79682689-8.7782543-4.20423117-20.4911965 3.72595596-27.403004z"/><circle id="Oval" cx="15" cy="39" r="1"/><circle id="Oval" cx="9" cy="28" r="1"/><circle id="Oval" cx="6" cy="33" r="1"/><circle id="Oval" cx="12" cy="32" r="1"/><circle id="Oval" cx="10" cy="37" r="1"/><circle id="Oval" cx="13" cy="45" r="1"/><circle id="Oval" cx="8" cy="42" r="1"/><circle id="Oval" cx="14" cy="26" r="1"/></g></g></g></svg>