<?xml version="1.0" encoding="iso-8859-1"?>
<!-- Generator: Adobe Illustrator 19.0.0, SVG Export Plug-In . SVG Version: 6.00 Build 0)  -->
<svg version="1.1" id="Capa_1" xmlns="http://www.w3.org/2000/svg" xmlns:xlink="http://www.w3.org/1999/xlink" x="0px" y="0px"
	 viewBox="0 0 512 512" style="enable-background:new 0 0 512 512;" xml:space="preserve">
<path style="fill:#5EAC24;" d="M504.417,255.989c0,112.707-71.009,205.318-161.771,215.735c-5.618,0.647-11.316,0.98-17.075,0.98
	c-98.774,0-178.856-97.026-178.856-216.715c0-41.658,9.7-80.557,26.512-113.586C204.719,80.518,261.169,39.274,325.57,39.274
	C424.344,39.274,504.417,136.3,504.417,255.989z"/>
<g>
	<path style="fill:#91DC5A;" d="M368.945,168.602c0,28.786-14.145,28.786-14.145,57.581s14.145,28.796,14.145,57.591
		c0,28.786-14.145,28.786-14.145,57.581c0,28.796,14.145,28.796,14.145,57.591s-17.682,29.907-14.095,58.47
		c0.586,4.628,1.425,8.517,2.415,11.892c-10.286,2.233-20.874,3.395-31.695,3.395c-14.782,0-29.149-2.172-42.89-6.274
		c-0.313-2.88-0.485-6.133-0.485-9.881c0-28.796,14.145-28.796,14.145-57.591c0-28.796-14.145-28.796-14.145-57.581
		c0-28.796,14.145-28.796,14.145-57.591s-14.145-28.796-14.145-57.581c0-28.796,14.145-28.796,14.145-57.591
		s-14.145-28.796-14.145-57.591s14.145-28.796,14.145-57.591c0-4.223-0.384-7.851-1.041-11.064
		c9.841-2.031,19.955-3.092,30.271-3.092c14.853,0,29.281,2.193,43.082,6.335c0.192,2.354,0.293,4.941,0.293,7.82
		c0,28.786-14.145,28.786-14.145,57.581S368.945,139.806,368.945,168.602z"/>
	<path style="fill:#91DC5A;" d="M218.318,283.775c0,28.786-17.793,28.786-17.793,57.581c0,28.796,17.793,28.796,17.793,57.591
		c0,10.932-3.203,17.874-6.931,23.845c-39.516-39.748-64.674-99.714-64.674-166.803c0-61.36,21.066-116.779,54.904-156.214
		c-0.687,3.223-1.091,6.901-1.091,11.235c0,28.796,17.793,28.796,17.793,57.591c0,28.786-17.793,28.786-17.793,57.581
		S218.318,254.979,218.318,283.775z"/>
	<path style="fill:#91DC5A;" d="M441.681,420.822c2.95-5.436,5.203-11.943,5.203-21.865c0-28.796-18.965-28.796-18.965-57.581
		c0-28.796,18.965-28.796,18.965-57.591s-18.965-28.796-18.965-57.581c0-28.796,18.965-28.796,18.965-57.591
		s-18.965-28.796-18.965-57.591c0-12.508,3.577-19.581,7.628-25.936c41.91,39.657,68.867,101.462,68.867,170.905
		C504.417,321.967,480.076,381.074,441.681,420.822z"/>
</g>
<path style="fill:#6DC82A;" d="M218.318,283.775c0,28.786-17.793,28.786-17.793,57.581c0,28.796,17.793,28.796,17.793,57.591
	c0,10.932-3.203,17.874-6.931,23.845c-69.693-69.707-84.01-191.762-38.162-280.379l32.019,62.229
	c-2.688,5.375-4.718,11.811-4.718,21.541C200.525,254.979,218.318,254.979,218.318,283.775z"/>
<path style="fill:#4E901E;" d="M296.34,398.957c0-21.531-7.911-26.967-11.892-40.364l-0.01-0.02l-79.193-153.93
	c-2.688,5.375-4.718,11.811-4.718,21.541c0,28.796,17.793,28.796,17.793,57.591c0,28.786-17.793,28.786-17.793,57.581
	c0,28.796,17.793,28.796,17.793,57.591c0,10.932-3.203,17.874-6.931,23.845c20.43,20.551,44.689,35.707,71.292,43.638
	c-0.313-2.88-0.485-6.133-0.485-9.881C282.195,427.753,296.34,427.753,296.34,398.957z"/>
<g>
	<path style="fill:#6DC82A;" d="M200.525,341.356c0,28.796,17.793,28.796,17.793,57.591c0,10.932-3.203,17.874-6.931,23.845
		c-69.693-69.707-84.01-191.762-38.162-280.379l32.019,62.229c-2.688,5.375-4.718,11.811-4.718,21.541
		c0,28.796,17.793,28.796,17.793,57.591C218.318,312.56,200.525,312.56,200.525,341.356z"/>
	<path style="fill:#6DC82A;" d="M342.646,471.724c-18.077,2.186-39.796,0.875-59.966-5.294c-4.07-37.418,13.66-35.97,13.66-67.473
		c0-21.531-7.911-26.967-11.892-40.364L342.646,471.724z"/>
</g>
<g>
	<path style="fill:#A4E276;" d="M153.069,179.645C129.921,229.366,69.976,364.21,35.128,442.858
		c-11.276-6.911-19.601-13.448-24.491-17.621c-3.041-2.587-3.92-6.921-2.132-10.488l15.489-30.948l48.902-97.774l50.509-100.957
		C129.274,173.341,144.35,171.532,153.069,179.645z"/>
	<path style="fill:#A4E276;" d="M269.07,425.09c-130.638,96.119-234.733,20.323-258.438,0.146c-3.037-2.59-3.918-6.919-2.128-10.484
		l15.488-30.954l48.907-97.77l50.507-100.954c6.94-13.882,26.75-13.882,33.691,0l50.507,100.954l48.284,96.508l15.833,31.651
		C273.612,417.98,272.481,422.574,269.07,425.09z"/>
</g>
<path style="fill:#6DC82A;" d="M153.069,179.645C129.921,229.366,69.976,364.21,35.128,442.858
	c-11.276-6.911-19.601-13.448-24.491-17.621c-3.041-2.587-3.92-6.921-2.132-10.488l15.489-30.948l48.902-97.774l50.509-100.957
	C129.274,173.341,144.35,171.532,153.069,179.645z"/>
<path style="fill:#FF3F62;" d="M255.886,382.537c-107.52,70.755-195.268,27.021-231.893,1.262l48.907-97.77l50.507-100.954
	c6.94-13.882,26.75-13.882,33.691,0l50.507,100.954L255.886,382.537z"/>
<path style="fill:#FF0C38;" d="M123.404,185.071L72.895,286.028l-48.902,97.774c7.699,5.416,17.671,11.629,29.604,17.399
	c34.686-78.112,80.042-179.816,99.471-221.555C144.35,171.532,129.274,173.341,123.404,185.071z"/>
<path d="M448.654,87.489C366.42,0.284,237.253,16.581,172.61,127.621c-7.881,13.519-14.378,27.876-19.47,42.799
	c-12.678-7.137-29.583-2.581-36.515,11.266L1.734,411.354c-3.365,6.699-1.728,14.782,3.991,19.652
	c12.114,10.316,45.376,35.353,92.48,45.184c48.255,10.055,95.309,1.192,139.523-22.319c70.181,45.032,160.164,33.029,220.393-40.122
	C533.152,322.502,529.655,173.048,448.654,87.489z M193.918,122.367c3.971,21.804,16.823,23.522,16.823,46.235
	c0,25.562-17.793,26.452-17.793,57.581c0,9.333,1.619,15.957,3.872,21.355l-31.95-63.863
	C171.438,161.892,181.117,141.14,193.918,122.367z M15.546,419.468c-1.246-1.049-0.018-1.077,11.376-24.588
	c12.723,8.197,14.632,8.822,16.828,8.822c7.824,0,10.495-10.458,3.659-14.218c-4.666-2.566-9.244-5.322-13.672-8.225l96.447-192.792
	c3.294-6.589,10.396-6.284,10.078-6.223c11.218,0.011,5.032-0.922,68.687,123.415c0.776,1.516-4.569-9.138,37.109,74.178
	c-53.819,33.583-112.697,44.044-172.128,21.843c-3.92-1.466-8.286,0.526-9.75,4.446c-1.464,3.921,0.526,8.286,4.447,9.75
	c63.728,23.807,127.057,12.859,184.241-22.43c11.673,24.195,13.19,24.433,11.716,25.539
	C175.829,484.299,82.838,476.753,15.546,419.468z M435.58,416.144c-20.652,21.188-45.447,36.535-72.656,43.961
	c-5.133-29.634,13.6-28.392,13.6-61.158c0-30.513-14.145-31.544-14.145-57.591c0-26.209,14.145-26.886,14.145-57.581
	c0-30.513-14.145-31.544-14.145-57.591c0-26.209,14.145-26.886,14.145-57.581c0-6.84-0.738-12.842-2.263-18.348
	c-1.122-4.031-5.294-6.386-9.326-5.274c-4.031,1.111-6.396,5.284-5.284,9.326c1.152,4.163,1.718,8.841,1.718,14.297
	c0,26.25-14.145,26.836-14.145,57.581c0,30.513,14.145,31.554,14.145,57.591c0,26.25-14.145,26.846-14.145,57.581
	c0,30.513,14.145,31.554,14.145,57.591c0,26.664-19.712,28.745-13.276,64.371c-19.541,3.132-39.283,2.142-58.248-2.779
	c-1.202-30.847,14.074-29.291,14.074-61.582c0-7.901-0.95-14.509-3.001-20.773c-1.293-3.981-5.567-6.163-9.548-4.86
	c-3.981,1.293-6.153,5.577-4.86,9.548c1.536,4.718,2.253,9.821,2.253,16.085c0,25.916-13.842,26.805-14.135,56.722
	c-7.527-2.869-14.832-6.365-21.885-10.427c6.982-4.294,13.933-8.982,20.824-14.054c0-0.01,0-0.01,0-0.01
	c6.396-4.718,8.477-13.286,4.931-20.389c-0.061-0.121-42.36-84.672-42.431-84.814c-0.01-0.021-0.023-0.039-0.034-0.061
	l-12.489-24.963c1.435-4.597,2.354-10.114,2.354-17.186c0-30.928-17.793-32.16-17.793-57.591c0-25.441,17.793-26.563,17.793-57.581
	c0-34.009-22.279-33.736-17.217-65.321c22.046-25.179,49.529-43.345,80.042-51.539c0.778,27.189-14.105,28.21-14.105,59.279
	c0,30.513,14.145,31.544,14.145,57.591c0,26.169-14.145,26.906-14.145,57.591s14.145,31.392,14.145,57.581
	c0,26.169-14.145,26.906-14.145,57.591c0,4.425,0.303,8.416,0.919,12.195c0.677,4.143,4.587,6.931,8.699,6.254
	c4.132-0.677,6.931-4.577,6.254-8.699c-0.485-2.971-0.717-6.153-0.717-9.75c0-26.169,14.145-26.906,14.145-57.591
	c0-30.473-14.145-31.574-14.145-57.581c0-26.169,14.145-26.896,14.145-57.591c0-30.513-14.145-31.554-14.145-57.591
	c0-27.452,16.318-28.624,13.984-62.482c18.722-2.92,38.354-2.102,57.591,2.92c0.535,28.583-14.125,28.099-14.125,59.551
	c0,5.395,0.455,10.195,1.374,14.681c0.849,4.092,4.86,6.719,8.962,5.88c4.092-0.849,6.729-4.86,5.88-8.952
	c-0.717-3.466-1.061-7.254-1.061-11.609c0-25.249,13.206-26.755,14.095-54.732c17.914,6.83,34.575,17.166,49.438,30.331
	c-3.152,6.143-5.567,13.68-5.567,24.411c0,31.231,18.965,32.191,18.965,57.591c0,25.441-18.965,26.3-18.965,57.591
	c0,31.008,18.965,32.443,18.965,57.581c0,25.441-18.965,26.3-18.965,57.591c0,31.008,18.965,32.443,18.965,57.581
	C439.308,407.283,437.509,412.345,435.58,416.144z M454.272,393.814c-2.071-26.714-18.773-28.341-18.773-52.438
	c0-25.441,18.965-26.3,18.965-57.591c0-31.261-18.965-32.18-18.965-57.581c0-25.441,18.965-26.3,18.965-57.591
	c0-31.231-18.965-32.191-18.965-57.591c0-5.527,0.788-9.71,2.011-13.195C509.842,174.27,516.733,306.953,454.272,393.814z"/>
<circle cx="152.234" cy="268.284" r="12.293"/>
<circle cx="176.816" cy="348.448" r="12.293"/>
<circle cx="121.589" cy="377.748" r="12.293"/>
<circle cx="109.293" cy="311.215" r="12.293"/>
<g>
</g>
<g>
</g>
<g>
</g>
<g>
</g>
<g>
</g>
<g>
</g>
<g>
</g>
<g>
</g>
<g>
</g>
<g>
</g>
<g>
</g>
<g>
</g>
<g>
</g>
<g>
</g>
<g>
</g>
</svg>
