<svg id="Capa_1" enable-background="new 0 0 512 512" height="512" viewBox="0 0 512 512" width="512" xmlns="http://www.w3.org/2000/svg"><g><path d="m356.007 7.5c-65.487 65.487-90.701 112.312-110.96 149.937-16.703 31.022-28.773 53.436-69.352 94.015l169.706-42.426 42.426-169.706z" fill="#0abf52"/><path d="m260.548 336.304-21.213-63.639-185.873 185.873 31.819 31.82h21.214z" fill="#ffe8c2"/><path d="m175.695 251.452-154.053 154.053v21.213l53.033 53.033 185.873-185.873z" fill="#fff6e7"/><path d="m93.043 482.596c-1.315-4.927-3.896-9.586-7.762-13.452l-45.961 3.536 21.213 21.213c11.716 11.716 30.711 11.716 42.426 0l3.535-3.535c-3.865-3.865-8.524-6.447-13.451-7.762z" fill="#c87044"/><path d="m81.746 472.68 3.535-3.535c-3.865-3.865-8.525-6.447-13.452-7.762-1.315-4.927-3.896-9.586-7.762-13.452s-8.525-6.447-13.452-7.762c-1.315-4.927-3.896-9.586-7.762-13.452-3.865-3.865-8.525-6.447-13.452-7.762-1.315-4.927-3.896-9.586-7.762-13.452l-3.535 3.535c-11.716 11.716-11.716 30.711 0 42.426l21.216 21.216c11.715 11.716 30.71 11.716 42.426 0z" fill="#db905a"/><path d="m387.827 39.32-212.132 212.132 190.919-21.214 53.033-159.099z" fill="#5cc563"/><path d="m483.287 134.779-197.886 29.246-46.066 151.066s21.213 21.213 21.213 21.213c40.579-40.579 62.993-52.649 94.015-69.352 37.625-20.26 84.45-45.473 149.937-110.96z" fill="#5cc563"/><path d="m340.341 240.538c35.896-19.329 80.571-43.384 142.946-105.759l-63.64-63.64c-106.066 106.066-137.886 74.246-243.952 180.312l63.64 63.64c43.695-43.695 68.987-57.312 101.006-74.553z" fill="#adcb74"/><path d="m509.803 150.689-116.672-116.672c-.001-.001-31.82-31.82-31.82-31.82-2.929-2.929-7.677-2.929-10.607 0-66.266 66.266-91.768 113.628-112.26 151.684-16.399 30.458-28.248 52.464-68.052 92.268 0 0-132.84 132.84-132.84 132.84-2.929 2.929-2.929 7.678 0 10.607s7.677 2.929 10.607 0l132.856-132.856c52.246-52.242 85.26-70.019 120.212-88.84 33.222-17.889 67.541-36.373 118.392-86.182l74.251 74.251c-61.937 60.807-106.698 84.908-142.861 104.38-31.583 17.005-54.402 29.292-95.763 70.653l-149.288 149.286c-2.192-1.448-4.533-2.664-6.982-3.625-1.878-4.787-4.733-9.164-8.391-12.822s-8.034-6.514-12.822-8.391c-1.878-4.788-4.733-9.164-8.391-12.822s-8.034-6.514-12.822-8.391c-1.878-4.787-4.733-9.164-8.391-12.822s-8.034-6.514-12.822-8.391c-1.878-4.787-4.733-9.164-8.391-12.822-2.929-2.929-7.677-2.929-10.607 0l-3.535 3.535c-12.806 12.806-14.395 32.644-4.77 47.196l-5.837 5.837c-2.929 2.929-2.929 7.678 0 10.607s7.677 2.929 10.607 0l5.303-5.303 10.607 10.607-15.91 15.91c-2.929 2.929-2.929 7.678 0 10.607s7.677 2.929 10.607 0l15.91-15.91 10.607 10.606-5.303 5.303c-2.929 2.929-2.929 7.678 0 10.607s7.677 2.929 10.607 0l5.837-5.837c14.552 9.625 34.391 8.036 47.196-4.77l157.588-157.588c39.804-39.804 61.81-51.653 92.268-68.052 38.056-20.492 85.418-45.994 151.684-112.26 2.927-2.93 2.927-7.679-.002-10.608zm-153.772-132.558 21.189 21.189-130.148 130.148c1.504-2.766 3.022-5.584 4.579-8.476 19.473-36.164 43.573-80.924 104.38-142.861zm-61.916 136.561c-8.079 4.35-16.227 8.742-24.658 13.604l118.37-118.37 21.184 21.184c-49.197 48.199-81.145 65.409-114.896 83.582zm-228.279 333.898-21.213-21.214-21.213-21.213c-7.829-7.829-8.671-20.041-2.526-28.813.521 1.14.948 2.323 1.272 3.54.692 2.595 2.719 4.622 5.314 5.314 3.804 1.014 7.29 3.026 10.081 5.818 2.792 2.792 4.804 6.278 5.818 10.081.692 2.595 2.719 4.622 5.314 5.314 3.804 1.014 7.29 3.026 10.081 5.818 2.792 2.792 4.804 6.278 5.818 10.082.692 2.595 2.719 4.622 5.314 5.314 3.804 1.014 7.29 3.026 10.081 5.818s4.804 6.278 5.818 10.081c.692 2.595 2.719 4.622 5.314 5.314 1.216.324 2.4.751 3.54 1.272-8.772 6.144-20.983 5.303-28.813-2.526z"/></g></svg>