<svg id="Capa_1" enable-background="new 0 0 512 512" height="512" viewBox="0 0 512 512" width="512" xmlns="http://www.w3.org/2000/svg"><g><g><g><path d="m450.885 192.4c-.006-.007-.012-.015-.018-.022 16.148 20.798 27.246 44.552 33.053 69.435 12.573-10.475 20.58-26.246 20.58-43.89 0-23.236-13.887-43.217-33.807-52.133-4.382 10.764-11.305 19.776-19.808 26.61z" fill="#8bc727"/></g><path d="m115.949 80.162c2.997-1.779 6.684.924 5.846 4.306-2.134 8.616-3.758 17.432-4.85 26.412 20.569-14.772 43.915-25.918 69.107-32.505.633-4.992 1.829-9.99 3.666-14.908.599-1.604 1.271-3.157 1.978-4.686-10.447-11.509-25.526-18.736-42.293-18.736-31.268 0-56.651 25.134-57.084 56.298 7.504-5.881 15.394-11.292 23.63-16.181z" fill="#bbec6c"/><path d="m239.326 71.551c52.267 0 100.07 19.097 136.826 50.687 8.822-12.398 23.297-20.494 39.672-20.494l.444 8.326c1.513 28.343 12.236 55.397 30.458 77.158 1.424 1.701 2.805 3.428 4.159 5.171 8.979-7.217 16.201-16.859 20.525-28.434 12.812-34.298-4.606-72.488-38.904-85.3-10.702-3.998-21.783-5.051-32.354-3.568-5.534-19.653-20.029-36.496-40.621-44.188-21.401-7.995-44.317-4.217-61.638 8.086-6.361-6.154-14.054-11.136-22.875-14.431-34.298-12.812-72.488 4.606-85.3 38.904-1.837 4.918-3.033 9.916-3.666 14.908 17.015-4.449 34.866-6.825 53.274-6.825z" fill="#bbec6c"/><g><path d="m114.353 141.971c1.397 75.454 40.793 144.467 105.385 184.609l.277.172.325-.024c1.553-.115 3.131-.174 4.688-.174 9.388 0 18.792 2.139 27.195 6.186l2.575 1.24-1.24-2.575c-11.537-23.954-6.657-52.68 12.144-71.48 11.823-11.823 27.547-18.334 44.275-18.334 5.367 0 10.716.686 15.897 2.039l2.028.529-.864-1.91c-8.14-17.975-4.234-39.426 9.718-53.378 8.998-8.998 20.967-13.954 33.703-13.954.907 0 1.827.026 2.733.078l1.812.103-.881-1.587c-3.904-7.034-5.969-15.021-5.969-23.097 0-10.242 3.257-19.733 8.775-27.511-36.858-31.988-84.969-51.351-137.604-51.351-46.153 0-88.821 14.898-123.481 40.131-1.175 10.022-1.679 20.142-1.491 30.288z" fill="#97d729"/></g><g><path d="m114.353 141.971c.308 16.613 2.462 32.912 6.317 48.66 29.006-60.268 85.936-104.56 154.013-116.101-11.496-1.949-23.305-2.978-35.356-2.978-46.153 0-88.821 14.898-123.481 40.131-1.177 10.022-1.681 20.142-1.493 30.288z" fill="#8bc727"/></g><path d="m207.657 452.579-18.868-13.315c-26.688-18.833-35.077-55.25-18.125-83.171 2.014-3.317 4.358-6.484 7.032-9.451 11.516-12.78 26.867-19.743 42.57-20.911-61.725-38.361-103.477-106.239-104.913-183.779-.368-19.854 1.895-39.12 6.444-57.484.838-3.383-2.85-6.085-5.846-4.306-64.429 38.238-107.783 108.252-108.443 188.45-.995 120.726 96.049 220.632 216.757 222.974 23.457.455 46.096-2.753 67.397-9.074-29.276-2.685-58.2-12.543-84.005-29.933z" fill="#bbec6c"/><g><g><path d="m49.603 268.612c.507-61.578 26.186-117.15 67.247-156.946 1.092-9.252 2.749-18.331 4.946-27.199.838-3.382-2.85-6.085-5.846-4.306-64.428 38.239-107.782 108.253-108.442 188.451-.995 120.726 96.049 220.632 216.757 222.974 8.588.167 17.063-.168 25.406-.954-112.838-10.732-201.016-106.911-200.068-222.02z" fill="#a2e62e"/></g></g><g><g><path d="m367.155 150.413c0 8.558 2.216 16.596 6.095 23.583-13.367-.762-26.988 3.955-37.2 14.167-14.737 14.737-18.039 36.571-9.922 54.498-21.142-5.518-44.566-.01-61.133 16.557-19.645 19.645-23.748 48.932-12.337 72.622-24.65-11.873-55.36-6.949-74.962 14.803-2.674 2.967-5.018 6.134-7.032 9.451-16.952 27.921-8.563 64.338 18.125 83.171l18.868 13.315c78.004 52.567 184.503 36.367 243.07-39.013 53.043-68.271 49.334-162.644-4-226.338-18.222-21.761-28.946-48.815-30.458-77.158l-.444-8.326c-26.88 0-48.67 21.789-48.67 48.668z" fill="#bbec6c"/></g><g><path d="m210.993 384.81c2.014-3.317 4.358-6.484 7.032-9.451 17.036-18.904 42.461-25.098 65.006-18.603 3.791 1.092 7.212-2.468 6.126-6.26-6.157-21.509-.774-45.62 16.167-62.562 14.464-14.464 34.156-20.499 52.992-18.125 3.48.439 6.268-2.833 5.385-6.227-4.202-16.155.02-34.046 12.677-46.703 8.37-8.37 19.029-13.048 29.962-14.044 3.251-.296 5.359-3.612 4.215-6.669-1.985-5.302-3.072-11.041-3.072-17.036 0-13.885 5.824-26.402 15.152-35.269-3.572-10.87-5.75-22.219-6.368-33.791l-.444-8.326c-26.879 0-48.669 21.79-48.669 48.669 0 8.558 2.216 16.596 6.095 23.583-13.367-.762-26.988 3.955-37.2 14.167-14.737 14.737-18.039 36.571-9.922 54.498-21.142-5.518-44.566-.01-61.133 16.557-19.645 19.645-23.748 48.932-12.338 72.622-24.649-11.873-55.36-6.949-74.962 14.803-2.681 2.975-5.031 6.151-7.048 9.478-16.913 27.89-8.664 64.228 17.986 83.034l19.023 13.424c4.056 2.733 8.192 5.269 12.391 7.632-19.306-19.967-23.902-50.942-9.053-75.401z" fill="#a2e62e"/></g></g></g><path d="m492.165 264.436c12.216-11.759 19.835-28.259 19.835-46.514 0-23.767-12.91-44.562-32.077-55.779 5.234-17.203 4.053-35.493-3.474-51.997-8.179-17.934-22.853-31.609-41.317-38.506-9.503-3.55-19.675-5.103-29.732-4.574-4.913-13.015-13.487-24.547-24.583-32.929-3.306-2.496-8.01-1.84-10.505 1.464-2.497 3.305-1.841 8.009 1.464 10.505 10.176 7.686 17.689 18.703 21.158 31.023 1.018 3.612 4.555 5.916 8.262 5.395 9.616-1.35 19.532-.254 28.688 3.167 14.711 5.496 26.402 16.391 32.919 30.679s7.079 30.259 1.584 44.97c-2.895 7.748-7.265 14.519-12.667 20.128-16.64-20.28-26.569-45.72-27.96-71.799l-.444-8.326c-.213-3.981-3.502-7.1-7.489-7.1-15.969 0-30.391 6.709-40.627 17.444-38.441-30.862-85.864-47.636-135.871-47.636-14.734 0-29.243 1.461-43.366 4.304.247-.756.503-1.511.784-2.263 11.345-30.369 45.284-45.847 75.65-34.502 7.629 2.85 14.454 7.155 20.285 12.796 2.597 2.51 6.612 2.815 9.559.724 11.846-8.415 26.28-12.156 40.644-10.536 4.12.46 7.829-2.497 8.294-6.612.464-4.116-2.496-7.829-6.612-8.293-16.034-1.81-32.139 1.7-45.957 9.921-6.259-5.142-13.287-9.184-20.963-12.051-33.085-12.358-69.528.656-87.89 29.228-11.065-8.883-25.09-14.22-40.351-14.22-34.106 0-62.106 26.573-64.429 60.1-21.392 17.313-39.646 38.403-53.626 62.208-20.176 34.349-31.013 73.664-31.343 113.695-1.027 124.7 99.508 228.117 224.11 230.534 1.542.03 3.072.045 4.609.045 21.906-.001 43.32-3.044 63.827-8.991 5.15.427 10.327.65 15.521.65 9.827 0 19.716-.77 29.574-2.327 47.327-7.475 89.588-32.439 118.999-70.293 5.732-7.378 10.962-15.25 15.543-23.4 2.029-3.611.748-8.183-2.863-10.213-3.609-2.029-8.183-.749-10.213 2.862-4.219 7.504-9.033 14.754-14.312 21.547-27.062 34.832-65.947 57.802-109.493 64.68-35.242 5.566-70.814.201-102.376-15.135 5.614.514 11.244.787 16.877.787 18.4 0 36.824-2.745 54.755-8.233 25.099-7.682 47.948-20.4 67.455-37.389l49.446-3.198c4.134-.258 7.276-3.819 7.018-7.953s-3.816-7.268-7.953-7.018l-32.127 2.008c2.951-3.293 5.802-6.696 8.538-10.217 11.002-14.16 19.746-29.578 26.164-45.763l41.007-18.72c3.769-1.72 5.429-6.169 3.708-9.938-1.72-3.768-6.172-5.429-9.937-3.708l-28.3 12.919c9.74-35.625 8.763-73.869-3.745-110.035-1.354-3.914-5.621-5.992-9.539-4.637-3.915 1.354-5.991 5.625-4.637 9.539 11.834 34.218 12.456 70.459 2.656 104.015l-30.846-52.764c-2.091-3.577-6.687-4.779-10.26-2.689-3.576 2.09-4.78 6.684-2.689 10.26l37.216 63.658c-5.751 13.633-13.306 26.641-22.643 38.659-4.094 5.269-8.458 10.265-13.069 14.972l-28.489-50.744c-2.027-3.611-6.599-4.896-10.212-2.869-3.611 2.028-4.896 6.6-2.868 10.211l30.276 53.929c-17.541 14.935-37.941 26.162-60.286 33.041l-16.617-36.732c-1.706-3.773-6.148-5.45-9.924-3.742-3.774 1.708-5.45 6.151-3.742 9.925l15.556 34.386c-28.647 6.143-58.21 4.879-86.334-3.804-.571-.176-1.146-.273-1.716-.312l-4.559-3.217c-23.73-16.746-30.775-48.878-16.038-73.151 1.791-2.95 3.874-5.75 6.191-8.322 16.621-18.444 43.817-23.818 66.136-13.067 2.873 1.384 6.305.8 8.558-1.454 2.254-2.253 2.838-5.686 1.454-8.558-10.34-21.469-5.966-47.214 10.885-64.064 14.028-14.028 34.692-19.626 53.936-14.603 2.793.731 5.765-.212 7.628-2.422s2.29-5.294 1.098-7.928c-7.029-15.525-3.656-34.052 8.394-46.102 8.282-8.282 19.759-12.646 31.47-11.982 2.759.157 5.326-1.187 6.779-3.501 1.453-2.315 1.531-5.237.205-7.627-3.371-6.072-5.152-12.968-5.152-19.943 0-20.289 14.75-37.196 34.091-40.56l.033.617c1.585 29.701 13.02 58.671 32.197 81.573 18.8 22.452 31.641 49.609 37.135 78.535 5.454 28.717 3.556 58.5-5.489 86.129-1.288 3.937.858 8.173 4.795 9.461 3.936 1.289 8.172-.858 9.461-4.794 9.831-30.031 11.896-62.396 5.97-93.595-.216-1.117-.454-2.229-.686-3.342zm-342.762-216.89c12.865 0 24.591 4.932 33.412 12.994-.039.102-.084.2-.122.303-1.421 3.804-2.489 7.653-3.248 11.513-18.389 5.234-35.97 12.895-52.362 22.804.603-2.977 1.263-5.942 1.993-8.889 1.108-4.475-.569-9.146-4.275-11.899-3.72-2.764-8.695-3.024-12.68-.66-3.057 1.814-6.052 3.722-9.017 5.675 7.157-18.602 25.206-31.841 46.299-31.841zm212.769 119.489c-11.807 1.765-22.862 7.261-31.426 15.824-13.31 13.31-18.859 32.412-15.4 50.443-20.447-1.505-40.933 5.891-55.654 20.612-17.46 17.459-24.349 42.457-19.114 65.865-6.007-1.335-12.188-1.89-18.347-1.659-11.928-7.604-23.195-16.436-33.62-26.452-2.986-2.87-7.734-2.774-10.604.212-2.87 2.987-2.774 7.735.212 10.604 7.368 7.079 15.132 13.603 23.23 19.566-11.194 3.908-21.196 10.55-29.324 19.57-2.945 3.268-5.594 6.828-7.871 10.58-9.017 14.852-11.656 31.987-8.656 48.151-44.012-33.23-73.061-81.295-82.003-135.909-.67-4.088-4.527-6.861-8.613-6.189-4.088.669-6.858 4.525-6.189 8.613 9.869 60.273 42.619 113.096 92.218 148.738 4.637 3.332 9.375 6.463 14.194 9.416 4.872 7.791 11.321 14.768 19.262 20.372l18.868 13.315c.044.031.088.062.133.092 15.609 10.519 32.506 18.524 50.149 23.895-9.606 1.106-19.354 1.584-29.205 1.393-116.425-2.258-210.362-98.892-209.401-215.414.308-37.406 10.431-74.137 29.275-106.224 16.877-28.737 40.388-53.273 68.321-71.386-3.473 16.711-5.069 33.838-4.751 51.027.897 48.452 16.9 94.554 46.28 133.322 2.502 3.301 7.204 3.95 10.508 1.448 3.301-2.502 3.949-7.206 1.447-10.507-2.497-3.295-4.888-6.648-7.177-10.053 1.648-5.457 3.52-10.837 5.614-16.128l71.378-4.923c4.133-.285 7.252-3.866 6.967-7.999-.286-4.133-3.899-7.246-7.998-6.966l-63.463 4.377c7.702-15.545 17.395-30.101 28.856-43.274l62.841-1.257c4.141-.083 7.431-3.507 7.348-7.648-.081-4.09-3.423-7.35-7.495-7.35-.051 0-.102 0-.153.001l-47.773.955c19.914-18.532 43.889-33.323 71.187-42.821 3.912-1.361 5.979-5.636 4.618-9.548-1.36-3.912-5.631-5.98-9.548-4.619-28.849 10.038-54.729 25.672-76.472 45.838v-37.442c0-4.142-3.357-7.5-7.5-7.5s-7.5 3.358-7.5 7.5v52.815c-10.236 11.599-19.265 24.362-26.936 38.131l-9.356-58.009c-.659-4.089-4.511-6.87-8.599-6.21-4.089.66-6.869 4.509-6.21 8.599l12.778 79.226c-.999 2.43-1.951 4.872-2.858 7.325-16.309-29.878-25.148-63.082-25.786-97.562-.166-8.911.226-17.8 1.155-26.616 32.75-22.77 72.497-36.145 115.319-36.145 48.042 0 92.222 16.824 126.982 44.876-4.24 7.896-6.653 16.913-6.653 26.486-.002 5.649.856 11.261 2.515 16.623zm98.817 26.393c5.109-4.998 9.521-10.809 13.063-17.302 13.785 8.819 22.948 24.252 22.948 41.796 0 10.813-3.494 20.815-9.393 28.971-5.974-19.127-14.97-37.213-26.618-53.465z"/></g></svg>