<svg id="color_line" height="512" viewBox="0 0 64 64" width="512" xmlns="http://www.w3.org/2000/svg"><path d="m41.63 33.55 6.84 16.71c-2.64-.62-4.83-1.62-6.66-2.77l-3.21-12.22c1.11-.69 2.14-1.26 3.03-1.72z" fill="#e8daba"/><path d="m13.74 15.53 16.71 6.84c-.46.89-1.03 1.92-1.72 3.03l-12.22-3.21c-1.15-1.83-2.15-4.02-2.77-6.66z" fill="#e8daba"/><path d="m62.1 21.95c.54 3 .9 6.38.9 10.05 0 15-8 19-8 19s-4.18-10.14-10.23-18.91c-1.78-2.58-3.72-5.04-5.77-7.09s-4.51-3.99-7.09-5.77c-8.77-6.05-18.91-10.23-18.91-10.23s4-8 19-8c3.67 0 7.05.36 10.05.9 10.23 1.86 18.19 9.82 20.05 20.05z" fill="#a67c52"/><path d="m62.275 23.054c-.238 2.387-.67 4.729-1.275 6.946-2 3-5 7-8 4-11.812-9.449-23.006-24.47-37.972-27.503-1.472 1.393-2.028 2.503-2.028 2.503s10.14 4.18 18.91 10.23c2.58 1.78 5.04 3.72 7.09 5.77s3.99 4.51 5.77 7.09c6.05 8.77 10.23 18.91 10.23 18.91s8-4 8-19c0-3.234-.289-6.225-.725-8.946z" fill="#8c6239"/><path d="m44.77 32.09c6.05 8.77 10.23 18.91 10.23 18.91-2.44 0-4.61-.27-6.53-.73v-.01l-6.84-16.71c1.53-.79 2.67-1.27 3.14-1.46z" fill="#cab097"/><path d="m33.48 39.01c-3.47 2.96-6.8 6.93-8.48 11.99-2.6 7.8-8.58 10.53-12.45 11.49-2.02.5-4.16.14-5.95-.93l-.89-.53c-1.12-.68-2.06-1.62-2.74-2.74l-.53-.89c-1.07-1.79-1.43-3.93-.93-5.95.96-3.87 3.69-9.85 11.49-12.45 5.06-1.68 9.03-5.01 11.99-8.48 1.5-1.74 2.75-3.51 3.74-5.12.69-1.11 1.26-2.14 1.72-3.03.79-1.53 1.27-2.67 1.46-3.14 2.58 1.78 5.04 3.72 7.09 5.77s3.99 4.51 5.77 7.09c-.47.19-1.61.67-3.14 1.46-.89.46-1.92 1.03-3.03 1.72-1.61.99-3.38 2.24-5.12 3.74z" fill="#f8f4e8"/><path d="m44.77 32.09c-.47.19-1.61.67-3.14 1.46-.89.46-1.92 1.03-3.03 1.72-1.61.99-3.38 2.24-5.12 3.74-3.47 2.96-6.8 6.93-8.48 11.99-2.613 7.838-8.638 10.556-12.506 11.504-1.991.488-4.096.127-5.857-.922l-.927-.552c-.22-.13-.43-.28-.64-.44.16-.03.32-.06.48-.1 3.87-.96 9.85-3.69 12.45-11.49 1.68-5.06 5.01-9.03 8.48-11.99 1.74-1.5 3.51-2.75 5.12-3.74 1.11-.69 2.14-1.26 3.03-1.72.015-.008.031-.016.046-.024 1.615-.832 2.078-2.918.965-4.353-1.165-1.501-2.382-2.914-3.641-4.173-.4-.4-.83-.81-1.26-1.2.62-1.24 1-2.16 1.17-2.57 2.58 1.78 5.04 3.72 7.09 5.77s3.99 4.51 5.77 7.09z" fill="#e8daba"/><path d="m38.6 35.27 3.21 12.22c-4.53-2.86-6.84-6.71-8.33-8.48 1.74-1.5 3.51-2.75 5.12-3.74z" fill="#cab097"/><path d="m40.8 53.95c.12.66.2 1.41.2 2.23 0 3.33-1.78 4.22-1.78 4.22s-.92-2.25-2.27-4.2c-.39-.57-.82-1.12-1.28-1.58-.45-.45-1-.89-1.58-1.28-1.94-1.34-4.2-2.27-4.2-2.27s.89-1.78 4.22-1.78c.82 0 1.57.08 2.24.2 2.27.41 4.04 2.18 4.45 4.46z" fill="#a67c52"/><path d="m36.95 56.2c1.35 1.95 2.27 4.2 2.27 4.2-3.12 0-4.21-1.98-4.77-2.66 1.09-.95 2.25-1.44 2.5-1.54z" fill="#8c6239"/><path d="m34.45 57.74c-.78.65-1.51 1.54-1.89 2.66-.58 1.73-1.91 2.34-2.77 2.55-.45.11-.92.03-1.32-.21l-.2-.11c-.25-.15-.46-.36-.61-.61l-.11-.2c-.24-.4-.32-.87-.21-1.32.21-.86.82-2.19 2.55-2.77 1.13-.37 2.01-1.12 2.67-1.88.94-1.1 1.43-2.26 1.53-2.51.58.39 1.13.83 1.58 1.28.46.46.89 1.01 1.28 1.58-.25.1-1.41.59-2.5 1.54z" fill="#f8f4e8"/><path d="m34.09 53.34c-.1.25-.59 1.41-1.53 2.51-.67-.56-2.67-1.64-2.67-4.78 0 0 2.26.93 4.2 2.27z" fill="#8c6239"/><g fill="#cab097"><path d="m31.91 19.23c-.19.47-.67 1.61-1.46 3.14l-16.71-6.84h-.01c-.46-1.92-.73-4.09-.73-6.53 0 0 10.14 4.18 18.91 10.23z"/><path d="m16.51 22.19 12.22 3.21c-.99 1.61-2.24 3.38-3.74 5.12-1.77-1.49-5.62-3.8-8.48-8.33z"/><ellipse cx="42.5" cy="5.5" rx="1.5" ry="3.5" transform="matrix(.241 -.971 .971 .241 26.925 45.424)"/></g><g fill="#36103d"><path d="m42.224.919c-3.368-.61-6.808-.919-10.224-.919-15.44 0-19.72 8.204-19.895 8.553-.069.138-.105.292-.105.447 0 12.925 7.211 18.376 11.085 21.304.162.123.308.234.456.347-2.789 3.062-6.39 5.911-10.858 7.4-8.428 2.81-11.223 9.449-12.139 13.156-.562 2.273-.192 4.656 1.041 6.711l.529.881c.757 1.263 1.824 2.33 3.086 3.087l.882.529c1.428.857 3.015 1.296 4.613 1.296.701 0 1.405-.084 2.098-.256 3.708-.916 10.346-3.711 13.156-12.14 1.489-4.467 4.338-8.068 7.4-10.858.113.149.224.294.347.456 2.928 3.876 8.379 11.087 21.304 11.087.155 0 .309-.036.447-.105.349-.175 8.553-4.455 8.553-19.895 0-3.416-.309-6.856-.919-10.224-1.943-10.727-10.13-18.914-20.857-20.857zm-28.167 9.629c2.98 1.325 10.111 4.67 16.614 9.049-.171.39-.406.901-.698 1.497l-15.365-6.286c-.286-1.302-.472-2.723-.551-4.26zm3.115 10.782c-.724-1.196-1.37-2.552-1.89-4.085l13.761 5.63c-.24.435-.501.892-.785 1.367zm1.825 2.547 8.144 2.139c-.673 1.012-1.437 2.066-2.293 3.117-.179-.137-.358-.274-.557-.424-1.471-1.112-3.457-2.627-5.294-4.832zm5.054 26.807c-2.381 7.143-7.697 9.833-11.738 10.831-1.756.434-3.604.145-5.202-.814l-.882-.529c-.981-.589-1.812-1.419-2.4-2.401l-.529-.881c-.958-1.599-1.248-3.446-.814-5.203.999-4.041 3.688-9.357 10.831-11.738 11.197-3.732 17.255-15.28 19.025-19.189 2.169 1.553 4.218 3.214 5.951 4.948 1.733 1.733 3.394 3.782 4.947 5.952-3.909 1.769-15.457 7.827-19.189 19.024zm11.24-10.975c-.15-.198-.287-.378-.424-.557 1.051-.855 2.104-1.619 3.117-2.293l2.139 8.144c-2.205-1.837-3.72-3.823-4.832-5.294zm7.379 7.118-2.912-11.085c.475-.284.932-.546 1.367-.785l5.63 13.761c-1.533-.521-2.889-1.166-4.085-1.891zm6.522 2.566-6.286-15.365c.595-.293 1.106-.527 1.496-.698 4.378 6.502 7.724 13.633 9.05 16.614-1.537-.08-2.958-.266-4.26-.551zm6.259.117c-1.726-3.955-7.931-17.403-15.744-25.217-7.813-7.813-21.261-14.018-25.216-15.744 1.519-1.989 6.228-6.549 17.509-6.549 3.297 0 6.617.298 9.868.887 9.898 1.793 17.453 9.347 19.246 19.246.588 3.25.886 6.57.886 9.867 0 11.286-4.563 15.994-6.549 17.51z"/><path d="m26.37 60.258c-.175.707-.061 1.445.32 2.079l.117.194c.232.389.562.718.954.954l.195.117c.44.264.93.399 1.424.399.218 0 .438-.026.653-.08.979-.241 2.732-.979 3.475-3.206.188-.563.493-1.056.849-1.483.809.945 2.228 2.167 4.866 2.167.155 0 .309-.036.447-.105.095-.048 2.33-1.21 2.33-5.116 0-.804-.073-1.615-.217-2.41-.49-2.706-2.555-4.77-5.26-5.26-.794-.144-1.605-.217-2.41-.217-3.906 0-5.068 2.235-5.115 2.331-.069.139-.105.292-.105.447 0 2.639 1.222 4.058 2.167 4.867-.427.356-.92.661-1.483.848-2.226.742-2.965 2.495-3.207 3.474zm9.487-2.345c.265-.176.514-.321.733-.438.35.565.662 1.132.92 1.634-.768-.29-1.275-.752-1.653-1.196zm-1.744-7.622c.686 0 1.376.062 2.054.185 1.876.34 3.309 1.772 3.648 3.649.123.677.185 1.368.185 2.053 0 1.148-.236 1.919-.5 2.433-.666-1.346-1.79-3.36-3.125-4.695s-3.348-2.459-4.694-3.125c.516-.265 1.286-.5 2.432-.5zm-1.296 3.41c-.117.219-.262.468-.438.734-.444-.378-.906-.885-1.196-1.654.502.258 1.068.57 1.634.92zm1.64 1.171c.178.15.349.302.505.458s.308.328.458.505c-1.254.71-3.084 2.071-3.81 4.247-.417 1.251-1.348 1.722-2.057 1.897-.188.046-.391.013-.569-.093l-.194-.116c-.11-.066-.202-.158-.268-.268l-.117-.196c-.105-.174-.139-.381-.093-.568.175-.708.646-1.64 1.897-2.057 2.18-.726 3.539-2.555 4.248-3.809z"/><path d="m58.276 39.041c-.528-.155-1.086.145-1.243.675-.284.96-.612 1.95-.973 2.942-.188.519.079 1.093.598 1.282.113.041.228.06.342.06.408 0 .792-.252.94-.659.375-1.03.715-2.059 1.011-3.058.157-.528-.145-1.085-.675-1.242z"/><path d="m58.638 26.072c-.511.2-.765.778-.569 1.292.01.027 1.008 2.745-.077 8.449-.103.542.253 1.066.795 1.169.063.013.126.018.188.018.471 0 .89-.333.981-.813 1.209-6.358.023-9.431-.028-9.559-.203-.509-.779-.754-1.29-.556z"/><path d="m36.293 30.293-5 5c-.391.391-.391 1.023 0 1.414.195.195.451.293.707.293s.512-.098.707-.293l5-5c.391-.391.391-1.023 0-1.414s-1.023-.391-1.414 0z"/><path d="m31.707 29.707 3-3c.391-.391.391-1.023 0-1.414s-1.023-.391-1.414 0l-3 3c-.391.391-.391 1.023 0 1.414.195.195.451.293.707.293s.512-.098.707-.293z"/><path d="m28.293 32.293-4 4c-.391.391-.391 1.023 0 1.414.195.195.451.293.707.293s.512-.098.707-.293l4-4c.391-.391.391-1.023 0-1.414s-1.023-.391-1.414 0z"/><path d="m9.527 48.26-2.2 2c-.409.371-.438 1.004-.067 1.413.198.217.469.327.74.327.24 0 .48-.086.672-.26l2.2-2c.409-.371.438-1.004.067-1.413-.371-.408-1.002-.439-1.412-.067z"/><path d="m18.327 40.26-6 5.455c-.409.371-.438 1.004-.067 1.413.197.217.468.327.74.327.24 0 .48-.086.672-.26l6-5.455c.409-.371.438-1.004.067-1.413-.37-.408-1.002-.439-1.412-.067z"/><path d="m24.293 41.293-4 4c-.391.391-.391 1.023 0 1.414.195.195.451.293.707.293s.512-.098.707-.293l4-4c.391-.391.391-1.023 0-1.414s-1.023-.391-1.414 0z"/></g></svg>