<svg enable-background="new 0 0 512 512" height="512" viewBox="0 0 512 512" width="512" xmlns="http://www.w3.org/2000/svg"><g id="_x32_4_Spring_onion"><g><g fill="#a1d51c"><path d="m476.684 55.323-137.708 88.611 30.158 30.158 133.736-86.056c4.37-2.812 6.09-8.349 3.423-11.016l-21.856-21.856c-1.746-1.746-4.893-1.682-7.753.159z"/><path d="m435.053 54.323-88.611 137.708-30.158-30.158 86.056-133.736c2.812-4.37 8.349-6.09 11.016-3.423l21.856 21.856c1.746 1.746 1.682 4.893-.159 7.753z"/><path d="m397.811 134.196-137.708 88.611 30.158 30.158 133.737-86.055c4.37-2.812 6.09-8.349 3.423-11.016l-21.856-21.856c-1.747-1.747-4.894-1.683-7.754.158z"/></g><path d="m176.352 408.582c3.428-29.677 15.852-57.561 36.953-78.662l14.375-14.375-30.158-30.158-13.331 13.331c-21.106 21.106-48.678 35.023-78.425 37.862-15.847 1.512-31.231 8.868-42.663 22.068-20.847 24.072-20.753 60.507.227 84.583 24.917 28.596 68.289 29.775 94.576 3.488 10.687-10.687 16.835-24.196 18.446-38.137z" fill="#eef0ee"/><g><path d="m64.752 401.37c-.119-8.56 2.072-16.959 6.337-24.289.897-1.547 2.885-2.072 4.432-1.17 1.547.899 2.072 2.885 1.17 4.432-3.672 6.311-5.559 13.55-5.455 20.935.031 2.176-1.616 3.282-3.258 3.281-1.601 0-3.196-1.052-3.226-3.189z" fill="#fff"/></g><g><path d="m81.911 368.389c-1.122-1.396-.902-3.434.494-4.556 2.444-1.968 5.02-3.665 7.651-5.048 1.583-.831 3.543-.225 4.376 1.363.833 1.585.223 3.546-1.363 4.376-2.262 1.188-4.483 2.654-6.603 4.359-1.388 1.124-3.439.902-4.555-.494z" fill="#fff"/></g><path d="m197.522 285.387 30.158 30.158 62.581-62.581 88.611-137.708c1.84-2.86 1.905-6.007.159-7.753l-21.856-21.856c-2.667-2.667-8.204-.947-11.016 3.423l-86.055 133.737z" fill="#a1d51c"/><g><path d="m508.586 74.728-21.857-21.856c-2.857-2.863-7.606-2.975-11.8-.274v-.001l-59.579 38.337 22.43-34.857c.003 0 .003 0 .003-.001 2.697-4.197 2.586-8.939-.279-11.797l-21.855-21.856c-4.424-4.43-12.305-1.839-16.034 3.96l-38.025 59.096-2.123-2.123c-4.457-4.464-12.343-1.776-16.034 3.96l-85.867 133.444c-25.667 25.666-60.66 60.658-75.667 75.665-21.123 21.125-48.271 34.239-76.442 36.927-17.389 1.661-33.302 9.893-44.806 23.174-16.365 18.896-20.447 44.954-12.304 67.487l-7.597 7.597c-9.361 9.361-22.706 13.423-35.693 10.848-1.77-.334-3.46.795-3.809 2.553-.347 1.755.795 3.462 2.553 3.809 14.833 2.929 30.441-1.53 41.534-12.625l5.737-5.737c3.021 6.247 6.609 11.392 10.941 16.133l-28.316 28.316c-1.266 1.266-1.266 3.318 0 4.584 1.267 1.267 3.318 1.266 4.584 0l28.315-28.315c4.888 4.451 10.308 8.126 16.136 10.941l-5.739 5.739c-10.896 10.893-15.614 26.418-12.623 41.534.339 1.704 1.99 2.897 3.812 2.55 1.755-.35 2.897-2.054 2.55-3.812-2.573-12.985 1.482-26.327 10.845-35.688l7.61-7.61c24.574 8.838 52.38 2.812 71.01-15.818 10.908-10.908 17.61-24.76 19.378-40.06 3.477-30.114 15.933-56.651 36.022-76.741 14.939-14.939 50.735-50.735 76.707-76.707l133.446-85.871c5.7-3.665 8.431-11.564 3.964-16.034l-8.905-8.904 83.817-53.934c5.695-3.666 8.432-11.561 3.96-16.033zm-103.521-44.838c1.998-3.104 5.215-3.66 6-2.883l21.857 21.858c.522.523.446 2.088-.595 3.705l.003-.001-61.021 94.83-15.814 10.179 26.106-40.57c2.695-4.194 2.586-8.934-.276-11.797l-15.044-15.043zm-142.67 195.209c.452-.449-3.405 5.383 86.486-134.274 2.036-3.161 5.25-3.637 6-2.885l21.857 21.856c.522.524.446 2.091-.593 3.707l-88.424 137.416-60.043 60.042c-8.945-8.944-16.63-16.629-25.575-25.573zm-51.383 102.529c-21.135 21.135-34.234 48.997-37.881 80.58-1.596 13.831-7.656 26.355-17.519 36.22-23.816 23.816-62.56 23.969-86.636.09-23.345-23.153-24.041-59.941-3.421-83.747 10.407-12.018 24.798-19.461 40.521-20.966 29.665-2.829 58.222-16.607 80.408-38.796l11.037-11.037c8.945 8.944 16.63 16.629 25.575 25.573zm211.229-163.446-121.17 77.97 45.951-71.409 52.544-33.821c1.618-1.041 3.184-1.117 3.705-.593l21.857 21.856c.789.788.181 4.026-2.887 5.997zm78.873-78.873-84.999 54.695-8.26-8.259c-2.859-2.862-7.601-2.973-11.8-.275l-11.59 7.46 22.416-34.835 71.558-46.045s0 0 0-.001c1.618-1.042 3.181-1.116 3.705-.593l21.857 21.856c.792.792.157 4.039-2.887 5.997z"/><path d="m396.38 10.67c3.475-2.248 7.357-3.648 11.235-4.052 6.737-.723 13.249 1.516 17.866 6.13l10.627 10.627c1.267 1.267 3.318 1.266 4.584 0s1.266-3.318 0-4.584l-10.627-10.628c-6.01-6.009-14.454-8.924-23.129-7.993-4.88.508-9.748 2.255-14.077 5.054-1.504.973-1.935 2.98-.962 4.483.973 1.505 2.979 1.938 4.483.963z"/><path d="m371.522 38.755c1.51.969 3.516.531 4.48-.973l7.114-11.058c.97-1.506.534-3.512-.97-4.48-1.512-.97-3.515-.533-4.48.973l-7.114 11.058c-.97 1.505-.535 3.511.97 4.48z"/><path d="m193.091 427.827c-1.672-.628-3.543.225-4.169 1.905-1.175 3.148-2.553 6.223-4.212 9.399-.831 1.588-.215 3.546 1.37 4.374 1.579.827 3.543.222 4.374-1.37 1.788-3.417 3.272-6.734 4.541-10.138.626-1.678-.225-3.545-1.904-4.17z"/><path d="m174.676 453.921c-10.659 12.508-24.465 21.193-39.373 25.53-1.717.499-2.707 2.3-2.206 4.019.505 1.73 2.315 2.703 4.019 2.206 16.076-4.677 30.97-14.035 42.493-27.546 1.163-1.363.998-3.409-.362-4.572-1.362-1.157-3.409-.992-4.571.363z"/></g></g></g></svg>