<svg id="Capa_1" enable-background="new 0 0 512 512" height="512" viewBox="0 0 512 512" width="512" xmlns="http://www.w3.org/2000/svg"><g><g><g><path d="m183.398 85.848c-6.384 5.4-10.201 13.654-9.599 22.556 8.223-5.883 17.528-9.234 26.649-9.853 8.927-.86 18.454.854 27.377 5.132-1.019-9.513-6.925-17.435-15-21.435-1.551-.768-2.557-2.324-2.699-4.049l-4.936-60.141c-.196-2.394-2.976-3.608-4.866-2.125l-18 14.123c-.797.625-1.227 1.609-1.144 2.619l4.02 48.973c.131 1.611-.567 3.155-1.802 4.2z" fill="#0ed290"/><path d="m388.363 383.22c-69.736-23.727-124.574-99.375-132.261-193.016-.742-9.046-1.575-24.748-1.585-35.617-9.429.717-19.478-1.403-28.743-6.373-.834-.447-1.811.228-1.733 1.17.001.008.001.016.002.023 1.414 17.223-4.659 33.049-15.109 43.184-.41.398-1.054.45-1.523.125-11.963-8.296-20.535-22.919-21.949-40.142-.001-.008-.001-.016-.002-.023-.077-.943-1.151-1.449-1.9-.872-8.542 6.578-18.387 10.339-28.037 11.039.01 12.034.658 26.098 1.44 35.624 9.723 118.461 94.899 208.148 190.246 200.322 14.431-1.185 28.264-4.545 41.321-9.793 2.592-1.044 2.479-4.751-.167-5.651z" fill="#fb2b3a"/><path d="m190.554 198.341c-.652-7.94-1.211-19.035-1.385-29.477-1.94-5.048-3.234-10.518-3.708-16.29-.001-.008-.001-.016-.002-.023-.077-.943-1.151-1.449-1.9-.872-8.542 6.578-18.387 10.339-28.037 11.039.01 12.034.658 26.098 1.44 35.624 9.723 118.461 94.899 208.148 190.246 200.322 1.768-.145 3.527-.325 5.277-.535-83.356-9.937-153.183-93.209-161.931-199.788z" fill="#e41f2d"/></g><g><path d="m151.576 162.834c10.878.163 22.272-3.678 31.983-11.156.75-.577 1.824-.071 1.9.872.001.008.001.016.002.023 1.414 17.223 9.986 31.847 21.949 40.142.469.325 1.113.273 1.523-.125 10.45-10.135 16.523-25.961 15.109-43.184-.001-.008-.001-.016-.002-.023-.078-.943.899-1.618 1.733-1.17 10.8 5.794 22.669 7.727 33.374 5.792.564-.102.985-.598.993-1.171.218-14.476-6.641-29.873-19.746-40.99-11.98-10.163-26.635-14.575-39.947-13.293-13.343.906-27.082 7.648-37.245 19.629-11.117 13.105-15.374 29.415-12.798 43.662.103.563.599.984 1.172.992z" fill="#00c285"/></g><g><g><path d="m188.53 126.214c10.163-11.98 23.902-18.723 37.245-19.628 2.347-.226 4.736-.265 7.144-.137-10.313-6.294-21.82-8.924-32.471-7.898-13.343.906-27.082 7.648-37.245 19.629-11.117 13.105-15.374 29.415-12.798 43.662.102.564.598.985 1.171.993 7.898.119 16.066-1.885 23.666-5.848 1.006-10.618 5.42-21.497 13.288-30.773z" fill="#07b27b"/></g></g></g><g><path d="m366.181 130.92c8.697-.154 17.766 2.154 26.115 6.821-.403-9.121-5.379-17.146-12.712-21.769-1.464-.923-1.057-2.574-1.021-4.304v-60.33c.05-2.401-2.591-3.894-4.623-2.613l-19.352 12.205c-.857.54-1.385 1.475-1.406 2.488v49.127c-.033 1.617-1.903 3.081-3.239 3.994-7.202 4.922-11.955 13.215-11.886 22.612 8.865-5.546 18.703-8.331 28.124-8.231z" fill="#0ed290"/><path d="m503.02 346.32c-49.106-29.289-82.903-87.308-89.97-155.388-8.633-.507-17.484-3.368-25.509-8.52-.796-.511-1.823.085-1.819 1.031v.023c.061 17.281-7.232 32.583-18.443 41.869-.44.364-1.086.367-1.528.005-11.277-9.207-18.678-24.456-18.739-41.737 0-.008 0-.016 0-.023-.003-.946-1.034-1.535-1.826-1.018-9.114 5.943-19.325 8.919-29.082 8.804 13.39 85.144 69.128 151.924 143.447 161.485 14.362 1.848 28.591 1.442 42.455-.971 2.753-.479 3.414-4.128 1.014-5.56z" fill="#fb2b3a"/><g><g><path d="m493.051 352.851c-70.427-9.06-124.165-69.504-140.997-148.263-2.59-6.492-4.012-13.636-4.038-20.989-.003-1.133-.83-2.076-1.923-2.217-.506-.065-1.023.055-1.457.338-8.874 5.787-18.941 8.791-28.695 8.636 13.106 85.626 68.996 152.896 143.61 162.495 11.71 1.506 23.328 1.491 34.735.135-.411-.049-.822-.082-1.235-.135z" fill="#e41f2d"/></g></g><g><path d="m312.427 191.181c10.832 1.014 22.492-1.924 32.758-8.619.792-.517 1.824.072 1.826 1.018v.023c.061 17.281 7.462 32.53 18.739 41.737.442.361 1.088.359 1.528-.005 11.211-9.286 18.504-24.588 18.443-41.869 0-.008 0-.016 0-.023-.004-.946 1.023-1.542 1.819-1.031 10.314 6.622 21.994 9.477 32.819 8.386.571-.058 1.029-.519 1.082-1.09 1.351-14.414-4.282-30.302-16.477-42.41-11.148-11.069-25.412-16.615-38.784-16.379-13.373-.142-27.597 5.505-38.667 16.653-12.109 12.195-17.629 28.122-16.176 42.526.058.571.519 1.029 1.09 1.083z" fill="#00c285"/></g><g><g><path d="m344.4 155.624c11.069-11.148 25.294-16.794 38.667-16.653 4.671-.083 9.45.557 14.169 1.874-9.624-6.75-20.609-10.11-31.055-9.925-13.373-.142-27.597 5.505-38.667 16.653-12.109 12.195-17.629 28.122-16.176 42.526.058.571.519 1.029 1.09 1.082 5.13.48 10.445.063 15.71-1.208.921-12.034 6.41-24.427 16.262-34.349z" fill="#07b27b"/></g></g></g><g><g><path d="m31.313 259.035c-3.669 7.514-3.838 16.606.298 24.512 5.157-8.697 12.324-15.511 20.424-19.751 7.825-4.382 17.235-6.65 27.126-6.328-4.764-8.297-13.36-13.169-22.362-13.578-1.729-.079-3.277-1.097-4.101-2.619l-28.74-53.06c-1.144-2.112-4.177-2.104-5.31.014l-10.788 20.176c-.478.893-.475 1.967.008 2.858l23.402 43.206c.77 1.422.753 3.117.043 4.57z" fill="#0ed290"/><path d="m338.683 448.678c-73.387 6.368-154.047-40.789-198.795-123.405-4.323-7.981-11.409-22.018-15.795-31.962-8.342 4.454-18.393 6.561-28.876 5.742-.943-.074-1.566.938-1.114 1.769.004.007.007.014.011.021 8.23 15.195 9.045 32.126 3.562 45.612-.215.529-.783.837-1.344.728-14.291-2.775-28.026-12.708-36.257-27.903-.004-.007-.007-.014-.011-.021-.45-.832-1.637-.863-2.091-.033-5.169 9.461-12.665 16.868-21.216 21.395 4.856 11.012 11.11 23.622 15.664 32.028 56.609 104.513 170.692 152.301 254.812 106.739 12.732-6.896 24.04-15.543 33.878-25.605 1.954-1.999.357-5.347-2.428-5.105z" fill="#fb2b3a"/><path d="m340.299 448.984c-2.617 1.649-5.287 3.236-8.037 4.726-84.12 45.563-198.203-2.226-254.812-106.739-2.15-3.97-4.682-8.886-7.266-14.121-3.872-3.873-7.313-8.41-10.109-13.571-.004-.007-.007-.014-.011-.021-.45-.832-1.637-.863-2.091-.033-5.169 9.461-12.665 16.868-21.216 21.395 4.856 11.012 11.11 23.622 15.664 32.028 56.609 104.514 170.692 152.302 254.812 106.74 12.732-6.896 24.04-15.543 33.878-25.605 1.53-1.566.878-3.95-.812-4.799z" fill="#e41f2d"/></g><g><path d="m33.192 342.318c10.023-4.231 18.905-12.337 24.782-23.092.454-.83 1.641-.799 2.091.033.004.007.007.014.011.021 8.23 15.195 21.966 25.128 36.257 27.903.561.109 1.129-.199 1.344-.728 5.483-13.486 4.669-30.417-3.562-45.612-.004-.007-.007-.014-.011-.021-.451-.831.171-1.843 1.114-1.769 12.219.954 23.861-2.057 32.881-8.14.476-.321.661-.944.438-1.472-5.63-13.338-18.11-24.669-34.582-29.567-15.059-4.477-30.249-2.614-41.918 3.921-11.848 6.203-21.708 17.907-26.186 32.966-4.898 16.473-2.225 33.116 5.87 45.118.319.477.942.662 1.471.439z" fill="#00c285"/></g><g><g><path d="m46.458 296.762c4.477-15.059 14.337-26.763 26.186-32.966 4.556-2.552 9.653-4.379 15.066-5.407-12.948-2.375-25.619-.224-35.674 5.407-11.848 6.203-21.708 17.907-26.186 32.966-4.898 16.473-2.225 33.116 5.87 45.118.321.476.944.661 1.472.438 5.194-2.193 10.077-5.434 14.399-9.538-4.179-10.663-4.888-23.386-1.133-36.018z" fill="#07b27b"/></g></g></g><g><path d="m390.778 376.12c-23.501-7.997-45.993-22.639-65.044-42.346-19.171-19.832-35.011-44.945-45.809-72.626-1.505-3.858-5.853-5.766-9.713-4.262-3.859 1.505-5.767 5.854-4.262 9.713 11.514 29.518 28.457 56.351 48.999 77.6 17.588 18.194 37.955 32.442 59.475 41.688-9.083 2.75-18.402 4.527-27.83 5.3-43.801 3.6-86.841-14.336-121.179-50.493-34.759-36.6-56.415-87.374-60.978-142.967-.664-8.087-1.181-18.663-1.353-28.502 5.66-1.155 11.23-3.189 16.496-6.041 3.511 14.712 11.923 27.626 23.554 35.692 1.496 1.039 3.229 1.548 4.955 1.548 2.203 0 4.395-.831 6.066-2.45 10.162-9.856 16.355-23.969 17.421-39.057 5.101 1.761 10.337 2.825 15.547 3.177.258 10.173.932 21.741 1.504 28.722 1.144 13.934 3.354 27.831 6.57 41.306.961 4.029 5.004 6.511 9.036 5.555 4.029-.962 6.516-5.007 5.554-9.036-3.039-12.736-5.128-25.875-6.209-39.051-.591-7.2-1.249-18.868-1.479-28.667 3.238-1.267 5.488-4.395 5.542-7.976.259-17.205-8.113-34.708-22.394-46.823-3.35-2.842-6.935-5.309-10.676-7.39-2.233-9.473-8.439-17.745-17.081-22.508l-4.825-58.78c-.317-3.862-2.72-7.225-6.271-8.776s-7.651-1.029-10.699 1.363l-18.002 14.124c-2.786 2.187-4.277 5.6-3.988 9.132l3.912 47.656c-6.795 6.181-10.795 14.77-11.31 23.756-3.162 2.564-6.124 5.446-8.823 8.627-12.114 14.282-17.52 32.916-14.458 49.848.527 2.913 2.486 5.273 5.071 6.414.18 10.195.711 21.066 1.392 29.365 4.842 58.992 27.944 112.998 65.05 152.07 34.341 36.16 76.888 55.621 120.973 55.619 4.09 0 8.2-.167 12.311-.505 14.887-1.222 29.524-4.69 43.505-10.309 4.119-1.656 6.702-5.593 6.582-10.032-.123-4.447-2.921-8.246-7.132-9.678zm-202.537-284.546c3.102-2.624 4.759-6.564 4.433-10.541l-3.823-46.566 9.545-7.489 4.254 51.835c.357 4.351 2.98 8.242 6.846 10.156 1.378.683 2.643 1.533 3.804 2.494-4.483-.657-9.002-.81-13.465-.388-4.701.328-9.36 1.286-13.883 2.79.695-.81 1.451-1.582 2.289-2.291zm-19.319 31.457c8.479-9.996 20.155-16.191 32.034-16.997.071-.005.141-.011.211-.018 11.851-1.14 24.38 3.067 34.376 11.546 9.334 7.918 15.363 18.695 16.781 29.647-7.665.266-15.645-1.656-23.004-5.604-2.8-1.503-6.191-1.354-8.85.389-2.672 1.752-4.167 4.821-3.903 8.009 0 .007.001.015.001.022 1.007 12.29-2.381 24.26-9.181 33.062-8.146-7.578-13.442-18.837-14.45-31.127-.001-.008-.001-.016-.002-.024-.261-3.186-2.236-5.967-5.156-7.259-2.906-1.287-6.276-.882-8.795 1.058-6.618 5.096-14.189 8.299-21.783 9.281-.387-11.035 3.804-22.651 11.721-31.985z"/><path d="m506.862 339.879c-45.37-27.061-76.849-79.592-85.366-141.674 3.946-.577 7.037-3.792 7.413-7.796 1.605-17.131-5.371-35.236-18.66-48.432-3.364-3.34-7.038-6.256-10.919-8.745-1.474-8.628-6.215-16.523-13.267-21.884v-9.383c0-4.142-3.358-7.5-7.5-7.5s-7.5 3.358-7.5 7.5v9.613c-.005.18-.017.359-.027.535-.101 1.751-.409 7.08 4.548 10.205 1.086.685 2.09 1.47 3.007 2.335-4.108-.864-8.277-1.292-12.436-1.232-.156-.001-.311-.002-.468-.002-4.91 0-9.827.668-14.632 1.95.934-.965 1.971-1.852 3.119-2.636 1.58-1.08 6.389-4.364 6.507-10.031.001-.052.001-.104.001-.156v-46.593l10.381-6.547v7.557c0 4.142 3.358 7.5 7.5 7.5s7.5-3.358 7.5-7.5v-15.57c.043-3.836-1.996-7.382-5.341-9.272-3.373-1.906-7.504-1.807-10.783.26l-19.354 12.207c-2.996 1.891-4.828 5.133-4.901 8.675-.001.052-.001.104-.001.155v46.948c-8.361 5.727-13.727 14.787-14.886 24.633-3.032 2.161-5.921 4.587-8.605 7.29-13.196 13.29-20.043 31.444-18.317 48.558.342 3.411 2.653 6.236 5.775 7.34 7.424 41.278 24.413 78.104 49.369 106.845 27.144 31.262 61.577 50.37 99.577 55.259 6.283.809 12.605 1.212 18.937 1.212 8.598 0 17.212-.745 25.761-2.232 4.373-.761 7.721-4.074 8.527-8.44.807-4.376-1.139-8.674-4.959-10.952zm-174.026-187.022c9.236-9.301 21.38-14.554 33.265-14.438.072.001.142 0 .212 0 11.905-.224 24.065 4.966 33.367 14.202 8.686 8.625 13.853 19.84 14.409 30.869-7.649-.331-15.467-2.876-22.495-7.388-2.674-1.717-6.066-1.836-8.853-.306-2.801 1.538-4.533 4.479-4.52 7.698.044 12.331-4.271 24-11.741 32.246-7.528-8.192-11.926-19.827-11.969-32.136 0-.045 0-.093-.001-.142-.043-3.161-1.788-6.046-4.571-7.549-2.798-1.51-6.189-1.369-8.851.367-6.997 4.562-14.795 7.163-22.442 7.548.479-11.033 5.566-22.285 14.19-30.971zm127.673 192.556c-34.292-4.412-65.471-21.776-90.165-50.216-22.636-26.07-38.235-59.442-45.423-96.954 5.221-.788 10.408-2.305 15.396-4.52 2.349 14.941 9.724 28.475 20.689 37.427 1.599 1.306 3.552 1.958 5.506 1.958 1.974 0 3.946-.666 5.551-1.996 10.9-9.028 18.178-22.607 20.423-37.575 4.482 1.953 9.12 3.344 13.794 4.154 7.998 62.894 38.252 117.097 82.536 148.336-9.45.796-18.931.592-28.307-.614z"/><path d="m338.035 441.206c-28.118 2.439-58.056-3.429-86.574-16.975-3.741-1.775-8.216-.185-9.992 3.557-1.777 3.742-.185 8.215 3.557 9.993 26.821 12.739 54.875 19.188 81.969 18.957-7.205 6.173-15.017 11.55-23.333 16.055-80.35 43.521-190.096-3.007-244.646-103.716-3.866-7.139-8.597-16.611-12.716-25.548 4.715-3.336 8.994-7.439 12.665-12.168 9.139 12.052 22.04 20.485 35.938 23.184.553.107 1.105.159 1.652.159 3.483 0 6.721-2.106 8.068-5.425 5.333-13.114 5.317-28.526.216-42.766 5.379-.443 10.594-1.593 15.505-3.369 4.333 9.21 9.61 19.534 12.95 25.7 19.948 36.829 47.721 68.201 80.316 90.723 3.409 2.355 8.08 1.501 10.434-1.907s1.501-8.08-1.907-10.434c-30.664-21.188-56.825-50.762-75.654-85.526-3.441-6.353-8.742-16.768-12.899-25.644 2.454-2.464 3.254-6.233 1.861-9.532-6.691-15.851-21.403-28.501-39.355-33.839-4.211-1.252-8.485-2.066-12.748-2.465-5.859-7.771-14.872-12.843-24.699-13.722l-28.089-51.86c-1.841-3.399-5.382-5.507-9.246-5.507-.01 0-.02 0-.029 0-3.875.011-7.417 2.14-9.244 5.557l-10.788 20.175c-1.671 3.125-1.662 6.85.026 9.968l22.773 42.045c-3.73 8.395-3.933 17.867-.785 26.299-1.861 3.62-3.411 7.45-4.6 11.449-5.338 17.952-2.78 37.186 6.841 51.45 1.656 2.454 4.399 3.824 7.224 3.828 4.271 9.259 9.135 18.996 13.101 26.318 28.19 52.046 71.086 92.175 120.786 112.994 23.89 10.007 47.984 14.999 71.288 14.998 25.728-.001 50.489-6.088 72.905-18.229 13.135-7.114 25.136-16.184 35.669-26.957 3.103-3.174 3.882-7.819 1.984-11.833-1.902-4.023-6.002-6.382-10.424-5.987zm-218.92-153.764c-6.896 3.328-14.985 4.783-23.313 4.135-3.17-.255-6.214 1.255-7.945 3.922-1.725 2.658-1.869 6.034-.383 8.831.015.029.03.057.045.086 5.873 10.842 7.593 23.164 4.913 33.964-10.508-3.656-19.889-11.828-25.762-22.672-.006-.011-.011-.021-.017-.032-1.523-2.804-4.448-4.55-7.636-4.557-.007 0-.013 0-.02 0-3.171 0-6.083 1.727-7.604 4.511-4.005 7.33-9.645 13.311-16.201 17.268-4.798-9.946-5.641-22.266-2.152-33.999 3.735-12.564 11.927-22.937 22.475-28.458.062-.033.125-.066.187-.101 10.386-5.817 23.549-7.011 36.115-3.276 11.731 3.488 21.589 10.923 27.298 20.378zm-103.503-77.633 5.72-10.699 24.771 45.732c2.079 3.838 6.046 6.344 10.355 6.54 1.537.07 3.036.339 4.486.751-4.368 1.204-8.565 2.885-12.481 5.068-4.17 2.194-8.05 4.946-11.584 8.144.311-1.022.692-2.033 1.173-3.02 1.782-3.65 1.712-7.924-.188-11.433z"/></g></g></svg>