<svg height="512" viewBox="-68 0 512 512.003" width="512" xmlns="http://www.w3.org/2000/svg"><path d="M239.969 95.313c0 28.722-23.29 52.007-52.012 52.007-28.723 0-52.012-23.285-52.012-52.007 0-28.727 52.012-87.813 52.012-87.813s52.012 59.086 52.012 87.813zm0 0" fill="#80bf95"/><path d="M187.957 7.5s-5.324 6.05-12.566 15.215c15.394 19.484 39.449 53.058 39.449 72.597 0 24.391-16.793 44.852-39.45 50.473a52.248 52.248 0 0 0 12.567 1.535c28.723 0 52.008-23.285 52.008-52.007 0-28.727-52.008-87.813-52.008-87.813zm0 0" fill="#69b482"/><path d="M184.59 131.75c0 28.727-23.285 52.012-52.012 52.012-28.723 0-52.008-23.285-52.008-52.012 0-28.723 52.008-87.809 52.008-87.809s52.012 59.086 52.012 87.809zM295.344 131.75c0 28.727-23.285 52.012-52.008 52.012-28.727 0-52.012-23.285-52.012-52.012 0-28.723 52.012-87.809 52.012-87.809s52.008 59.086 52.008 87.809zm0 0" fill="#54a770"/><path d="M181.734 198.21c0 33.954-27.523 61.477-61.476 61.477s-61.48-27.523-61.48-61.476 61.48-103.793 61.48-103.793 61.476 69.84 61.476 103.793zM317.137 198.21c0 33.954-27.524 61.477-61.477 61.477s-61.48-27.523-61.48-61.476 61.476-103.793 61.476-103.793 61.48 69.84 61.48 103.793zm0 0" fill="#80bf95"/><path d="M254.031 175.277c0 36.493-29.582 66.075-66.074 66.075s-66.074-29.582-66.074-66.075c0-36.492 66.074-111.554 66.074-111.554s66.074 75.062 66.074 111.554zm0 0" fill="#54a770"/><path d="M187.957 63.723s-4.86 5.52-11.937 14.285c19.035 23.578 54.14 70.668 54.14 97.27 0 32.413-23.347 59.359-54.14 64.98a66.418 66.418 0 0 0 11.937 1.094c36.492 0 66.074-29.582 66.074-66.075 0-36.492-66.074-111.554-66.074-111.554zm0 0" fill="#489160"/><path d="M170.816 207.195c14.313 33.57-1.3 72.383-34.87 86.692-33.571 14.308-72.383-1.301-86.692-34.871s17.039-128.532 17.039-128.532 90.215 43.145 104.523 76.711zm0 0" fill="#54a770"/><path d="M170.816 207.195c-4.086-9.582-14.359-19.949-26.957-29.867-19.425 25.192-45.847 63.688-45.847 86.762a65.75 65.75 0 0 0 10.078 35.058 65.755 65.755 0 0 0 27.855-5.261c33.57-14.309 49.184-53.121 34.871-86.692zm0 0" fill="#489160"/><path d="M205.094 207.195c-14.309 33.57 1.304 72.383 34.875 86.692 33.566 14.308 72.383-1.301 86.691-34.871s-17.039-128.532-17.039-128.532-90.215 43.145-104.527 76.711zm0 0" fill="#54a770"/><path d="M309.621 130.484s-7.617 3.645-18.766 9.633c7.473 24.985 25.575 91.856 14.047 118.899-9.18 21.53-28.441 35.656-49.93 39.257 29.415 4.946 59.477-10.605 71.688-39.257 14.309-33.57-17.039-128.532-17.039-128.532zm0 0" fill="#489160"/><path d="M254.031 274.555c0 36.492-29.582 66.074-66.074 66.074s-66.074-29.582-66.074-66.074S187.957 163 187.957 163s66.074 75.063 66.074 111.555zm0 0" fill="#80bf95"/><path d="M187.957 163s-6.805 7.73-16.039 19.426c19.555 24.77 50.035 67.34 50.035 92.129 0 30.957-21.297 56.933-50.035 64.101a66.145 66.145 0 0 0 16.039 1.973c36.492 0 66.074-29.586 66.074-66.074 0-36.493-66.074-111.555-66.074-111.555zm0 0" fill="#69b482"/><path d="M203.8 377.535h-30.21c-9.781 0-17.715-7.933-17.715-17.715v-38.656h65.64v38.656c0 9.782-7.93 17.715-17.714 17.715zm0 0" fill="#54a770"/><path d="M25.297 207.586C-6.066 252.668 5.055 314.636 50.133 346c45.082 31.363 107.05 20.246 138.418-24.836-67.434-14.195-122.43-50.996-163.254-113.578zm0 0" fill="#80bf95"/><path d="M25.297 207.586a99.44 99.44 0 0 0-11.988 23.21c40.218 57.688 93.32 91.95 157.796 105.52a100.4 100.4 0 0 1-8.171 10.247 99.185 99.185 0 0 0 25.613-25.399c-67.43-14.191-122.426-50.996-163.25-113.578zm0 0" fill="#69b482"/><path d="M350.617 207.586C381.98 252.668 370.86 314.636 325.781 346c-45.082 31.363-107.054 20.246-138.418-24.836 67.434-14.195 122.43-50.996 163.254-113.578zm0 0" fill="#80bf95"/><path d="M350.617 207.586a304.888 304.888 0 0 1-13.488 19.043c17.36 42.195 3.785 92.238-35.219 119.371-13.797 9.598-29.176 15.21-44.777 17.098 23.363 2.812 47.808-2.602 68.648-17.098 45.078-31.363 56.2-93.332 24.836-138.414zm0 0" fill="#69b482"/><path d="M175.27 377.535h25.375v126.969H175.27zm0 0" fill="#54a770"/><path d="M356.793 203.3c-1.426-2.046-3.805-3.292-6.27-3.214a7.484 7.484 0 0 0-6.168 3.402 301.635 301.635 0 0 1-7.69 11.227c-4.438-39.38-19.169-84.356-19.903-86.582-1.414-4.29-6.282-6.367-10.356-4.414-.37.176-1.8.867-4.074 1.996-4.172-25.395-36.508-67.586-53.348-86.73-3-3.41-8.293-3.372-11.261 0-.332.374-3.778 4.304-8.774 10.456-15.191-23.914-34.43-45.859-35.344-46.898-2.984-3.39-8.273-3.39-11.257 0-.914 1.039-20.153 22.984-35.344 46.898-4.996-6.152-8.445-10.082-8.774-10.457-2.984-3.39-8.277-3.394-11.261 0-5.168 5.871-48 55.309-53.336 86.739a258.774 258.774 0 0 0-4.086-2.004c-4.074-1.95-8.942.125-10.36 4.414-.73 2.226-15.46 47.203-19.898 86.582a301.797 301.797 0 0 1-7.691-11.23 7.495 7.495 0 0 0-6.168-3.4c-2.504-.062-4.844 1.169-6.27 3.216A106.892 106.892 0 0 0 .617 275.816C3.36 301.16 15.027 324.7 33.48 342.102a7.508 7.508 0 0 0 10.606-.313 7.508 7.508 0 0 0-.313-10.605C27.918 316.234 17.887 296 15.531 274.207a91.822 91.822 0 0 1 10.121-52.777c39.086 55.32 89.692 89.066 149.7 104.36-27.887 31.17-74.223 40.21-112.442 19.296a7.497 7.497 0 0 0-10.18 2.977 7.503 7.503 0 0 0 2.98 10.183c16.259 8.895 33.86 13.156 51.259 13.156a106.79 106.79 0 0 0 41.629-8.464c1.3 10.496 9.074 19.007 19.191 21.41v120.156a7.5 7.5 0 0 0 7.5 7.5h25.375c4.14 0 7.5-3.36 7.5-7.5V384.652c10.676-1.863 19.063-10.453 20.61-21.234 33 13.348 71.081 9.77 101.308-11.258 48.402-33.68 60.387-100.453 26.711-148.86zM187.977 313.349c-18.668-4.086-37.09-10.133-55.036-18.7-7.925-21.664-1.656-36.23 9.684-56.46 11.977-21.286 29.832-45.032 45.352-63.618 16.898 20.235 58.574 73.555 58.574 99.985 0 6.972-1.227 13.77-3.54 20.093-17.156 8.188-35.687 14.48-55.034 18.7zm-55.262-153.434c9.613-26.64 37.16-62.91 55.262-84.613 18.062 21.652 44.543 56.582 54.632 82.922.149.398.305.797.446 1.191.062.168.12.332.183.5-9.875 6.727-20.39 14.621-29.004 22.969a4.52 4.52 0 0 0-.199.187c-6.125-7.941-13.3-16.812-20.129-24.68-3.16-3.62-8.176-4.245-12.136.313-2.184 2.512-10.122 11.75-19.852 24.367-8.64-8.402-19.285-16.402-29.203-23.156zm-12.86-8.383c-8.367-5.238-16.59-9.996-23.89-14.043 9.285-13.074 18.594-24.62 24.312-31.488a551.569 551.569 0 0 1 13.989 17.516c-5.34 8.855-10.52 18.289-14.41 28.015zm121.829-28.015a570.265 570.265 0 0 1 13.992-17.52c5.715 6.863 15.02 18.406 24.312 31.488-7.3 4.051-15.523 8.809-23.89 14.047-3.825-9.562-9.094-19.246-14.414-28.015zm81.207 108.84c-17.606 20.804-38.145 38.769-62.106 52.859 1.285-8.84.746-14.7-.09-19.125-4.265-22.785-23.867-52.14-37.57-70.91 19.758-19.957 57.07-41.305 81.977-54.043 5.34 17.754 17.144 60.289 17.789 91.218zm-79.536-176.81c13.5 16.317 33.72 43.282 41.395 63.024-12.336-16.453-22.863-28.449-23.441-29.11-2.98-3.386-8.27-3.394-11.262 0-.363.415-7.516 8.563-16.95 20.642-4.964-7.395-10.093-14.497-14.945-20.942 7.567-11.375 16.645-23.265 25.203-33.613zM187.977 19.11c7.472 9.04 20.902 26.004 31.117 42.895a401.159 401.159 0 0 0-10.617 14.668c-5.688-7.145-11.036-13.52-14.872-17.902-2.859-3.25-8.12-3.594-11.386.14-1.125 1.285-6.95 7.973-14.746 17.762a396.608 396.608 0 0 0-10.614-14.668c10.215-16.89 23.645-33.856 31.118-42.895zm-55.38 36.438c8.587 10.387 17.618 22.215 25.204 33.61-4.852 6.448-9.98 13.55-14.946 20.945-9.433-12.079-16.585-20.227-16.949-20.641-2.988-3.39-8.277-3.39-11.261 0-.579.66-11.094 12.644-23.426 29.086 7.785-20.024 27.687-46.45 41.379-63zm-61.745 85.59c16.203 8.281 33.941 18.304 49.242 28.394 10.933 7.207 23.535 16.344 32.734 25.649-13.766 18.855-34.285 49.476-37.871 72.652-.875 5.59-.598 11.809.211 17.383-23.05-13.547-43.809-31.238-62.106-52.86.645-30.933 12.45-73.468 17.79-91.218zM193.164 497H182.79V385.035h10.375zm20.871-137.18c0 5.633-4.582 10.215-10.215 10.215h-30.21c-5.633 0-10.215-4.582-10.215-10.215v-4.558c9.18-5.715 17.437-12.797 24.578-21.102a106.722 106.722 0 0 0 26.062 21.965zm107.48-19.976c-38.464 26.758-90.417 19.984-120.925-14.051 53.07-13.527 98.953-41.664 135.601-85.902.153-.184.293-.38.43-.575a298.556 298.556 0 0 0 13.684-17.894c21.414 40.465 9.722 91.629-28.79 118.422zm0 0"/></svg>