<svg id="&#x421;&#x43B;&#x43E;&#x439;_1" height="512" viewBox="0 0 128 128" width="512" xmlns="http://www.w3.org/2000/svg"><path d="m96.1 9.91c2.84-2.85 2.85-7.54-.49-5.3-43.61 29.2-79.61 110.39-79.61 110.39s1.33 2.31 5.75 5.25c6.34 4.23 8.3 2.69 8.3 2.69s35.81-82.74 66.05-113.03z" fill="#9ccc65"/><path d="m47.34 61.62a2 2 0 0 1 -1.67-3.11 281.59 281.59 0 0 1 17.33-23.75 2 2 0 1 1 3.1 2.55 277.32 277.32 0 0 0 -17.1 23.41 2 2 0 0 1 -1.66.9z" fill="#424242"/><path d="m73.45 28a2 2 0 0 1 -1.45-3.42c1.57-1.65 3.15-3.26 4.71-4.77a2 2 0 0 1 2.79 2.89c-1.52 1.47-3.06 3-4.59 4.65a2 2 0 0 1 -1.46.65z" fill="#424242"/><path d="m71.38 45.43a2 2 0 0 1 -1.69-3.08c3-4.83 6-9.3 8.92-13.27a2 2 0 1 1 3.25 2.34c-2.82 3.91-5.77 8.31-8.78 13.07a2 2 0 0 1 -1.7.94z" fill="#424242"/><path d="m41.27 101.07a2 2 0 0 1 -1.79-2.91c6.56-12.92 20.38-39.8 25.75-49a2 2 0 0 1 3.47 2c-5.33 9.17-19.1 36-25.64 48.85a2 2 0 0 1 -1.79 1.06z" fill="#424242"/><path d="m16.82 116.81a2 2 0 0 1 -1.82-2.93c.17-.33 17.43-33.26 30.57-55.29a2 2 0 0 1 3.44 2.06c-13.01 21.92-30.24 54.76-30.41 55.09a2 2 0 0 1 -1.78 1.07z" fill="#424242"/><path d="m50.49 64.13c-1.09-.41-3.4-5.61-2.82-7.14 1.26-3.33 9.8-11.3 9.8-11.3s.79 12.42-.09 14.72c-.63 1.66-5.96 4.07-6.89 3.72z" fill="#7cb342"/><path d="m50.61 66.13a2.38 2.38 0 0 1 -.84-.13c-2.26-.85-4.9-7.31-4-9.73 1.36-3.59 8.83-10.67 10.31-12.05a2 2 0 0 1 3.37 1.34c.19 3 .74 13-.21 15.56-.8 2.16-5.97 5.01-8.63 5.01zm-1.03-8.53a11.8 11.8 0 0 0 1.65 4.4 12.4 12.4 0 0 0 4.3-2.4c.31-1 .32-5.08.16-9.41-2.75 2.81-5.5 5.94-6.11 7.41z" fill="#424242"/><path d="m86.45 15.72c-.49-.46 0-4.38.92-5.32 1.94-2 9.81-6 9.81-6s-4 8.54-5.35 10c-.97 1-4.96 1.72-5.38 1.32z" fill="#7cb342"/><path d="m87.06 17.84a2.6 2.6 0 0 1 -2-.67c-.57-.54-1.09-1.47-.66-4.24a7.81 7.81 0 0 1 1.52-3.93c2.07-2.18 9-5.71 10.36-6.39a2 2 0 0 1 2.72 2.67c-1 2.07-4.26 9-5.71 10.48a8.16 8.16 0 0 1 -3.91 1.78 10.91 10.91 0 0 1 -2.32.3zm5.53-8.64a21.28 21.28 0 0 0 -3.76 2.59 6.72 6.72 0 0 0 -.47 1.87 6.8 6.8 0 0 0 2.06-.7 27.81 27.81 0 0 0 2.17-3.76z" fill="#424242"/><path d="m80 23.68c-.76-.38-2.14-4.22-1.63-5.26 1.11-2.24 6.74-9.26 6.74-9.26s.87 10.91.1 12.46c-.5 1.12-4.51 2.38-5.21 2.06z" fill="#7cb342"/><path d="m80.36 25.74a2.45 2.45 0 0 1 -1.21-.26c-1.84-.91-3.48-6-2.53-7.95 1.17-2.37 6.38-8.89 7-9.62a2 2 0 0 1 3.54 1.09c.61 7.6.58 12.15-.1 13.51-.18.37-.75 1.51-3.69 2.57a9.15 9.15 0 0 1 -3.01.66zm-.05-6.61a8.62 8.62 0 0 0 .69 2.48 9.55 9.55 0 0 0 2.44-1 41.22 41.22 0 0 0 0-6 50.79 50.79 0 0 0 -3.13 4.52z" fill="#424242"/><path d="m77.32 29.43c-.23-.67 1-4.24 2.07-4.87 2.3-1.35 11.28-3.89 11.28-3.89s-6.37 10-8 11a4 4 0 0 1 -5.35-2.24z" fill="#7cb342"/><path d="m81.13 34a6.57 6.57 0 0 1 -2.25-.39 5.68 5.68 0 0 1 -3.46-3.54c-.61-1.76 1.21-6.23 2.95-7.25 2.45-1.42 10.82-3.82 11.76-4.07a2 2 0 0 1 2.24 3c-3 4.77-7 10.66-8.63 11.63a5.22 5.22 0 0 1 -2.61.62zm-1.81-5a1.61 1.61 0 0 0 .85.79 2.33 2.33 0 0 0 1.55.09 45.5 45.5 0 0 0 4.28-5.69 41.18 41.18 0 0 0 -5.48 2 8.58 8.58 0 0 0 -1.2 2.81z" fill="#424242"/><path d="m66.64 39.2c-.89-.39-2.63-4.81-2.08-6.07 1.18-2.73 8.62-9.06 8.62-9.06s.18 10.4-.63 12.29c-.55 1.36-5.15 3.17-5.91 2.84z" fill="#7cb342"/><path d="m66.85 41.21a2.53 2.53 0 0 1 -1-.17c-.37-.16-1.5-.65-2.67-3.86-.77-2.13-.93-3.76-.46-4.85 1.3-3 7.86-8.68 9.16-9.79a2 2 0 0 1 3.3 1.46c.06 3.26.09 11.06-.8 13.12-.82 1.93-5.09 4.09-7.53 4.09zm-.39-7.42a9.84 9.84 0 0 0 1 3.3 10.38 10.38 0 0 0 3.23-1.62 42.63 42.63 0 0 0 .45-6.91 28.88 28.88 0 0 0 -4.69 5.23z" fill="#424242"/><path d="m117.42 21.26c3.18-2.62-.13-2.44-3.75-.5-47.3 25.42-87.21 102-87.21 102s1.73 1.77 6.85 3.58c8.5 3 8.83-.23 8.83-.23s41.48-77 75.28-104.85z" fill="#9ccc65"/><g fill="#424242"><path d="m65.78 67.3a2 2 0 0 1 -1.55-3.3 288.37 288.37 0 0 1 20-22.46 2 2 0 0 1 2.84 2.83 284 284 0 0 0 -19.73 22.18 2 2 0 0 1 -1.56.75z"/><path d="m95.7 35.61a2 2 0 0 1 -1.32-3.52c1-.85 4.36-3.22 9-6.48 2.67-1.86 5.43-3.79 6.13-4.35a2 2 0 1 1 2.49 3.14c-.81.64-3.37 2.43-6.34 4.5-3.47 2.42-7.8 5.44-8.69 6.22a2 2 0 0 1 -1.27.49z"/><path d="m90 53.19a2 2 0 0 1 -1.57-3.19c3.3-4.25 6.71-8.64 10.22-12.63a2 2 0 1 1 3 2.65c-3.43 3.9-6.8 8.24-10.06 12.44a2 2 0 0 1 -1.59.73z"/><path d="m68 84.76a2 2 0 0 1 -1.69-3.08l.46-.72c5.33-8.39 6.15-9.68 12.88-19a2 2 0 0 1 3.26 2.34c-6.66 9.26-7.47 10.54-12.75 18.84l-.46.72a2 2 0 0 1 -1.7.9z"/><path d="m42.45 127.6a2 2 0 0 1 -1.65-3.14c0-.07 4.67-6.83 12.17-19.22a2 2 0 0 1 3.43 2.08c-7.57 12.5-12.25 19.34-12.3 19.41a2 2 0 0 1 -1.65.87z"/><path d="m26.46 124.73a2 2 0 0 1 -1.73-3c.13-.22 13.21-22.62 28.8-43.8a2 2 0 0 1 3.23 2.38c-15.46 21-28.43 43.21-28.56 43.44a2 2 0 0 1 -1.74.98z"/></g><path d="m50.52 105.11c-.84-1-.36-7.21 1-8.39 3-2.56 15.4-5.8 15.4-5.8s-5.74 12.43-7.79 14.2c-1.47 1.28-7.89.82-8.61-.01z" fill="#7cb342"/><path d="m55.21 107.92h-.73c-4.31-.14-5.19-1.15-5.48-1.49-.81-.94-1.08-2.84-.8-5.63.19-1.92.7-4.46 2-5.59 3.15-2.73 14.05-5.66 16.2-6.22a2 2 0 0 1 2.33 2.78c-1.39 3-6.09 13-8.3 14.88-.97.84-2.73 1.27-5.22 1.27zm-3.09-4.28c1.49.34 4.93.39 5.75-.09.78-.69 3.09-4.94 5.32-9.5-4.19 1.27-8.83 2.95-10.29 4.14-.56.81-.9 4.04-.76 5.45z" fill="#424242"/><path d="m56.63 81.2c-1.07-.53-2.91-6-2.17-7.56 1.61-3.27 11.1-10.54 11.1-10.54s-.43 12.72-1.54 15c-.8 1.62-6.48 3.55-7.39 3.1z" fill="#7cb342"/><path d="m57 83.23a2.9 2.9 0 0 1 -1.26-.23c-2.2-1.09-4.24-7.88-3.08-10.24 1.73-3.51 10-10 11.68-11.24a2 2 0 0 1 3.22 1.66c-.1 3.08-.56 13.34-1.74 15.82-.99 2-6.01 4.23-8.82 4.23zm-.7-8.78a12 12 0 0 0 1.26 4.75c1.38-.27 4.09-1.37 4.68-2 .42-1 .84-5.22 1.11-9.7-3.03 2.5-6.24 5.44-7.05 6.95z" fill="#424242"/><path d="m80.3 62c-.67-.84-.05-6 1.13-7 2.57-2 13.09-4.3 13.09-4.3s-5.23 10.2-7 11.61c-1.29 1.02-6.65.41-7.22-.31z" fill="#7cb342"/><path d="m84.51 64.85c-2.4 0-5-.57-5.77-1.59-1.46-1.83-.5-8.25 1.46-9.8 2.8-2.23 12.06-4.32 13.9-4.72a2 2 0 0 1 2.21 2.88c-1.63 3.18-5.64 10.75-7.54 12.27a7.52 7.52 0 0 1 -4.26.96zm-2.51-4.27a11.4 11.4 0 0 0 4.3.12 47.14 47.14 0 0 0 4.33-7c-3.34.89-6.73 2-7.88 2.82a10.85 10.85 0 0 0 -.75 4.06z" fill="#424242"/><path d="m110 24.47c-.45-.52.46-4.45 1.46-5.32 2.13-1.89 10.54-5.15 10.54-5.15s-4.93 8.3-6.43 9.61c-1.1.96-5.23 1.3-5.57.86z" fill="#7cb342"/><path d="m111.3 26.65a3.84 3.84 0 0 1 -2.86-.87c-1.51-1.74.26-6.93 1.67-8.15 2.32-2 9.71-4.92 11.17-5.48a2 2 0 0 1 2.44 2.9c-1.2 2-5.22 8.69-6.85 10.1-.87.77-3.45 1.5-5.57 1.5zm5.7-8.33a22.59 22.59 0 0 0 -4.24 2.34 7 7 0 0 0 -.7 1.95 7.09 7.09 0 0 0 2.26-.53 29.29 29.29 0 0 0 2.68-3.76z" fill="#424242"/><path d="m105.61 30.73c-.38-.6.41-4 1.26-4.52 1.84-1.16 8.94-1.88 8.94-1.88s-4.2 6.34-5.48 7.14c-.91.53-4.4-.23-4.72-.74z" fill="#7cb342"/><path d="m109.26 33.67a10.35 10.35 0 0 1 -1.88-.19c-2.74-.51-3.27-1.36-3.47-1.68-1-1.64.16-6.2 1.89-7.29 2.08-1.3 8-2 9.8-2.18a2 2 0 0 1 1.88 3.1c-1.66 2.5-4.65 6.83-6.08 7.73a3.66 3.66 0 0 1 -2.14.51zm-1.66-4.25a7.36 7.36 0 0 0 1.78.23 26.84 26.84 0 0 0 2.16-2.71 17.8 17.8 0 0 0 -3.43.86 6.92 6.92 0 0 0 -.5 1.62z" fill="#424242"/><path d="m99.92 37.23c-.31-.66 1.32-4.16 2.41-4.66 2.36-1.1 11.34 1 11.34 1s-4.84 6.34-9.9 6.16c-1.31 0-3.59-1.93-3.85-2.5z" fill="#7cb342"/><path d="m104 41.78h-.28c-2.12-.07-5-2.52-5.59-3.69-.18-.38-.65-1.39.7-4.12a6.57 6.57 0 0 1 2.68-3.21c2.69-1.25 9.74.22 12.65.91a2 2 0 0 1 1.13 3.17c-.58.71-5.5 6.94-11.29 6.94zm-2-5.19a6 6 0 0 0 1.86 1.18c2 .08 4.2-1.42 5.87-2.92-3-.52-5.64-.74-6.49-.49a8.11 8.11 0 0 0 -1.24 2.23z" fill="#424242"/><path d="m87.86 46.58c-.82-.35-2.31-4.72-1.77-6 1.18-2.81 8.3-9.53 8.3-9.53s-.13 10.46-.95 12.4c-.58 1.39-4.88 3.42-5.58 3.13z" fill="#7cb342"/><path d="m87.95 48.58a2.23 2.23 0 0 1 -.86-.15c-.41-.17-1.51-.63-2.53-3.9-.65-2.08-.76-3.67-.31-4.74 1.28-3 7.53-9 8.77-10.21a2 2 0 0 1 3.38 1.48c0 2.55-.2 11-1.1 13.16-.77 1.78-4.97 4.36-7.35 4.36zm.05-7.33a9.29 9.29 0 0 0 .77 3.1 9.75 9.75 0 0 0 2.87-1.76 40 40 0 0 0 .61-6.59 29.17 29.17 0 0 0 -4.25 5.25z" fill="#424242"/><path d="m36.48 6.27c0-3.7 3.05-6.75 3.77-3.12 9.34 47.34-20.1 123.49-20.1 123.49s-2.37.63-7.15-.33c-6.87-1.38-7.14-3.65-7.14-3.65s30.56-77.03 30.62-116.39z" fill="#9ccc65"/><path d="m35.82 72.29a2 2 0 0 1 -2-2.41 255.15 255.15 0 0 0 4.18-26.33 2 2 0 1 1 4 .39 258.91 258.91 0 0 1 -4.16 26.75 2 2 0 0 1 -2.02 1.6z" fill="#424242"/><path d="m39.65 38.89h-.22a2 2 0 0 1 -1.77-2.21c.43-3.88.81-7.75 1.14-11.49a2 2 0 1 1 4 .35c-.33 3.77-.71 7.67-1.14 11.58a2 2 0 0 1 -2.01 1.77z" fill="#424242"/><path d="m31.48 43.56a2 2 0 0 1 -2-2.43c.49-2.26 1.72-8 1.95-9.45a6 6 0 0 1 .1-2.19 2 2 0 0 1 4 .62c0 .3-.08.51-.09.66.21 1-.25 3.11-2 11.21a2 2 0 0 1 -1.96 1.58z" fill="#424242"/><path d="m17.42 92.92a2 2 0 0 1 -1.91-2.63c2.94-9 7.34-23.43 10.08-33.73a2 2 0 1 1 3.88 1c-2.75 10.44-7.19 24.96-10.14 33.98a2 2 0 0 1 -1.91 1.38z" fill="#424242"/><path d="m6 124.18a2 2 0 0 1 -1.86-2.75c0-.08 3.34-8.43 7.67-20.73a2 2 0 1 1 3.78 1.3c-4.35 12.38-7.69 20.79-7.72 20.87a2 2 0 0 1 -1.87 1.31z" fill="#424242"/><path d="m19.74 128a2 2 0 0 1 -1.87-2.73 392.84 392.84 0 0 0 12.49-40.22 2 2 0 0 1 3.89 1 396.92 396.92 0 0 1 -12.64 40.68 2 2 0 0 1 -1.87 1.27z" fill="#424242"/><path d="m15 104.11c1.15-.07 4.87-4.28 4.78-5.9-.2-3.51-5.89-13.56-5.89-13.56s-4.46 11.47-4.32 13.9c.1 1.76 4.43 5.61 5.43 5.56z" fill="#7cb342"/><path d="m14.91 106.11c-.55 0-1.84-.21-4.37-2.66-1.9-1.84-2.9-3.45-3-4.78-.13-2.67 3.37-11.96 4.46-14.75a2 2 0 0 1 3.62-.27c1 1.75 5.94 10.65 6.15 14.43.07 1.3-.73 3-2.39 4.94s-3.1 3-4.28 3.08h-.17zm-3.34-7.74a12.31 12.31 0 0 0 3.32 3.51 11.72 11.72 0 0 0 2.85-3.67c-.15-1.56-1.8-5.28-3.55-8.71-1.43 4.02-2.6 7.8-2.62 8.88z" fill="#424242"/><path d="m30 85.71c1 .44 5.86-1.43 6.48-2.81 1.35-3 1-13.72 1-13.72s-8.59 7.56-9.52 9.62c-.69 1.5 1.2 6.53 2.04 6.91z" fill="#7cb342"/><path d="m30.4 87.78a2.72 2.72 0 0 1 -1.23-.24c-.37-.17-1.5-.68-2.67-4.23-.78-2.37-.91-4.16-.39-5.32 1-2.22 7.35-7.94 10-10.3a2 2 0 0 1 3.33 1.44c.06 1.87.31 11.37-1.16 14.61-.51 1.14-1.92 2.19-4.17 3.11a10.18 10.18 0 0 1 -3.71.93zm-.57-8.21a11.43 11.43 0 0 0 1.17 4.12 10.84 10.84 0 0 0 3.7-1.69c.52-1.31.75-4.86.8-8.3a47.05 47.05 0 0 0 -5.7 5.87z" fill="#424242"/><path d="m29.11 65c1 0 4.22-3.41 4.2-4.77 0-2.95-4.47-11.55-4.47-11.55s-4.1 9.45-4.06 11.49c.03 1.44 3.51 4.83 4.33 4.83z" fill="#7cb342"/><path d="m29.12 67c-2.17 0-6.3-4.42-6.34-6.8s2.94-9.39 4.22-12.35a2 2 0 0 1 1.77-1.21 2 2 0 0 1 1.85 1.09c.77 1.51 4.64 9.18 4.69 12.43 0 1.18-.74 2.61-2.26 4.27-2.28 2.52-3.5 2.57-3.91 2.57zm-2.32-7a10.34 10.34 0 0 0 2.32 2.68 9.75 9.75 0 0 0 2.18-2.6 28.37 28.37 0 0 0 -2.3-6.52 41.42 41.42 0 0 0 -2.2 6.44z" fill="#424242"/><path d="m39 16.32c.62 0 2.83-2.86 2.86-4.05.03-2.58-2.51-10.27-2.51-10.27s-3 8.16-3 9.95c-.04 1.29 2.08 4.36 2.65 4.37z" fill="#7cb342"/><path d="m39 18.33h-.08c-.78 0-1.71-.36-3.16-2.63a7.23 7.23 0 0 1 -1.41-3.79c.05-2 2.4-8.59 3.12-10.58a2 2 0 0 1 3.79 0c.44 1.34 2.66 8.16 2.58 11a7.32 7.32 0 0 1 -1.6 3.61c-1.52 2.06-2.5 2.39-3.24 2.39zm.2-9.63a21.06 21.06 0 0 0 -.85 3.3 5.81 5.81 0 0 0 .73 1.45 5.56 5.56 0 0 0 .75-1.31 18.09 18.09 0 0 0 -.63-3.44z" fill="#424242"/><path d="m40 25.66c.74.25 4.14-1.35 4.48-2.36.74-2.18-.39-9.71-.39-9.71s-5.63 5.82-6.14 7.33c-.41 1.08 1.37 4.53 2.05 4.74z" fill="#7cb342"/><path d="m40.07 27.67a2.38 2.38 0 0 1 -.76-.11c-.37-.12-1.34-.45-2.57-3.09s-.86-3.81-.73-4.19c.57-1.68 4.37-5.78 6.59-8.08a2 2 0 0 1 3.4 1.1c.28 1.88 1.14 8.2.31 10.65-.56 1.73-4.11 3.72-6.24 3.72zm-.19-6.23a8.43 8.43 0 0 0 .85 2 7.9 7.9 0 0 0 1.85-1 20.42 20.42 0 0 0 0-4.3 31.05 31.05 0 0 0 -2.7 3.31z" fill="#424242"/><path d="m36 30.17c.63-.16 2.1-3.41 1.82-4.51-.63-2.37-5.23-8.66-5.23-8.66s-.83 8.27-.4 9.91c.3 1.22 3.25 3.4 3.81 3.26z" fill="#7cb342"/><path d="m35.92 32.19c-.59 0-1.54-.26-3.18-1.58a6.68 6.68 0 0 1 -2.5-3.17c-.46-1.79.09-8 .35-10.61a2 2 0 0 1 3.61-1c.81 1.1 4.86 6.7 5.54 9.31.46 1.8-1.22 6.43-3.26 7a2.09 2.09 0 0 1 -.56.05zm-1.81-5.8a6.42 6.42 0 0 0 1.24 1.2 6 6 0 0 0 .48-1.51 17.65 17.65 0 0 0 -1.68-3.17 24 24 0 0 0 -.04 3.46z" fill="#424242"/><path d="m36.57 48.47c.83.33 4.84-1.42 5.31-2.59 1-2.54.3-11.49.3-11.49s-6.88 6.64-7.58 8.4c-.52 1.27 1.25 5.4 1.97 5.68z" fill="#7cb342"/><path d="m36.82 50.52a2.46 2.46 0 0 1 -1-.18c-1.91-.76-3.94-6.18-3.11-8.29.78-2 5.89-7 8.06-9.1a2 2 0 0 1 3.39 1.28c.13 1.57.7 9.56-.43 12.39-.42 1.05-1.61 2-3.53 2.94a8.31 8.31 0 0 1 -3.38.96zm-.32-7.08a9.5 9.5 0 0 0 1 2.92 9 9 0 0 0 2.56-1.36 25.91 25.91 0 0 0 .33-6 38.17 38.17 0 0 0 -3.89 4.44z" fill="#424242"/></svg>