<?xml version="1.0" encoding="iso-8859-1"?>
<!-- Generator: Adobe Illustrator 19.0.0, SVG Export Plug-In . SVG Version: 6.00 Build 0)  -->
<svg version="1.1" id="Capa_1" xmlns="http://www.w3.org/2000/svg" xmlns:xlink="http://www.w3.org/1999/xlink" x="0px" y="0px"
	 viewBox="0 0 512 512" style="enable-background:new 0 0 512 512;" xml:space="preserve">
<path style="fill:#A4E276;" d="M450.054,245.968c0,115.753-86.48,209.584-193.168,209.584
	c-106.678,0-193.158-93.831-193.158-209.584s86.48-209.584,193.158-209.584c4.532,0,9.024,0.172,13.475,0.507
	c4.279,0.314,8.517,0.791,12.715,1.409C377.374,52.162,450.054,139.858,450.054,245.968z"/>
<path style="fill:#91DC5A;" d="M288.319,452.784c-10.231,1.825-20.725,2.768-31.433,2.768
	c-106.678,0-193.158-93.831-193.158-209.584s86.48-209.584,193.158-209.584c4.532,0,9.024,0.172,13.475,0.507
	c4.279,0.314,8.517,0.791,12.715,1.409c1.754,0.253,3.498,0.537,5.232,0.852c-91.722,16.284-161.715,102.683-161.715,206.816
	C126.594,350.111,196.587,436.5,288.319,452.784z"/>
<path style="fill:#6DC82A;" d="M437.443,87.119c24.61-14.509,53.173,9.566,45.664,38.842c-1.333,5.2-2.458,10.13-3.172,14.718
	c-5.22,33.554,1.234,71.759-16.313,93.247c-18.831,23.058-55.252,18.708-80.156,29.754c-27.304,12.111-63.061,85.219-87.066,85.347
	c-41.611,0.223-60.325-21.732-46.506-46.952c8.432-15.39,13.464-92.332,29.199-112.782c11.889-15.451,41.99-13.338,58.719-29.584
	c14.19-13.781,16.721-48.315,34.778-61.471c15.917-11.597,44.378-0.081,63.557-10.388C436.575,87.619,437.008,87.375,437.443,87.119
	z"/>
<path style="fill:#7ED63E;" d="M293.585,332.594c-43.827,56.99-68.013-6.111-92.746-8.683c-31.219-3.246-65.877,6.476-86.888-10.975
	c-22.546-18.729-21.155-58.456-33.093-84.617c-13.088-28.682-42.894-52.753-44.731-78.723c-3.186-45.016,15.656-66.844,39.83-53.695
	c14.751,8.023,45.881-1.433,65.806,14.132c15.055,11.76,15.269,44.487,31.402,61.428c13.684,14.37,45.613,14.634,58.999,33.234
	c11.8,16.396,3.254,48.022,14.102,68.04C255.991,290.683,279.731,350.61,293.585,332.594z"/>
<path style="fill:#5EAC24;" d="M226.414,450.421c37.987,9.635,82.122,31.397,120.716,16.395
	c32.817-12.755,68.368-26.742,92.229-53.785c38.312-43.419,56.666-98.476,63.436-154.918c2.842-23.694,5.11-94.919-33.813-94.385
	c-5.343,0.073-10.536,2.174-15.04,4.917c-20.954,12.76-61.236,13.791-89.879,40.264c-21.027,19.434-26.468,57.977-47.828,86.243
	c-17.867,23.642-54.167,38.622-70.195,69.227C232.122,390.953,237.615,418.092,226.414,450.421z"/>
<g>
	<path style="fill:#4E901E;" d="M502.79,258.115c-6.763,56.437-25.116,111.494-63.433,154.912
		c-23.858,27.042-59.407,41.035-92.229,53.79c-38.591,14.996-82.728-6.763-120.711-16.396c4.157-11.995,6.013-23.27,7.422-34.079
		c30.469,9.551,62.814,19.225,91.996,7.889c32.822-12.755,68.371-26.748,92.229-53.79c38.317-43.417,56.67-98.475,63.433-154.912
		c1.257-10.484,2.403-30.266-0.091-49.025C507.343,179.778,505.294,237.299,502.79,258.115z"/>
	<path style="fill:#4E901E;" d="M321.891,471.927c-40.629,13.972-96.052-3.387-135.646-14.347
		c-38.804-10.728-76.888-26.18-105.086-56.193c-15.148-16.132-26.677-35.275-37.506-54.581
		c-20.289-36.158-40.72-75.347-35.255-117.872c3.235-25.166,19.873-51.529,48.021-36.664c18.018,9.521,55.96-1.521,80.315,16.923
		c18.403,13.932,18.778,52.553,38.52,72.609c16.74,17.004,55.686,17.44,72.082,39.433c14.449,19.397,4.137,56.68,17.44,80.346
		c10.636,18.931,33.43,33.085,47.199,51.052c3.944,5.141,7.148,10.596,9.115,16.558
		C321.384,470.092,321.648,471.005,321.891,471.927z"/>
</g>
<path style="fill:#47821C;" d="M321.891,471.927c-40.629,13.972-96.052-3.387-135.646-14.347
	c-38.804-10.728-76.888-26.18-105.086-56.193c-15.148-16.132-26.677-35.275-37.506-54.581
	c-20.289-36.158-40.72-75.347-35.255-117.872c2.697-21.009,14.743-42.86,35.032-40.842c-0.679,2.778-1.207,5.587-1.572,8.396
	c-5.465,42.525,14.966,81.714,35.255,117.872c10.829,19.306,22.358,38.449,37.506,54.581
	c28.198,30.013,66.282,45.466,105.086,56.193c24.588,6.804,55.271,16.081,84.726,18.789c2.697,2.819,5.242,5.709,7.544,8.71
	c3.944,5.141,7.148,10.596,9.115,16.558C321.384,470.092,321.648,471.005,321.891,471.927z"/>
<path d="M405.8,319.46c0,0.002,0,0.005,0,0.005c-0.002,0.022-0.003,0.042-0.004,0.059C405.797,319.498,405.799,319.476,405.8,319.46
	z"/>
<path d="M485.614,160.016c0.89-14.633,2.155-21.595,4.857-32.163c7.108-27.692-12.866-52.655-37.587-52.655
	c-9.492,0-15.283,3.271-20.34,5.952c-10.644,5.721-26.449,3.182-40.791,3.924c-8.75-8.588-18.2-16.355-28.249-23.179
	c-3.478-2.363-8.203-1.46-10.565,2.018c-2.362,3.468-1.45,8.203,2.018,10.555c6.53,4.441,12.745,9.257,18.626,14.439
	c-25.208,11.459-27.601,52.25-41.065,65.349c-15.099,14.635-45.559,12.343-59.448,30.398c-17.366,22.564-11.053,57.905-18.353,71.19
	c-1.602,2.93-2.859,5.861-3.752,8.771c-7.017-19.559,0.791-49.481-14.854-67.154c5.009-7.686,8.213-17.805,9.349-26.464
	c11.194-1.257,44.097-7.067,61.009-32.751c2.312-3.498,1.338-8.223-2.17-10.525c-3.508-2.312-8.223-1.338-10.535,2.17
	c-12.512,19.001-37.962,24.345-48.305,25.754c-2.728-20.837-14.53-31.666-6.195-56.193c17.866,5.962,42.667,8.416,59.225-0.679
	c3.681-2.018,5.019-6.641,3.001-10.322c-2.018-3.681-6.641-5.029-10.322-3.001c-14.216,7.797-36.198,2.717-44.259,0.426
	c10.231-11.214,27.397-13.465,35.985-39.919c16.071,2.454,31.706,7.159,46.723,14.134c3.802,1.764,8.325,0.112,10.099-3.701
	c1.764-3.802,0.112-8.325-3.701-10.099c-72.822-33.795-161.34-18.991-221.731,46.733c-13.709-1.278-27.995-0.162-34.697-3.802
	c-29.364-15.97-54.743,8.71-51.042,60.908c0.75,10.626,5.232,20.492,11.346,30.246c-33.998,0.953-54.5,53.952-27.336,121.269
	c1.196,2.961,4.046,4.755,7.057,4.755c5.394,0,9.055-5.475,7.047-10.454c-23.301-57.684-7.311-100.381,14.185-100.381
	c11.164,0,10.373,6.824,34.353,8.568c15.027,1.47,40.7-1.186,56.944,11.123c15.645,11.813,16.649,50.485,37.689,71.879
	c9.115,9.257,23.645,14.256,36.178,18.647c3.954,1.409,8.304-0.659,9.704-4.613c1.409-3.965-0.659-8.304-4.613-9.714
	c-4.38-1.551-9.085-3.204-13.455-4.979c17.298-35.346,5.212-78.855,4.654-80.812c-1.156-4.036-5.354-6.378-9.389-5.222
	c-4.036,1.146-6.378,5.354-5.232,9.389c0.051,0.203,2.626,9.531,3.61,22.52l-15.737-17.663c-2.798-3.133-7.605-3.407-10.738-0.619
	c-3.133,2.799-3.417,7.605-0.618,10.738l26.251,29.455c-0.619,3.275,0.253,11.549-6.286,25.166
	c-17.917-13.1-20.887-48.031-34.282-67.225l-19.012-28.32c8.852-20.553,9.835-33.846,9.876-34.434
	c0.284-4.177-2.869-7.777-7.037-8.081c-4.208-0.294-7.818,2.849-8.132,7.027c-0.01,0.101-0.639,7.665-5.019,20.127l-18.261-27.204
	c-2.342-3.488-7.067-4.411-10.555-2.068c-3.488,2.342-4.411,7.057-2.068,10.545l28.837,42.961
	c-20.401-4.867-43.255-1.805-55.686-6.013c-9.693-13.161-18.251-25.673-19.103-37.689c-1.896-26.677,5.212-59.195,28.614-46.469
	c17.116,9.318,47.169-0.284,64.751,13.445c5.84,4.563,9.298,14.844,12.958,25.734c11.853,35.367,19.123,40.578,46.916,50.698
	c32.375,11.762,33.471,17.278,35.083,46.358c1.866,33.562,5.404,39.128,29.607,64.487c5.333,5.587,10.758,11.285,15.311,16.923
	c-4.373,3.434-11.991,9.561-15.99,13.425c-2.92-12.056-8.588-21.07-20.522-28.969c-3.498-2.322-8.223-1.359-10.535,2.15
	c-2.322,3.498-1.359,8.213,2.15,10.535c18.508,12.225,15.185,29.334,17.825,56.802c3.691,39.889,20.674,45.891,48.163,74.089
	c-22.61-7.569-39.33-14.911-58.454-24.081l-8.071-42.464l-1.926-10.109c-0.781-4.117-4.755-6.824-8.892-6.043
	c-4.117,0.781-6.834,4.766-6.043,8.892l7.747,40.771c-6.297-3.458-12.695-7.179-19.113-11.164
	c-5.333-9.673-28.35-62.652-31.037-86.764c-0.466-4.177-4.238-7.179-8.396-6.723c-4.177,0.466-7.189,4.228-6.723,8.406
	c2.139,19.204,14.57,51.042,22.064,68.797c-22.297-16.396-42.606-35.397-59.529-57.572l5.374-82.282
	c0.274-4.198-2.9-7.818-7.098-8.091c-4.157-0.264-7.807,2.91-8.081,7.098l-4.117,62.977c-12.299-20.157-21.202-41.694-26.495-64.224
	c-0.963-4.086-5.07-6.621-9.146-5.658c-4.086,0.963-6.621,5.049-5.668,9.146c2.271,9.653,5.171,19.123,8.659,28.411
	c-8.183-2.859-16.72-6.307-20.715-8c-3.863-1.632-8.325,0.162-9.967,4.036c-1.643,3.863,0.162,8.325,4.036,9.967
	c0.933,0.395,21.161,8.953,34.454,12.32c13.861,29.111,33.247,54.5,56.568,76.766c-27.65-9.328-58.637-31.96-61.79-33.815
	c-3.62-2.119-8.304-0.902-10.423,2.717c-2.119,3.63-0.913,8.274,2.707,10.393c10.494,6.459,57.065,40.659,91.58,39.95
	c9.856,7.858,19.914,15.017,29.952,21.516c-13.425,1.014-24.832,1.338-25.014,1.338c-4.198,0.122-7.503,3.61-7.392,7.807
	c0.112,4.137,3.488,7.402,7.595,7.402c5.678,0,30.165-1.267,46.49-3.437c20.906,11.828,45.296,23.168,70.764,32.345
	c11.478,4.137,20.745,6.966,26.778,8.669c-16.913,3.316-36.147,2.048-55.504-1.267c-22.662-3.883-45.486-10.586-64.944-16.041
	c-84.847-23.463-110.44-53.466-149.031-127.423c-1.947-3.731-6.54-5.171-10.261-3.224c-3.721,1.937-5.171,6.53-3.224,10.251
	c44.796,86.064,73.765,111.433,166.673,137.35c45.346,12.706,95.183,25.129,157.457,6.702c33.696-9.97,69.861-27.154,95.18-55.848
	C515.296,338.451,532.71,185.793,485.614,160.016z M167.588,86.17c18.211,36.492,43.204,43.478,55.402,44.583
	c3.914,16.162,11.488,26.484,5.617,46.5c-1.257,4.289-2.728,7.706-4.39,10.545c-15.99-9.47-36.756-12.36-45.547-21.577
	c-6.773-7.118-10.555-18.393-14.216-29.293c-6.905-20.533-11.701-33.531-32.274-40.406c35.884-35.387,84.016-55.281,135.17-52.208
	c-9.511,24.264-33.166,18.211-43.458,53.324c-1.906,6.499-2.687,12.299-2.748,17.572c-1.257-0.233-2.646-0.558-4.137-1.014
	l-26.211-19.316c-3.295-4.259-6.54-9.359-9.602-15.503c-1.876-3.762-6.449-5.283-10.2-3.407
	C167.233,77.845,165.712,82.408,167.588,86.17z M266.813,283.921c-4.37-7.321-1.734-15.331,1.247-20.766
	c9.605-17.561,2.941-50.877,17.065-69.222c9.627-12.516,39.928-11.243,57.988-28.766c15.728-15.288,18.388-49.441,33.957-60.786
	c13.143-9.599,42.542,2.054,64.234-10.707c18.893-11.142,40.218,7.872,34.434,30.398c-2.747,10.708-4.164,18.385-5.11,32.061
	c-7.471-0.263-14.334,2.172-20.644,6.013c-13.295,8.104-37.452,11.5-60.772,21.816l12.818-27.489
	c14.966,2.303,34.209-2.667,47.952-17.174c2.889-3.049,2.759-7.862-0.29-10.751c-3.049-2.889-7.862-2.759-10.751,0.29
	c-7.725,8.155-18.024,12.852-30.049,12.919l8.47-18.163c1.775-3.806,0.129-8.332-3.678-10.106
	c-3.805-1.774-8.331-0.129-10.106,3.678l-16.597,35.593c-2.924-3.875-6.055-10.023-5.563-18.235
	c0.251-4.193-2.943-7.795-7.135-8.047c-4.192-0.275-7.795,2.942-8.047,7.135c-1.072,17.867,8.854,29.428,13.801,34.035
	c-13.706,29.507-13.212,28.062-13.56,29.378c-16.701,12.485-23.519,26.14-32.506,47.081c-2.701-2.969-5.867-7.093-8.904-12.626
	c0.038-0.085,0.087-0.161,0.123-0.247c0.061-0.152,6.291-15.385,20.689-25.209c3.469-2.368,4.363-7.099,1.995-10.568
	c-2.368-3.469-7.101-4.36-10.568-1.995c-8.935,6.097-15.309,13.679-19.542,19.958c-1.062-3.738-1.984-7.806-2.705-12.233
	c-0.675-4.145-4.585-6.955-8.728-6.282c-4.145,0.675-6.958,4.583-6.282,8.728c5.137,31.535,19.582,48.365,27.503,55.464
	c-6.378,14.529-13.425,28.591-24.662,39.659C302.062,298.589,275.325,298.202,266.813,283.921z M437.958,402.948
	c-20.518,27.895-82.835,57.42-110.724,60.908c-4.046-10.211-11.113-18.89-18.809-26.728c3.052-2.068,6.175-4.248,9.359-6.52
	l25.43,7.199c3.924,1.156,8.213-1.125,9.389-5.242c1.146-4.046-1.207-8.243-5.252-9.389l-14.216-4.025
	c5.567-4.33,11.224-8.943,16.923-13.851c20.492-1.318,44.979-5.485,46.054-5.668c4.137-0.71,6.925-4.644,6.216-8.781
	c-0.71-4.137-4.624-6.915-8.781-6.216c-0.172,0.03-11.427,1.947-24.791,3.579c8.568-8.335,17.045-17.318,25.166-26.961
	c33.247-5.901,70.247-46.226,81.998-57.075c3.113-2.788,3.397-7.574,0.608-10.707c-2.778-3.143-7.584-3.427-10.728-0.639
	c-2.869,2.535-28.583,30.611-53.993,45.232c16.385-23.351,27.65-46.054,35.275-68.645c7.331-2.139,29.05-16.081,35.762-20.685
	c3.468-2.363,4.36-7.098,1.997-10.565s-7.098-4.37-10.565-2.008c-1.409,0.963-3.468,2.332-5.901,3.914
	c-4.482,2.9-10.231,6.51-15.574,9.562c3.774-15.514,5.938-31.186,6.489-46.966c0.142-4.198-3.143-7.716-7.341-7.858
	c-4.157-0.172-7.716,3.133-7.858,7.331c-0.456,13.242-2.109,26.434-5.029,39.544c-1.278,5.8-2.809,11.579-4.603,17.349
	c-6.327,20.482-15.818,40.761-28.685,60.756c0,0-0.001,0.014-0.001,0.019c0.001-0.012,0.003-0.043,0.007-0.091
	c-0.001,0.01-0.001,0.02-0.002,0.029c0.005-0.06,0.008-0.111,0.011-0.151v-0.008v0.006c0.005-0.062,0.008-0.105,0.01-0.132
	c0,0,0.001-0.008,0.001-0.013v0.003c0.001-0.02,0.002-0.029,0.002-0.029c0.149-1.951,0.957-12.496,4.595-60.014
	c0.324-4.188-2.809-7.848-6.996-8.162c-4.198-0.324-7.848,2.809-8.172,6.996c-1.083,14.131-6.223,81.378-6.521,85.367
	c-10.788,13.586-22.438,25.966-34.26,37.119c4.33-20.157,11.143-57.045,9.379-77.496c-0.355-4.188-4.036-7.29-8.233-6.925
	c-4.177,0.355-7.28,4.046-6.925,8.223c2.15,24.913-10.89,84.097-13.749,91.996c-0.365,0.669-0.618,1.389-0.771,2.119
	c-5.577,4.613-11.093,8.933-16.487,12.979l-0.416-47.159c-0.041-4.177-3.437-7.534-7.605-7.534h-0.071
	c-4.198,0.041-7.574,3.468-7.534,7.676c0.71,56.447,0,54.936,1.095,57.501c-2.058,1.42-4.076,2.799-6.063,4.127
	c-32.396-29.699-30.348-32.862-33.45-73.664c13.882-15.263,30.474-25.345,45.202-38.54h0.01
	c7.058-6.299,12.474-12.269,17.693-20.309c0.02,0,0.02-0.01,0.02-0.02c17.972-26.758,24.618-62.524,42.677-79.21
	c27.037-24.985,66.492-25.854,88.67-39.351c9.988-6.088,20.012-5.01,26.829,4.025c13.253,17.677,13.129,56.412,10.525,78.034
	C488.911,309.946,472.275,361.284,437.958,402.948z"/>
<g>
</g>
<g>
</g>
<g>
</g>
<g>
</g>
<g>
</g>
<g>
</g>
<g>
</g>
<g>
</g>
<g>
</g>
<g>
</g>
<g>
</g>
<g>
</g>
<g>
</g>
<g>
</g>
<g>
</g>
</svg>
