<svg height="512" viewBox="0 0 256 256" width="512" xmlns="http://www.w3.org/2000/svg"><path d="m125.428 108.01-.59-.34c-1.847-1.066-.483-7.091 3.257-13.66 3.647-6.403 7.942-10.752 10.064-10.562l-11.016-22.683c-3.037-8.106-9.625-16.741-17.121-12.413a13.945 13.945 0 0 0-6.786 9.668c-.473 2.649-3.587 3.833-5.664 2.123l-.253-.208c-6.761-5.566-16.941-3.642-21.183 4.077-3.642 6.625-.966 14.983 5.582 18.763l2.091 1.207c2.256 1.303 2.675 4.47.726 6.199a13.936 13.936 0 0 0-4.711 10.478c0 5.482 23.84 12.262 41.325 16.498a48.32 48.32 0 0 1 2.688-4.286c1.435-2.025 2.227-4.494 1.591-4.861z" fill="#a4d4a0"/><path d="m139.379 121.34.091.103-.023-.128-.068.025z" fill="#65bc49"/><path d="m213.814 127.193-.306-.115c-2.52-.944-3.051-4.233-.994-5.967a13.945 13.945 0 0 0 4.98-10.71c0-8.656-10.772-10.044-19.31-8.621l-25.185 1.758c1.286 1.685-.327 7.625-4.082 14.04-3.818 6.523-8.355 10.717-10.201 9.651l-.59-.34c-.636-.367-2.379 1.553-3.413 3.809a48.38 48.38 0 0 1-2.427 4.575c12.547 13.073 30.3 30.154 35.01 27.435a13.939 13.939 0 0 0 6.719-9.319c.522-2.552 3.475-3.773 5.731-2.471l2.091 1.207c6.547 3.78 15.123 1.919 19.04-4.547 4.561-7.535 1.137-17.313-7.063-20.385z" fill="#419b46"/><g fill="#65bc49"><path d="M190.664 32.957c-.025-.02-.056-.025-.082-.042.029.018.059.032.089.05l-.007-.008z"/><path d="m176.798 92.735 18.248-8.126c8.106-3.037 15.009-10.625 10.681-18.121a13.945 13.945 0 0 0-9.768-6.803c-2.606-.446-3.703-3.606-2.022-5.647 5.369-6.522 4.06-16.428-3.068-20.962-.065-.041-.132-.07-.197-.11-.029-.018-.059-.032-.089-.05-7.532-4.554-17.299-1.145-20.369 7.052l-.115.306c-.944 2.52-4.233 3.051-5.967.994a13.945 13.945 0 0 0-10.71-4.98c-8.656 0-11.776 9.772-10.353 18.31l2.185 20.803 1.447 13.783c.312 2.971-3.748 4.131-5.053 1.444l-3.487-7.181c-2.122-.19-6.417 4.158-10.064 10.562-3.74 6.568-5.104 12.594-3.257 13.66l.59.34c.636.367-.155 2.836-1.592 4.861a48.174 48.174 0 0 0-2.688 4.286c10.122 2.452 18.115 4.052 18.115 4.052l.117.132.068-.025.023.128a536.283 536.283 0 0 0 12.814 13.83 48.272 48.272 0 0 0 2.427-4.575c1.035-2.256 2.777-4.177 3.413-3.809l.59.34c1.847 1.066 6.383-3.127 10.201-9.651 3.755-6.415 5.368-12.355 4.082-14.04l-9.176.64c-2.977.208-3.997-3.885-1.271-5.099z"/></g><path d="M186.142 166.015c-4.031 0-11.294-4.042-27.781-20.298-9.398-9.267-18.221-19.029-20.674-21.769-3.582-.739-16.329-3.435-28.934-6.875-28.062-7.659-31.93-12.416-31.93-16.415 0-4.862 2.085-9.499 5.721-12.723.178-.158.255-.371.229-.631a.942.942 0 0 0-.464-.725l-2.09-1.207c-8.056-4.651-11.066-14.882-6.711-22.806a16.962 16.962 0 0 1 11.7-8.519 16.954 16.954 0 0 1 14.019 3.572l.252.207a.438.438 0 0 0 .466.084.514.514 0 0 0 .339-.417 16.97 16.97 0 0 1 8.239-11.738c2.932-1.692 6.087-2.012 9.125-.922 7.104 2.548 11.118 11.756 12.254 14.746l13.617 28.038L140.093 55c-1.087-6.667.351-13.298 3.763-17.326 2.431-2.869 5.738-4.386 9.564-4.386 5.025 0 9.765 2.204 13.004 6.046a.517.517 0 0 0 .502.192.438.438 0 0 0 .361-.305l.115-.307a16.944 16.944 0 0 1 10.532-10.163c4.883-1.635 10.184-.981 14.542 1.791 4.03 2.563 6.777 6.775 7.538 11.556a17.476 17.476 0 0 1-3.763 13.845.514.514 0 0 0-.081.522c.083.225.23.25.293.261a16.959 16.959 0 0 1 11.86 8.26c1.913 3.314 2.253 6.937.984 10.476-1.782 4.969-6.806 9.531-13.124 11.922l-30.694 13.669 32.344-2.257c3.159-.512 13.137-1.637 18.894 3.24 2.462 2.086 3.764 4.978 3.764 8.364 0 5.025-2.204 9.765-6.046 13.004a.515.515 0 0 0-.192.502.435.435 0 0 0 .305.361l.306.115a16.96 16.96 0 0 1 10.103 10.354 16.97 16.97 0 0 1-1.527 14.393c-4.685 7.734-15.05 10.243-23.106 5.591l-2.091-1.207a.943.943 0 0 0-.86-.04c-.239.107-.385.28-.433.514a17.01 17.01 0 0 1-8.158 11.316 5.107 5.107 0 0 1-2.65.712zM82.825 100.438c.488.75 4.104 4.584 29.125 11.284 14.033 3.757 27.764 6.517 27.901 6.544a3.006 3.006 0 0 1 1.658.954c.093.106 9.471 10.69 19.865 21.037 18.537 18.451 23.708 19.688 24.612 19.738 2.659-1.605 4.462-4.156 5.086-7.209.437-2.136 1.84-3.879 3.85-4.783a6.961 6.961 0 0 1 6.321.315l2.091 1.207c5.251 3.031 11.968 1.46 14.974-3.503a10.986 10.986 0 0 0 .99-9.318 10.975 10.975 0 0 0-6.538-6.702l-.306-.115a6.411 6.411 0 0 1-4.112-4.959c-.399-2.309.438-4.593 2.237-6.11a10.985 10.985 0 0 0 3.914-8.417c0-1.633-.522-2.836-1.643-3.786-2.54-2.151-8.104-2.888-14.175-1.876a3.013 3.013 0 0 1-.284.034l-34.361 2.398c-2.799.2-5.217-1.566-5.894-4.283-.678-2.717.636-5.41 3.193-6.549l32.495-14.471c.055-.024.111-.047.167-.068 4.68-1.754 8.475-5.036 9.668-8.362.674-1.879.5-3.662-.532-5.45a10.974 10.974 0 0 0-7.677-5.346c-2.264-.388-4.097-1.914-4.904-4.082a6.546 6.546 0 0 1 1.072-6.428 11.474 11.474 0 0 0 2.47-9.089c-.498-3.13-2.214-5.771-4.832-7.436a10.982 10.982 0 0 0-9.418-1.164 10.964 10.964 0 0 0-6.817 6.578l-.115.307a6.411 6.411 0 0 1-4.959 4.112c-2.307.4-4.593-.438-6.111-2.237a10.985 10.985 0 0 0-8.417-3.914c-2.064 0-3.696.741-4.986 2.264-2.284 2.696-3.229 7.624-2.408 12.553.01.06.018.12.024.18l3.632 34.586c.293 2.787-1.385 5.272-4.08 6.042-2.694.77-5.432-.453-6.656-2.974l-14.504-29.864a2.946 2.946 0 0 1-.111-.258c-2.159-5.764-5.579-10.214-8.711-11.338-1.383-.495-2.685-.347-4.1.471a10.99 10.99 0 0 0-5.333 7.597c-.414 2.317-1.974 4.184-4.173 4.993a6.413 6.413 0 0 1-6.351-1.082l-.252-.207a10.982 10.982 0 0 0-9.074-2.313 10.986 10.986 0 0 0-7.574 5.517c-2.795 5.085-.797 11.689 4.453 14.72l2.091 1.207a6.962 6.962 0 0 1 3.434 5.316c.222 2.191-.586 4.278-2.217 5.725-2.331 2.068-3.639 4.907-3.698 8.014z" fill="#1c2d6b"/><path d="M79.26 228.132a3 3 0 0 1-2.595-4.5L179.467 45.571a3 3 0 1 1 5.196 3L81.861 226.631a2.998 2.998 0 0 1-2.601 1.501z" fill="#1c2d6b"/><path d="M190.726 129.354c-.288 0-.581-.042-.872-.13l-34.569-10.48a2.678 2.678 0 0 1-.233-.082 85.277 85.277 0 0 1-21.708-12.545 2.87 2.87 0 0 1-.188-.162l-26.135-24.556a3 3 0 1 1 4.109-4.373l26.043 24.471a79.276 79.276 0 0 0 19.972 11.542l34.45 10.444a3 3 0 0 1-.869 5.871z" fill="#1c2d6b"/><path d="M69.182 139.757c2.605-.511 2.187-6.962 6.271-2.018 1.807 1.733 4.802 9.91 4.624 16.876 0 0-1.45 37.824.799 46.216-2.249-8.392 18.51-51.39 18.51-51.39 3.584-7.879-.749-15.697-4.795-16.831-8.682-3.713-10.45 3.324-17.624 5.06 2.969-11.048-6.539-20.396-16.509-18.179-.27.06-.525.144-.785.222 3.649-.445 8.933 9.981 9.509 20.044z" fill="#a4d4a0"/><path d="M58.459 160.409c-3.637-5.944-5.132-14.523-4.433-16.928 1.064-6.324 3.928-.528 6.439-1.388-4.533-9.003-5.171-20.674-1.787-22.112-.264.062-.527.117-.791.2-9.743 3.064-13.303 15.914-5.208 23.998-7.08 2.084-12.13-3.126-17.792 4.43-2.937 3.004-2.78 11.942 4.263 16.973 0 0 39.476 26.858 41.725 35.25-2.248-8.392-22.416-40.423-22.416-40.423z" fill="#419b46"/><g fill="#65bc49"><path d="M59.634 119.713c-.161.023-.31.08-.456.142.162-.052.332-.091.495-.14-.013.001-.026-.004-.039-.002zM58.712 119.96c-.012.005-.021.016-.033.021.166-.039.333-.09.499-.126-.158.02-.315.045-.466.105z"/><path d="M60.465 142.093c-2.511.86-5.375-4.936-6.439 1.388-.699 2.405.797 10.984 4.433 16.928 0 0 20.167 32.031 22.416 40.423-2.249-8.392-.799-46.216-.799-46.216.177-6.966-2.817-15.143-4.624-16.876-4.084-4.945-3.666 1.507-6.271 2.018-.576-10.063-5.859-20.489-9.509-20.043-.164.049-.333.088-.495.14-.166.036-.333.087-.499.126-3.383 1.438-2.746 13.109 1.787 22.112z"/></g><g><path d="M80.874 203.833a3 3 0 0 1-2.896-2.225c-.963-3.595-16.38-17.125-40.514-33.545-4.23-3.021-6.875-7.575-7.314-12.535-.315-3.56.597-6.851 2.444-8.86 4.553-5.97 9.365-5.511 13.237-5.14.444.042.884.084 1.32.118-1.916-3.731-2.463-8.005-1.449-12.151 1.432-5.852 5.651-10.403 11.286-12.176.509-.16.99-.273 1.412-.365.435-.139.904-.278 1.408-.39 5.763-1.283 11.693.55 15.859 4.901 2.952 3.084 4.615 7.059 4.821 11.249a72.49 72.49 0 0 0 1.085-.763c3.168-2.256 7.105-5.061 14.032-2.167 2.605.815 5.041 3.209 6.548 6.451 2.1 4.515 2.086 9.781-.038 14.45-12.719 26.35-19.306 45.776-18.342 49.371a3.003 3.003 0 0 1-2.899 3.777zm-38.195-56.505c-2.053 0-3.52.584-5.391 3.081a3.144 3.144 0 0 1-.256.298c-.568.582-1.094 2.173-.907 4.293.134 1.52.868 5.356 4.769 8.142.043.029 9.999 6.812 20.098 14.536 9.082 6.946 14.48 11.741 17.721 15.087 1.134-4.518 3.412-11.371 7.803-21.927 4.884-11.74 10.114-22.592 10.167-22.7 1.956-4.301.673-7.99.03-9.373-.897-1.93-2.149-3.045-2.932-3.265a3.078 3.078 0 0 1-.371-.13c-3.933-1.682-5.412-.629-8.357 1.468-1.86 1.325-4.174 2.973-7.382 3.749a3 3 0 0 1-3.603-3.695c1.123-4.178.125-8.289-2.736-11.278-2.703-2.823-6.525-4.018-10.224-3.194-.349.078-.681.183-1.012.29a3.09 3.09 0 0 1-.286.077c-.341.073-.683.148-1.023.255-3.615 1.137-6.329 4.083-7.257 7.878-.984 4.02.208 8.079 3.269 11.136a2.998 2.998 0 0 1-1.272 5c-3.166.932-5.995.662-8.267.444-.975-.092-1.819-.172-2.581-.172z" fill="#1c2d6b"/></g><g><path d="M84.81 218.521a3 3 0 0 1-2.896-2.225l-14.788-55.189a3 3 0 1 1 5.796-1.552l14.788 55.189a3 3 0 0 1-2.9 3.777z" fill="#1c2d6b"/></g><g><path d="M175.163 152.261c6.357 1.188.577 4.111 1.47 6.746 8.978-4.629 20.681-5.154 22.162-1.6-.061-.256-.114-.512-.194-.768-3.064-9.743-15.914-13.303-23.998-5.208-2.084-7.08 3.126-12.13-4.43-17.792-3.004-2.937-11.942-2.78-16.973 4.263 0 0-26.858 39.476-35.25 41.725 8.392-2.249 40.284-22.937 40.284-22.937 5.92-3.728 14.509-5.187 16.929-4.429z" fill="#a4d4a0"/><path d="M186.171 193.342c3.713-8.682-3.324-10.45-5.06-17.624 11.048 2.969 20.397-6.539 18.179-16.509-.058-.262-.141-.51-.216-.762.494 3.819-9.903 9.215-19.993 9.696.544 2.728 7.011 2.369 2.1 6.577-1.717 1.868-9.885 4.898-16.875 4.629 0 0-37.963-1.971-46.355.278 8.392-2.249 51.39 18.51 51.39 18.51 7.878 3.584 15.696-.749 16.83-4.795z" fill="#419b46"/><g fill="#65bc49"><path d="M198.816 157.441c-.005-.012-.016-.022-.021-.034.041.174.094.348.132.522a1.982 1.982 0 0 0-.111-.488zM199.075 158.408a1.996 1.996 0 0 0-.148-.478c.055.169.096.347.147.518-.001-.013.003-.027.001-.04z"/><path d="M181.181 174.72c4.912-4.208-1.556-3.849-2.1-6.577 10.09-.481 20.487-5.877 19.993-9.696-.051-.171-.092-.349-.147-.518-.038-.174-.091-.348-.132-.522-1.481-3.554-13.184-3.029-22.162 1.6-.893-2.634 4.887-5.557-1.47-6.746-2.421-.759-11.009.7-16.929 4.429 0 0-31.892 20.688-40.284 22.937 8.392-2.249 46.355-.278 46.355-.278 6.991.269 15.159-2.761 16.876-4.629z"/></g></g><g><path d="M175.425 202.471c-2.479 0-4.979-.535-7.327-1.603-26.349-12.719-45.776-19.314-49.371-18.343a3.002 3.002 0 0 1-3.777-2.898c0-1.325.883-2.539 2.225-2.898 3.594-.963 17.125-16.381 33.545-40.515 3.021-4.229 7.575-6.875 12.534-7.314 3.561-.313 6.851.598 8.86 2.444 5.97 4.554 5.51 9.365 5.14 13.237-.042.445-.084.884-.118 1.321 3.731-1.916 8.003-2.464 12.152-1.449 5.852 1.432 10.403 5.651 12.175 11.286.155.491.268.967.365 1.413.131.413.275.886.39 1.407 1.282 5.764-.55 11.694-4.902 15.86-3.083 2.952-7.059 4.615-11.248 4.821.247.361.503.721.763 1.085 2.256 3.168 5.06 7.105 2.167 14.033-.816 2.604-3.209 5.039-6.45 6.546a16.862 16.862 0 0 1-7.123 1.567zm-49.407-25.005c4.518 1.134 11.371 3.412 21.927 7.803 11.739 4.884 22.591 10.114 22.699 10.167 4.3 1.956 7.99.673 9.374.029 1.93-.898 3.045-2.149 3.265-2.932.035-.126.079-.25.13-.371 1.682-3.933.629-5.411-1.469-8.356-1.324-1.86-2.973-4.174-3.749-7.382-.249-1.029.063-2.114.822-2.853s1.854-1.022 2.873-.75c4.18 1.123 8.289.125 11.278-2.736 2.823-2.702 4.017-6.524 3.194-10.224a11.595 11.595 0 0 0-.29-1.012 2.882 2.882 0 0 1-.078-.29 11.15 11.15 0 0 0-.254-1.019c-1.137-3.617-4.082-6.33-7.878-7.258-4.018-.984-8.078.208-11.136 3.269a3 3 0 0 1-5-1.272c-.932-3.166-.662-5.995-.444-8.268.344-3.599.516-5.406-2.907-7.971a3.286 3.286 0 0 1-.298-.255c-.581-.568-2.17-1.095-4.293-.907-1.52.134-5.355.868-8.141 4.768-.029.043-6.812 9.999-14.536 20.098-6.948 9.082-11.743 14.481-15.089 17.722z" fill="#1c2d6b"/></g><g><path d="M103.261 186.563a3 3 0 0 1-.774-5.899l55.189-14.788a3 3 0 0 1 1.552 5.796l-55.189 14.788c-.26.069-.521.103-.778.103z" fill="#1c2d6b"/></g></svg>