<svg height="512" viewBox="0 0 128 128" width="512" xmlns="http://www.w3.org/2000/svg"><g id="Layer_2" data-name="Layer 2"><path d="m91.3309 57.7113a211.8784 211.8784 0 0 1 -50.2482 58.71 16.2023 16.2023 0 0 1 -23.8106-3.6589l-.179-.2737a16.2074 16.2074 0 0 1 3.3692-21.4331 178.8844 178.8844 0 0 0 53.8925-72.93 16.2075 16.2075 0 0 1 19.4993-9.5135l.3145.0909a16.2023 16.2023 0 0 1 10.4886 21.687 223.9886 223.9886 0 0 1 -10.4153 22.11z" fill="#4a995c"/><path d="m100.0161 11.8087q-4.5012 10.67-9.8642 20.6411l-3.1 5.55a225.637 225.637 0 0 1 -53.5112 62.522 17.2619 17.2619 0 0 1 -19.0216 1.8713 16.0608 16.0608 0 0 0 2.574 10.0956q.09.1368.1791.2737a16.2024 16.2024 0 0 0 23.8107 3.6589 211.875 211.875 0 0 0 50.248-58.71l2.911-5.2113a224.0114 224.0114 0 0 0 10.4153-22.11 16.2176 16.2176 0 0 0 -4.6411-18.5813z" fill="#3a8247"/><g><path d="m87.5288 72.27a16.4251 16.4251 0 1 1 27.6944-11.9492c0 11.4565-11.7293 20.1735-23.8344 14.7973z" fill="#315b35"/><path d="m86.1016 58.5347a20.3958 20.3958 0 0 0 -3.6558.346c-.0414.4753-.0728.9538-.0728 1.44a16.3794 16.3794 0 0 0 5.1558 11.9493l3.86 2.8481a17.02 17.02 0 0 0 14.748-.1 20.4532 20.4532 0 0 0 -20.0352-16.4834z" fill="#234225"/><path d="m98.7988 74.7456a16.135 16.135 0 0 1 -6.4033-1.3706l-3.5791-2.64a14.2931 14.2931 0 0 1 -4.4434-10.4142 14.4253 14.4253 0 1 1 14.4258 14.4248z" fill="#b2eaa0"/><path d="m86.1016 58.5347c-.5464 0-1.0829.04-1.6186.0819a14.4591 14.4591 0 0 0 -.11 1.7042 14.2931 14.2931 0 0 0 4.4434 10.4141l3.5791 2.64a16.135 16.135 0 0 0 6.4033 1.3706 14.3361 14.3361 0 0 0 6.84-1.7289 20.4569 20.4569 0 0 0 -19.5372-14.4819z" fill="#8cc474"/></g><g><path d="m75.1661 91.2152a16.4251 16.4251 0 1 1 27.3607-12.2552c0 11.349-11.51 20.01-23.4938 14.9449z" fill="#315b35"/><path d="m73.4053 77.1738a20.4043 20.4043 0 0 0 -3.6559.346c-.0414.4754-.0726.9538-.0726 1.44a16.3842 16.3842 0 0 0 5.4892 12.2554l3.867 2.6894a16.9635 16.9635 0 0 0 14.4069-.25 20.4533 20.4533 0 0 0 -20.0346-16.4808z" fill="#234225"/><path d="m86.1016 93.3848a16.06 16.06 0 0 1 -6.1026-1.2442l-3.5879-2.4956a14.4248 14.4248 0 1 1 9.6905 3.74z" fill="#b2eaa0"/><path d="m73.4053 77.1738c-.5464 0-1.083.04-1.6187.0821a14.2794 14.2794 0 0 0 4.6245 12.3891l3.5879 2.4956a16.06 16.06 0 0 0 6.1026 1.2442 14.3332 14.3332 0 0 0 6.84-1.73 20.4564 20.4564 0 0 0 -19.5363-14.481z" fill="#8cc474"/></g><circle cx="73.405" cy="97.599" fill="#315b35" r="16.425"/><path d="m73.4053 112.0239a14.4251 14.4251 0 1 1 14.4247-14.4253 14.4413 14.4413 0 0 1 -14.4247 14.4253z" fill="#b2eaa0"/></g><g id="Layer_3" data-name="Layer 3"><g><path d="m47.9 73.9658a.9971.9971 0 0 0 .7539-.3432 185.5979 185.5979 0 0 0 32.2363-52.836 1 1 0 1 0 -1.8515-.7539 183.6511 183.6511 0 0 1 -31.8922 52.2764 1 1 0 0 0 .7535 1.6567z"/><path d="m42 80.8682a1 1 0 0 0 -1.4375-1.3916 197.0663 197.0663 0 0 1 -16.9025 15.4961 1 1 0 0 0 1.2656 1.5488 199.1455 199.1455 0 0 0 17.0744-15.6533z"/><path d="m93.5225 40.5962a1 1 0 0 0 1.332-.4756c1.7939-3.7837 3.5156-7.6992 5.1172-11.6367a1 1 0 1 0 -1.8517-.7539c-1.5888 3.9033-3.2949 7.7837-5.0722 11.5342a.9991.9991 0 0 0 .4747 1.332z"/><path d="m40.9688 99.9639a1 1 0 0 0 -1.4122-.07c-2.8212 2.5542-5.7714 5.09-8.7705 7.5376a1 1 0 0 0 1.2637 1.55c3.0264-2.4687 6.0029-5.0278 8.8486-7.6049a.9992.9992 0 0 0 .0704-1.4127z"/><path d="m45.9678 96.6367c3.4756-3.355 6.8593-6.854 10.0576-10.3994a1 1 0 1 0 -1.4844-1.34c-3.168 3.5117-6.5195 6.977-9.9619 10.3007a1 1 0 1 0 1.3887 1.4385z"/><path d="m83.6719 45.022a1 1 0 0 0 -1.3545.4072c-2.5581 4.7544-5.32 9.4359-8.2083 13.9141l-.0027.0029c-1.4482 2.2471-2.9668 4.4995-4.5107 6.6948a1 1 0 1 0 1.6348 1.1514c1.56-2.2178 3.0937-4.4927 4.5576-6.7622l.0016-.0041c2.9181-4.5222 5.7061-9.2488 8.2894-14.05a1 1 0 0 0 -.4072-1.3541z"/><path d="m88.1387 36.1318a.9993.9993 0 0 0 1.3291-.4819c1.63-3.48 3.2011-7.0752 4.6709-10.6865a1 1 0 0 0 -1.8526-.7539c-1.457 3.58-3.0146 7.1435-4.6289 10.5927a1 1 0 0 0 .4815 1.3296z"/><path d="m70.9189 53.1968a.9981.9981 0 0 0 -1.3808.3032 200.86 200.86 0 0 1 -21.0576 27.3545 1 1 0 0 0 1.4746 1.3516 202.8254 202.8254 0 0 0 21.2666-27.628 1 1 0 0 0 -.3028-1.3813z"/><path d="m78.2471 40.6606a1 1 0 0 0 1.3525-.413 221.95 221.95 0 0 0 9.6055-20.5664 1 1 0 1 0 -1.8516-.754 220.35 220.35 0 0 1 -9.5195 20.3809 1 1 0 0 0 .4131 1.3525z"/><path d="m116.2236 60.3208a17.4383 17.4383 0 0 0 -16.0276-17.3544c1.89-3.9677 3.7029-8.06 5.387-12.2a17.2364 17.2364 0 0 0 -13.8276-23.6054.9706.9706 0 0 0 -.1824-.0257 17.1894 17.1894 0 0 0 -18.1443 10.6132 178.1018 178.1018 0 0 1 -53.6 72.5323 17.1848 17.1848 0 0 0 -3.5742 22.7539l.1806.2749a17.1291 17.1291 0 0 0 3.9415 4.2186.9761.9761 0 0 0 .2587.1865 17.1573 17.1573 0 0 0 21.0791-.5189c5.3528-4.3687 10.4883-8.9768 15.3136-13.7031a17.4106 17.4106 0 0 0 33.7-7.746 17.3806 17.3806 0 0 0 12.6964-18.6385 17.3239 17.3239 0 0 0 12.7992-16.7874zm-75.7724 55.3252a15.2694 15.2694 0 0 1 -11.9649 3.2563 15.1119 15.1119 0 0 1 -2.72-.7 19.078 19.078 0 0 0 7.59-2.8967 1 1 0 0 0 -1.1367-1.6465c-.055.0391-5.5843 3.7923-10.6226 2.2866a15.1531 15.1531 0 0 1 -2.4816-2.374c3.4419-3.5143 8.7985-8.933 9.3639-9.3716a1 1 0 0 0 -1.206-1.5957c-.7414.56-7.1123 7.0426-9.35 9.3252-.2131-.3261-.4024-.6609-.5873-.9969a17.5716 17.5716 0 0 1 4.13-10.5231 1 1 0 0 0 -1.426-1.4023 18.4144 18.4144 0 0 0 -4.1644 8.1352 15.2176 15.2176 0 0 1 5.2191-15.3125 180.0433 180.0433 0 0 0 54.1853-73.3271 15.2384 15.2384 0 0 1 11.0415-9.2094 18.679 18.679 0 0 0 -4.5627 5.1191 1 1 0 0 0 1.7383.9893c.0318-.0561 3.196-5.5161 7.94-6.2687a14.899 14.899 0 0 1 2.4548.5309c.27.078.5288.1828.793.2753.2688 1.147.9757 4.7041.1709 7.5176a1 1 0 1 0 1.9238.55 17.0078 17.0078 0 0 0 .14-7.0946 15.1949 15.1949 0 0 1 6.8125 19.1c-1.7882 4.3923-3.7176 8.7344-5.7338 12.9233a17.3055 17.3055 0 0 0 -16.5149 19.24 17.4412 17.4412 0 0 0 -12.8066 16.7843 17.6926 17.6926 0 0 0 .1093 1.8555 17.4792 17.4792 0 0 0 -11.957 11.4331 217.9225 217.9225 0 0 1 -20.2091 18.704 1 1 0 0 0 1.2637 1.55 221.5684 221.5684 0 0 0 18.1816-16.58c-.0529.5522-.0849 1.1106-.0849 1.6764a17.3926 17.3926 0 0 0 .4111 3.7265c-4.9978 4.9445-10.3546 9.7617-15.9403 14.3205zm32.9541-2.6221a15.4251 15.4251 0 1 1 15.4247-15.4253 15.4428 15.4428 0 0 1 -15.4247 15.4253zm16.9869-19.2555a17.26 17.26 0 0 0 -19.6413-13.37c-.0441-.4773-.0741-.9573-.0741-1.4384a15.4248 15.4248 0 1 1 19.7154 14.8084zm12.6959-18.64a17.26 17.26 0 0 0 -19.6406-13.3697c-.0442-.4769-.0745-.9566-.0745-1.4379a15.4253 15.4253 0 1 1 19.7151 14.8072z"/><path d="m98.7979 48.3945a1 1 0 0 0 -1 1v3.1983a1 1 0 0 0 2 0v-3.1983a1 1 0 0 0 -1-1z"/><path d="m94.7 51.3a1 1 0 0 0 -1.7285 1.0068l.8369 1.4361a1 1 0 0 0 1.7285-1.0069z"/><path d="m92.6055 55.59-2.77-1.5991a1 1 0 1 0 -1 1.7324l2.77 1.5992a1 1 0 0 0 1-1.7325z"/><path d="m90.6035 59.353h-.0035l-1.6621.0064a1 1 0 0 0 .0039 2h.0039l1.6621-.0064a1 1 0 0 0 -.0039-2z"/><path d="m103.7881 66.8979a1 1 0 0 0 -1.7285 1.0069l.8369 1.4365a1 1 0 0 0 1.7285-1.0068z"/><path d="m108.7607 64.9175-2.77-1.5991a1 1 0 0 0 -1 1.7324l2.77 1.5991a1 1 0 1 0 1-1.7324z"/><path d="m108.6553 59.2817h-.0039l-1.6621.0069a1 1 0 0 0 .0039 2h.0039l1.6621-.0069a1 1 0 0 0 -.0039-2z"/><path d="m104.624 56.9565a1.0008 1.0008 0 0 0 1.3662.3663l2.77-1.5992a1 1 0 1 0 -1-1.7324l-2.7702 1.5988a1 1 0 0 0 -.366 1.3665z"/><path d="m102.3721 54.0757a1 1 0 0 0 1.3642-.3716l.8252-1.4429a1 1 0 0 0 -1.7363-.9931l-.8252 1.4428a1 1 0 0 0 .3721 1.3648z"/><path d="m86.1016 67.0337a1 1 0 0 0 -1 1v3.1982a1 1 0 0 0 2 0v-3.1982a1 1 0 0 0 -1-1z"/><path d="m82.0039 69.939a1 1 0 0 0 -1.7285 1.0068l.8369 1.4365a1 1 0 0 0 1.7285-1.0068z"/><path d="m79.9092 74.23-2.7692-1.6a1 1 0 0 0 -1 1.7324l2.77 1.5991a1 1 0 1 0 1-1.7324z"/><path d="m77.9063 77.9917h-.004l-1.6611.0068a1 1 0 0 0 .0039 2h.0039l1.6612-.0068a1 1 0 0 0 -.0039-2z"/><path d="m91.0918 85.5376a1 1 0 0 0 -1.7285 1.0059l.8359 1.436a1 1 0 0 0 1.7285-1.0059z"/><path d="m96.0635 83.5566-2.77-1.5991a1 1 0 0 0 -1 1.7324l2.77 1.5992a1 1 0 0 0 1-1.7325z"/><path d="m95.959 77.9209h-.0039l-1.6621.0063a1 1 0 0 0 .0039 2h.0039l1.6621-.0063a1 1 0 0 0 -.0039-2z"/><path d="m91.9277 75.5957a1.0006 1.0006 0 0 0 1.3662.3662l2.77-1.5991a1 1 0 1 0 -1-1.7324l-2.77 1.5991a1 1 0 0 0 -.3662 1.3662z"/><path d="m89.6738 72.7144a1.0006 1.0006 0 0 0 1.3653-.3706l.8261-1.4429a1 1 0 0 0 -1.7363-.9942l-.8262 1.4433a1 1 0 0 0 .3711 1.3644z"/><path d="m73.4053 85.6729a1 1 0 0 0 -1 1v3.1982a1 1 0 0 0 2 0v-3.1982a1 1 0 0 0 -1-1z"/><path d="m68.416 91.021a1 1 0 0 0 1.7285-1.0068l-.8369-1.4361a1 1 0 0 0 -1.7285 1.0069z"/><path d="m63.4434 93.002 2.77 1.5991a1 1 0 1 0 1-1.7324l-2.77-1.5992a1 1 0 1 0 -1 1.7325z"/><path d="m63.5518 98.6377 1.6621-.0068a1 1 0 0 0 .9961-1.0039.9892.9892 0 0 0 -1.0039-.9961l-1.6622.0068a1 1 0 0 0 .004 2z"/><path d="m67.5791 100.9624a1.0008 1.0008 0 0 0 -1.3662-.3662l-2.77 1.5991a1 1 0 0 0 1 1.7324l2.77-1.5991a1 1 0 0 0 .3662-1.3662z"/><path d="m69.832 103.8438a1.0008 1.0008 0 0 0 -1.3642.3715l-.8252 1.4429a1 1 0 0 0 1.7363.9932l.8252-1.4429a1 1 0 0 0 -.3721-1.3647z"/><path d="m73.4053 104.3262a1 1 0 0 0 -1 1v3.1987a1 1 0 0 0 2 0v-3.1987a1 1 0 0 0 -1-1z"/><path d="m78.3945 104.1763a1 1 0 0 0 -1.7285 1.0068l.8369 1.436a1 1 0 0 0 1.7285-1.0068z"/><path d="m83.3672 102.1953-2.7695-1.5991a1 1 0 1 0 -1 1.7324l2.7695 1.5991a1 1 0 1 0 1-1.7324z"/><path d="m83.2627 96.56h-.0039l-1.6621.0063a1 1 0 0 0 .0039 2h.0039l1.6621-.0063a1 1 0 0 0 -.0039-2z"/><path d="m79.2314 94.2349a1.0007 1.0007 0 0 0 1.3663.3662l2.7695-1.5991a1 1 0 0 0 -1-1.7325l-2.7695 1.5992a1 1 0 0 0 -.3663 1.3662z"/><path d="m76.9785 91.3535a1 1 0 0 0 1.3643-.3716l.8252-1.4419a1 1 0 1 0 -1.7364-.9932l-.8252 1.4424a1 1 0 0 0 .3721 1.3643z"/></g></g></svg>