<svg id="Capa_1" enable-background="new 0 0 512 512" height="512" viewBox="0 0 512 512" width="512" xmlns="http://www.w3.org/2000/svg"><g><g><g><g><path d="m12.39 136.588c-7.652 7.652-6.103 20.435 3.132 26.077 33.744 20.613 78.414 16.322 107.609-12.874s33.487-73.865 12.874-107.609c-5.641-9.235-18.425-10.784-26.077-3.132z" fill="#fff9e2"/></g></g><g><path d="m57.723 162.665c-9.235-5.641-10.784-18.425-3.132-26.077l85.943-85.943c-1.35-2.882-2.847-5.712-4.528-8.464-5.641-9.235-18.425-10.784-26.077-3.132l-97.539 97.539c-7.652 7.652-6.103 20.435 3.132 26.077 20.221 12.352 44.362 15.751 66.749 10.218-8.543-2.109-16.833-5.505-24.548-10.218z" fill="#fff5c6"/></g></g><g><g fill="#fef0ae"><path d="m353.088 375.388c-29.059-29.059-39.256-69.82-30.632-107.111l-97.478-78.869 67.967 139.522c15.632 32.088 13.668 69.313-5.254 99.578-6.521 10.431-14.669 19.412-24.008 26.704 19.11 5.932 40.5 5.875 61.622-2.243 27.985-10.756 46.838-32.334 55.39-57.189-9.929-5.24-19.252-12.037-27.607-20.392z"/><path d="m107.098 328.491 67.03-137.598-124.036 100.357c-56.568 45.77-42.377 135.613 25.545 161.719 20.688 7.951 41.63 8.162 60.437 2.594-36.123-28.709-51.673-80.479-28.976-127.072z"/></g><g><path d="m293.845 328.491-69.77-143.224c-4.069-8.353-6.184-17.522-6.184-26.814v-42.319l-34.839-24.592v66.911c0 9.291-2.115 18.461-6.184 26.814l-69.77 143.224c-33.608 68.991 16.632 149.349 93.373 149.349 76.742 0 126.982-80.358 93.374-149.349z" fill="#fff9e2"/></g><g><path d="m149.618 328.491 69.771-143.224c.879-1.804 1.648-3.652 2.343-5.525-2.522-6.8-3.841-14.004-3.841-21.288v-42.319l-34.839-24.592v66.911c0 9.291-2.115 18.461-6.184 26.814l-69.771 143.224c-33.607 68.99 16.633 149.348 93.374 149.348 7.347 0 14.449-.742 21.26-2.135-64.33-13.153-102.503-84.828-72.113-147.214z" fill="#fff5c6"/></g></g><g><path d="m498.098 358.099c10.02 10.02 7.991 26.759-4.102 34.146-44.186 26.992-102.678 21.373-140.908-16.858s-43.849-96.722-16.858-140.908c7.387-12.093 24.126-14.122 34.146-4.102z" fill="#fff9e2"/></g><g><path d="m395.588 366.411c-35.821-35.821-43.01-89.429-21.571-132.392l-3.641-3.641c-10.02-10.02-26.759-7.991-34.146 4.102-26.992 44.186-21.373 102.678 16.857 140.908 33.996 33.996 84.007 42.181 125.74 24.602-30.062.544-60.298-10.638-83.239-33.579z" fill="#fff5c6"/></g><g><path d="m61.132 183.04c16.916 0 33.842-4.541 48.967-13.626 3.551-2.133 4.7-6.741 2.566-10.292-2.132-3.551-6.74-4.699-10.291-2.567-25.646 15.407-57.427 15.295-82.942-.29-2.437-1.489-4.027-3.965-4.364-6.795-.335-2.813.622-5.576 2.626-7.579l97.539-97.539c2.003-2.003 4.758-2.96 7.579-2.625 2.829.337 5.306 1.927 6.794 4.364 16.923 27.704 15.509 62.564-3.602 88.812-2.438 3.349-1.699 8.04 1.649 10.478s8.04 1.7 10.478-1.648c22.691-31.167 24.37-72.563 4.275-105.46-3.901-6.386-10.396-10.555-17.822-11.439-7.409-.882-14.684 1.638-19.959 6.914l-97.539 97.537c-5.275 5.275-7.795 12.55-6.913 19.959.884 7.425 5.053 13.92 11.439 17.822 15.248 9.314 32.379 13.975 49.52 13.974z"/><path d="m503.401 352.796-17.474-17.474c-2.93-2.929-7.678-2.929-10.607 0s-2.929 7.678 0 10.606l17.475 17.474c3.129 3.129 4.624 7.444 4.101 11.839-.525 4.416-3.008 8.28-6.81 10.603-20.173 12.323-44.304 17.641-67.938 14.978-24.346-2.745-46.393-13.374-63.757-30.738s-27.993-39.411-30.737-63.757c-2.665-23.638 2.654-47.766 14.977-67.938 2.322-3.801 6.186-6.283 10.602-6.809 4.396-.521 8.711.971 11.841 4.101l85.499 85.499c2.93 2.929 7.678 2.929 10.607 0s2.929-7.678 0-10.606l-85.5-85.499c-6.401-6.402-15.228-9.457-24.222-8.389-9.011 1.073-16.894 6.134-21.628 13.884-4.762 7.796-8.583 16.116-11.467 24.747l-85.536-69.207-2.011-4.128c-3.55-7.287-5.426-15.423-5.426-23.529v-42.319c0-2.437-1.184-4.722-3.175-6.127l-34.839-24.592c-2.289-1.615-5.287-1.821-7.775-.532s-4.05 3.857-4.05 6.659v66.911c0 8.106-1.876 16.243-5.426 23.529l-2.01 4.127-122.741 99.31c-28.674 23.201-42.356 58.803-36.601 95.235s29.745 66.083 64.175 79.315c12.089 4.646 24.575 6.927 36.935 6.927 8.323 0 16.584-1.052 24.628-3.098 18.782 13.835 41.713 21.542 65.962 21.542s47.18-7.706 65.961-21.542c8.043 2.045 16.304 3.098 24.629 3.098 12.356 0 24.848-2.282 36.935-6.927 25.98-9.985 46-29.328 56.74-53.871 11.212 4.955 23.201 8.217 35.733 9.629 4.538.512 9.093.765 13.64.765 22.434 0 44.671-6.163 63.797-17.847 7.752-4.735 12.812-12.619 13.885-21.63 1.067-8.99-1.99-17.817-8.392-24.219zm-399.258 98.882c-20.467-14.485-34.184-35.981-38.642-60.653-4.511-24.969.983-50.216 15.472-71.093 2.361-3.403 1.517-8.076-1.886-10.438-3.403-2.361-8.076-1.517-10.438 1.886-16.771 24.168-23.132 53.4-17.908 82.311 3.414 18.894 11.527 36.17 23.473 50.564-27.153-12-45.948-36.342-50.623-65.942-4.909-31.076 6.762-61.444 31.221-81.233l97.791-79.122-52.245 107.248c-16.924 34.739-14.797 75.041 5.688 107.806 4.148 6.634 8.912 12.717 14.179 18.216-5.315.653-10.694.807-16.082.45zm176.577-.449c5.267-5.499 10.031-11.581 14.179-18.215 20.485-32.766 22.612-73.067 5.688-107.807l-15.046-30.885c-1.813-3.723-6.304-5.272-10.026-3.458-3.725 1.814-5.272 6.304-3.458 10.027l15.046 30.885c14.644 30.06 12.803 64.933-4.923 93.285-12.375 19.794-31.002 34.009-52.496 40.793 3.907-5.552 7.485-12.29 10.646-20.156 9.137-22.737 14.168-52.807 14.168-84.67 0-4.142-3.357-7.5-7.5-7.5s-7.5 3.358-7.5 7.5c0 29.992-4.647 58.076-13.087 79.077-5.316 13.229-11.86 22.599-18.439 26.773v-205.877c0-4.142-3.357-7.5-7.5-7.5s-7.5 3.358-7.5 7.5v205.878c-6.58-4.174-13.124-13.544-18.44-26.773-8.439-21.001-13.087-49.085-13.087-79.077 0-4.142-3.357-7.5-7.5-7.5s-7.5 3.358-7.5 7.5c0 31.863 5.032 61.933 14.168 84.67 3.161 7.866 6.739 14.604 10.647 20.156-21.494-6.784-40.121-20.999-52.496-40.793-17.726-28.353-19.566-63.226-4.923-93.286l69.771-143.224c4.541-9.321 6.941-19.729 6.941-30.099v-52.437l19.839 14.004v38.433c0 10.37 2.4 20.778 6.941 30.099l39.359 80.795c1.813 3.723 6.302 5.274 10.026 3.458 3.725-1.814 5.272-6.304 3.458-10.027l-21.834-44.819 65.856 53.284c-2.303 12.053-2.836 24.466-1.45 36.764 2.499 22.169 10.746 42.655 24.041 60.092.472 7.579.036 15.265-1.348 22.926-4.458 24.672-18.175 46.169-38.642 60.653-5.387.357-10.766.203-16.079-.449zm46.002-6.963c11.95-14.396 20.067-31.677 23.481-50.575.569-3.147.993-6.297 1.287-9.444 6.182 5.7 12.843 10.677 19.896 14.921-8.507 20.018-24.211 36.062-44.664 45.098z"/></g></g></svg>