<svg xmlns="http://www.w3.org/2000/svg" viewBox="0 0 512 512" style="enable-background:new 0 0 512 512" xml:space="preserve"><path style="fill:#e6aa46" d="M168.509 279.103c-13.27-28.306-42.006-47.917-75.335-47.917C47.238 231.185 10 268.423 10 314.36c0 21.686 8.303 41.43 21.899 56.235l136.61-91.492z"/><path style="fill:#f5c86e" d="M107.366 329.181c28.445 0 53.401 14.858 67.583 37.226a73.628 73.628 0 0 0 9.591-36.419c0-40.867-33.13-73.997-73.997-73.997s-73.997 33.13-73.997 73.997a73.684 73.684 0 0 0 6.869 31.133c14.596-19.395 37.806-31.94 63.951-31.94z"/><path style="fill:#e6aa46" d="m179.82 375.265.003.003c-12.763-27.224-40.401-46.087-72.457-46.087-44.181 0-79.997 35.816-79.997 79.997 0 34.578 21.939 64.027 52.656 75.198 12.907 10.972 29.618 17.605 47.886 17.605 40.867 0 73.997-33.13 73.997-73.997 0-20.639-8.459-39.297-22.088-52.719z"/><path style="fill:#f5b955" d="m370.691 169.158 38.074-40.185c20.575-21.715 55.011-22.18 76.164-1.027l.922.922c19.798 19.798 21.614 50.979 4.409 72.726-26.855 33.945-63.693 80.576-75.919 96.052a15.834 15.834 0 0 0 12.429 25.646h1.227l2.339-1.318a22.983 22.983 0 0 1 27.534 3.773c9.893 9.893 8.727 26.255-2.469 34.646l-12.491 9.361a28.073 28.073 0 0 0-9.78 31.391l7.966 23.744c10.614 31.639-9.415 65.307-42.283 71.081l-29.518 5.185c-27.621 4.852-54.42-12.029-61.973-39.035l-1.927-6.888a119.87 119.87 0 0 0-44.311-64.196l-19.804-14.599a195.485 195.485 0 0 1-69.376-95.286l-19.16-57.224c-7.892-23.569 5.816-48.894 29.864-55.175l1.103-.288c23.742-6.202 47.81 7.801 54.094 31.285l6.76 25.257a100.832 100.832 0 0 0 13.405 29.708l8.448 12.721a8.353 8.353 0 0 0 9.359 3.38l.169-.051c4.145-1.244 6.724-5.312 6.074-9.558a55267.497 55267.497 0 0 1-9.388-61.805 230.124 230.124 0 0 1 19.247-132.33L305.1 38.93c10.761-22.902 36.847-34.261 60.943-26.534 28.517 9.144 42.799 41.005 30.648 68.376a359043.53 359043.53 0 0 0-14.112 31.792A176.502 176.502 0 0 0 367.4 184.18v29.111"/><circle style="fill:#f5c86e" cx="127.915" cy="427.982" r="73.997"/><path d="M498.102 207.797c20.352-25.724 18.124-62.695-5.18-86l-.922-.922c-12.155-12.156-28.305-18.701-45.505-18.49-17.188.232-33.166 7.232-44.988 19.71l-18.641 19.674a166.87 166.87 0 0 1 8.852-25.148l14.111-31.791a60.427 60.427 0 0 0-.087-49.169 60.438 60.438 0 0 0-36.647-32.787c-28.784-9.228-60.191 4.441-73.047 31.804L282.825 62.82c-20.283 43.171-27.228 90.918-20.082 138.079 3.211 21.199 6.428 42.404 8.447 55.649l-4.893-7.366a90.665 90.665 0 0 1-12.076-26.764l-6.761-25.256c-7.68-28.7-37.414-45.912-66.281-38.374l-1.102.287c-14.132 3.692-26.225 13.176-33.177 26.02-6.952 12.845-8.28 28.155-3.643 42.005l3.803 11.357c-15.495-10.991-34.264-17.27-53.89-17.27C41.798 221.185 0 262.984 0 314.36c0 22.921 8.38 44.846 23.594 61.926-4.017 10.194-6.225 21.29-6.225 32.893 0 37.131 23.085 70.644 57.613 83.968 14.457 11.766 32.88 18.835 52.929 18.835 5.56 0 11.123-.548 16.534-1.629 5.416-1.082 8.929-6.35 7.848-11.766-1.083-5.416-6.349-8.924-11.766-7.848a64.55 64.55 0 0 1-12.616 1.242c-35.289 0-63.997-28.709-63.997-63.997s28.709-63.997 63.997-63.997 63.997 28.709 63.997 63.997c0 5.67-.74 11.29-2.199 16.701-1.438 5.333 1.72 10.821 7.053 12.259 5.332 1.44 10.821-1.72 12.257-7.053a84.16 84.16 0 0 0 2.889-21.907c0-22.709-9.074-43.328-23.768-58.462a89.842 89.842 0 0 0-1.772-3.422 84.032 84.032 0 0 0 7.112-22.859c11.796 15.554 25.844 29.43 41.865 41.24l19.804 14.6c19.624 14.465 34.049 35.363 40.615 58.842l1.927 6.887c7.937 28.375 33.492 47.185 61.991 47.185 3.741 0 7.533-.324 11.342-.993l29.518-5.185c18.538-3.257 34.69-14.401 44.312-30.578s11.708-35.688 5.722-53.533l-7.966-23.745a18.043 18.043 0 0 1 6.297-20.208l12.489-9.36a32.963 32.963 0 0 0 13.121-24.049 32.964 32.964 0 0 0-9.578-25.67c-10.379-10.378-26.533-12.63-39.35-5.505a5.85 5.85 0 0 1-4.607-4.968 5.78 5.78 0 0 1 1.205-4.359c12.225-15.474 49.062-62.102 75.915-96.045zm-51.337-85.416c.201-.002.4-.004.601-.004 11.521 0 22.329 4.476 30.493 12.639l.922.922c16.128 16.127 17.691 41.686 3.637 59.451l-11.521 14.565c-7.514-31.368-31.745-56.699-63.233-65.28l8.361-8.825c8.078-8.526 18.995-13.309 30.74-13.468zm-73.327-13.875c-8.993 20.257-14.224 41.575-15.635 63.523-27.957-6.036-56.759 3.65-75.507 24.311-3.977-27.562-2.712-55.318 3.619-82.045.097-.125.203-.239.294-.37 11.086-15.911 27.687-26.552 46.746-29.959 16.581-2.964 33.309-.144 47.854 7.935l-7.371 16.605zm-59.289-65.324c8.596-18.293 29.591-27.437 48.839-21.264a40.409 40.409 0 0 1 24.504 21.922c4.203 9.378 4.634 19.998 1.316 29.641-18.157-9.603-38.852-12.867-59.373-9.2-10.875 1.944-21.115 5.746-30.385 11.155a223.054 223.054 0 0 1 1.877-4.112l13.222-28.142zM164.491 194.615c4.39-8.11 11.721-13.859 20.644-16.19l1.102-.287a34.436 34.436 0 0 1 8.718-1.124c15.183 0 29.116 10.097 33.189 25.318l2.422 9.049c-25.097 1.691-47.093 16.146-59.007 37.244l-9.333-27.874c-2.929-8.745-2.125-18.028 2.265-26.136zm-71.317 46.57a72.765 72.765 0 0 1 27.585 5.451 84.26 84.26 0 0 0-10.218-.644c-46.315 0-83.997 37.681-83.997 83.997 0 6.472.754 12.835 2.201 19.046a72.962 72.962 0 0 1-8.747-34.675c.001-40.349 32.827-73.175 73.176-73.175zm-49.26 186.8c0 4.287.327 8.499.949 12.615-4.82-9.564-7.495-20.282-7.495-31.422 0-38.596 31.401-69.997 69.997-69.997 8.981 0 17.721 1.757 25.816 4.99a84.441 84.441 0 0 0-5.271-.182c-46.314-.001-83.996 37.681-83.996 83.996zm63.452-108.804c-22.887 0-43.801 8.593-59.7 22.715a64.067 64.067 0 0 1-1.122-11.908c0-35.289 28.709-63.997 63.997-63.997s63.997 28.709 63.997 63.997c0 5.729-.781 11.419-2.285 16.907-16.728-17.358-40.104-27.714-64.887-27.714zm320.3 145.834a44.512 44.512 0 0 1-30.584 21.103l-29.518 5.185c-22.656 3.981-44.417-9.726-50.615-31.881l-.007-.024c8.913-20.551 24.992-36.713 45.602-45.689 20.231-8.812 42.563-9.73 63.351-2.69l5.719 17.048a44.508 44.508 0 0 1-3.948 36.948zm-.896-131.724h1.228c1.72 0 3.409-.443 4.907-1.287l2.341-1.318c5.056-2.848 11.452-1.971 15.554 2.132 2.703 2.703 4.043 6.292 3.771 10.105-.271 3.813-2.106 7.175-5.166 9.468l-12.49 9.361a38.005 38.005 0 0 0-15.12 27.356c-43.541-9.961-88.823 8.206-113.594 44.806-9.139-20.092-23.33-37.766-41.183-50.927l-2.472-1.822c6.648-23.234 19.34-44.093 36.933-60.586 4.029-3.777 4.234-10.105.457-14.134-3.778-4.031-10.107-4.235-14.134-.457-18.445 17.291-32.189 38.752-40.269 62.634l-.319-.235c-30.144-22.221-52.545-52.54-64.927-87.81 2.125-28.069 25.76-49.584 53.665-49.378a110.642 110.642 0 0 0 13.689 29.047l8.448 12.719c4.502 6.783 12.764 9.765 20.567 7.427l.162-.05c8.855-2.655 14.48-11.531 13.086-20.648a33174.86 33174.86 0 0 1-5.155-33.883c11.928-27.306 42.335-41.388 70.65-33.279v20.76c0 5.522 4.478 10 10 10s10-4.478 10-10v-29.11c0-2.598.06-5.188.178-7.769a9.5 9.5 0 0 0 .375-.376l13.374-14.116c35.73 3.686 62.793 34.367 61.977 70.29-10.023 12.679-19.85 25.116-28.165 35.64-21.479-4.633-43.188-4.645-64.593-.023-5.398 1.165-8.83 6.486-7.664 11.885 1.165 5.398 6.486 8.836 11.885 7.664a131.88 131.88 0 0 1 46.301-1.714l-4.571 5.787c-4.283 5.421-6.231 12.461-5.347 19.315 1.656 12.84 12.67 22.526 25.621 22.526z"/><path d="m322.8 281.333-.299.153c-4.92 2.509-6.875 8.53-4.367 13.45a10 10 0 0 0 13.451 4.367l.299-.153c4.92-2.509 6.875-8.53 4.367-13.45-2.509-4.922-8.531-6.873-13.451-4.367zM171.234 475.089c-4.082 3.719-4.376 10.044-.656 14.126a9.976 9.976 0 0 0 7.395 3.265 9.963 9.963 0 0 0 6.732-2.608l.219-.202c4.037-3.769 4.234-10.076.466-14.113-3.768-4.037-10.117-4.235-14.156-.468z"/></svg>