<svg height="512" width="512" xmlns="http://www.w3.org/2000/svg"><path d="M366.904 379.516v-30h-60V504.5h30c24.853 0 45-20.147 45-45 0-39.992-15-39.992-15-79.984z" fill="#ffcfb2"/><path d="M351.904 459.5c0-39.992-15-39.992-15-79.984v-30H145.096v30c0 39.992-15 39.992-15 79.984 0 24.853 20.147 45 45 45h131.808c24.853 0 45-20.147 45-45z" fill="#ffe6be"/><path d="M354.5 311H256l110.997 68.52a19.536 19.536 0 0 1 13.77 5.738A19.543 19.543 0 0 0 394.63 391c10.974 0 19.87-8.896 19.87-19.87V371c0-33.137-26.863-60-60-60z" fill="#c18b77"/><path d="M299.048 311H157.5c-33.137 0-60 26.863-60 60v.13c0 10.974 8.896 19.87 19.87 19.87a19.543 19.543 0 0 0 13.863-5.742c7.656-7.656 20.07-7.656 27.726 0s20.07 7.656 27.726 0 20.07-7.656 27.726 0 20.07 7.656 27.726 0 20.07-7.656 27.726 0 20.07 7.656 27.726 0 20.07-7.656 27.726 0A19.543 19.543 0 0 0 339.178 391c10.974 0 19.87-8.896 19.87-19.87V371c0-33.137-26.863-60-60-60z" fill="#d5a18b"/><path d="M256 7.5 384.5 331h30c49.706 0 90-40.294 90-90C504.5 112.042 393.243 7.5 256 7.5z" fill="#8d483b"/><path d="M474.5 241C474.5 112.042 376.674 7.5 256 7.5 118.757 7.5 7.5 112.042 7.5 241c0 49.706 40.294 90 90 90h287c49.706 0 90-40.294 90-90z" fill="#975d50"/><circle cx="97.5" cy="286" r="7.5"/><circle cx="127.5" cy="256" r="7.5"/><circle cx="67.5" cy="181" r="7.5"/><path d="M512 241c0-64.462-26.688-125.04-75.148-170.575C388.52 25.011 324.292 0 256 0S123.48 25.011 75.148 70.425C26.688 115.96 0 176.538 0 241c0 53.762 43.738 97.5 97.5 97.5h.839A67.374 67.374 0 0 0 90 371v.13c0 15.092 12.278 27.37 27.37 27.37 7.24 0 14.047-2.819 19.167-7.939.205-.205.422-.39.638-.577-1.014 11.957-3.741 19.265-6.601 26.89-3.922 10.457-7.978 21.27-7.978 42.626 0 28.949 23.552 52.5 52.5 52.5h161.807c28.948 0 52.5-23.551 52.5-52.5 0-21.356-4.056-32.169-7.978-42.626-2.86-7.624-5.587-14.932-6.601-26.89.216.187.433.372.638.577 5.12 5.12 11.927 7.939 19.167 7.939 15.092 0 27.37-12.278 27.37-27.37V371a67.374 67.374 0 0 0-8.339-32.5h.839C468.262 338.5 512 294.762 512 241zM336.903 497H175.097c-20.678 0-37.5-16.822-37.5-37.5 0-18.636 3.411-27.73 7.022-37.358 3.266-8.707 6.622-17.667 7.654-32.751.48.354.947.735 1.382 1.17 10.568 10.568 27.764 10.568 38.334 0 4.72-4.72 12.4-4.719 17.118 0 10.568 10.568 27.765 10.569 38.333 0 4.719-4.72 12.4-4.72 17.119 0 10.568 10.569 27.765 10.568 38.333 0a12.026 12.026 0 0 1 8.56-3.545c3.232 0 6.272 1.259 8.559 3.545 10.57 10.568 27.766 10.568 38.334 0 .435-.435.901-.816 1.382-1.17 1.032 15.083 4.389 24.043 7.654 32.751 3.611 9.628 7.022 18.723 7.022 37.358 0 20.678-16.822 37.5-37.5 37.5zM142.79 338.5h252.933A52.388 52.388 0 0 1 407 371v.13c0 6.821-5.549 12.37-12.37 12.37a12.03 12.03 0 0 1-8.56-3.545c-5.284-5.284-12.226-7.926-19.167-7.926-6.94 0-13.882 2.642-19.166 7.926-4.719 4.72-12.4 4.72-17.119 0-5.12-5.12-11.927-7.939-19.166-7.939-7.24 0-14.047 2.819-19.167 7.939-2.286 2.286-5.326 3.545-8.559 3.545s-6.273-1.259-8.56-3.545c-5.12-5.12-11.927-7.939-19.167-7.939s-14.047 2.819-19.167 7.939a12.026 12.026 0 0 1-8.56 3.545 12.029 12.029 0 0 1-8.559-3.545c-10.568-10.569-27.765-10.568-38.333 0-4.719 4.72-12.4 4.72-17.119 0-10.568-10.569-27.765-10.568-38.333 0a12.026 12.026 0 0 1-8.56 3.545c-6.821 0-12.37-5.549-12.37-12.37V371a52.403 52.403 0 0 1 13.378-34.998 7.499 7.499 0 0 0-5.588-12.503H97.5C52.01 323.5 15 286.491 15 241 15 116.383 123.112 15 256 15s241 101.383 241 226c0 45.491-37.01 82.5-82.5 82.5H142.79c-4.143 0-7.5 3.358-7.5 7.5s3.357 7.5 7.5 7.5z"/></svg>