<svg id="Capa_1" enable-background="new 0 0 512 512" height="512" viewBox="0 0 512 512" width="512" xmlns="http://www.w3.org/2000/svg"><g><g><g><g><path d="m186.148 356.604-34.488-28.939 250.42-298.438c3.552-4.233 9.862-4.785 14.095-1.233l19.16 16.077c4.233 3.552 4.785 9.862 1.233 14.095z" fill="#99d53b"/></g><g><path d="m436.564 58.166-250.419 298.438-19.98-16.765 250.418-298.438c3.434-4.093 3.028-10.114-.81-13.727.137.102.267.211.397.32l19.16 16.077c4.239 3.557 4.79 9.857 1.234 14.095z" fill="#82b732"/></g></g><g><g><path d="m173.13 371.754-34.488-28.939 14.47-17.244c50.893-60.652 109.436-112.786 174.002-154.955 51.934-33.919 93.065-51.48 108.337-57.457l11.646-4.557c5.146-2.013 10.949.526 12.962 5.671l9.114 23.292c2.013 5.146-.526 10.949-5.671 12.962l-11.646 4.557c-13.973 5.467-51.699 21.598-100.124 53.224-60.862 39.749-116.083 88.938-164.132 146.2z" fill="#2db181"/></g><g><path d="m463.506 150.528-11.646 4.555c-13.98 5.47-51.704 21.602-100.131 53.229-60.855 39.745-116.082 88.939-164.127 146.197l-14.47 17.244-16.248-13.634 22.592-26.924c48.045-57.258 103.272-106.452 164.135-146.19 48.427-31.627 86.152-47.76 100.124-53.236l11.645-4.555c3.749-1.464 6.115-4.938 6.347-8.701l7.447 19.048c2.013 5.151-.533 10.955-5.668 12.967z" fill="#1ca56f"/></g></g><g><g><path d="m173.13 371.754-34.488-28.939 14.47-17.244c66.419-79.156 105.37-155.806 126.349-206.169 22.794-54.717 29.915-91.146 29.984-91.508l2.351-12.272c1.038-5.419 6.267-8.974 11.688-7.947l24.541 4.649c5.426 1.028 8.993 6.258 7.969 11.685l-2.315 12.265c-.306 1.619-7.761 40.321-32.049 98.969-22.205 53.623-63.484 135.193-134.03 219.267z" fill="#bcea73"/></g><g><path d="m187.602 354.509-14.47 17.244-18.93-15.884 7.942-9.465c70.547-84.074 111.828-165.645 134.03-219.265 24.283-58.652 31.748-97.354 32.047-98.971l2.314-12.268c.485-2.571-.056-5.101-1.342-7.147l18.832 3.565c5.43 1.03 8.992 6.265 7.968 11.688l-2.314 12.268c-.305 1.625-7.764 40.319-32.046 98.971-22.203 53.619-63.484 135.19-134.031 219.264z" fill="#99d53b"/></g></g><g><path d="m168.449 306.383-110.066 117.127c-18.738 19.94-21.563 50.051-6.861 73.129 6.329 9.936 20.603 10.571 27.79 1.237l124.56-161.769z" fill="#ecf8d9"/><path d="m79.314 497.88c-6.085 7.889-17.252 8.653-24.372 2.679-1.295-1.087-2.454-2.399-3.425-3.919-3.12-4.904-5.46-10.132-7.009-15.507 6.506 2.129 14.133.262 18.782-5.776l120.312-156.254 20.271 17.01z" fill="#dbf2b4"/></g></g><path d="m476.158 134.834-9.114-23.293c-3.519-8.988-13.69-13.44-22.679-9.922l-11.647 4.557c-8.024 3.14-23.093 9.44-43.042 19.541l52.637-62.73c3.006-3.582 4.437-8.12 4.028-12.778-.407-4.658-2.605-8.878-6.186-11.883l-19.16-16.077c-3.582-3.006-8.123-4.442-12.777-4.029-4.658.407-8.878 2.604-11.884 6.186l-15.31 18.245c-2.663 3.173-2.249 7.904.924 10.566 3.174 2.663 7.904 2.249 10.566-.924l15.31-18.245c.58-.692 1.314-.852 1.7-.885.386-.032 1.137-.004 1.828.576l19.161 16.078c.691.58.851 1.314.885 1.7.033.386.004 1.137-.576 1.828l-77.286 92.105c-9.646 5.646-19.856 11.92-30.523 18.887-2.846 1.859-5.69 3.749-8.529 5.657 5.398-11.531 10.078-22.226 14.076-31.882 2.624-6.336 5.043-12.431 7.292-18.294l33.471-39.888c2.663-3.173 2.249-7.904-.924-10.566-3.173-2.663-7.904-2.249-10.566.924l-8.018 9.555c8.041-25.652 11.04-41.153 11.234-42.178l2.314-12.264c1.789-9.478-4.466-18.649-13.943-20.446l-24.54-4.648c-9.458-1.791-18.637 4.444-20.451 13.904l-2.352 12.272c-.068.357-7.168 36.327-29.54 90.035-10.683 25.643-23.33 51.615-37.591 77.196-2.017 3.618-.719 8.186 2.898 10.203 3.617 2.016 8.188.719 10.203-2.899 14.537-26.076 27.435-52.565 38.335-78.731 23.264-55.845 30.361-92.635 30.427-92.98l2.352-12.271c.26-1.355 1.571-2.249 2.927-1.991l24.54 4.648c1.356.257 2.251 1.57 1.995 2.926l-2.313 12.259c-.302 1.593-7.666 39.677-31.609 97.495-19.281 46.561-54.408 117.387-112.708 192.367l-23.021-19.317c18.07-23.31 35.057-47.767 50.527-72.823 2.176-3.524 1.083-8.146-2.441-10.322-3.525-2.175-8.146-1.083-10.322 2.442-16.141 26.143-33.955 51.632-52.951 75.798-.28.223-.551.46-.802.728l-110.065 117.128c-21.106 22.46-24.28 56.301-7.721 82.295 4.284 6.726 11.598 10.953 19.565 11.308.363.016.727.024 1.088.024 7.572 0 14.763-3.519 19.405-9.549l39.69-51.545c2.527-3.282 1.915-7.991-1.367-10.518-3.283-2.528-7.99-1.915-10.518 1.367l-39.69 51.544c-1.913 2.485-4.786 3.841-7.941 3.691-3.133-.139-5.896-1.736-7.581-4.381-12.871-20.204-10.403-46.507 6.002-63.964l105.209-111.96 24.483 20.544-58.38 75.82c-2.527 3.282-1.915 7.991 1.367 10.518 3.282 2.528 7.992 1.915 10.518-1.367l62.768-81.518c.305-.396.974-1.43 1.065-1.531 43.294-48.111 92.064-90.02 144.954-124.562 47.848-31.251 85.002-47.139 98.756-52.519l11.645-4.557c8.988-3.517 13.44-13.691 9.923-22.68zm-15.389 8.71-11.645 4.557c-14.187 5.55-52.475 21.915-101.493 53.929-30.947 20.211-60.5 42.901-88.415 67.824 16.455-25.598 30.22-49.928 41.62-72.083.135-.085.271-.166.402-.261 9.8-7.089 19.886-14.025 29.977-20.615 10.893-7.114 21.293-13.492 31.075-19.192.001-.001.002-.001.004-.002 36.326-21.17 64.028-32.916 75.89-37.558l11.647-4.557c1.286-.506 2.74.134 3.244 1.419l9.114 23.292c.504 1.288-.133 2.744-1.42 3.247z"/></g></svg>