<svg id="Capa_1" enable-background="new 0 0 512 512" height="512" viewBox="0 0 512 512" width="512" xmlns="http://www.w3.org/2000/svg"><g><g><g><path d="m154.735 216.216c18.545 0 36.062 4.392 51.578 12.183 9.345-23.033 25.594-42.591 46.151-56.076-.334-1.213-.684-2.424-1.068-3.633-12.971-40.925-50.496-67.608-91.231-68.979-21.507-.724-42.277-8.002-59.18-21.32l-7.578-5.971c-2.682-2.113-6.649-.855-7.624 2.417l-2.755 9.246c-6.146 20.623-18.931 38.536-36.095 51.517-32.508 24.586-47.811 68.013-34.84 108.937 6.333 19.982 18.523 36.563 34.079 48.466 15.787-44.731 58.428-76.787 108.563-76.787z" fill="#fea613"/><path d="m60.284 229.263c2.706 8.537 6.02 16.597 9.802 24.068 21.033-22.817 51.169-37.115 84.648-37.115 18.545 0 36.062 4.392 51.578 12.183 1.192-2.937 2.493-5.818 3.904-8.637-.856-11.517-3.154-23.618-7.014-35.797-12.971-40.925-39.857-70.98-65.842-77.026-13.719-3.192-27.732-12.612-39.993-27.401l-5.497-6.63c-1.945-2.346-4.315-1.595-4.554 1.443l-.674 8.586c-1.504 19.152-7.532 34.923-16.908 45.436-17.756 19.91-22.421 59.965-9.45 100.89z" fill="#fe9901"/><path d="m90.211 81.806c3.076 17.7 3.715 31.359 2.023 39.435-3.204 15.298 2.628 52.026 15.599 92.95 1.13 3.565 2.287 7.071 3.463 10.511 13.405-5.467 28.068-8.487 43.438-8.487 2.034 0 4.055.054 6.064.159-1.564-5.659-3.28-11.455-5.145-17.339-12.971-40.925-29.36-74.307-40.792-84.966-6.036-5.628-13.38-17.161-21.062-33.401l-3.444-7.281c-1.219-2.577-2.012-2.325-1.524.483z" fill="#fea613"/></g></g><g><path d="m423.633 159.441c-24.805-8.791-46.329-24.95-61.114-46.72l-6.628-9.76c-2.346-3.454-7.436-3.454-9.781 0l-6.628 9.76c-14.785 21.771-36.309 37.93-61.113 46.72-32.711 11.593-59.058 36.923-72.055 68.958 37.671 18.915 63.528 57.897 63.528 102.923 0 17.042-3.708 33.217-10.354 47.768 17.487 9.847 37.626 15.482 59.021 15.482h64.986c66.554 0 121.007-54.453 121.007-121.007-.002-52.502-33.888-97.474-80.869-114.124z" fill="#fe9901"/><path d="m394.378 159.442c-14.814-8.791-27.669-24.95-36.498-46.721l-3.959-9.76c-1.401-3.454-4.441-3.454-5.842 0l-3.959 9.76c-8.83 21.771-21.684 37.93-36.498 46.721-28.058 16.65-48.296 61.621-48.296 114.123 0 3.437.092 6.839.262 10.205 6.584 14.495 10.253 30.595 10.253 47.552 0 1.549-.04 3.088-.1 4.622 12.693 35.067 35.709 58.628 61.854 58.628h38.811c39.748 0 72.269-54.453 72.269-121.007-.001-52.502-20.239-97.473-48.297-114.123z" fill="#fb8801"/><g><g><path d="m344.507 394.572h12.986c13.299 0 24.181-54.453 24.181-121.007 0-52.502-6.771-97.473-16.16-114.123-4.957-8.791-9.258-24.95-12.212-46.72l-1.325-9.761c-.469-3.454-1.486-3.454-1.955 0l-1.325 9.761c-2.954 21.771-7.255 37.93-12.212 46.72-9.388 16.65-16.16 61.621-16.16 114.123.002 66.554 10.883 121.007 24.182 121.007z" fill="#fe9901"/></g></g></g><g><g><circle cx="154.735" cy="331.322" fill="#fff9e2" r="115.106"/></g><g><circle cx="154.735" cy="331.322" fill="#fff5c6" r="86.039"/></g><g><circle cx="154.735" cy="331.322" fill="#fff9e2" r="56.972"/></g><g><circle cx="154.735" cy="331.322" fill="#fff5c6" r="27.904"/></g></g><g><path d="m426.138 152.372c-23.801-8.435-43.654-23.603-57.414-43.865l-2.07-3.048 14.24-24.665c2.071-3.587.842-8.174-2.745-10.245-3.589-2.072-8.175-.842-10.245 2.745l-9.404 16.288v-24.01c0-4.142-3.357-7.5-7.5-7.5s-7.5 3.358-7.5 7.5v24.009l-9.403-16.287c-2.07-3.587-6.659-4.816-10.245-2.745-3.587 2.071-4.816 6.658-2.745 10.245l14.24 24.665-2.069 3.048c-13.761 20.262-33.614 35.43-57.415 43.865-6.706 2.377-13.124 5.276-19.216 8.638-15.086-39.942-53.05-67.341-96.229-68.794-20.344-.685-39.29-7.502-54.791-19.715l-7.578-5.971c-3.213-2.532-7.46-3.306-11.36-2.069-3.9 1.236-6.925 4.314-8.094 8.235l-2.755 9.246c-5.636 18.912-17.196 35.398-33.431 47.677-35.998 27.223-51.054 74.316-37.467 117.185 6.253 19.729 17.759 36.359 32.483 48.855-3.439 11.29-5.296 23.264-5.296 35.664 0 67.605 55.001 122.605 122.606 122.605 46.641 0 87.279-26.181 108-64.617 16.879 8.168 35.797 12.761 55.772 12.761h13.088 12.899.013 12.986.013 12.899 13.088c70.859 0 128.507-57.648 128.507-128.507 0-54.289-34.505-102.992-85.862-121.193zm-145.266 14.139c3.71-1.315 7.327-2.79 10.862-4.392-21.442 19.931-36.109 55.343-39.265 95.265-9.878-13.025-22.293-24.026-36.506-32.253 12.715-26.777 35.721-48.276 64.909-58.62zm-120.96-59.304c38.16 1.285 71.577 26.131 83.75 62.026-11.205 8.063-20.979 17.827-29.004 28.85-1.148-5.456-2.579-10.931-4.307-16.384-10.638-33.562-30.886-61.248-53.408-74.648.989.058 1.976.122 2.969.156zm-24.251 7.036c23.886 5.558 48.719 35.161 60.392 71.988 3.418 10.784 5.583 21.617 6.519 32.105-.013.028-.027.055-.04.082-11.229-4.772-23.313-7.91-35.949-9.128-1.193-4.141-2.448-8.318-3.78-12.522-13.188-41.608-29.998-76.223-42.826-88.185-.217-.203-.453-.432-.705-.686 5.367 2.927 10.855 5.058 16.389 6.346zm-60.329 19.122c3.783-4.241 7.04-9.144 9.743-14.627-.059.352-.12.675-.181.966-2.614 12.48.264 32.861 3.139 47.761.785 4.067 4.714 6.725 8.785 5.943 4.067-.785 6.728-4.718 5.943-8.785-3.642-18.874-4.803-34.125-3.186-41.844.87-4.155 1.15-9.11 1.047-14.354 2.936 4.344 6.019 8.234 9.124 11.13 8.784 8.19 24.659 37.265 38.757 81.747.806 2.544 1.574 5.037 2.308 7.484-12.135.383-23.83 2.537-34.836 6.214-.331-1.021-.662-2.031-.992-3.072-1.451-4.58-2.856-9.258-4.176-13.905-1.131-3.985-5.279-6.298-9.264-5.166-3.984 1.132-6.297 5.28-5.166 9.264 1.362 4.795 2.811 9.619 4.307 14.337.444 1.401.899 2.788 1.353 4.175-10.83 5.177-20.789 11.895-29.586 19.873-1.845-4.351-3.541-8.849-5.018-13.51-11.671-36.827-8.423-75.329 7.899-93.631zm-56.091 108.906c-11.672-36.825 1.274-77.289 32.215-100.689.793-.6 1.563-1.221 2.337-1.839-10.692 23.928-11.295 58.222-.658 91.785 2.27 7.161 4.972 14.068 8.045 20.646-7.245 8.551-13.345 18.1-18.053 28.415-10.717-10.243-19.1-23.216-23.886-38.318zm135.494 196.657c-59.334 0-107.606-48.271-107.606-107.605s48.272-107.606 107.606-107.606 107.605 48.271 107.605 107.605-48.271 107.606-107.605 107.606zm114.296-63.242c1.754-4.504 3.253-9.134 4.471-13.876.206.353.405.712.614 1.061 4.798 8.035 10.135 14.917 15.887 20.574-7.304-1.895-14.317-4.514-20.972-7.759zm8.268-41.178c.027-1.059.041-2.121.041-3.186 0-17.493-3.69-34.138-10.321-49.209-.127-2.826-.193-5.677-.193-8.549 0-24.42 4.5-47.774 13.014-67.539 7.979-18.52 19.204-32.773 31.609-40.134 8.416-4.994 16.091-11.964 22.841-20.642-1.685 5.235-3.222 8.531-4.337 10.509-10.404 18.451-17.127 64.693-17.127 117.807 0 32.667 2.574 63.539 7.249 86.931 2.208 11.05 4.736 19.79 7.648 26.356-20.863-2.279-39.429-22.807-50.424-52.344zm90.832 18.205c-4.295 24.047-9.379 32.669-11.335 34.359h-11.591c-1.956-1.69-7.041-10.312-11.335-34.359-3.896-21.819-6.043-49.928-6.043-79.148 0-57.367 7.876-97.462 15.193-110.439 3.278-5.815 5.901-13.607 7.98-21.864 2.08 8.257 4.702 16.049 7.98 21.864 10.438 18.512 15.193 70.226 15.193 110.439.001 29.221-2.146 57.329-6.042 79.148zm43.783 30.755c4.289-4.194 8.347-9.057 12.11-14.561 13.769-20.138 22.776-47.575 25.363-77.256.359-4.126-2.694-7.763-6.82-8.123-4.12-.363-7.763 2.694-8.123 6.82-2.367 27.156-10.465 52.048-22.803 70.093-10.716 15.674-23.853 24.895-37.355 26.389 2.908-6.563 5.433-15.296 7.638-26.335 4.675-23.392 7.249-54.264 7.249-86.931 0-53.113-6.723-99.355-17.127-117.806-1.115-1.978-2.652-5.273-4.337-10.509 6.75 8.677 14.425 15.647 22.841 20.642 23.008 13.654 40.229 49.281 43.873 90.765.363 4.126 4.016 7.181 8.128 6.815 4.126-.362 7.178-4.001 6.815-8.127-3.477-39.579-18.01-73.711-38.983-93.17 3.497 1.581 7.075 3.037 10.744 4.337 45.382 16.083 75.873 59.104 75.873 107.053 0 52.778-36.207 97.256-85.086 109.904z"/><path d="m240.192 343.699c-4.028-.945-8.069 1.553-9.017 5.586-3.979 16.937-13.697 32.312-27.363 43.294-14.069 11.306-31.04 17.282-49.077 17.282-43.306 0-78.539-35.232-78.539-78.539s35.232-78.539 78.539-78.539c38.015 0 70.51 27.147 77.265 64.55.736 4.076 4.635 6.784 8.713 6.047 4.076-.736 6.784-4.637 6.048-8.713-8.046-44.549-46.748-76.884-92.026-76.884-51.577 0-93.539 41.961-93.539 93.539 0 51.577 41.961 93.539 93.539 93.539 21.185 0 41.951-7.312 58.473-20.589 16.262-13.068 27.828-31.377 32.57-51.556.947-4.033-1.554-8.07-5.586-9.017z"/><path d="m154.735 266.851c-35.55 0-64.472 28.922-64.472 64.472 0 35.549 28.922 64.471 64.472 64.471s64.472-28.922 64.472-64.471c-.001-35.551-28.922-64.472-64.472-64.472zm0 113.942c-27.279 0-49.472-22.193-49.472-49.471 0-27.279 22.193-49.472 49.472-49.472s49.472 22.193 49.472 49.472c-.001 27.279-22.193 49.471-49.472 49.471z"/><path d="m154.735 295.917c-19.522 0-35.404 15.882-35.404 35.405 0 19.522 15.882 35.404 35.404 35.404s35.404-15.882 35.404-35.404-15.882-35.405-35.404-35.405zm0 55.81c-11.251 0-20.404-9.153-20.404-20.404s9.153-20.405 20.404-20.405 20.404 9.153 20.404 20.405c0 11.25-9.153 20.404-20.404 20.404z"/></g></g></svg>