<svg fill="none" height="512" viewBox="0 0 128 128" width="512" xmlns="http://www.w3.org/2000/svg"><path d="M24.968 61.72c6.623 7.046 12.147 12.666 10.728 32.028 6.338.587 19.37.727 20.798-3.41 1.428-4.137 1.157-13.365 5.412-20.644 2.742-4.692 8.633-6.877 9.656-11.848s-4.536-6.905-8.82-4.232c1.572-3.293 11.892-4.468 10.43-13.717-1.328-8.407-8.162-6.964-9.306-7.784 1.514-1.367 5.575-8.175.795-14.178s-12.85-1.752-15.174-.163c-1.07-2.376-5.164-5.944-9.286-5.29-4.062.645-6.809 5.752-7.176 7.709-2.891-1.076-5.01-.102-6.386 2.419-1.708 3.125-.05 6.277 1.439 7.216-2.76-.726-7.296 1.104-8.038 4.654-.685 3.281 2.905 6.421 4.51 7.303-1.27.102-4.554 2.529-3.745 4.747 1.335 3.657 6.341 4.338 9.2 6.733-4.926-1.944-11.006 2.106-5.038 8.456z" fill="#83aa00"/><path d="M32.144 102.169c-.75-9.458.23-23.92 17.87-47.095 3.36 24.521 15.182 25.482 15.728 46.559.318 12.289-5.57 19.917-15.006 20.665-10.58.838-17.7-8.868-18.592-20.129z" fill="#cbd598"/><path d="M55.511 56.758c5.127 8.468 9.458 15.274 3.905 34.354 6.219 1.94 19.235 4.862 21.548 1.026 2.313-3.837 4.011-13.134 9.824-19.512 3.747-4.112 10.111-5.042 12.195-9.8 2.085-4.76-3.067-7.88-7.926-6.12 2.277-2.96 11.925-6.024 12.939-13.556 1.162-8.634-7.642-8.74-9.854-7.944 3.479-2.786 3.821-11.655 1.609-14.882-3.42-4.987-7.648-3.423-10.314-2.328 0-4.649-4.423-9.188-8.69-9.412-4.204-.222-7.52 6.44-8.305 8.32-1.778-1.246-5.622-3.182-7.627-.724-2.006 2.458-.674 8.056.617 9.314-2.608-1.317-7.097-.22-9.04 2.944-2.046 3.333 1.538 7.047 2.956 8.273-1.293-.169-4.864 1.538-4.762 3.953.181 4.278 5.423 5.696 7.772 8.704-4.515-2.998-11.467-.24-6.847 7.39z" fill="#83aa00"/><path d="M91.221 102.715c1.437-9.606 1.463-24.443-14.905-49.36-5.17 24.802-17.311 24.943-19.365 46.427-1.197 12.527 4.275 20.733 13.857 22.166 10.745 1.607 18.703-7.798 20.413-19.233z" fill="#cbd598"/><path d="M86.522 58.587c-7.458 7.766-13.676 13.957-12.328 35.53-7.063.579-21.573.579-23.114-4.044-1.541-4.623-1.13-14.894-5.779-23.049-2.997-5.257-9.53-7.759-10.609-13.306-1.079-5.548 5.132-7.633 9.87-4.606-1.71-3.685-13.187-5.117-11.45-15.398 1.58-9.343 9.171-7.655 10.456-8.554-1.67-1.54-6.11-9.168-.717-15.795 5.394-6.626 14.328-1.798 16.897 0 1.22-2.632 5.82-6.556 10.401-5.778 4.515.766 7.512 6.484 7.898 8.668 2.183-.9 6.055.912 7.168 3.898.97 2.603-.106 5.86-1.775 6.888 3.082-.776 7.585 1.457 8.893 5.278 1.378 4.025-3.31 7.114-5.108 8.077 1.412.128 4.796 2.79 4.112 5.33-1.21 4.497-7.112 4.753-10.322 7.386 5.507-2.106 12.228 2.476 5.507 9.475z" fill="#97be11"/><path d="M41.347 100.537c0-10.565 2.359-26.53 23.976-50.702 1.572 27.513 14.61 29.618 13.363 53.06-.727 13.669-7.934 21.618-18.473 21.618-11.817 0-18.866-11.399-18.866-23.976z" fill="#dfe9ac"/><path clip-rule="evenodd" d="M70.317 2.6c-2.62-.445-5.17.462-7.172 1.757-1.571 1.016-2.9 2.332-3.74 3.592-1.566-.956-4.078-2.206-6.862-2.726-3.455-.646-7.464-.179-10.467 3.51a12.914 12.914 0 0 0-1.714 2.718 7.295 7.295 0 0 0-.317.044c-2.394.38-4.298 2.046-5.608 3.737-.963 1.245-1.687 2.608-2.089 3.709-1.233-.29-2.395-.241-3.454.182-1.341.535-2.37 1.61-3.133 3.007a6.691 6.691 0 0 0-.56 5.194c.15.502.354.976.597 1.409a9.04 9.04 0 0 0-2.954.927c-1.749.902-3.332 2.459-3.782 4.616-.43 2.06.497 3.967 1.584 5.368.578.745 1.24 1.4 1.872 1.929-.456.296-.92.667-1.334 1.09-.945.964-1.932 2.529-1.318 4.21.806 2.208 2.702 3.442 4.505 4.383.459.24.927.468 1.383.688l.024.012c-1.23.277-2.334.87-3.125 1.76-.892 1.005-1.335 2.345-1.097 3.883.233 1.506 1.106 3.127 2.683 4.805l.2.213c3.245 3.451 6.078 6.465 7.99 10.895.82 1.898 1.477 4.074 1.91 6.672a61.472 61.472 0 0 0-1.112 3.288c-2.402 7.844-2.462 13.955-2.08 18.776.46 5.804 2.526 11.258 5.902 15.175 3.392 3.937 8.115 6.319 13.766 5.871a17.7 17.7 0 0 0 .66-.063c2.535 1.453 5.464 2.282 8.739 2.282 3.67 0 6.98-.922 9.788-2.685.217.04.437.076.658.109 5.73.857 10.714-1.237 14.453-5.011 3.721-3.756 6.217-9.174 7.097-15.064.732-4.894 1.105-11.135-.79-19.311a66.835 66.835 0 0 0-2.161-7.32 24.083 24.083 0 0 1 2.268-2.932c1.485-1.629 3.405-2.717 5.428-3.864h.002c.349-.198.7-.397 1.053-.601 2.319-1.341 4.704-2.901 5.89-5.608.6-1.37.708-2.697.37-3.886-.337-1.183-1.092-2.146-2.069-2.836-1.04-.735-2.346-1.175-3.75-1.274.319-.21.657-.43 1.01-.659.983-.637 2.074-1.345 3.132-2.123 2.874-2.115 5.83-4.977 6.394-9.165.314-2.328-.033-4.186-.862-5.628-.827-1.439-2.078-2.364-3.394-2.932-1.31-.565-2.713-.79-3.923-.826a11.948 11.948 0 0 0-.337-.005c.242-.436.453-.899.635-1.376.527-1.38.843-2.946.971-4.504.128-1.56.071-3.142-.169-4.56-.237-1.403-.665-2.72-1.333-3.694-1.87-2.727-4.056-3.764-6.21-3.877-1.48-.078-2.882.286-4.045.7-.35-2.114-1.448-4.092-2.899-5.635-1.767-1.88-4.167-3.232-6.62-3.361-1.18-.062-2.264.302-3.234.893a16.593 16.593 0 0 0-1.123-1.693c-1.43-1.888-3.508-3.74-6.127-4.185zm1.978 118.5c4.454.271 8.345-1.501 11.397-4.582 3.372-3.403 5.711-8.406 6.54-13.951.705-4.712 1.064-10.692-.76-18.565-1.246-5.374-3.514-11.652-7.408-19.025-1.58 1.967-2.97 4.075-4.095 6.603-1.118 2.516-1.98 5.47-2.479 9.135 2.658 5.88 4.732 12.135 4.195 22.234-.372 6.99-2.406 12.628-5.8 16.537a17.953 17.953 0 0 1-1.59 1.614zm1.708-43.56c.528-2.557 1.253-4.78 2.139-6.772 2.334-5.252 5.753-8.81 9.353-12.556l.306-.318c1.594-1.66 2.298-3.083 2.484-4.2.18-1.086-.117-1.949-.686-2.603-1.191-1.37-3.77-1.985-6.227-1.046a1 1 0 0 1-.99-1.707c.904-.742 1.97-1.294 3.017-1.77.465-.21.941-.413 1.404-.61l.178-.075c.524-.223 1.031-.44 1.519-.67 1.976-.931 3.388-1.951 3.872-3.748.205-.76-.177-1.71-1.034-2.624-.406-.433-.87-.8-1.298-1.061-.454-.276-.776-.377-.906-.389a1 1 0 0 1-.381-1.877c.85-.455 2.353-1.4 3.465-2.668 1.11-1.265 1.692-2.674 1.169-4.203-.56-1.636-1.822-2.972-3.324-3.815-1.516-.85-3.149-1.127-4.379-.817a1 1 0 0 1-.768-1.822c.545-.335 1.122-1.144 1.439-2.272.31-1.103.321-2.347-.077-3.415-.45-1.208-1.491-2.24-2.705-2.867-1.243-.643-2.433-.75-3.146-.456a1 1 0 0 1-1.365-.751c-.158-.895-.919-2.726-2.213-4.435-1.293-1.708-2.972-3.1-4.867-3.42-1.96-.334-4.002.333-5.75 1.463-1.759 1.137-3.065 2.644-3.577 3.75a1 1 0 0 1-1.48.398c-1.218-.852-3.96-2.427-7-2.995-3.003-.561-6.158-.13-8.548 2.807-2.463 3.026-2.684 6.258-2.09 8.958.607 2.757 2.045 4.858 2.709 5.471a1 1 0 0 1-.105 1.554c-.361.253-.823.35-1.155.409-.286.05-.625.09-.967.132h-.002l-.279.034c-.904.113-1.922.267-2.931.65-.997.38-1.977.981-2.8 1.99-.824 1.011-1.536 2.488-1.908 4.687-.4 2.372-.034 4.165.715 5.594.76 1.45 1.952 2.6 3.322 3.605.96.704 1.941 1.296 2.903 1.875.44.264.875.527 1.301.796.658.415 1.291.845 1.823 1.308.53.46 1.01.994 1.306 1.631a1 1 0 0 1-1.445 1.264c-2.13-1.361-4.525-1.526-6.194-.832-.824.343-1.458.887-1.838 1.587-.379.696-.55 1.625-.318 2.818.471 2.423 2.138 4.241 4.281 6.218.297.274.604.551.917.834l.002.002c1.866 1.686 3.929 3.55 5.296 5.948a29.085 29.085 0 0 1 2.18 4.857c3.606-6.536 8.793-13.904 16.228-22.218a1 1 0 0 1 1.743.61c.761 13.31 4.23 20.553 7.463 27.306l.18.376.039.08zm-26.966-3.678c-.627-2.178-1.458-4.332-2.604-6.343a12.749 12.749 0 0 0-.885-1.34c-4.236 6.855-6.843 12.767-8.409 17.88-2.31 7.545-2.365 13.394-1.998 18.032.432 5.457 2.371 10.486 5.423 14.027 2.642 3.065 6.11 5.016 10.214 5.213a20.32 20.32 0 0 1-3.236-3.499c-3.386-4.622-5.194-10.832-5.194-17.295 0-5.374.602-12.137 3.95-20.616a70.972 70.972 0 0 1 2.74-6.059zm31.427-63.586c.113.27.212.53.295.778 1.227-.14 2.573.205 3.733.805 1.546.8 2.998 2.167 3.66 3.945.572 1.535.531 3.22.128 4.654a7.529 7.529 0 0 1-.593 1.491c1.146.146 2.303.546 3.354 1.135 1.846 1.035 3.49 2.725 4.238 4.91.854 2.497-.218 4.645-1.558 6.17-.732.836-1.586 1.538-2.363 2.085.493.331.992.747 1.439 1.223 1.016 1.084 1.985 2.735 1.506 4.513-.727 2.7-2.871 4.057-4.95 5.037-.527.248-1.065.479-1.59.702l-.161.068c1.388.309 2.631.98 3.506 1.987.96 1.103 1.428 2.567 1.15 4.242-.273 1.645-1.248 3.419-3.015 5.258l-.23.24c-1.247 1.298-2.44 2.54-3.56 3.811 2.043 3.805 3.67 7.339 4.956 10.626.508-.69 1.054-1.36 1.64-2.004 1.718-1.886 3.956-3.15 5.97-4.286.337-.19.668-.378.99-.564 2.32-1.341 4.16-2.625 5.059-4.678.441-1.008.471-1.856.278-2.537-.195-.685-.641-1.285-1.299-1.75-1.333-.941-3.485-1.275-5.649-.49a1 1 0 0 1-1.133-1.55c.687-.894 1.862-1.726 3.08-2.533.349-.23.707-.463 1.072-.7.97-.628 1.984-1.287 2.991-2.027 2.772-2.04 5.147-4.477 5.597-7.82.268-1.99-.05-3.383-.614-4.365-.566-.984-1.437-1.655-2.453-2.093-1.022-.44-2.163-.633-3.189-.663-1.042-.03-1.872.108-2.268.25a1 1 0 0 1-.964-1.72c.682-.547 1.27-1.446 1.72-2.624.447-1.168.731-2.543.847-3.953.116-1.41.061-2.824-.148-4.063-.212-1.255-.571-2.256-1.01-2.897-1.55-2.259-3.186-2.933-4.667-3.011-1.567-.083-3.1.492-4.441 1.043a1 1 0 0 1-1.38-.925c0-2.014-.967-4.077-2.474-5.68-1.512-1.608-3.456-2.638-5.269-2.734-.743-.039-1.494.217-2.23.694zm-36.28 54.309c-.811-.852-1.702-1.658-2.611-2.483-.323-.292-.649-.587-.974-.887-2.142-1.976-4.281-4.183-4.889-7.307-.307-1.581-.106-2.993.524-4.154.629-1.156 1.642-1.985 2.828-2.478.923-.384 1.958-.57 3.032-.554-.994-.6-2.109-1.272-3.141-2.03-1.496-1.097-2.954-2.463-3.91-4.289-.968-1.846-1.384-4.087-.916-6.855.418-2.473 1.247-4.29 2.33-5.618 1.085-1.33 2.38-2.115 3.638-2.594 1.247-.475 2.466-.65 3.396-.766l.281-.035c-.838-1.242-1.726-3.056-2.188-5.15-.383-1.742-.477-3.708.008-5.725-1.361.459-2.585 1.52-3.573 2.797-1.172 1.513-1.864 3.135-2.01 3.918a1 1 0 0 1-1.332.753c-1.277-.475-2.265-.458-3.042-.148-.785.313-1.505.986-2.119 2.11a4.692 4.692 0 0 0-.398 3.662c.331 1.11.99 1.911 1.493 2.228a1 1 0 0 1-.788 1.813c-1.087-.286-2.656-.08-4.063.645-1.394.72-2.45 1.853-2.74 3.247-.255 1.22.269 2.524 1.207 3.734.927 1.195 2.12 2.112 2.805 2.488a1 1 0 0 1-.402 1.873c-.095.008-.383.09-.81.34-.4.233-.833.56-1.208.943-.812.829-1.063 1.587-.867 2.124.529 1.449 1.804 2.384 3.551 3.296.43.224.873.44 1.33.661l.091.045c.425.205.861.417 1.289.636.913.469 1.84 1 2.64 1.671a1 1 0 0 1-1.009 1.697c-2.167-.855-4.44-.328-5.489.852-.497.56-.762 1.3-.616 2.248.152.978.757 2.244 2.164 3.741l.275.292c3.195 3.398 6.242 6.637 8.295 11.393a28.425 28.425 0 0 1 1.408 4.124c1.61-3.744 3.732-7.818 6.51-12.258zm.164 35.952c0-5.19.576-11.692 3.81-19.88 3.078-7.792 8.578-17.15 18.337-28.371 1.043 12.208 4.412 19.243 7.486 25.664l.18.373c3.274 6.844 6.137 13.048 5.527 24.519-.355 6.679-2.288 11.849-5.314 15.332-3.009 3.465-7.163 5.339-12.16 5.339-5.548 0-9.98-2.661-13.058-6.863-3.093-4.221-4.808-9.998-4.808-16.113z" fill="#000" fill-rule="evenodd"/></svg>