<svg id="Capa_1" enable-background="new 0 0 512.001 512.001" height="512" viewBox="0 0 512.001 512.001" width="512" xmlns="http://www.w3.org/2000/svg"><g><g><path d="m477.797 173.694c-.734-7.119-4.951-13.028-10.782-16.24-1.345-.741-1.332-2.685-.005-3.457l14.634-8.506c10.086-5.863 13.942-18.836 8.101-28.935-3.735-6.459-10.378-10.169-17.313-10.466-1.681-.072-2.554-2.023-1.455-3.298l15.084-17.498c7.572-8.785 6.579-22.046-2.217-29.621-6.405-5.514-15.178-6.488-22.399-3.22-1.672.757-3.373-1.02-2.597-2.682l5.553-11.909c.879-1.885 1.465-3.843 1.776-5.817 0 0-3.861-16.03-12.159-20.264-10.659-5.439-22.498.117-27.506 10.858l-5.766 12.365c-.775 1.663-3.23 1.501-3.724-.265-2.138-7.632-8.523-13.726-16.864-15.089-11.457-1.87-21.254 5.894-23.116 17.342l-3.708 22.796c-.265 1.632-2.31 2.279-3.422 1.056-4.683-5.149-11.811-7.872-19.18-6.58-11.493 2.014-17.956 12.307-15.964 23.803l2.891 16.68c.262 1.514-1.219 2.772-2.653 2.218-6.442-2.491-13.991-1.786-20.033 2.648-9.167 6.727-10.028 17.708-3.643 27.116l23.997 35.355c10.207 15.037 8.154 31.418.479 47.876l-4.766 13.226c-4.901 10.511 37.312 27.872 42.213 17.362l4.387-8.507c7.675-16.459 20.317-29.075 38.397-30.922l43.008-4.394c11.545-1.182 19.941-11.493 18.752-23.031z" fill="#a3e5a8"/><path d="m468.707 36.457c-9.44-2.16-19.421 2.47-23.661 11.59l-5.77 12.37c-.78 1.66-3.23 1.5-3.73-.27-2.13-7.63-8.52-13.72-16.86-15.09-11.46-1.86-22.25 5.9-24.12 17.35l-3.7 22.79c-.27 1.63-2.31 2.28-3.43 1.06-4.68-5.15-11.81-7.87-19.18-6.58-11.49 2.01-18.95 13.3-16.96 24.8l2.89 16.68c.26 1.52-1.22 2.77-2.65 2.22-.064-.025-.129-.049-.193-.074-8.885-3.341-16.751 6.92-11.409 14.766 7.501 11.017 17.388 25.702 17.922 26.428 10.21 15.04 8.15 31.42.48 47.87l-11.36 29.18c-9.93-4.92-18.03-11.69-15.79-16.5l4.15-10.68c7.67-16.45 9.73-32.83-.48-47.87l-9.59-14.14-14.41-21.22c-5.521-8.542-5.422-21.837 4.65-29.11 6.04-4.44 13.59-5.14 20.03-2.65 1.43.55 2.91-.7 2.65-2.22l-2.89-16.68c-1.99-11.5 5.47-22.79 16.96-24.8 7.37-1.29 14.5 1.43 19.18 6.58 1.12 1.22 3.16.57 3.43-1.06l3.7-22.79c1.87-11.45 12.66-19.21 24.12-17.35 8.34 1.37 14.73 7.46 16.86 15.09.5 1.77 2.95 1.93 3.73.27l5.77-12.37c5-10.74 17.95-15.25 28.61-9.81 8.29 4.23 12.441 13.38 11.051 22.22z" fill="#90d196"/><path d="m396.832 298.692c6.61-37.487-16.11-73.361-51.675-84.08l-8.735-.342c-38.062-6.711-65.946 20.934-76.127 57.417-16.777 60.119-52.732 155.819-163.852 190.477-7.23 2.255-15.404 4.085-24.522 4.185-10.337 1.717-21.835 2.654-34.764 2.308l-.001.021c-8.372-.243-15.881 5.66-17.379 14.153-1.788 9.833 5.44 19.268 15.407 20.063v.011c29.456 2.742 73.175 3.357 124.364-9.659l5.556-5.786 8.985 1.768c5.064-1.51 10.194-3.153 15.379-4.947 38.834-13.438 71.981-32.985 99.388-53.752l3.206-8.366 8.726-1.029c24.539-20.087 43.832-40.624 57.831-57.359l1.272-8.761 8.178-2.939c6.919-8.877 11.874-15.952 14.852-20.268 6.602-9.572 11.822-21.266 13.911-33.115z" fill="#fff9e2"/><path d="m345.985 218.565c-30.84 2.25-57.661 23.732-66.181 54.272-16.78 60.12-49.811 165.714-160.931 200.374-10.32 3.22-61.424 7.292-78.648 1.525 9.22-1.46 48.789-7.778 56.369-10.138 42.926-13.389 73.492-36.527 95.812-63.349l6.099-1.686.579-11.824c24.232-33.746 39.966-70.296 49.032-101.381l5.963-5.518-1.833-9.012c.187-.668.374-1.332.558-1.991 10.18-36.48 46.48-60.04 84.54-53.33 2.96.52 5.841 1.208 8.641 2.058z" fill="#fff5c6"/></g><g><path d="m496.237 112.798c-3.176-5.489-8.031-9.627-13.65-11.987l9.155-10.621c4.972-5.768 7.396-13.126 6.828-20.721-.568-7.591-4.06-14.509-9.833-19.48-5.332-4.59-11.911-6.888-18.49-6.916l.951-2.042c6.527-13.996.847-30.991-12.664-37.885-6.972-3.558-14.879-4.119-22.265-1.576-7.379 2.538-13.259 7.83-16.555 14.898l-1.165 2.497c-4.251-5.021-10.241-8.584-17.185-9.719-7.51-1.226-15.061.545-21.242 4.99-6.183 4.446-10.262 11.033-11.484 18.55l-2.252 13.84c-5.416-2.786-11.707-3.846-17.948-2.752-15.446 2.705-25.792 17.719-23.062 33.466l1.512 8.725c-6.437-.342-12.928 1.515-18.365 5.509-12.392 9.104-15.202 26.396-6.398 39.365l23.997 35.354c6.732 9.918 7.06 22.597 1.034 37.721-16.653-.732-33.156 3.628-47.388 12.681-17.133 10.899-29.568 27.652-35.016 47.173-3.299 11.821-7.403 26.533-12.651 41.832-1.345 3.918.742 8.184 4.66 9.527 3.913 1.348 8.184-.741 9.527-4.66 3.002-8.75 5.625-17.261 7.939-25.162l18.788 8.073c.966.415 1.97.611 2.957.611 2.907 0 5.674-1.701 6.895-4.541 1.636-3.806-.124-8.217-3.93-9.852l-20.564-8.836c.28-1.003.557-1.995.827-2.961 9.306-33.341 41.996-53.952 76.021-47.955 17.586 3.101 32.911 12.864 43.153 27.491 10.242 14.628 14.175 32.368 11.074 49.953-1.795 10.179-6.306 20.889-12.701 30.159-4.212 6.107-9.178 12.943-14.893 20.262l-20.355-13.979c-3.416-2.345-8.084-1.477-10.429 1.937-2.345 3.415-1.478 8.084 1.937 10.429l19.387 13.314c-14.974 17.885-33.978 37.704-57.112 56.553l-12.695-11.677c-3.05-2.803-7.791-2.604-10.598.443-2.804 3.049-2.605 7.793.443 10.598l10.883 10.01c-27.024 20.326-59.079 38.877-96.298 51.756-5.19 1.796-10.424 3.46-15.685 5.017l-4.798-12.233c-1.513-3.856-5.865-5.755-9.721-4.244-3.856 1.513-5.756 5.865-4.244 9.721l4.207 10.726c-12.867 3.235-25.872 5.782-38.914 7.56-4.104.561-6.978 4.341-6.418 8.445.514 3.761 3.729 6.487 7.422 6.487.338 0 .68-.022 1.023-.069 23.737-3.218 48.496-9.111 72.032-17.234 102.911-35.61 167.708-112.588 197.174-155.304 7.592-11.006 12.964-23.816 15.125-36.071 3.797-21.531-1.019-43.253-13.559-61.162-1.494-2.133-3.082-4.176-4.747-6.137 4.427-8.085 12.324-18.799 24.488-22.765 3.938-1.284 6.09-5.518 4.807-9.455-1.283-3.938-5.517-6.088-9.455-4.807-12.159 3.964-22.9 13.151-30.922 26.24-2.67-2.147-5.47-4.115-8.384-5.903l35.045-75.152c1.751-3.754.127-8.217-3.627-9.967-3.753-1.751-8.216-.126-9.967 3.627l-34.906 74.854c-3.436-1.313-6.978-2.397-10.609-3.248 6.443-18.429 5.161-34.973-3.851-48.251l-23.997-35.354c-4.182-6.161-2.895-14.618 2.869-18.854 4.423-3.249 10.324-3.505 15.036-.652 2.514 1.522 5.685 1.438 8.113-.221 2.428-1.657 3.663-4.579 3.161-7.475l-3.559-20.535c-1.319-7.612 3.557-14.848 10.87-16.129 5.57-.975 11.214 1.669 14.046 6.581 1.586 2.748 4.733 4.196 7.847 3.63 3.12-.571 5.544-3.043 6.053-6.174l4.472-27.491c.579-3.558 2.51-6.676 5.438-8.781s6.505-2.947 10.067-2.363c6.791 1.109 11.662 7.115 11.331 13.97-.173 3.581 2.212 6.783 5.691 7.644 3.479.858 7.083-.863 8.597-4.111l8.741-18.745c1.561-3.347 4.346-5.852 7.841-7.055 3.502-1.204 7.255-.937 10.567.754 6.399 3.265 9.041 11.422 5.888 18.184l-8.528 18.29c-1.516 3.249-.52 7.116 2.376 9.229s6.881 1.882 9.514-.553c5.037-4.66 12.771-4.788 17.985-.3 2.736 2.356 4.392 5.635 4.661 9.232.269 3.595-.879 7.077-3.231 9.808l-18.186 21.098c-2.071 2.402-2.406 5.848-.839 8.604s4.7 4.229 7.824 3.678c5.589-.989 11.242 1.64 14.072 6.532 3.716 6.426 1.306 14.812-5.372 18.694l-18.016 10.472c-2.542 1.478-3.985 4.303-3.694 7.228s2.264 5.41 5.046 6.356c5.001 1.702 8.58 6.179 9.119 11.403.37 3.586-.68 7.101-2.955 9.896-2.277 2.796-5.508 4.537-9.098 4.904l-16.525 1.688c-4.121.421-7.12 4.103-6.699 8.223s4.084 7.113 8.223 6.699l16.526-1.688c7.577-.774 14.397-4.451 19.204-10.355 4.809-5.904 7.026-13.328 6.245-20.904-.646-6.271-3.36-12.029-7.516-16.489l7.678-4.463c13.813-8.031 18.665-25.604 10.818-39.175z"/><path d="m427.888 66.501c-3.752-1.75-8.217-.127-9.967 3.627l-15.2 32.598c-1.751 3.755-.127 8.217 3.627 9.967 1.025.479 2.104.705 3.165.705 2.824 0 5.53-1.604 6.802-4.332l15.2-32.598c1.751-3.755.127-8.217-3.627-9.967z"/><path d="m36.938 476.175c20.009.541 41.606-2.305 61.062-8.373 39.91-12.448 72.462-33.75 98.355-64.497l10.174 12.801c1.48 1.863 3.668 2.834 5.876 2.834 1.635 0 3.282-.532 4.661-1.629 3.243-2.577 3.782-7.295 1.205-10.537l-12.4-15.601c10.222-13.994 19.28-29.675 27.207-47.115 1.714-3.771.046-8.218-3.725-9.932-3.775-1.714-8.218-.045-9.932 3.725-27.215 59.876-67.259 97.269-125.89 115.632-17.562 5.5-37.236 8.281-56.868 7.689-11.841 0-22.208 8.638-24.268 20.318-1.232 6.777.496 13.83 4.741 19.351 4.137 5.379 10.296 8.817 16.96 9.487 15.993 1.523 32.966 2.05 50.082 1.401 4.139-.162 7.363-3.648 7.201-7.787s-3.636-7.354-7.787-7.201c-14.486.597-32.428.164-47.814-1.322-2.671-.213-5.069-1.535-6.752-3.724-1.666-2.165-2.349-4.907-1.866-7.561.828-4.676 5.054-8.096 9.778-7.959z"/><path d="m280.441 363.885c1.236.772 2.61 1.141 3.968 1.141 2.5 0 4.944-1.25 6.367-3.526 2.195-3.513 1.127-8.14-2.386-10.335l-20.838-13.021c-3.514-2.195-8.139-1.126-10.335 2.386-2.195 3.513-1.127 8.14 2.386 10.335z"/></g></g></svg>