<svg id="Capa_1" enable-background="new 0 0 512 512" height="512" viewBox="0 0 512 512" width="512" xmlns="http://www.w3.org/2000/svg"><g><g><g><g><path d="m114.377 130.249h36.426c6.785 0 13.327 1.083 19.474 3.068 8.627-15.06 21.109-27.627 36.1-36.363-9.961-4.322-20.924-6.731-32.426-6.731-30.219 0-56.738 16.568-70.978 41.056 3.703-.675 7.514-1.03 11.404-1.03z" fill="#fe646f"/></g><g><path d="m338.061 90.222c-11.5 0-22.461 2.409-32.42 6.729 14.989 8.738 27.474 21.301 36.1 36.364 6.146-1.983 12.686-3.066 19.469-3.066h36.426c3.89 0 7.701.354 11.403 1.029-14.239-24.488-40.759-41.056-70.978-41.056z" fill="#fe646f"/></g></g><path d="m191.126 144.697c9.605-8.948 22.459-14.448 36.541-14.448h56.679c14.082 0 26.935 5.5 36.541 14.448 6.118-5.009 13.175-8.904 20.855-11.382-12.368-21.599-32.656-38.082-56.915-45.475-4.28-1.304-6.28-6.281-3.871-10.051 11.621-18.18 31.973-30.262 55.104-30.262h13.255c3.732 0 6.758-3.026 6.758-6.758v-26.51c0-3.732-3.026-6.758-6.758-6.758h-13.255c-47.511 0-87.77 31.604-100.887 74.889-.668 2.203-2.422 3.919-4.646 4.512-25.729 6.855-47.316 23.84-60.249 46.416 7.677 2.477 14.731 6.371 20.848 11.379z" fill="#0ed290"/><path d="m191.126 144.697c9.605-8.948 22.459-14.448 36.541-14.448h14.002c-1.398-22.904 9.217-49.61 30.453-70.846 25.449-25.449 58.752-35.652 83.952-28.189v-16.956c0-3.733-3.026-6.758-6.758-6.758h-13.256c-47.511 0-87.77 31.604-100.887 74.889-.668 2.203-2.422 3.919-4.646 4.512-25.729 6.855-47.316 23.84-60.249 46.416 7.677 2.478 14.731 6.372 20.848 11.38z" fill="#00c285"/><g><path d="m173.951 422.445 7.23-48.224c6.409-42.743 6.742-86.177.992-129.013l-8.222-61.244c0-15.462 6.629-29.444 17.175-39.268-11.014-9.017-25.064-14.448-40.323-14.448h-36.426c-10.241 0-19.94 2.444-28.54 6.777-24.812 12.502-38.138 40.153-33.542 67.553l33.181 197.83c4.812 50.499 29.953 90.375 81.578 90.733 13.634-.141 23.925-4.728 31.396-12.371-15.1-14.9-24.499-35.565-24.499-58.325z" fill="#fb2b3a"/><g><path d="m138.214 402.41-33.181-197.83c-4.596-27.401 8.73-55.052 33.542-67.553 6.274-3.161 13.137-5.302 20.364-6.237-2.667-.343-5.379-.54-8.136-.54h-36.426c-10.241 0-19.939 2.444-28.54 6.777-24.812 12.501-38.138 40.152-33.542 67.553l33.181 197.83c4.812 50.499 29.953 90.375 81.578 90.733 8.92-.093 16.402-2.096 22.61-5.601-31.519-12.703-47.69-45.675-51.45-85.132z" fill="#e41f2d"/></g><path d="m426.175 137.026c-8.601-4.333-18.299-6.777-28.54-6.777h-36.426c-15.604 0-29.939 5.683-41.061 15.069 10.378 9.621 16.894 23.35 16.912 38.58l-8.213 61.178c-5.766 42.943-5.431 86.443.993 129.294l7.22 48.149c-.02 22.51-9.271 42.894-24.154 57.584 7.518 8.05 18.019 12.894 32.053 13.04 51.625-.358 76.766-40.234 81.578-90.733l33.181-197.83c4.596-27.401-8.731-55.052-33.543-67.554z" fill="#e41f2d"/></g><g><path d="m256.006 504.5c-45.13 0-82.055-36.925-82.055-82.055l7.23-48.224c6.409-42.743 6.743-86.177.992-129.013l-8.222-61.244c0-29.544 24.172-53.715 53.715-53.715h56.679c29.544 0 53.716 24.172 53.716 53.715l-8.222 61.244c-5.751 42.836-5.417 86.27.992 129.013l7.23 48.224c0 45.13-36.925 82.055-82.055 82.055z" fill="#fb2b3a"/></g><g><path d="m226.36 422.445 7.23-48.224c6.409-42.743 6.743-86.177.992-129.013l-8.222-61.244c0-29.543 24.172-53.715 53.715-53.715h-52.409c-29.544 0-53.715 24.172-53.715 53.715l8.222 61.244c5.751 42.836 5.417 86.27-.992 129.013l-7.23 48.224c0 45.13 36.925 82.055 82.055 82.055 9.156 0 17.964-1.543 26.204-4.342-32.378-11.001-55.85-41.739-55.85-77.713z" fill="#e41f2d"/></g></g><path d="m466.879 180.491c-.762-4.072-4.685-6.756-8.751-5.993-4.072.762-6.755 4.68-5.993 8.751 1.244 6.649 1.307 13.408.187 20.089l-33.181 197.83c-.029.176-.053.352-.069.529-2.381 24.979-9.842 45.774-21.576 60.135-12.771 15.63-30.442 23.64-52.523 23.809-8.103-.093-14.892-1.927-20.498-5.542 13.149-15.59 21.086-35.711 21.086-57.655 0-.372-.027-.744-.083-1.112l-7.23-48.223c-2.871-19.158-4.516-38.772-4.887-58.295-.079-4.142-3.523-7.456-7.642-7.356-4.142.079-7.435 3.5-7.356 7.641.384 20.17 2.083 40.436 5.051 60.234l7.146 47.657c-.297 40.859-33.627 74.01-74.554 74.01s-74.257-33.15-74.553-74.008l7.146-47.658c6.516-43.457 6.855-87.573 1.008-131.123l-8.153-60.729c.261-25.261 20.892-45.733 46.213-45.733h56.679c25.323 0 45.954 20.47 46.212 45.733l-8.152 60.729c-1.5 11.176-2.609 22.647-3.297 34.095-.248 4.134 2.902 7.688 7.037 7.936 4.139.25 7.688-2.902 7.936-7.037.666-11.083 1.739-22.185 3.191-32.998l8.222-61.244c.044-.331.066-.665.066-.998 0-14.407-5.015-27.658-13.375-38.126 8.483-5.126 18.41-8.089 29.023-8.089h36.426c8.829 0 17.297 2.01 25.166 5.975 5.532 2.788 10.521 6.494 14.827 11.015 2.859 3 7.606 3.114 10.604.257 2.999-2.857 3.114-7.604.258-10.604-5.495-5.768-11.867-10.5-18.939-14.064-5.061-2.55-10.316-4.459-15.727-5.725-15.875-25.14-43.895-41.881-75.763-41.881-11.263 0-22.043 2.097-31.98 5.91-5.82-3.127-11.92-5.724-18.219-7.704 10.798-16.24 28.735-25.901 48.198-25.901h13.255c7.862 0 14.259-6.396 14.259-14.258v-26.51c-.001-7.864-6.397-14.26-14.26-14.26h-13.254c-24.688 0-48.154 7.858-67.858 22.726-18.928 14.28-33.146 34.528-40.074 57.054-7.871 2.135-15.32 5.118-22.27 8.824-9.917-3.795-20.672-5.881-31.907-5.881-3.205 0-6.524.188-9.868.559-4.117.457-7.084 4.164-6.627 8.281.456 4.117 4.164 7.086 8.281 6.627 2.797-.31 5.561-.467 8.215-.467 5.337 0 10.541.574 15.561 1.649-8.911 7.14-16.581 15.654-22.739 25.185-5.135-1.181-10.48-1.808-15.97-1.808h-32.454c4.65-5.186 10.055-9.796 16.164-13.636 3.507-2.204 4.563-6.834 2.359-10.341-2.203-3.507-6.832-4.564-10.341-2.359-11.694 7.349-21.288 17.019-28.359 28.193-5.406 1.266-10.656 3.175-15.713 5.723-13.58 6.842-24.353 17.761-31.153 31.575-6.723 13.656-8.94 28.842-6.411 43.917l33.139 197.569c2.693 27.83 11.289 51.318 24.867 67.935 15.522 18.997 37.688 29.135 64.1 29.318h.05.08c12.128-.126 22.656-3.471 31.146-9.792 15.601 13.187 35.751 21.15 57.729 21.15 21.979 0 42.129-7.963 57.73-21.15 8.49 6.32 19.018 9.666 31.145 9.792h.08.05c26.412-.183 48.578-10.321 64.1-29.318 13.578-16.618 22.175-40.103 24.867-67.935l33.137-197.569c1.411-8.423 1.331-16.945-.237-25.33zm-128.818-82.769c22.113 0 41.997 9.685 55.661 25.027h-32.513c-5.507 0-10.87.629-16.02 1.818-1.336-2.065-2.745-4.094-4.238-6.078-5.364-7.129-11.644-13.534-18.591-19.09 5.063-1.095 10.314-1.677 15.701-1.677zm-105.604-3.574c4.688-1.25 8.479-4.921 9.893-9.583 5.965-19.683 18.354-37.392 34.885-49.865 17.081-12.888 37.422-19.7 58.825-19.7h12.514v25.027h-12.514c-24.964 0-47.926 12.606-61.424 33.724-2.391 3.74-2.878 8.281-1.338 12.46 1.55 4.202 5.042 7.494 9.342 8.804 18.305 5.578 34.756 17.118 46.325 32.494.543.722 1.072 1.451 1.591 2.186-3.273 1.567-6.402 3.386-9.378 5.413-10.256-7.751-23.015-12.358-36.832-12.358h-56.679c-13.817 0-26.576 4.606-36.832 12.358-2.983-2.033-6.12-3.855-9.402-5.424 11.978-17 29.724-29.861 51.024-35.536zm-65.417 391.494c-22.081-.168-39.752-8.178-52.523-23.809-11.735-14.361-19.196-35.156-21.576-60.135-.017-.177-.04-.354-.07-.529l-33.181-197.83c-4.074-24.29 8.065-48.805 29.521-59.615 7.869-3.965 16.335-5.975 25.165-5.975h36.426c10.614 0 20.541 2.964 29.023 8.089-8.36 10.468-13.375 23.719-13.375 38.127 0 .333.022.667.067.998l8.222 61.244c5.659 42.148 5.33 84.845-.976 126.902l-7.23 48.224c-.055.368-.083.74-.083 1.112 0 21.943 7.938 42.065 21.087 57.655-5.605 3.615-12.394 5.449-20.497 5.542z"/></g></svg>