<svg height="512" viewBox="0 0 64 64" width="512" xmlns="http://www.w3.org/2000/svg"><g id="Layer_20" data-name="Layer 20"><path d="m17.145 44.842q-2.345.158-4.699.158h-6.1a4.446 4.446 0 0 1 -2.466-.747 4.209 4.209 0 0 1 -1.88-3.504v-.06a4.084 4.084 0 0 1 1.2-2.889l.036-.036a34.993 34.993 0 0 0 4.844-6.058c.959-1.518 2.156-3.412 3.382-5.354a28.569 28.569 0 0 1 18.55-12.752l.143-.029a29.011 29.011 0 0 1 5.715-.571h1.258a96.71 96.71 0 0 0 13.672-.972 2.765 2.765 0 0 1 .4-.028 2.8 2.8 0 0 1 2.8 2.8 4.325 4.325 0 0 1 -.617 2.227 65.091 65.091 0 0 0 -4.18 8.241 30.81 30.81 0 0 1 -3.018 5.513z" fill="#93325a"/><path d="m21.37 27.272.288-1.151a4.121 4.121 0 0 1 4-3.121h5.022a20.535 20.535 0 0 1 10.761 3.045l.488.3a5.05 5.05 0 0 0 6.757-1.358 13.966 13.966 0 0 0 1.492-2.66l.025-.059a65.063 65.063 0 0 1 3.788-7.56 2.8 2.8 0 0 0 -2.791-2.708 2.843 2.843 0 0 0 -.442.035 57.27 57.27 0 0 1 -9.058.965h-5.83a29.011 29.011 0 0 0 -5.715.569l-.145.029a28.565 28.565 0 0 0 -18.55 12.756l-3.381 5.352a34.965 34.965 0 0 1 -4.845 6.06l-.034.034c-.067.067-.117.147-.179.218a4.2 4.2 0 0 0 1.857 3.231 4.456 4.456 0 0 0 2.464.751h6.168a1.93 1.93 0 0 0 1.836-1.533 12.42 12.42 0 0 1 2.112-4.545 24.4 24.4 0 0 0 3.912-8.65z" fill="#aa3965"/><g fill="#93325a"><path d="m35.157 20.98-1.4-1.631-1.518 1.3 1.4 1.631a23.408 23.408 0 0 1 3.045 4.537l2.225 4.1 1.758-.954-2.215-4.079a25.283 25.283 0 0 0 -3.295-4.904z"/><path d="m45.9 28.925a15.532 15.532 0 0 0 -4.189-7.632l-1.414 1.414a13.539 13.539 0 0 1 3.65 6.652l.466 2.283 1.776-.86c.029-.042.055-.086.084-.128l-.1-.528z"/><path d="m13.707 37.293a17.067 17.067 0 0 1 -4.1-6.631l-.316-.876c-.43.681-.843 1.336-1.214 1.922-.045.071-.094.138-.139.208a19.073 19.073 0 0 0 4.354 6.791z"/></g><path d="m25 51 3.562.594a29.915 29.915 0 0 0 4.909.406 34.772 34.772 0 0 0 19.289-5.84l5-3.335a11.063 11.063 0 0 1 2.648-1.3 2.325 2.325 0 0 0 1.592-2.2 2.325 2.325 0 0 0 -2.325-2.325 5.533 5.533 0 0 1 -3.069-.929l-.806-.538a39.722 39.722 0 0 0 -8.076-4.133 39.56 39.56 0 0 1 -7.1-3.5 19.032 19.032 0 0 0 -10.081-2.9h-4.887" fill="#aa3965"/><path d="m30.543 25h-4.887l-.556 22.017 3.462.577a29.915 29.915 0 0 0 4.909.406 34.772 34.772 0 0 0 19.289-5.84l5-3.335a11.063 11.063 0 0 1 2.648-1.3 2.36 2.36 0 0 0 .434-.2 2.3 2.3 0 0 0 -1.167-.325 5.533 5.533 0 0 1 -3.069-.929l-.806-.538a39.722 39.722 0 0 0 -8.076-4.133 39.56 39.56 0 0 1 -7.1-3.5 19.032 19.032 0 0 0 -10.081-2.9z" fill="#b94d71"/><path d="m26.326 25.109.647.215a8.574 8.574 0 0 1 5.776 6.922 7.808 7.808 0 0 0 1.234 3.228 6.059 6.059 0 0 1 1.017 3.36 6.058 6.058 0 0 1 -.433 2.249l-1.567 3.917-1.654 2.482a7.9 7.9 0 0 1 -6.574 3.518 7.9 7.9 0 0 1 -4.936-1.731 7.555 7.555 0 0 1 -2.836-5.901 10.515 10.515 0 0 1 1.958-6.109 27.554 27.554 0 0 0 4.311-9.337l.329-1.316a2.121 2.121 0 0 1 2.058-1.606 2.118 2.118 0 0 1 .67.109z" fill="#fbc030"/><path d="m35 38.834a6.059 6.059 0 0 0 -1.017-3.36 7.808 7.808 0 0 1 -1.234-3.228 8.574 8.574 0 0 0 -5.776-6.922l-.511-.17-.193.768a27.554 27.554 0 0 1 -4.311 9.337 10.515 10.515 0 0 0 -1.958 6.109 7.555 7.555 0 0 0 2.836 5.9 7.868 7.868 0 0 0 7.684 1.232 7.914 7.914 0 0 0 .826-1.018l1.654-2.482 1.567-3.917a6.058 6.058 0 0 0 .433-2.249z" fill="#fad436"/><path d="m48 39a33.028 33.028 0 0 1 -1.4 9.5l-.368 1.06q1.239-.489 2.438-1.075a35.024 35.024 0 0 0 1.33-9.485z" fill="#aa3965"/><path d="m43 43a11.408 11.408 0 0 1 -2.14 6.674l-1.315 1.769q1.506-.267 2.982-.666a13.4 13.4 0 0 0 2.473-7.777z" fill="#aa3965"/><path d="m59.676 36a4.522 4.522 0 0 1 -2.516-.762l-.806-.537a40.717 40.717 0 0 0 -8.279-4.241c-.13-.049-.256-.106-.385-.156a31.9 31.9 0 0 0 2.434-4.647 64.612 64.612 0 0 1 4.116-8.114 5.323 5.323 0 0 0 .76-2.743 3.805 3.805 0 0 0 -3.8-3.8 3.724 3.724 0 0 0 -.538.039 96.189 96.189 0 0 1 -13.534.961h-1.258a29.8 29.8 0 0 0 -5.911.588l-.144.029a29.7 29.7 0 0 0 -19.2 13.2l-3.383 5.357a34.1 34.1 0 0 1 -4.741 5.926 5.217 5.217 0 0 0 .831 7.988 5.436 5.436 0 0 0 3.021.912h6.1c1.306 0 2.627-.046 3.94-.118a8.507 8.507 0 0 0 2.825 4.168 8.922 8.922 0 0 0 5.563 1.95c.036 0 .071-.006.107-.007l3.52.587a30.991 30.991 0 0 0 5.074.42 35.66 35.66 0 0 0 19.843-6.008l5-3.335a10.107 10.107 0 0 1 2.41-1.178 3.325 3.325 0 0 0 -1.049-6.479zm-47.23 8h-6.1a3.447 3.447 0 0 1 -1.913-.579 3.231 3.231 0 0 1 -1.433-2.732 3.136 3.136 0 0 1 .939-2.216 36.1 36.1 0 0 0 4.461-5.443 19.07 19.07 0 0 0 3.9 5.677l1.414-1.414a17.045 17.045 0 0 1 -3.984-6.327l2.576-4.078a27.687 27.687 0 0 1 17.9-12.31l.144-.029a27.871 27.871 0 0 1 5.52-.549h1.258a97.974 97.974 0 0 0 13.817-.982 1.814 1.814 0 0 1 2.055 1.782 3.322 3.322 0 0 1 -.475 1.713 66.482 66.482 0 0 0 -4.245 8.367 29.8 29.8 0 0 1 -2.306 4.394l-.078-.35a15.532 15.532 0 0 0 -4.189-7.632l-1.414 1.414a13.537 13.537 0 0 1 3.427 5.794c-.871-.456-1.73-.935-2.562-1.455a19.876 19.876 0 0 0 -2.884-1.481 25.3 25.3 0 0 0 -3.117-4.583l-1.4-1.631-1.518 1.3 1.4 1.631a23.338 23.338 0 0 1 1.746 2.324 20 20 0 0 0 -4.842-.605h-4.887a3.114 3.114 0 0 0 -3.027 2.364l-.329 1.316a26.509 26.509 0 0 1 -4.155 9 11.438 11.438 0 0 0 -2.145 6.688c0 .178.019.352.03.528-1.196.062-2.396.104-3.584.104zm8.014 4.488a6.52 6.52 0 0 1 -2.46-5.12 9.46 9.46 0 0 1 1.771-5.528 28.452 28.452 0 0 0 4.468-9.675l.33-1.317a1.118 1.118 0 0 1 1.087-.848 1.106 1.106 0 0 1 .353.057l.646.215a7.531 7.531 0 0 1 5.1 6.115 8.89 8.89 0 0 0 1.395 3.643 5.051 5.051 0 0 1 .488 4.682l-1.528 3.82-1.6 2.4a6.9 6.9 0 0 1 -10.054 1.56zm39.634-7.906a12.094 12.094 0 0 0 -2.886 1.412l-5 3.335a33.822 33.822 0 0 1 -3.192 1.86 35.058 35.058 0 0 0 .984-8.189h-2a33.047 33.047 0 0 1 -1.342 9.3 33.565 33.565 0 0 1 -3.358 1.243 13.382 13.382 0 0 0 1.7-6.543h-2a11.408 11.408 0 0 1 -2.14 6.674l-.42.59a33.828 33.828 0 0 1 -6.968.736 28.888 28.888 0 0 1 -4.08-.31 8.888 8.888 0 0 0 2.786-2.654l1.654-2.481a1.112 1.112 0 0 0 .1-.184l1.566-3.917a7.05 7.05 0 0 0 -.681-6.534 6.876 6.876 0 0 1 -1.078-2.82 9.505 9.505 0 0 0 -3.5-6.1h.3a18.016 18.016 0 0 1 9.561 2.74 40.723 40.723 0 0 0 7.275 3.593 38.685 38.685 0 0 1 7.872 4.032l.806.537a6.511 6.511 0 0 0 3.623 1.098 1.324 1.324 0 0 1 .418 2.581z"/></g></svg>