<?xml version="1.0" encoding="iso-8859-1"?>
<!-- Generator: Adobe Illustrator 19.0.0, SVG Export Plug-In . SVG Version: 6.00 Build 0)  -->
<svg version="1.1" id="Layer_1" xmlns="http://www.w3.org/2000/svg" xmlns:xlink="http://www.w3.org/1999/xlink" x="0px" y="0px"
	 viewBox="0 0 512 512" style="enable-background:new 0 0 512 512;" xml:space="preserve">
<path style="fill:#BECD55;" d="M264.551,20.843c-17.102,25.653-17.102,68.409-17.102,68.409h17.102c0,0,17.102-42.756,34.205-59.858
	L264.551,20.843z"/>
<ellipse style="fill:#AAB955;" cx="256" cy="123.457" rx="51.307" ry="34.205"/>
<path style="fill:#FF9A32;" d="M196.142,491.157h119.716c103.899,0,188.125-84.227,188.125-188.125l0,0
	c0-103.899-84.227-188.125-188.125-188.125H196.142c-103.899,0-188.125,84.227-188.125,188.125l0,0
	C8.017,406.93,92.243,491.157,196.142,491.157z"/>
<path style="fill:#FF7D28;" d="M429.975,219.031c-4.931-7.74-17.067-2.353-14.353,6.413c7.321,23.651,11.401,49.916,11.401,77.587
	c0,59.181-18.674,111.863-47.823,146.29c-4.059,4.794-11.565-0.013-8.897-5.699c14.195-30.252,22.517-66.882,22.517-106.386
	c0-52.85-14.864-100.595-38.793-134.758c-8.176-11.672-26.335-3.211-22.905,10.621c6.625,26.716,10.392,57.354,10.392,89.932
	c0,23.103-1.909,45.214-5.372,65.662c-11.749,43.338-29.866,71.156-50.21,71.156c-35.42,0-64.134-84.227-64.134-188.125
	c0-15.815,0.666-31.173,1.92-45.847c2.012-23.54-31.797-30.3-38.71-7.708c-9.167,29.955-14.516,66.029-14.516,104.862
	c0,25.972,2.402,50.7,6.734,73.197c0.962,4.995-5.868,7.232-8.118,2.669c-15.266-30.943-24.271-68.956-24.271-110.07
	c0-27.482,4.022-53.58,11.247-77.108c6.988-22.756-23.471-37.511-36.318-17.471c-21.571,33.648-34.787,78.945-34.787,128.784
	c0,28.037,4.192,54.632,11.697,78.528c1.467,4.67-4.82,7.56-7.397,3.398c-18.877-30.485-29.954-67.57-29.954-107.58
	c0-44.332,13.622-85.039,36.378-117.169c4.499-6.354-3.504-14.196-9.808-9.629C38.709,184.763,8.017,240.312,8.017,303.031l0,0
	c0,103.899,84.227,188.125,188.125,188.125h119.716c15.429,0,30.422-1.862,44.77-5.371c31.875-7.795,58.989-28.356,75.005-56.997
	c16.208-28.983,25.595-63.298,25.595-100.104C461.228,287.764,449.643,249.902,429.975,219.031z"/>
<path d="M412.863,197.052c-1.848-4.023-6.609-5.786-10.631-3.938c-4.022,1.848-5.786,6.609-3.938,10.631
	c2.44,5.311,4.708,10.866,6.74,16.509c1.178,3.27,4.258,5.303,7.543,5.303c0.901,0,1.818-0.153,2.716-0.476
	c4.165-1.5,6.327-6.093,4.827-10.259C417.935,208.754,415.493,202.774,412.863,197.052z"/>
<path d="M332.96,106.889c-7.181,0-14.407,0.48-21.492,1.408c-0.552-0.092-1.106-0.166-1.659-0.249
	c-6.792-11.437-19.307-20.098-34.238-24.195c5.731-12.925,17.487-37.423,28.854-48.79c2.043-2.043,2.828-5.025,2.058-7.808
	c-0.771-2.783-2.98-4.937-5.782-5.637l-34.205-8.551c-3.284-0.821-6.735,0.512-8.614,3.331
	c-14.395,21.593-17.559,53.33-18.253,66.657c-16.327,3.684-30.155,12.743-37.428,24.983c-0.56,0.083-1.12,0.167-1.678,0.26
	c-7.084-0.929-14.306-1.408-21.483-1.408C80.317,106.889,0,194.879,0,303.031s80.317,196.142,179.04,196.142
	c7.182,0,14.414-0.475,21.501-1.403c5.589,0.926,11.255,1.403,16.979,1.403c7.975,0,15.958-0.942,23.769-2.786
	c4.796,1.842,9.714,2.786,14.711,2.786c5.023,0,9.954-0.945,14.758-2.774c7.797,1.836,15.762,2.774,23.722,2.774
	c5.723,0,11.389-0.479,16.979-1.403c7.087,0.929,14.32,1.403,21.501,1.403c98.723,0,179.04-87.989,179.04-196.142
	S431.683,106.889,332.96,106.889z M270.741,109.672c-4.821-1.839-9.752-2.782-14.741-2.782c-5.025,0-9.958,0.946-14.765,2.777
	c-5.603-1.32-11.294-2.179-17.009-2.554c8.03-6.144,19.432-9.843,31.774-9.843c12.339,0,23.743,3.699,31.774,9.842
	C282.051,107.487,276.352,108.348,270.741,109.672z M268.366,30.061l16.129,4.032c-11.296,15.793-21.163,37.527-25.316,47.218
	c-1.055-0.045-2.114-0.075-3.179-0.075c-0.063,0-0.124,0.002-0.187,0.003C256.623,69.407,259.326,46.851,268.366,30.061z
	 M16.033,303.031c0-91.964,62.707-168.04,143.356-178.796c-15.553,9.822-29.821,23.663-42.145,41.153
	C91.266,202.261,76.96,251.143,76.96,303.031s14.306,100.77,40.284,137.642c12.323,17.491,26.591,31.331,42.145,41.153
	C78.74,471.071,16.033,394.996,16.033,303.031z M352.611,481.827c15.553-9.822,29.821-23.663,42.145-41.153
	c25.977-36.871,40.283-85.754,40.283-137.642c0-17.954-1.731-35.742-5.144-52.871c-0.866-4.343-5.088-7.161-9.429-6.296
	c-4.343,0.865-7.162,5.087-6.296,9.429c3.209,16.099,4.835,32.833,4.835,49.738c0,99.312-55.863,180.109-124.526,180.109
	c-1.293,0-2.586-0.04-3.879-0.098c10.229-10.164,19.469-24.96,27.238-43.951c14.922-36.472,23.138-84.792,23.138-136.059
	c0-24.024-1.799-47.467-5.347-69.678c-0.698-4.373-4.809-7.353-9.181-6.652c-4.372,0.698-7.35,4.809-6.652,9.181
	c3.414,21.378,5.146,43.97,5.146,67.149c0,49.234-7.793,95.398-21.944,129.989c-13.03,31.852-30.161,50.119-46.999,50.119
	c-19.089,0-38.437-23.515-51.755-62.902c-1.418-4.194-5.968-6.445-10.162-5.027c-4.194,1.418-6.444,5.968-5.027,10.162
	c8.628,25.518,19.788,45.098,32.467,57.663c-1.334,0.062-2.668,0.104-4.002,0.104c-68.665,0.001-124.527-80.795-124.527-180.107
	s55.863-180.109,124.526-180.109c1.292,0,2.586,0.04,3.879,0.097c-10.229,10.164-19.469,24.961-27.238,43.951
	c-14.921,36.474-23.138,84.794-23.138,136.061c0,30.665,2.881,59.987,8.561,87.151c0.791,3.781,4.124,6.377,7.838,6.377
	c0.544,0,1.096-0.056,1.649-0.171c4.334-0.906,7.112-5.154,6.206-9.488c-5.455-26.087-8.221-54.305-8.221-83.87
	c0-49.234,7.793-95.398,21.944-129.989c13.03-31.852,30.161-50.119,46.999-50.119c21.926,0,43.678,30.486,56.768,79.562
	c1.141,4.278,5.532,6.82,9.812,5.679c4.278-1.141,6.821-5.534,5.679-9.812c-7.121-26.696-17.001-49.089-28.572-64.758
	c-2.923-3.959-5.965-7.472-9.096-10.574c1.297-0.059,2.593-0.098,3.889-0.098c31.366,0,61.381,17.064,84.518,48.048
	c1.574,2.108,3.986,3.221,6.429,3.221c1.669,0,3.351-0.518,4.79-1.594c3.548-2.65,4.276-7.673,1.627-11.22
	c-11.654-15.606-24.955-28.089-39.342-37.155c80.701,10.704,143.464,86.805,143.464,178.81
	C495.967,394.996,433.26,471.071,352.611,481.827z"/>
<g>
</g>
<g>
</g>
<g>
</g>
<g>
</g>
<g>
</g>
<g>
</g>
<g>
</g>
<g>
</g>
<g>
</g>
<g>
</g>
<g>
</g>
<g>
</g>
<g>
</g>
<g>
</g>
<g>
</g>
</svg>
