<svg id="icons" height="512" viewBox="0 0 340 340" width="512" xmlns="http://www.w3.org/2000/svg"><path d="m133.078 51.505c18.538-19.733 66.879-16.929 77.57 10.373l-47.83 38.022z" fill="#663f70"/><path d="m238.846 49.5a85.767 85.767 0 0 0 -14.477-9.657c-11.958-6.442-26.66-1.071-32.211 11.325a40.838 40.838 0 0 1 -16.906 18.811c-8.162 16.3 8.163 62.221 20.951 103.865l54.06-17.914s46.076-73.213-11.417-106.43z" fill="#996a9e"/><path d="m226.158 163.92c12.276-29.8-10.014-64.1-32.4-73.794-14.043-6.42-17.611-15.532-18.507-20.151a44.651 44.651 0 0 1 -21.688 5.556l42.637 98.315z" fill="#663f70"/><path d="m14.149 110.471s0-53.135 79.8-50.451l-19.127 35.942z" fill="#edd3ef"/><path d="m61.534 98.552s10.5-39.868 48.355-62.058c21.105-11.72 43.4 3.005 45.465 26.173a45.377 45.377 0 0 0 25.373 32.747 71.962 71.962 0 0 1 25.78 20.375c14.484 19.775-9.306 65.941-32.912 105.593z" fill="#996a9e"/><path d="m165.279 105.2a3.464 3.464 0 0 0 -5.268-.543c-.131.127-9.33 9.2-10.844 22.26-25.021-33.953-17.293-64.108-17.21-64.416a3.462 3.462 0 0 0 -6.677-1.833c-.391 1.417-9.239 35.151 20.285 72.979l4.017 5.09a3.25 3.25 0 0 0 5.8-1.88c.37-8.05 2.292-19.481 9.478-27.258a3.571 3.571 0 0 0 .419-4.399z" fill="#edd3ef"/><path d="m153.56 306.36s149.314 22.305 149.68-143.071c0 0-93.83-12.806-128.222 62.2z" fill="#996a9e"/><path d="m92.462 113.031 28.168 50.3 54.4 67.713c8.289 1.032 29.046-44.579 48.338-72.82-2.468-18.524-8.807-32.124-16.622-42.124 8.3 17.6-8.39 20.275-18.512 38.088-2.381 4.19-8.588 4.5-11.02.341-8.062-13.791-23.614-51.82-67.183-63.991-13.211-3.689-24.272 10.524-17.569 22.493z" fill="#663f70"/><path d="m196.718 246.227c4.493-25.573 27.021-35.807 48.321-36.1 31.357.17 50.178-9.323 56.313-16.885a235.648 235.648 0 0 0 1.888-29.957s-93.83-12.806-128.222 62.2l-21.458 80.875c23.779-7.935 37.356-23.231 43.158-60.133z" fill="#663f70"/><path d="m178.19 203.636c4.1 29.519 5.4 78.429-24.63 102.724-84.248-6.86-145.482-68.033-118.76-180.488 77.387 1.3 136.238 18.028 143.39 77.764z" fill="#996a9e"/><path d="m178.189 203.636a212.961 212.961 0 0 0 -4.678-24.248c-43.724-67.914-138.711-53.516-138.711-53.516a201.5 201.5 0 0 0 -5.113 32.491c7.18 2.83 18.494 5.651 34.242 4.909a24.411 24.411 0 0 1 15.888 4.951c10.513 7.965 33.16 20.586 64.782 13.428 14.861-2.951 28.853 3.1 33.59 21.985z" fill="#663f70"/><path d="m173.511 179.388s-22.518-72.874-76.431-88.7c-57.458-16.868-82.931 19.785-82.931 19.785s-2.638 37.921 57.511 30.2a22.664 22.664 0 0 1 21.951 10.222c5.5 8.668 18.081 18.046 46.83 15.635 0-.002 24.659-1.981 33.07 12.858z" fill="#edd3ef"/><path d="m180.183 225.487s10.625-34.336 66.346-37.318 90.737-16.831 75.736-65.492c-4.684-15.2-15.6-23.935-28.392-28.766 0 0 2.781-54.654-55.027-44.409 0 0 39.868 34.3-6.188 88.517-21.603 26.497-52.435 32.008-52.475 87.468z" fill="#edd3ef"/><path d="m213.135 156.858c19.575-16.488 45.491-20.547 60.769-21.408a1.972 1.972 0 0 0 .346-3.889c-9.267-2.181-22.533-3.925-35.71-.979a140.393 140.393 0 0 1 -25.405 26.276z" fill="#d0aed3"/><g fill="#edd3ef"><path d="m139.147 224.905a3.524 3.524 0 0 1 -7.047 0 3.524 3.524 0 0 1 7.047 0z"/><path d="m132.22 262.914a36.16 36.16 0 0 0 6.08-23.274 3.463 3.463 0 0 0 -6.87.872 29.185 29.185 0 0 1 -4.9 18.45c-5.606 8.011-10.118 17.762-8.311 28.157-23.383-23.038-38.545-59.825-36.4-98.3a3.463 3.463 0 0 0 -6.925.009c-.484 22.933 2.244 44.17 12.2 64.954a68.837 68.837 0 0 0 -26.158-8.694 57.261 57.261 0 0 1 -17.985-4.988 95.166 95.166 0 0 0 5.813 9.567 77.364 77.364 0 0 0 11.294 2.284c22.557 2.917 33.714 15.443 35.4 17.484a122.622 122.622 0 0 0 25.009 29.289q9.442 3.022 20.314 5.407a60.333 60.333 0 0 1 -7.145-4.2c-3.234-2.249-5.1-4.233-6.344-6.743-5.426-10.929-1.317-21.478 4.928-30.274z"/><path d="m271.42 231.727c-9.9 1.092-18.465 6.364-25.128 12.193 2.075-5.967 3.795-11.9 5.206-17.6a3.462 3.462 0 1 0 -6.721-1.664c-4.727 19.286-13.26 41.227-26.973 56.952a21.1 21.1 0 0 0 -4.38-14.773 22.579 22.579 0 0 1 -4.579-12.446 3.463 3.463 0 0 0 -6.915.375 29.792 29.792 0 0 0 5.941 16.209c8.008 10.746-1.924 21.451-3.31 22.854a67.123 67.123 0 0 1 -27.017 11.588 3.45 3.45 0 0 0 -2.233 1.484 148.171 148.171 0 0 0 22.6-.992c17.91-8.768 30.5-24.006 39.345-40.9 1.809-2.851 16.022-24.312 34.927-26.4a66.855 66.855 0 0 0 18.761-4.664c1.559-3.689 2.764-6.993 3.673-9.74-4.352 2.864-11.711 6.257-23.197 7.524z"/></g><path d="m28.519 139.382c-10.461 58.872 2.018 129.558 72.024 157.361 95.932 38.283 200.518.009 205.616-117.221 7.176-3.691 12.571-8.245 16.414-13.754 7.746-11.1 8.729-25.532 3-44.112-4.29-13.915-13.78-24.027-28.225-30.087-.393-28.422-19.551-52.659-57.5-45.731-12.933-10.238-28.725-19.085-44.778-4.683-13.385-6.947-32.9-7.93-46.995-2.685-24.238-22.427-50.954-.7-67.323 18.171-35.764 1.719-52.917 16-61.008 27.729-13.744 20.301-12.393 43.587 8.775 55.012zm123.9 163.424c-92.192-9.956-132.251-72.815-117.331-160.65 9.741 3.2 22.116 3.861 37.013 1.949a19.17 19.17 0 0 1 18.586 8.644c5.28 8.313 16.631 17.623 41.008 17.622 7.33.563 25.385-4.583 36.051 10.426 1.846 6.472 24.16 88.341-15.325 122.009zm103.141-25.863c-33.313 27.015-76.745 27.653-93.974 26.663 16.216-16.321 23.439-47.906 20.531-80.418 23.4-40.7 73.259-24.889 116.869-40.491-3.425 41.951-18.021 73.645-43.426 94.246zm22.05-216.961c13.681 12.039 12.815 33.542 12.806 33.753a3.459 3.459 0 0 0 2.234 3.415c13.609 5.139 22.46 14.07 26.307 26.547 23.9 86.079-98.19 38.5-136.2 86.482 8.663-39.9 33.813-47.082 52.542-69.919 30.119-36.716 27.807-64.93 10.591-88.243 13.536-1.329 24.192 1.34 31.72 7.965zm-82.292-7.4c4.375-10.319 17.579-15.278 27.409-9.692a83.7 83.7 0 0 1 13.849 9.221c7.688 5.137 34.609 43.527-12.869 90.551-8.227-29.112-26.877-43.441-41.495-50.38a42.627 42.627 0 0 1 -17.085-14.682 44.084 44.084 0 0 0 30.191-25.014zm-21.487-10.252a51.187 51.187 0 0 1 16.791 4.357c-4.764 9.229-9.838 20.483-29 24.581-3.948-8.629-3.312-19.123-8.863-27.052a54.733 54.733 0 0 1 21.072-1.886zm-62.191-2.849c14.484-8.946 34.869-.315 38.665 16.254 2.763 18.47 11.155 34.512 28.938 42.807 13.878 6.588 31.759 20.54 38.738 49.607-13.693 12.074-29.043 22.631-39.207 49.661-8.9-52.058-46.546-114.822-107.132-114.95 7.007-13.76 19.322-31.26 39.998-43.379zm-36.609 24.5a122.752 122.752 0 0 0 -11.119 18.911 81.214 81.214 0 0 0 -10.8 1.239c-4.451.9-3.241 7.559 1.258 6.81 58.08-9.889 93.83 36.679 108.72 76.459-10.267-5.357-22.247-4.384-22.938-4.321-21.551 1.808-36.638-3.048-43.618-14.04a26.131 26.131 0 0 0 -25.314-11.8c-28.515 4.443-53.773-4.174-53.617-26.526.042-2.03.777-41.264 57.428-46.728z" fill="#2b2b2b"/></svg>