<svg id="Capa_1" enable-background="new 0 0 513.375 513.375" height="512" viewBox="0 0 513.375 513.375" width="512" xmlns="http://www.w3.org/2000/svg"><g><g><path d="m159.198 72.441-18.753-8.595c-36.649-16.798-80.043-6.089-104.668 25.832-22.641 29.349-24.096 69.852-3.62 100.751 1.689 2.549 2.794 5.439 3.235 8.464l3.419 23.439c5.496 37.676 24.399 72.105 53.237 96.965l42.409 36.56c4.08 3.517 7.283 7.937 9.355 12.908l43.251 103.755c1.007 2.415 1.524 5.007 1.522 7.624l-.015 16.317c-.007 7.069 6.094 12.597 13.128 11.896l34.57-3.444-44.959-118.339c-1.793-4.969-2.452-10.275-1.93-15.531l1.981-19.928 46.7-233.602z" fill="#97da7b"/><path d="m354.178 72.441 18.753-8.595c36.649-16.798 80.043-6.089 104.668 25.832 22.641 29.349 24.096 69.852 3.62 100.751-1.689 2.549-2.794 5.439-3.235 8.464l-3.419 23.439c-5.496 37.676-24.399 72.105-53.237 96.965l-42.409 36.56c-4.08 3.517-7.283 7.937-9.355 12.908l-43.244 103.738c-1.009 2.421-1.529 5.018-1.529 7.641l-.017 18.625c-.005 5.828-5.051 10.372-10.848 9.769l-36.463-3.795 44.605-118.169c1.793-4.969 2.452-10.275 1.93-15.531l-1.981-19.928-41.727-183.213z" fill="#97da7b"/><g><g id="XMLID_382_"><g><g><path d="m189.378 371.043 1.981-19.928 49.914-236.556-82.074-42.118-17.399-7.975c-6.22 14.982-9.481 31.189-9.481 47.896v26.101c0 7.398-1.104 14.722-3.278 21.766l-6.931 22.432c-10.47 33.896-4.333 71.316 16.426 100.111 2.434 3.371 4.599 6.984 6.426 10.724 1.827 3.748 3.353 7.694 4.53 11.715l4.931 16.881c6.178 21.146 18.45 39.905 34.821 54.099-.081-1.712-.037-3.434.134-5.148z" fill="#80d261"/></g><g><path d="m397.338 216.224c0-11.37-1.706-22.661-5.071-33.564l-6.93-22.427c-2.176-7.047-3.279-14.37-3.279-21.769v-26.101c0-17.097-3.457-33.4-9.705-48.252l-18.175 8.331-73.888 95.46 41.727 183.213 1.981 19.928c.2 2.012.226 4.041.082 6.046 16.891-14.295 29.566-33.405 35.875-54.998l4.931-16.881c2.36-8.082 6.048-15.634 10.965-22.451 14.057-19.498 21.487-42.506 21.487-66.535z" fill="#80d261"/></g><path d="m373.158 188.564c2.8 9.07 4.18 18.39 4.18 27.66 0 19.46-6.06 38.68-17.71 54.84-6.24 8.65-10.95 18.3-13.94 28.54l-4.93 16.88c-8.23 28.17-29.18 50.86-56.6 61.32l-3.07 1.17c-4.91 1.87-8.16 6.59-8.16 11.85v76.07c0 6.04 1.47 11.99 4.28 17.33l11.38 21.65h-62.8l11.38-21.65c2.81-5.34 4.28-11.29 4.28-17.33v-76.07c0-5.26-3.25-9.98-8.16-11.85l-3.07-1.17c-27.42-10.46-48.37-33.15-56.6-61.32l-4.93-16.88c-1.5-5.12-3.42-10.09-5.75-14.87-2.33-4.77-5.07-9.35-8.19-13.67-17.2-23.86-22.21-54.4-13.53-82.5l6.93-22.43c2.77-8.97 4.17-18.29 4.17-27.67v-26.1c0-28.96 11.74-55.17 30.71-74.15 18.98-18.97 45.2-30.71 74.16-30.71 57.92 0 104.87 46.95 104.87 104.86v26.1c0 9.38 1.4 18.7 4.17 27.67z" fill="#ade194"/></g></g><path d="m237.168 484.224-11.38 21.65h60.005 2.795l-11.38-21.65c-2.81-5.34-4.28-11.29-4.28-17.33v-76.07c0-4.513 2.397-8.623 6.178-10.882-23.406-11.565-41.08-32.449-48.476-57.765l-4.93-16.88c-1.5-5.12-3.42-10.09-5.75-14.87-2.33-4.77-5.07-9.35-8.19-13.67-17.2-23.86-22.21-54.4-13.53-82.5l6.93-22.43c2.77-8.97 4.17-18.29 4.17-27.67v-26.1c0-28.96 11.74-55.17 30.71-74.15 14.852-14.844 34.137-25.26 55.699-29.089-11.933-4.719-24.939-7.313-38.552-7.313-28.96 0-55.18 11.74-74.16 30.71-18.97 18.98-30.71 45.19-30.71 74.15v26.1c0 9.38-1.4 18.7-4.17 27.67l-6.93 22.43c-8.68 28.1-3.67 58.64 13.53 82.5 3.12 4.32 5.86 8.9 8.19 13.67 2.33 4.78 4.25 9.75 5.75 14.87l4.93 16.88c8.23 28.17 29.18 50.86 56.6 61.32l3.07 1.17c4.91 1.87 8.16 6.59 8.16 11.85v76.07c.001 6.039-1.469 11.989-4.279 17.329z" fill="#97da7b"/></g></g><g><path d="m291.09 494.514 38.033-105.394c2.159-5.983 2.968-12.491 2.339-18.819l-1.68-16.904c8.187-10.218 14.437-22.019 18.172-34.808l4.932-16.883c2.758-9.442 7.074-18.276 12.827-26.257 8.203-11.378 13.833-24.275 16.749-37.74l32.568-9.367c3.98-1.146 6.279-5.301 5.135-9.281-1.145-3.98-5.301-6.28-9.281-5.135l-26.245 7.549c.115-2.158.163-4.319.14-6.482l23.816-50.991 29.705-5.264c4.079-.723 6.799-4.615 6.076-8.693-.722-4.079-4.613-6.798-8.693-6.076l-19.331 3.425 18.102-38.756c1.753-3.753.131-8.217-3.622-9.969s-8.215-.132-9.969 3.621l-8.295 17.76-2.848-10.199c-1.114-3.988-5.25-6.322-9.241-5.206-3.99 1.114-6.321 5.251-5.207 9.241l7.549 27.031-22.006 47.115c-.162-.559-.319-1.12-.491-1.677l-6.93-22.439c-2.548-8.253-3.84-16.815-3.84-25.452v-26.099c0-12.588-2.081-24.7-5.917-36.009l12.419-5.692c33.658-15.426 72.96-5.732 95.559 23.535.057.077.122.161.174.227 1.481 1.852 3.661 2.814 5.861 2.814 1.643 0 3.298-.537 4.68-1.644 3.181-2.544 3.741-7.15 1.298-10.379-.031-.042-.064-.086-.091-.12-12.941-16.775-31.397-28.81-51.966-33.887-20.57-5.076-42.505-3.01-61.765 5.816l-11.943 5.474c-18.404-37.006-56.615-62.5-100.675-62.5-12.49 0-24.767 2.04-36.489 6.063-3.918 1.345-6.004 5.61-4.659 9.528 1.345 3.917 5.611 6.001 9.528 4.659 10.152-3.483 20.79-5.25 31.62-5.25 53.688 0 97.366 43.678 97.366 97.365v26.099c0 10.138 1.517 20.19 4.508 29.878l6.93 22.439c7.938 25.703 3.285 54.075-12.447 75.896-6.753 9.368-11.819 19.738-15.058 30.823l-4.932 16.883c-7.525 25.762-26.989 46.85-52.066 56.411l-3.07 1.17c-7.772 2.964-12.994 10.544-12.994 18.861v76.071c0 7.225 1.778 14.424 5.141 20.818l11.385 21.648c1.343 2.552 3.948 4.011 6.645 4.011 1.177 0 2.371-.278 3.485-.864 3.666-1.928 5.075-6.463 3.147-10.129zm-10.664-103.688c0-2.137 1.342-4.084 3.338-4.846l3.069-1.17c10.761-4.103 20.636-10.02 29.273-17.346l.43 4.321c.41 4.116-.117 8.351-1.521 12.243l-33.169 91.915c-.931-2.919-1.419-5.978-1.419-9.046v-76.071z"/><path d="m235.956 371.965-3.069-1.17c-25.077-9.562-44.542-30.649-52.066-56.411l-4.932-16.884c-3.238-11.084-8.304-21.454-15.058-30.822-15.732-21.821-20.385-50.193-12.447-75.896l6.93-22.439c2.992-9.688 4.508-19.74 4.508-29.878v-26.099c0-31.152 14.375-59.678 39.438-78.262 3.327-2.467 4.024-7.164 1.557-10.491-2.467-3.326-7.165-4.026-10.492-1.558-14.565 10.8-26.12 24.907-33.946 40.844l-12.809-5.871c-19.26-8.826-41.194-10.893-61.765-5.816-20.57 5.076-39.025 17.11-51.967 33.886-24.607 31.898-26.188 75.892-3.933 109.475 1.071 1.616 1.785 3.484 2.065 5.403l3.419 23.438c5.136 35.207 21.076 67.2 46.096 92.521 1.467 1.485 3.4 2.229 5.335 2.229 1.904 0 3.81-.721 5.271-2.165 2.946-2.911 2.975-7.66.063-10.606-22.755-23.028-37.252-52.125-41.923-84.144l-3.419-23.438c-.596-4.093-2.12-8.078-4.404-11.524-18.708-28.23-17.379-65.213 3.307-92.027 22.623-29.325 61.937-39.027 95.604-23.596l13.34 6.115c-3.815 11.365-5.838 23.377-5.838 35.586v26.099c0 8.637-1.292 17.199-3.84 25.452l-6.93 22.439c-.308.997-.597 1.997-.873 3l-22.624-48.438 7.549-27.031c1.114-3.99-1.217-8.127-5.207-9.241-3.992-1.116-8.126 1.218-9.241 5.206l-2.848 10.199-8.295-17.76c-1.752-3.753-6.215-5.373-9.969-3.621-3.753 1.752-5.375 6.216-3.622 9.969l18.102 38.756-19.331-3.425c-4.073-.729-7.971 1.997-8.693 6.076-.723 4.078 1.998 7.971 6.076 8.693l29.705 5.264 24.466 52.382c.105.224.233.428.356.636.015 1.584.065 3.167.153 4.749l-27.263-7.842c-3.983-1.142-8.136 1.154-9.281 5.135-1.145 3.98 1.154 8.136 5.135 9.281l33.632 9.673c2.934 13.354 8.544 26.142 16.685 37.434 5.753 7.98 10.069 16.814 12.827 26.257l4.932 16.883c3.6 12.325 9.529 23.738 17.283 33.696l-1.791 18.016c-.629 6.328.18 12.836 2.339 18.819l38.44 106.521-3.545 6.741c-1.928 3.666-.519 8.201 3.147 10.129 1.114.586 2.308.864 3.485.864 2.696 0 5.302-1.459 6.645-4.011l11.385-21.648c3.363-6.395 5.141-13.594 5.141-20.818v-76.071c-.001-8.319-5.222-15.899-12.995-18.863zm-39.115-.18.508-5.106c8.853 7.691 19.05 13.883 30.195 18.132l3.068 1.17c1.997.762 3.338 2.709 3.338 4.846v76.071c0 3.568-.655 7.125-1.908 10.462l-33.68-93.331c-1.404-3.893-1.931-8.128-1.521-12.244z"/><path d="m306.879 286.584c3.222-2.604 3.723-7.326 1.12-10.548-2.603-3.221-7.325-3.722-10.547-1.12l-33.264 26.878v-48.257l42.691-34.494c3.222-2.604 3.724-7.326 1.12-10.548-2.603-3.221-7.326-3.722-10.547-1.12l-33.264 26.877v-48.256l42.691-34.494c3.222-2.604 3.724-7.326 1.12-10.548-2.603-3.221-7.326-3.722-10.547-1.12l-33.264 26.877v-48.256l42.691-34.494c3.222-2.604 3.724-7.326 1.12-10.548-2.603-3.221-7.326-3.722-10.547-1.12l-33.264 26.877v-48.488c0-4.143-3.358-7.5-7.5-7.5s-7.5 3.357-7.5 7.5v48.488l-33.264-26.877c-3.222-2.603-7.944-2.102-10.547 1.12-2.604 3.222-2.102 7.944 1.12 10.548l42.691 34.494v48.256l-33.264-26.877c-3.222-2.603-7.944-2.102-10.547 1.12-2.604 3.222-2.102 7.944 1.12 10.548l42.691 34.494v48.256l-33.264-26.877c-3.222-2.603-7.944-2.102-10.547 1.12-2.604 3.222-2.102 7.944 1.12 10.548l42.691 34.494v48.257l-33.264-26.878c-3.222-2.603-7.944-2.103-10.547 1.12-2.604 3.222-2.102 7.944 1.12 10.548l42.691 34.496v35.14c0 4.143 3.358 7.5 7.5 7.5s7.5-3.357 7.5-7.5v-35.14z"/><path d="m499.341 116.175c-1.162-3.977-5.327-6.256-9.302-5.097-3.976 1.161-6.257 5.326-5.096 9.302 6.552 22.431 2.917 46.453-9.976 65.907-2.285 3.447-3.808 7.433-4.404 11.523l-3.419 23.438c-5.235 35.886-23.246 68.688-50.712 92.367l-42.408 36.561c-4.938 4.256-8.873 9.687-11.381 15.703l-43.243 103.737c-1.398 3.352-2.107 6.894-2.107 10.527v24.964c0 4.143 3.358 7.5 7.5 7.5s7.5-3.357 7.5-7.5v-24.964c0-1.642.32-3.241.951-4.755l43.245-103.738c1.615-3.875 4.149-7.372 7.33-10.113l42.408-36.561c30.202-26.036 50.005-62.105 55.761-101.563l3.419-23.439c.28-1.918.994-3.786 2.065-5.403 15.337-23.142 19.663-51.717 11.869-78.396z"/><path d="m150.734 365.88c-2.508-6.017-6.444-11.447-11.381-15.703l-27.482-23.693c-3.137-2.703-7.873-2.353-10.578.783-2.705 3.138-2.354 7.873.783 10.578l27.483 23.693c3.18 2.741 5.715 6.238 7.33 10.113l43.245 103.739c.631 1.513.951 3.112.951 4.754v24.964c0 4.143 3.358 7.5 7.5 7.5s7.5-3.357 7.5-7.5v-24.964c0-3.634-.709-7.176-2.106-10.526z"/></g></g></svg>