<svg id="Capa_1" enable-background="new 0 0 512 512" height="512" viewBox="0 0 512 512" width="512" xmlns="http://www.w3.org/2000/svg"><g><g><path d="m469.724 237.926c-21.882-21.962-33.69-52.016-33.69-83.019v-60.407c0-48.049-38.951-87-87-87-48.049 0-87 38.951-87 87v58.404c0 16.699-3.477 33.066-10.068 48.07v43.933c0 31.003 11.808 61.057 33.69 83.019 18.326 18.393 29.535 43.88 29.148 71.985-.033 2.382-.153 4.744-.352 7.085 1.007-.176 2.009-.363 3.005-.568 9.025 5.128 19.454 8.072 30.577 8.072 11.122 0 21.55-2.943 30.575-8.071 8.008 1.651 16.361 2.355 24.945 1.964 52.571-2.396 94.592-45.861 95.318-98.482.387-28.105-10.822-53.592-29.148-71.985z" fill="#fed402"/><path d="m452.014 255.571c-26.044-26.138-40.98-62.828-40.98-100.664v-60.407c0-34.187-27.813-62-62-62s-62 27.813-62 62v58.404c0 34.639-12.66 68.401-35.041 94.232.552 30.21 12.306 59.355 33.663 80.79 14.282 14.334 24.239 32.977 27.756 53.809l8.215-1.694 8.182 4.65c5.613 3.19 11.745 4.808 18.225 4.808 6.479 0 12.61-1.617 18.226-4.808l8.18-4.647 9.215 1.899c5.006 1.032 10.143 1.555 15.266 1.555 1.157 0 2.333-.026 3.494-.079 19.022-.867 36.875-8.97 50.272-22.816 13.399-13.849 20.923-31.974 21.187-51.036.281-20.388-7.482-39.565-21.86-53.996z" fill="#fe9901"/><g><path d="m349.034 32.5c-34.187 0-62 27.813-62 62v58.404c0 34.639-12.66 68.401-35.041 94.232.29 15.886 3.678 31.475 9.933 45.805 2.991-14.27 10.08-27.351 20.729-37.848 27.008-26.623 42.498-63.87 42.498-102.189v-58.404c0-27.538 18.052-50.929 42.941-58.99-6.01-1.946-12.412-3.01-19.06-3.01z" fill="#fb8801"/></g><g><ellipse cx="348.034" cy="271" fill="#ea9b58" rx="57.776" ry="66"/></g><g><path d="m324 271c0-29.745 17.228-54.886 40.905-63.133-5.338-1.859-11.001-2.867-16.871-2.867-31.909 0-57.776 29.549-57.776 66s25.867 66 57.776 66c5.87 0 11.533-1.008 16.871-2.867-23.677-8.247-40.905-33.388-40.905-63.133z" fill="#d88a55"/></g></g><g><path d="m164.966 97.5c9.791 0 19.203 1.618 27.986 4.6-.149-9.119-5.337-17.065-12.893-21.156-1.603-.868-2.593-2.552-2.593-4.375v-25.569c0-5.523-4.477-10-10-10h-7c-5.523 0-10 4.477-10 10v25.569c0 1.823-.99 3.507-2.593 4.375-7.667 4.151-12.907 12.269-12.907 21.556 0 .104.007.206.008.309 9.35-3.434 19.452-5.309 29.992-5.309z" fill="#fff5c6"/><g><path d="m285.656 327.926c-21.882-21.962-33.69-52.016-33.69-83.019v-60.407c0-48.049-38.951-87-87-87-48.049 0-87 38.951-87 87v58.404c0 31.669-12.493 62.153-35.048 84.384-18.529 18.264-29.965 43.705-29.798 71.817.319 53.925 44.017 98.284 97.931 99.374 7.67.155 15.143-.568 22.338-2.051 9.025 5.128 19.454 8.072 30.577 8.072 11.122 0 21.55-2.943 30.575-8.071 8.008 1.651 16.361 2.355 24.945 1.964 52.571-2.396 94.592-45.861 95.318-98.482.388-28.105-10.822-53.592-29.148-71.985z" fill="#fb8801"/></g><g><path d="m217.053 244.907v-60.407c0-47.966-23.417-86.863-52.334-86.997-.251.001-.502.007-.753.01-28.707.537-51.88 39.273-51.88 86.987v58.404c0 31.669-7.537 62.153-21.143 84.384-11.178 18.264-18.076 43.705-17.976 71.817.18 50.363 23.186 92.377 52.72 98.596 2.599-.329 5.168-.751 7.702-1.273 9.025 5.128 19.454 8.072 30.577 8.072 11.122 0 21.55-2.943 30.575-8.071 2.545.525 5.128.942 7.739 1.271 29.424-6.187 52.265-47.864 52.68-97.789.234-28.105-6.528-53.593-17.584-71.985-13.2-21.962-20.323-52.016-20.323-83.019z" fill="#fe9901"/></g></g></g><g><g><path d="m475.037 232.632c-20.021-20.093-31.503-48.422-31.503-77.725v-13.907c0-4.143-3.358-7.5-7.5-7.5s-7.5 3.357-7.5 7.5v13.907c0 33.241 13.077 65.43 35.877 88.312 17.733 17.798 27.309 41.446 26.961 66.589-.674 48.858-39.398 88.871-88.16 91.093-7.752.351-15.522-.257-23.089-1.817-1.783-.367-3.636-.074-5.219.824-8.166 4.64-17.458 7.092-26.87 7.092-8.984 0-17.855-2.24-25.744-6.477.003-.169.011-.338.013-.508.052-3.766-.091-7.502-.418-11.2l4.218 2.397c6.756 3.84 14.135 5.787 21.931 5.787 7.794 0 15.172-1.947 21.931-5.786l5.726-3.254 6.45 1.33c6.747 1.391 13.735 1.937 20.617 1.622 20.427-.932 39.729-9.502 54.349-24.132 2.928-2.931 2.926-7.679-.004-10.606-2.93-2.93-7.679-2.927-10.606.003-11.967 11.977-27.744 18.99-44.42 19.751-5.633.256-11.375-.188-16.906-1.329l-9.215-1.899c-1.781-.367-3.636-.073-5.219.824l-8.18 4.647c-4.472 2.541-9.357 3.829-14.521 3.829-5.165 0-10.049-1.288-14.519-3.828l-8.182-4.65c-1.582-.899-3.438-1.191-5.22-.825l-.853.176c-4.581-18.839-14.226-36.123-28.291-50.24-18.908-18.975-30.195-45.3-31.391-72.851 22.354-26.878 34.956-61.442 34.956-96.877v-58.404c0-30.052 24.449-54.5 54.5-54.5s54.5 24.448 54.5 54.5v60.407c0 39.806 15.734 78.426 43.167 105.958 12.94 12.987 19.927 30.247 19.673 48.599-.092 6.731-1.211 13.419-3.326 19.876-1.289 3.937.857 8.172 4.793 9.462 3.935 1.29 8.173-.856 9.461-4.794 2.587-7.899 3.957-16.088 4.07-24.337.309-22.426-8.23-43.519-24.046-59.394-24.654-24.742-38.793-59.503-38.793-95.37v-60.407c0-38.322-31.178-69.5-69.5-69.5s-69.5 31.178-69.5 69.5v58.404c0 25.282-7.117 50.063-20.067 71.3v-21.849c6.556-15.503 10.067-32.351 10.067-49.45v-58.405c0-43.837 35.664-79.5 79.5-79.5s79.5 35.663 79.5 79.5v11.5c0 4.143 3.358 7.5 7.5 7.5s7.5-3.357 7.5-7.5v-11.5c0-52.107-42.393-94.5-94.5-94.5s-94.5 42.393-94.5 94.5v58.404c0 .462-.014.922-.02 1.384-8.878-26.244-28.992-47.354-54.589-57.583-1.648-8.919-7.04-16.808-14.959-21.593v-24.112c0-9.649-7.851-17.5-17.5-17.5h-7c-9.649 0-17.5 7.851-17.5 17.5v24.112c-8.181 4.944-13.66 13.2-15.105 22.482-33.715 14.45-57.395 47.963-57.395 86.906v58.404c0 29.678-11.96 58.488-32.813 79.043-20.83 20.532-32.206 47.95-32.033 77.202.166 28.049 11.185 54.585 31.025 74.72 19.843 20.139 46.214 31.542 74.254 32.107 7.119.146 14.265-.42 21.278-1.678 9.799 5.046 20.729 7.701 31.789 7.701 11.058 0 21.986-2.654 31.786-7.7 7.921 1.421 16.004 1.954 24.075 1.586 51.106-2.329 92.721-40.367 100.986-89.45 8.575 3.652 17.85 5.565 27.22 5.565 11.058 0 21.987-2.654 31.786-7.699 7.921 1.42 16.007 1.954 24.076 1.585 56.68-2.583 101.692-49.086 102.476-105.87.402-29.217-10.726-56.699-31.335-77.384zm-337.943 257.276c-.543-.294-1.404-.679-2.524-.858-1.135-.182-2.085-.08-2.696.034l-5.832 1.004c-25.492-6.44-45.414-46.007-45.575-91.007-.092-25.841 5.9-49.945 16.873-67.875 14.345-23.44 22.246-54.799 22.246-88.3v-58.406c0-21.73 5.013-42.094 14.115-57.341 6.475-10.846 14.377-17.987 22.766-20.795v390.11c-.001 0-.002 0-.002 0-.848-.118-1.694-.256-2.535-.414-.001 0-.002 0-.004-.001-1.642-.308-3.269-.694-4.874-1.15-1.787-.499-3.759-1.151-5.854-2.014-2.32-.954-4.357-1.987-6.104-2.987zm14.351-402.37c4.022-2.179 6.521-6.382 6.521-10.969v-25.569c0-1.379 1.122-2.5 2.5-2.5h7c1.378 0 2.5 1.121 2.5 2.5v25.569c0 4.588 2.499 8.791 6.522 10.97 1.863 1.009 3.477 2.335 4.813 3.878-5.307-.929-10.765-1.417-16.335-1.417-6.407 0-12.667.644-18.719 1.865 1.403-1.738 3.155-3.22 5.198-4.327zm-130.824 311.524c-.149-25.172 9.64-48.765 27.563-66.432 23.694-23.355 37.283-56.06 37.283-89.726v-58.404c0-27.93 14.49-52.524 36.334-66.708-10.686 17.001-17.215 40.489-17.215 66.708v58.404c0 30.329-7.304 59.66-20.04 80.47-12.406 20.27-19.181 47.175-19.079 75.758.091 25.454 5.861 50.095 16.249 69.382 4.472 8.304 9.677 15.383 15.413 21.081-43.035-7.647-76.243-45.64-76.508-90.533zm150.846 97.413h-.001v-390.49c21.24 6.074 38.086 39.598 38.086 78.515v11.5c0 4.143 3.358 7.5 7.5 7.5s7.5-3.357 7.5-7.5v-11.5c0-24.538-5.823-47.729-16.397-65.303-.474-.787-.955-1.559-1.444-2.316 22.638 14.027 37.754 39.086 37.754 67.619v60.407c0 33.241 13.077 65.43 35.877 88.312 17.734 17.799 27.309 41.448 26.962 66.59-.619 44.881-33.354 82.273-76.476 89.79 5.675-5.638 10.829-12.627 15.265-20.819 10.344-19.103 16.156-43.538 16.366-68.805.238-28.543-6.387-55.502-18.655-75.913-12.235-20.354-19.252-49.205-19.252-79.154v-13.908c0-4.143-3.358-7.5-7.5-7.5s-7.5 3.357-7.5 7.5v13.907c0 33.073 7.599 63.929 21.396 86.882 10.863 18.074 16.727 42.245 16.512 68.061-.372 44.63-20.277 83.862-45.541 90.237-2.035-.282-4.002-.619-5.865-1.003-1.78-.366-3.636-.073-5.218.824-2.814 1.541-6.342 3.175-10.542 4.504-3.231 1.023-6.218 1.661-8.827 2.063z"/><path d="m348.034 197.5c-35.993 0-65.275 32.972-65.275 73.5s29.282 73.5 65.275 73.5 65.276-32.972 65.276-73.5-29.283-73.5-65.276-73.5zm0 132c-27.722 0-50.275-26.243-50.275-58.5s22.553-58.5 50.275-58.5 50.276 26.243 50.276 58.5-22.554 58.5-50.276 58.5z"/><circle cx="335.534" cy="232.5" r="7.5"/><circle cx="360.534" cy="232.5" r="7.5"/><circle cx="323.034" cy="254.5" r="7.5"/><circle cx="348.034" cy="254.5" r="7.5"/><circle cx="373.034" cy="254.5" r="7.5"/><circle cx="323.034" cy="301.5" r="7.5"/><circle cx="348.034" cy="301.5" r="7.5"/><circle cx="373.034" cy="301.5" r="7.5"/><circle cx="313.534" cy="278.5" r="7.5"/><circle cx="336.534" cy="278.5" r="7.5"/><circle cx="359.534" cy="278.5" r="7.5"/><circle cx="382.534" cy="278.5" r="7.5"/></g></g></svg>