<?xml version="1.0" encoding="iso-8859-1"?>
<!-- Generator: Adobe Illustrator 19.0.0, SVG Export Plug-In . SVG Version: 6.00 Build 0)  -->
<svg version="1.1" id="Capa_1" xmlns="http://www.w3.org/2000/svg" xmlns:xlink="http://www.w3.org/1999/xlink" x="0px" y="0px"
	 viewBox="0 0 512 512" style="enable-background:new 0 0 512 512;" xml:space="preserve">
<path style="fill:#93603E;" d="M262.009,450.516c-28.562,0-51.8,23.237-51.8,51.799c0,4.204,3.408,7.612,7.612,7.612
	s7.612-3.408,7.612-7.612c0-17.558,12.438-32.26,28.964-35.773v37.846c0,4.204,3.408,7.612,7.612,7.612s7.612-3.408,7.612-7.612
	v-37.846c16.526,3.513,28.964,18.215,28.964,35.773c0,4.204,3.408,7.612,7.612,7.612s7.612-3.408,7.612-7.612
	C313.809,473.753,290.571,450.516,262.009,450.516z"/>
<path style="fill:#3BBC56;" d="M168.282,39.125c-2.333-0.774-4.194,2.048-2.53,3.857c18.757,20.397,73.162,87.464,73.162,179.209
	l2.03-134.691C240.944,87.501,212.246,53.71,168.282,39.125z"/>
<path style="fill:#30AA44;" d="M194.485,50.728c-7.934-4.406-16.711-8.453-26.203-11.602c-2.333-0.774-4.194,2.048-2.53,3.857
	c18.757,20.397,73.162,87.465,73.162,179.209l1.463-97.076C225.911,91.178,206.953,65.488,194.485,50.728z"/>
<path style="fill:#E5E1E1;" d="M285.24,229.064h-46.369c-0.449,31.17-12.759,61.295-35.361,82.813
	c-54.403,51.793-18.962,143.359,55.178,146.188c77.397,2.954,117.436-90.677,63.282-144.761
	C299.501,290.862,286.616,260.673,285.24,229.064z"/>
<path style="fill:#3BBC56;" d="M276.789,0h-29.561c-4.592,0-8.314,3.722-8.314,8.314c0,235.385,0.012,218.424-0.021,220.749h0.021
	l0,0h46.189c0-9.227,0-211.07,0-220.75C285.104,3.722,281.381,0,276.789,0z"/>
<path style="fill:#30AA44;" d="M259.191,229.063c0.033-2.326,0.021,14.636,0.021-220.749c0-4.592,3.722-8.314,8.314-8.314h-20.299
	c-4.592,0-8.314,3.722-8.314,8.314c0,235.385,0.012,218.424-0.021,220.749h0.021l0,0h20.299l0,0H259.191z"/>
<path style="fill:#3BBC56;" d="M304.328,80.713c-31.799,27.344-65.413,73.864-65.413,148.35h46.326c0,0-6.195-69.446,34.625-134.925
	C326.173,84.021,313.368,72.939,304.328,80.713z"/>
<path style="fill:#BABABA;" d="M224.561,311.876c22.602-21.517,34.913-51.643,35.362-82.812h-21.051
	c-0.449,31.17-12.759,61.295-35.361,82.812c-54.403,51.793-18.962,143.359,55.178,146.188c4.833,0.184,9.521-0.008,14.049-0.544
	C203.422,449.407,171.901,362.011,224.561,311.876z"/>
<path style="fill:#30AA44;" d="M320.797,84.793c-2.43-5.926-10.318-9.369-16.47-4.08c-31.799,27.344-65.413,73.864-65.413,148.35
	h21.051C259.965,158.148,290.434,112.595,320.797,84.793z"/>
<g>
</g>
<g>
</g>
<g>
</g>
<g>
</g>
<g>
</g>
<g>
</g>
<g>
</g>
<g>
</g>
<g>
</g>
<g>
</g>
<g>
</g>
<g>
</g>
<g>
</g>
<g>
</g>
<g>
</g>
</svg>
