<svg height="512" viewBox="0 0 512 512.001" width="512" xmlns="http://www.w3.org/2000/svg" id="fruit"><path d="M476.121 82.477c-2.578-8.086-7.176-14.418-12.898-18.957-3.54-2.805-5.543-7.118-5.543-11.633V15a7.5 7.5 0 0 0-7.5-7.5h-15c-4.14 0-7.5 3.36-7.5 7.5v31.285c0 5.54-3.032 10.664-7.942 13.227-7.07 3.691-13.183 9.66-17.16 17.988-16.765 35.113-46.52 107.813-107.633 168.809-60.996 61.113-133.695 90.867-168.808 107.632-32.164 15.356-29.325 62.614 4.976 73.543 20.035 6.383 42.29 9.442 65.586 9.02 67.977-1.227 139.473-39.352 194.281-94.16 54.813-54.809 92.934-126.305 94.165-194.281.417-23.297-2.641-45.551-9.024-65.586zm0 0" fill="#ffcf5d"/><path d="M444.578 87.023c1.356 1.075 2.324 2.567 2.957 4.563 5.414 16.996 7.977 35.812 7.613 55.937-1.02 56.266-32.937 121.165-85.378 173.61-52.446 52.445-117.348 84.363-173.614 85.379-15.898.289-28.676 12.894-29.414 28.554 9.719 1.141 19.738 1.625 29.957 1.442 67.977-1.23 139.473-39.352 194.281-94.16 54.813-54.813 92.934-126.309 94.165-194.286.418-23.296-2.641-45.55-9.024-65.585-2.578-8.086-7.176-14.418-12.898-18.957-3.54-2.805-5.543-7.118-5.543-11.633V15a7.5 7.5 0 0 0-7.5-7.5h-15c-4.14 0-7.5 3.36-7.5 7.5v36.887c0 13.812 6.16 26.617 16.898 35.136zm0 0" fill="#ffb545"/><path d="M95.605 227.27 70.38 211.297c-6.344-4.02-14.317 1.965-12.121 9.098l7.402 24.042c5.516 17.922 16.938 33.5 32.438 44.254L122.883 305c.004-29.203-1.13-61.172-27.278-77.73zm0 0" fill="#28d05b"/><path d="M164.371 294.113c-14.543-.531-28.633 3.254-41.488 10.426-12.848-7.168-26.942-10.96-41.485-10.426-30.41 1.297-52.28 17.606-63.945 38.602-11.707 21.344-13.203 47.379-3.867 76.105 14.277 43.805 52.168 83.047 88.164 85.102 3.535.242 6.992.168 10.355-.188 7.118-.75 14.442-.75 21.56 0 3.362.356 6.82.43 10.355.188 35.992-2.055 73.886-41.297 88.164-85.102 9.336-28.726 7.836-54.761-3.868-76.105-11.664-20.996-33.535-37.305-63.945-38.602zm0 0" fill="#ff5368"/><path d="M228.316 332.715c-5.707-10.277-13.867-19.426-24.273-26.242a75.72 75.72 0 0 1 3.07 5.039c11.707 21.343 13.207 47.375 3.867 76.105-9.585 29.414-29.82 56.77-52.976 72.192-12.79 8.515-27.879 12.91-43.246 12.91H55.707c14.3 12.332 30.352 20.308 46.043 21.203 3.535.242 6.992.168 10.36-.188a102.576 102.576 0 0 1 21.566 0c3.36.356 6.812.426 10.347.188 35.993-2.055 73.887-41.297 88.165-85.102 9.335-28.726 7.835-54.761-3.872-76.105zm0 0" fill="#d9435b"/><path d="M434.352 308.5c-3.153-13.188-15.012-23-29.168-23-14.16 0-26.016 9.813-29.172 23-40.996 12.484-70.828 50.594-70.828 95.672 0 55.23 44.77 100 100 100 55.226 0 100-44.77 100-100 0-45.078-29.832-83.188-70.832-95.672zm0 0" fill="#ff983b"/><path d="M464.492 323.66c12.246 16.594 19.485 37.106 19.485 59.313 0 55.226-44.77 99.996-100 99.996-22.204 0-42.715-7.239-59.309-19.485 18.21 24.68 47.492 40.688 80.516 40.688 55.226 0 100-44.77 100-100 0-33.02-16.012-62.3-40.692-80.512zm0 0" fill="#ff7e40"/><path d="m462.309 312.11-7.403-24.044c-5.515-17.921-16.933-33.503-32.437-44.253l-9.785-6.442c-6.438-4.234-15 .383-15 8.086v10.656c0 20.055 9.59 37.922 27.277 49.121l25.226 15.977c6.344 4.012 14.32-1.969 12.122-9.102zM336.023 126.324c-1.687-3.746-6.207-5.3-10-3.73l-4.203 1.742 3.22-3.219c2.901-2.906 3.198-7.676.382-10.664a7.505 7.505 0 0 0-10.77-.164l-3.437 3.438 1.86-4.493a7.5 7.5 0 0 0-4.06-9.8c-3.828-1.59-8.214.234-9.8 4.062l-4.07 9.832a7.441 7.441 0 0 0 .52 6.758c2.003 3.305 1.683 7.504-1.048 10.238-2.902 2.903-3.195 7.672-.379 10.66a7.5 7.5 0 0 0 10.766.164l.144-.144c2.77-2.77 7.012-3.07 10.383-1.078a7.464 7.464 0 0 0 6.692.476l9.832-4.07a7.497 7.497 0 0 0 3.968-10.008zm0 0" fill="#28d05b"/><path d="M315.219 130.938c-5.477-1.47-11.176.273-14.922 4.335l-24.61-7.68-18.207 19.114-7.73 28.832c-.086-.023-.172-.055-.262-.078-8-2.152-16.226 2.594-18.375 10.594-2.148 8 2.594 16.23 10.594 18.379 8.004 2.148 16.23-2.598 18.379-10.598.617-2.305.715-4.672.215-6.996 1.531 4.629 5.328 8.472 10.394 9.832 8.004 2.144 16.227-2.606 18.371-10.606.66-2.457.688-5.035.075-7.5.68 2.36 1.949 4.582 3.808 6.442 5.856 5.86 15.356 5.86 21.211 0 5.86-5.86 5.86-15.356 0-21.211a14.997 14.997 0 0 0-6.535-3.832c7.95 2.031 16.07-2.711 18.2-10.656 2.144-8-2.602-16.227-10.606-18.371zm0 0" fill="#d9435b"/><path d="M294.004 109.738c-11.156-2.984-21.34 7.258-18.371 18.367a14.992 14.992 0 0 0-14.488-11.113 14.955 14.955 0 0 0-10.606 4.395c-5.86 5.86-5.86 15.355 0 21.21a14.878 14.878 0 0 0 7.066 3.981c-8.168-2.394-16.558 2.457-18.714 10.52-2.141 8.004 2.609 16.226 10.613 18.367s16.226-2.613 18.367-10.613c.68-2.543.68-5.215 0-7.754 1.695 6.218 7.344 11.109 14.488 11.109.024 0 .047-.004.07-.004 13.192-.058 19.989-16.152 10.536-25.601a14.834 14.834 0 0 0-6.656-3.872c7.984 2.102 16.171-2.644 18.308-10.628 2.14-8-2.613-16.223-10.613-18.364zm0 0" fill="#ff5368"/><path d="M295.184 27.668a7.506 7.506 0 0 0-9.801-4.059l-4.496 1.864 3.441-3.442a7.497 7.497 0 0 0 0-10.605 7.497 7.497 0 0 0-10.605 0l-3.442 3.441 1.864-4.496a7.495 7.495 0 0 0-4.06-9.797 7.501 7.501 0 0 0-9.8 4.059l-4.07 9.832 27.078 27.074 9.832-4.07a7.5 7.5 0 0 0 4.059-9.801zm0 0" fill="#28d05b"/><path d="M216.848 22.34c15.62-15.621 38.824-13.5 54.445 2.12 15.621 15.622 17.742 38.83 2.121 54.45-15.621 15.621-57.21 31.883-72.832 16.262-15.621-15.621.645-57.211 16.266-72.832zm0 0" fill="#ff5368"/><path d="M271.293 24.46c-3.75-3.75-7.941-6.71-12.355-8.847 6.761 13.973 5.144 30.223-6.727 42.094-11.871 11.871-38.73 24.094-57.8 22.434.526 6.027 2.421 11.28 6.171 15.03 15.621 15.622 57.211-.64 72.832-16.26 15.621-15.622 13.5-38.829-2.121-54.45zm0 0" fill="#d9435b"/><path d="M192 153.754c0 27.617-22.387 50-50 50s-50-22.383-50-50c0-27.613 22.387-50 50-50s50 22.387 50 50zm0 0" fill="#5c87bd"/><path d="M165.125 109.426a49.76 49.76 0 0 1 5.672 23.125c0 27.617-22.387 50-50 50a49.749 49.749 0 0 1-23.125-5.672c8.348 15.969 25.058 26.875 44.328 26.875 27.613 0 50-22.383 50-50 0-19.27-10.906-35.98-26.875-44.328zm0 0" fill="#456ea2"/><path d="M469.094 318.406c.664-2.664.613-5.52-.242-8.304l-7.395-24.055c-5.977-19.45-18.508-36.582-35.285-48.246-.05-.035-.102-.067-.152-.102l-9.774-6.445c-11.394-7.512-26.59.695-26.59 14.36v10.663c0 8.246 1.465 16.149 4.239 23.461a37.3 37.3 0 0 0-24.418 23.04c-20.004 6.964-37.887 20.003-50.684 37.046-13.566 18.067-20.95 39.477-21.469 62.059-21.277 10.844-42.554 18.543-63.476 22.972 16.703-38.199 17.062-81.855-11.414-112.23 12.148-7.578 23.726-15.492 34.5-23.617 15.48-11.668 29.91-24.195 42.902-37.235C349.613 201.97 378.25 146.63 402.934 93.332c5.921-12.789 8.664-21.324 19.707-27.125 7.37-3.875 11.953-11.488 11.953-19.894V15.012h14.98v36.906c0 6.902 3.059 13.289 8.371 17.52 4.883 3.902 8.39 9.074 10.407 15.37 16.582 52.204 8.441 107.301-14.93 156.82-2.332 4.911 1.223 10.708 6.762 10.708a7.516 7.516 0 0 0 6.77-4.285l.01-.008c7.77-16.473 13.833-33.113 18.005-49.473 10.422-40.789 9.011-82.539-2.348-118.316-2.875-9.086-8.187-16.89-15.367-22.574-1.691-1.332-2.7-3.492-2.7-5.762V15.012c0-8.274-6.718-15.008-14.98-15.008h-14.98c-8.258.008-14.973 6.734-14.98 15.008v31.3c0 2.77-1.54 5.352-3.907 6.583-15.621 8.152-19.867 20.109-26.355 34.093-19.625 42.395-48.098 102.164-100.102 154.168-22.465 22.543-48.227 42.57-78.621 61.125-13.016-9.324-28.828-14.738-46.223-15.48-9.742-.36-19.355 1.008-28.746 4.066 13.992-27.656 34.719-46.785 61.848-57.004 8.21 8.235 18-3.191 11.246-9.957l-3.992-4.004a7.49 7.49 0 0 0-7.668-1.812c-28.754 9.605-51.961 28.273-68.387 54.707-2.586-19.672-9.687-39.317-29.246-51.723L74.27 205.09c-5.594-3.547-12.606-3.238-17.868.793-5.207 3.984-7.328 10.601-5.406 16.86l7.395 24.058c4.687 15.254 13.422 29.07 25.062 39.953-29.297.172-57.23 14.816-72.617 42.566C-1.918 352.617-3.445 381 6.418 411.406c7.406 22.762 20.812 44.52 37.754 61.262 17.867 17.66 38.11 27.98 56.91 29.059 3.902.265 7.824.191 11.637-.211a94.934 94.934 0 0 1 19.957-.004c2.332.25 4.691.37 7.043.37 1.511 0 3.023-.05 4.515-.152 18.98-1.085 39.305-11.492 57.22-29.308 9.07-9.02 17.109-19.473 23.757-30.719 24.031-3.797 48.504-11.672 72.941-23.48C304.93 471.047 350.098 512 404.632 512c59.204 0 107.364-48.254 107.364-107.566.004-34.07-15.914-65.735-42.902-86.028zM72.707 242.383l-7.39-24.059c-.06-.183-.094-.304.183-.52.602-.456-1.238-1.3 25.95 15.95v.004c18.554 11.77 22.718 32.613 23.562 57.387l-12.871-8.489c-13.996-9.75-24.45-24.05-29.434-40.273zm152.031 164.37c-12.98 39.903-48.09 78.087-81.437 79.997a52.53 52.53 0 0 1-9.047-.16 108.58 108.58 0 0 0-11.55-.61c-3.864 0-7.724.204-11.56.61-2.96.312-6.003.367-9.124.156-15.247-.875-32.051-9.668-47.329-24.762-15.265-15.09-27.351-34.703-34.027-55.222-8.55-26.367-7.406-50.649 3.29-70.188 11.66-21.035 32.663-33.707 57.585-34.773 11.531-.422 22.922 2.14 33.918 7.605l3.125 2.059c2.922 1.926 6.961 1.644 9.574-1.149 11.547-6.09 23.559-8.949 35.66-8.515 46.625 1.992 80.38 44.976 60.922 104.953zm179.899-161.14c0-1.738 1.906-2.785 3.375-1.82 9.004 5.937 20.508 12.336 30.64 28.312a7.517 7.517 0 0 0 3.078 5.313 75.428 75.428 0 0 1 5.41 13.043l7.395 24.055c.055.183.094.308-.187.52-.368.28-.59.14-.754.038l-25.196-15.988c-25.64-16.266-23.761-39.918-23.761-53.473zm0 251.38c-50.938 0-92.383-41.524-92.383-92.56 0-37.312 21.75-70.117 55.125-84.734a37.354 37.354 0 0 0 5.191 15.399 7.483 7.483 0 0 0 10.285 2.539c3.54-2.145 4.676-6.762 2.536-10.309-3.063-5.074-3.989-11.07-2.602-16.883 1.816-7.617 7.32-13.507 14.356-15.984v20.93c0 4.105 3.164 7.691 7.261 7.812 4.242.129 7.723-3.277 7.723-7.5v-10.062c4.687 4.047 7.922 5.918 14.957 10.382-.055 3.973-1.145 7.899-3.203 11.305-2.14 3.547-1.008 8.164 2.535 10.309a7.488 7.488 0 0 0 10.285-2.54 37.336 37.336 0 0 0 4.258-10.273l4.617 2.93c2.594 1.648 5.492 2.46 8.379 2.46 1.625 0 3.246-.26 4.813-.776 24.027 17.417 38.25 45.128 38.25 74.996 0 51.035-41.442 92.558-92.383 92.558zm0 0"/><path d="M141.793 211.39c31.664 0 57.426-25.808 57.426-57.535 0-31.726-25.762-57.539-57.426-57.539-31.668 0-57.426 25.813-57.426 57.54 0 31.726 25.758 57.535 57.426 57.535zm0-100.062c23.402 0 42.445 19.078 42.445 42.527s-19.043 42.528-42.445 42.528c-23.406 0-42.445-19.078-42.445-42.528s19.039-42.527 42.445-42.527zm0 0"/><path d="M126.742 149.156a7.455 7.455 0 0 0 5.297 2.196c1.914 0 3.832-.73 5.297-2.196l2.191-2.199 2.196 2.2c1.46 1.464 3.379 2.195 5.297 2.195s3.832-.73 5.296-2.196a7.514 7.514 0 0 0 0-10.613l-2.195-2.2 2.195-2.198a7.514 7.514 0 0 0 0-10.614 7.483 7.483 0 0 0-10.593 0l-2.196 2.2-2.191-2.2a7.483 7.483 0 0 0-10.594 0 7.514 7.514 0 0 0 0 10.614l2.192 2.199-2.192 2.199a7.514 7.514 0 0 0 0 10.613zM278.336 84.266c12.508-12.536 15.828-29.961 10.187-45.86l2.204-.914c3.82-1.586 5.636-5.972 4.05-9.804a7.484 7.484 0 0 0-9.785-4.06l-3.62 1.5c-.075-.097-.142-.194-.216-.292l2.781-2.79a7.514 7.514 0 0 0 0-10.612 7.483 7.483 0 0 0-10.593 0l-2.79 2.796a13.795 13.795 0 0 0-.288-.214l1.504-3.637c1.582-3.828-.23-8.219-4.055-9.805-3.817-1.586-8.203.23-9.785 4.059l-.907 2.199c-16-5.734-33.27-2.316-45.777 10.215-17.488 17.523-35.953 63.742-16.242 83.492 19.828 19.871 66.05 1.043 83.332-16.273zm-74.41-23.418c3.613-12.735 10.812-26.07 17.914-33.184 12.703-12.73 31.18-10.508 43.781 2.121 13.3 13.324 14.191 31.774 2.121 43.867-7.101 7.118-20.414 14.328-33.12 17.95-13.337 3.796-24.188 3.175-29.028-1.676-4.836-4.844-5.461-15.715-1.668-29.078zm0 0"/><path d="M244.395 61.668a7.514 7.514 0 0 0 0-10.613 7.483 7.483 0 0 0-10.594 0 7.514 7.514 0 0 0 0 10.613 7.483 7.483 0 0 0 10.594 0zM223.207 82.895c2.926-2.93 2.926-7.684 0-10.614s-7.668-2.93-10.594 0a7.52 7.52 0 0 0 0 10.614 7.476 7.476 0 0 0 10.594 0zM223.207 61.668a7.514 7.514 0 0 0 0-10.613 7.483 7.483 0 0 0-10.594 0 7.52 7.52 0 0 0 0 10.613 7.483 7.483 0 0 0 10.594 0zM244.395 82.895c2.925-2.93 2.925-7.684 0-10.614s-7.668-2.93-10.594 0-2.926 7.684 0 10.614a7.476 7.476 0 0 0 10.594 0zM265.578 61.668a7.514 7.514 0 0 0 0-10.613 7.478 7.478 0 0 0-10.59 0 7.514 7.514 0 0 0 0 10.613 7.478 7.478 0 0 0 10.59 0zM244.395 40.441c2.925-2.93 2.925-7.683 0-10.613s-7.668-2.93-10.594 0a7.514 7.514 0 0 0 0 10.613 7.483 7.483 0 0 0 10.594 0zM278.172 104.957a22.77 22.77 0 0 0-7.262 6.957c-8.21-4.094-18.703-3.078-26.012 4.246-7.203 7.215-8.355 17.707-4.168 26.067a22.49 22.49 0 0 0-9.41 13.03c-1.441 5.407-.828 11.009 1.672 15.958a22.571 22.571 0 0 0-9.87 14.976c-2.056 11.657 5.358 22.973 16.87 25.766 9.574 2.32 19.004-1.82 24.098-9.55 6.555 3.312 14.691 3.394 21.62-.77a22.796 22.796 0 0 0 7.302-7.032c8.175 4.106 18.668 3.196 26.02-4.167 7.16-7.176 8.355-17.653 4.171-26.04 4.8-3.128 8.281-8.027 9.617-13.878 1.102-4.825.504-9.727-1.398-14.036a7.503 7.503 0 0 0 4.39-9.46 7.493 7.493 0 0 0-9.539-4.626l-4.414 1.54 2.957-2.961a7.514 7.514 0 0 0 0-10.614 7.483 7.483 0 0 0-10.593 0l-2.957 2.961 1.535-4.422c1.36-3.914-.703-8.191-4.614-9.554-3.808-1.325-7.96.613-9.421 4.343-6.403-2.816-14.055-2.656-20.594 1.266zm18.793 21.29a7.582 7.582 0 0 0-.246 1.651l-2.723 2.73c-6.812 6.825 3.133 18.087 11.184 10.02 2.597-2.613 5.402-3.156 8.136-2.234 6.938 2.336 6.727 12.695-.726 14.43-7.383 1.715-9.852 10.969-4.324 16.176 1.468 1.382 2.332 3.37 2.363 5.445.098 6.652-8.223 10.265-12.992 5.176-5.14-5.5-14.414-3.012-16.114 4.336-1.324 5.703-8.578 7.957-12.796 3.445-5.153-5.512-14.403-3.012-16.122 4.367-.867 3.723-4.753 6.633-9.09 5.578-6.304-1.527-7.937-10.097-2.222-13.668 3.172-1.98 5.883-.793 6.996-.625 9.23 1.992 18.266-2.195 23.094-9.949.668.36 1.363.688 2.078.984 15.77 6.5 32.844-7.027 24.398-15.492a7.483 7.483 0 0 0-10.593 0c-4.582 4.59-12.137 1.434-12.743-4.422-.52-12.035-15.355-10.078-15.023-.644.074 6.293 1.5 10.242-2.438 13.469-1.82 1.492-4.242 1.867-5.847 1.328-1.77 0-6.922-3.594-5.422-9.211a7.508 7.508 0 0 1 5.55-5.38c7.352-1.722 9.856-11 4.333-16.163-1.48-1.383-2.352-3.371-2.387-5.453-.113-6.68 8.316-10.262 12.984-5.282 5.141 5.489 14.383 3.012 16.102-4.32.457-1.934 1.727-3.644 3.484-4.7 5.641-3.382 12.868 1.813 11.106 8.407zM365.684 354.5a7.5 7.5 0 0 1-7.5 7.5 7.497 7.497 0 0 1-7.5-7.5 7.5 7.5 0 1 1 15 0zM385.684 382.504c0 4.14-3.36 7.5-7.5 7.5s-7.5-3.36-7.5-7.5c0-4.145 3.359-7.5 7.5-7.5s7.5 3.355 7.5 7.5zM345.68 404.504a7.5 7.5 0 1 1-15 0 7.5 7.5 0 1 1 15 0zm0 0"/></svg>