<svg height="512" viewBox="0 0 64 64" width="512" xmlns="http://www.w3.org/2000/svg" id="vegetables"><g fill="#fcd770"><path d="M62 35.95v2.1c0 3.54-1.48 6.9-4.05 9.32l-3.89-.59A13.39 13.39 0 0 0 56 39.84v-3.68c0-2.07-.48-4.08-1.36-5.88-.65-1.34-1.54-2.56-2.63-3.61l.01-.01A3.203 3.203 0 0 1 54.84 25c.69 0 1.36.22 1.92.63 3.3 2.44 5.24 6.26 5.24 10.32z"/><path d="M50.84 25.64c.42.32.82.66 1.17 1.03 1.09 1.05 1.98 2.27 2.63 3.61.88 1.8 1.36 3.81 1.36 5.88v3.68c0 2.48-.69 4.88-1.94 6.94l-9.38-1.44v-.01c-.45-1.73-.68-3.5-.68-5.3v-4.06c0-1.39.14-2.78.41-4.14.49.11 1.02.17 1.59.17 2.21 0 4-.9 4-2 0-.71-.74-1.33-1.85-1.68l.3-3.28a3.145 3.145 0 0 1 2.39.6zM38.77 25.43c.53.3.96.74 1.25 1.29v.01A13.083 13.083 0 0 0 36 36.16v3.68c0 1.47.25 2.91.72 4.27l-5.61-.86c-.72-1.62-1.11-3.38-1.11-5.2v-2.1a12.754 12.754 0 0 1 .33-2.86c.68-2.95 2.4-5.6 4.91-7.46.56-.41 1.23-.63 1.92-.63.58 0 1.13.15 1.61.43z"/><path d="m43.55 25.02.3 3.3c-1.11.35-1.85.97-1.85 1.68 0 .82.99 1.52 2.41 1.83a21.29 21.29 0 0 0-.41 4.14v4.06c0 1.8.23 3.57.68 5.3l-6.28-.96-1.68-.26c-.47-1.36-.72-2.8-.72-4.27v-3.68c0-3.58 1.47-6.98 4.02-9.43v-.01c.4-.39.82-.75 1.27-1.08.56-.41 1.24-.64 1.94-.64.11 0 .21.01.31.02z"/></g><path d="M50 30c0 1.1-1.79 2-4 2-.57 0-1.1-.06-1.59-.17C42.99 31.52 42 30.82 42 30c0-.71.74-1.33 1.85-1.68l-.3-3.3-.54-5.89c-.01-.09-.01-.17-.01-.26 0-1.59 1.28-2.87 2.87-2.87h.26A2.865 2.865 0 0 1 49 18.87c0 .09 0 .17-.01.26l-.54 5.91-.3 3.28c1.11.35 1.85.97 1.85 1.68z" fill="#cf9e76"/><path d="M23.91 6.13c.35-.08.72-.13 1.09-.13 1.63 0 3.09.78 4 2l-.02.1a4.988 4.988 0 0 0-5.58 2.94c-.13-.01-.26-.04-.4-.04-2.51 0-4.57 1.86-4.93 4.27C15.15 16.11 13 18.8 13 22c0 2.73 1.56 5.08 3.84 6.24A4.94 4.94 0 0 0 16 31c0 1.78.94 3.33 2.34 4.22-.21.55-.34 1.15-.34 1.78 0 2.76 2.24 5.03 5 5.03-.26-.02-.51-.03-.76-.03H22c-1.95 0-3.77.56-5.31 1.53L14 36c-2.76 0-5-2.24-5-5 0-.63.13-1.23.34-1.78C7.94 28.33 7 26.78 7 25c0-1.02.31-1.97.84-2.76C5.56 21.08 4 18.73 4 16c0-3.2 2.15-5.89 5.07-6.73C9.43 6.86 11.49 5 14 5c.14 0 .27.03.4.04A4.988 4.988 0 0 1 19 2c2.46 0 4.5 1.78 4.91 4.13z" fill="#8cc152"/><path d="M37.56 20.5a4.97 4.97 0 0 1 1.25 4.86l-.04.07a3.18 3.18 0 0 0-1.61-.43c-.69 0-1.36.22-1.92.63a12.893 12.893 0 0 0-5.04 8.09c-.13.73-.2 1.48-.2 2.23v2.1c0 1.82.39 3.58 1.11 5.2l-7.35-1.13c-.26-.04-.51-.07-.76-.09-2.76 0-5-2.27-5-5.03 0-.63.13-1.23.34-1.78C16.94 34.33 16 32.78 16 31c0-1.02.31-1.97.84-2.76C14.56 27.08 13 24.73 13 22c0-3.2 2.15-5.89 5.07-6.73C18.43 12.86 20.49 11 23 11c.14 0 .27.03.4.04a4.988 4.988 0 0 1 5.58-2.94c2.01.4 3.58 2 3.93 4.03.35-.08.72-.13 1.09-.13 2.76 0 5 2.24 5 5 0 1.36-.55 2.6-1.44 3.5zM6.8 50h5.4a10.048 10.048 0 0 0 0 4H4c-.55 0-1.05-.22-1.41-.59C2.22 53.05 2 52.55 2 52c0-1.1.9-2 2-2zM7.19 46.04l5.95 1.33c-.43.82-.75 1.7-.94 2.63H6.8c-.99 0-1.8-.81-1.8-1.8v-.4a1.805 1.805 0 0 1 2.19-1.76zM13.14 56.63l-5.95 1.33A1.805 1.805 0 0 1 5 56.2v-.4c0-.99.81-1.8 1.8-1.8h5.4c.19.93.51 1.81.94 2.63z" fill="#b4dd7f"/><path d="M60.88 48.96c-.71-.82-1.7-1.4-2.83-1.57l-.1-.02-3.89-.59-9.38-1.44v-.01l-6.28-.96-1.68-.26-5.61-.86-7.35-1.13a9.846 9.846 0 0 0-1.52-.12H22c-1.95 0-3.77.56-5.31 1.53-1.5.94-2.73 2.27-3.55 3.84A9.935 9.935 0 0 0 12.2 54c.19.93.51 1.81.94 2.63.47.9 1.08 1.73 1.79 2.44A9.969 9.969 0 0 0 22 62h.24c.5 0 1.01-.04 1.52-.12l14.64-2.25 19.65-3.02A4.666 4.666 0 0 0 62 52c0-1.15-.42-2.22-1.12-3.04z" fill="#ff826e"/><g><path d="M63 35.949c0-4.354-2.111-8.512-5.647-11.122A4.255 4.255 0 0 0 54.837 24a4.21 4.21 0 0 0-2.961 1.218c-.145-.121-.277-.254-.427-.369-.555-.424-1.221-.676-1.905-.78l.441-4.849A3.874 3.874 0 0 0 46.13 15h-.26a3.874 3.874 0 0 0-3.854 4.221l.443 4.87a4.28 4.28 0 0 0-1.765.751c-.179.134-.338.288-.51.429a4.06 4.06 0 0 0-.28-.261c.057-.333.096-.67.096-1.01a5.95 5.95 0 0 0-1.13-3.5A5.948 5.948 0 0 0 40 17c0-3.424-2.897-6.199-6.349-5.989a5.975 5.975 0 0 0-3.979-3.762c-1.218-1.519-3.054-2.362-5.021-2.238A5.98 5.98 0 0 0 19 1a5.992 5.992 0 0 0-5.198 3.003c-2.648.089-4.937 1.958-5.593 4.504C5.113 9.662 3 12.659 3 16a7.955 7.955 0 0 0 3.499 6.608A5.952 5.952 0 0 0 6 25c0 1.8.8 3.473 2.173 4.606A5.79 5.79 0 0 0 8 31a6.01 6.01 0 0 0 5.28 5.957l2.212 6.195a11.057 11.057 0 0 0-2.841 3.08l-5.239-1.164A2.805 2.805 0 0 0 4 47.802v.396c0 .28.054.546.131.802H4c-1.654 0-3 1.346-3 3s1.346 3 3 3h.131a2.771 2.771 0 0 0-.131.802v.396a2.805 2.805 0 0 0 3.41 2.735l5.241-1.165C14.592 60.902 18.051 63 22 63h.235c.556 0 1.119-.043 1.672-.128l34.291-5.275A5.634 5.634 0 0 0 63 52a5.613 5.613 0 0 0-3.243-5.101C61.829 44.424 63 41.284 63 38.051zm-12.767-9.511C53.218 28.72 55 32.355 55 36.164v3.673c0 2.05-.511 4.057-1.474 5.848l-8.019-1.234A19.94 19.94 0 0 1 45 40.03v-4.06c0-1.008.101-2.015.254-3.013.245.021.489.043.746.043 2.851 0 5-1.29 5-3 0-.944-.653-1.782-1.784-2.332l.147-1.618c.312.063.612.189.87.388zM45.87 17h.261a1.872 1.872 0 0 1 1.862 2.04l-.908 9.987.763.245c.876.28 1.152.649 1.152.728 0 .249-1.064 1-3 1s-3-.751-3-1c0-.079.276-.448 1.152-.729l.763-.245-.908-9.986A1.872 1.872 0 0 1 45.87 17zm-3.23 9.083.144 1.585C41.653 28.218 41 29.056 41 30c0 1.102.899 2.023 2.296 2.543-.179 1.135-.296 2.281-.296 3.427v4.06c0 1.374.132 2.746.388 4.095l-5.895-.907A12.041 12.041 0 0 1 37 39.836v-3.673c0-3.803 1.828-7.437 4.89-9.719.223-.166.48-.288.75-.361zM31.833 42.347A11.63 11.63 0 0 1 31 38.051v-2.103c0-3.722 1.808-7.278 4.835-9.514.38-.28.852-.434 1.328-.434.604 0 1.16.243 1.567.65-2.358 2.584-3.73 5.978-3.73 9.514v3.673c0 1.031.123 2.051.346 3.051zm.094-30.046.182 1.029 1.02-.227A3.98 3.98 0 0 1 34 13c2.206 0 4 1.794 4 4a3.976 3.976 0 0 1-1.148 2.799l-.688.701.688.701A3.976 3.976 0 0 1 38 24c0 .03-.006.06-.006.091a4.238 4.238 0 0 0-.831-.091 4.26 4.26 0 0 0-2.516.826 13.94 13.94 0 0 0-4.225 5.079 66.233 66.233 0 0 0-1.187-3.383c.925-4.886 4.356-7.714 4.391-7.743L33 18l-.625-.781c-.139.111-2.844 2.32-4.363 6.305-2.081-4.778-4.045-7.869-4.171-8.065l-1.683 1.082c.027.041 1.552 2.44 3.327 6.259-2.991-1.126-6.39-.815-6.585-.795l.199 1.99c1.504-.151 5.764-.078 7.754 1.953a63.906 63.906 0 0 1 2.002 5.636C25.815 30.025 22.188 30 22 30v2c.047 0 4.499.03 7.134 2.125-.082.602-.134 1.21-.134 1.824v2.103c0 1.351.208 2.672.594 3.952l-5.687-.875c-.3-.046-.603-.077-.907-.099-2.206 0-4-1.808-4-4.029 0-.466.093-.944.275-1.423l.292-.765-.693-.438a3.98 3.98 0 0 1-1.206-5.583l.623-.936-1.002-.509A5.976 5.976 0 0 1 14 22a6.023 6.023 0 0 1 4.349-5.764l.621-.178.093-.639C19.348 13.47 21.041 12 23 12c.037 0 .073.008.109.013.07.01.141.019.212.024l.717.058.282-.662A3.997 3.997 0 0 1 28 9a3.985 3.985 0 0 1 3.927 3.301zM14.705 35H14c-2.206 0-4-1.794-4-4 0-.467.093-.945.275-1.422l.293-.765-.693-.438a3.98 3.98 0 0 1-1.207-5.583l.623-.936-1.002-.509A5.976 5.976 0 0 1 5 16a6.023 6.023 0 0 1 4.348-5.764l.621-.178.093-.639C10.348 7.47 12.041 6 14 6c.038 0 .075.008.112.013.068.009.136.018.206.024l.72.06.283-.665A3.995 3.995 0 0 1 19 3a3.985 3.985 0 0 1 3.927 3.301l.182 1.029 1.02-.227A3.98 3.98 0 0 1 25 7c.46 0 .897.101 1.315.247a5.987 5.987 0 0 0-3.513 2.756c-2.648.089-4.937 1.958-5.593 4.504C14.113 15.662 12 18.659 12 22a7.955 7.955 0 0 0 3.499 6.608A5.952 5.952 0 0 0 15 31c0 1.8.8 3.473 2.173 4.607-.115.464-.173.93-.173 1.393 0 1.757.756 3.336 1.953 4.438-.594.172-1.165.395-1.713.66zM6 48.198v-.396c0-.502.486-.889.977-.783l4.759 1.058c-.116.302-.22.609-.309.923H6.802A.803.803 0 0 1 6 48.198zM3 52c0-.551.449-1 1-1H11.05c-.029.33-.05.662-.05 1s.021.67.051 1H4c-.551 0-1-.449-1-1zm3.975 4.981c-.474.102-.975-.282-.975-.783v-.396c0-.442.36-.802.802-.802h4.624c.089.314.194.621.309.923zM61 52a3.643 3.643 0 0 1-3.105 3.62l-34.29 5.275a9.02 9.02 0 0 1-1.37.105H22c-4.962 0-9-4.038-9-9s4.038-9 9-9h.235c.455 0 .916.035 1.369.104l34.29 5.275c1.8.278 3.106 1.8 3.106 3.621zm0-13.949c0 3.076-1.245 6.052-3.411 8.258l-1.987-.306A14.344 14.344 0 0 0 57 39.836v-3.673c0-3.554-1.354-6.965-3.68-9.553a2.21 2.21 0 0 1 2.845-.174C59.192 28.67 61 32.227 61 35.949z"/><path d="M21 47h2v10h-2zM29 47h2v10h-2zM37 47h2v10h-2zM45 49h2v6h-2zM53 50h2v4h-2z"/></g></svg>