<?xml version="1.0" standalone="no"?>
<!DOCTYPE svg PUBLIC "-//W3C//DTD SVG 20010904//EN"
 "http://www.w3.org/TR/2001/REC-SVG-20010904/DTD/svg10.dtd">
<svg version="1.0" xmlns="http://www.w3.org/2000/svg"
 width="700.000000pt" height="700.000000pt" viewBox="0 0 700.000000 700.000000"
 preserveAspectRatio="xMidYMid meet">
<metadata>
Created by potrace 1.14, written by Peter Selinger 2001-2017
</metadata>
<g transform="translate(0.000000,700.000000) scale(0.100000,-0.100000)"
fill="#000000" stroke="none">
<path d="M4105 6426 c-94 -25 -225 -76 -325 -126 -77 -39 -253 -158 -316 -214
-180 -159 -233 -418 -129 -634 l33 -70 -43 -42 -44 -43 -50 43 c-171 142 -410
233 -621 234 l-95 1 -3 -106 -3 -106 93 -8 c302 -23 542 -167 658 -394 24 -48
18 -61 -30 -61 -14 0 -80 -13 -147 -30 -333 -81 -609 -242 -851 -495 -148
-154 -287 -375 -364 -574 -13 -32 -21 -42 -33 -37 -31 12 -211 45 -280 52 -70
7 -85 15 -85 46 0 44 -68 199 -122 280 -33 48 -62 88 -66 88 -4 0 -41 -33 -81
-74 l-74 -74 40 -64 c38 -60 83 -164 83 -192 0 -9 -37 -21 -111 -35 -177 -36
-479 -126 -621 -185 -71 -30 -101 -109 -61 -166 16 -23 16 -24 -18 -49 -71
-53 -191 -177 -240 -248 -427 -618 -127 -1468 592 -1677 124 -36 237 -46 506
-46 l241 0 22 -73 c71 -235 277 -421 507 -458 37 -5 633 -77 1323 -160 690
-82 1300 -156 1355 -165 119 -20 318 -15 410 10 160 44 291 113 414 217 l73
63 392 -97 c215 -54 404 -97 419 -97 36 0 82 24 92 47 30 73 125 372 125 393
-1 34 -22 70 -51 86 -21 12 -4 13 129 14 172 0 211 10 236 59 13 25 16 72 16
271 0 337 5 330 -244 330 l-154 0 34 34 c25 25 34 43 34 67 0 40 -101 350
-130 396 -34 56 -64 57 -262 7 -95 -24 -177 -43 -183 -43 -5 0 22 12 60 27
282 112 485 405 485 700 0 51 3 60 23 69 51 24 149 108 193 166 189 250 188
589 -2 824 -33 40 -34 44 -24 85 16 72 12 208 -10 292 -30 118 -82 209 -175
302 -131 132 -281 194 -465 194 -52 0 -112 -5 -134 -9 -36 -9 -42 -7 -89 31
-64 50 -123 80 -217 110 -62 19 -96 23 -195 23 -108 -1 -129 -4 -206 -31 -150
-53 -289 -165 -351 -280 l-23 -44 -58 0 c-121 0 -268 -43 -378 -109 l-64 -39
-40 25 c-252 154 -607 263 -855 263 l-46 0 -52 103 -51 102 51 52 51 52 60
-30 c67 -35 167 -59 243 -59 67 0 193 33 257 67 183 98 430 498 491 796 18 87
21 195 6 249 -19 65 -70 130 -130 163 -49 26 -66 30 -155 32 -80 3 -118 -2
-190 -21z m250 -213 c14 -14 17 -31 13 -92 -14 -225 -236 -632 -389 -715 -44
-24 -69 -31 -135 -34 -50 -3 -96 0 -119 8 l-37 12 273 274 274 274 -78 77 -77
78 -274 -274 -274 -274 -17 58 c-18 62 -15 140 7 192 52 120 222 249 469 357
125 54 201 74 286 75 45 1 66 -3 78 -16z m1298 -1308 c82 -21 153 -60 212
-115 70 -67 95 -75 159 -53 77 27 243 25 316 -5 214 -86 328 -322 260 -543
-13 -43 -19 -82 -15 -98 4 -14 31 -52 61 -83 215 -225 156 -577 -119 -711
-111 -54 -112 -55 -113 -210 0 -115 -4 -141 -26 -198 -36 -96 -72 -154 -138
-218 -105 -103 -234 -155 -385 -155 -215 1 -394 110 -494 303 -23 45 -53 89
-67 97 -13 9 -61 20 -106 25 -214 21 -376 184 -397 398 -5 44 -16 92 -25 105
-8 14 -53 44 -98 68 -341 177 -411 614 -143 884 119 119 255 171 426 161 126
-7 145 4 193 107 88 191 300 293 499 241z m-1848 -237 c133 -26 256 -68 379
-129 55 -28 105 -54 109 -59 5 -4 -12 -43 -37 -86 -119 -207 -137 -441 -53
-666 25 -66 82 -164 117 -203 17 -19 18 -25 5 -85 -37 -175 -117 -396 -182
-504 -23 -38 -111 -136 -231 -258 l-194 -197 4 -53 3 -52 -385 -47 c-212 -26
-416 -51 -454 -55 l-69 -7 7 44 c31 190 27 326 -14 481 -62 238 -233 487 -412
602 l-27 18 21 40 c20 38 20 44 7 82 -17 50 -50 70 -212 127 -135 48 -129 31
-65 169 96 208 296 449 485 583 182 129 423 229 636 263 59 10 110 15 113 11
13 -13 24 -88 31 -199 l6 -118 110 0 110 0 -6 138 c-4 75 -10 149 -13 164 l-6
27 58 -6 c33 -3 104 -14 159 -25z m-2499 -1181 l7 -97 110 0 110 0 -6 106 -7
105 48 -6 c106 -16 423 -95 441 -111 2 -1 -46 -28 -107 -58 -129 -65 -156 -92
-149 -153 2 -22 14 -55 26 -71 11 -17 21 -32 21 -35 0 -3 -80 21 -177 54 -98
32 -189 59 -203 59 -14 0 -105 -27 -203 -59 l-177 -60 25 43 c28 48 33 105 10
139 -8 12 -64 47 -125 77 -60 30 -110 57 -110 61 0 18 436 124 452 110 4 -3
10 -50 14 -104z m3280 -233 c49 -242 222 -435 457 -509 43 -14 89 -25 101 -25
14 0 30 -10 39 -24 16 -24 16 -24 -36 -37 -96 -22 -259 -80 -341 -120 l-81
-40 -355 -44 c-308 -38 -357 -42 -370 -29 -12 12 4 33 131 161 80 82 160 170
178 196 73 107 165 333 211 515 11 42 12 43 33 29 15 -10 25 -33 33 -73z m821
-810 c65 -50 168 -100 260 -126 62 -18 104 -22 206 -23 l128 0 -179 -44 -180
-45 -53 48 c-75 67 -157 122 -252 166 l-81 38 45 10 c24 5 47 10 51 11 4 1 29
-15 55 -35z m630 -140 c-3 -3 -12 -4 -19 -1 -8 3 -5 6 6 6 11 1 17 -2 13 -5z
m-942 -30 c220 -49 410 -202 510 -409 55 -114 77 -212 76 -340 -1 -335 -219
-624 -545 -724 -114 -35 -106 -46 -106 139 l0 161 -107 -3 -108 -3 -3 -159 -3
-158 -32 6 c-17 3 -144 19 -282 36 -137 16 -269 32 -292 35 l-43 6 0 280 0
279 -108 0 -109 0 -7 -262 c-4 -144 -9 -264 -10 -266 -4 -3 -1051 120 -1148
135 l-38 6 0 248 0 249 -115 0 -115 0 0 -236 0 -237 -47 7 c-27 3 -127 15
-223 26 -159 18 -182 23 -247 55 -167 82 -265 270 -235 451 32 190 179 336
367 364 92 14 1005 120 1028 120 16 0 17 -17 17 -220 l0 -220 110 0 110 0 0
235 0 234 33 5 c17 3 223 28 457 56 234 27 440 52 458 55 l32 6 0 -241 0 -240
115 0 115 0 0 253 0 254 163 19 c177 21 227 21 332 -2z m1310 -185 l23 -66
-180 -89 c-199 -99 -228 -122 -228 -186 0 -32 7 -47 34 -74 l34 -34 346 0 346
0 0 -110 0 -110 -348 0 c-386 0 -380 1 -408 -66 -17 -41 -10 -80 22 -114 13
-14 104 -65 202 -114 l180 -89 -21 -61 c-11 -34 -23 -65 -27 -69 -5 -6 -523
116 -587 138 -9 3 -4 21 16 62 66 133 94 260 94 423 0 164 -28 291 -94 424
-16 33 -28 60 -27 61 12 7 576 144 587 142 8 -1 24 -32 36 -68z"/>
<path d="M2290 3830 l0 -110 115 0 115 0 0 110 0 110 -115 0 -115 0 0 -110z"/>
<path d="M2730 3830 l0 -110 115 0 116 0 -3 108 -3 107 -112 3 -113 3 0 -111z"/>
<path d="M2730 3390 l0 -110 115 0 115 0 0 110 0 110 -115 0 -115 0 0 -110z"/>
<path d="M4810 1420 l0 -110 110 0 110 0 0 110 0 110 -110 0 -110 0 0 -110z"/>
<path d="M3170 1310 l0 -110 110 0 110 0 0 110 0 110 -110 0 -110 0 0 -110z"/>
</g>
</svg>
