<svg id="Capa_1" enable-background="new 0 0 512 512" height="512" viewBox="0 0 512 512" width="512" xmlns="http://www.w3.org/2000/svg"><g><g><g><path d="m107.189 391.487c-14.643-50.311 22.899-106.6 111.244-125.341 49.803-10.565 79.534-73.614 93.761-114.19-3.295-2.909-6.492-6.29-9.475-10.115-2.662 15.787-9.641 28.416-18.595 33.861-8.726-5.306-15.574-17.437-18.381-32.663-10.044 11.783-22.04 18.864-32.25 19.096-5.032-9.193-4.761-23.619.827-38.622-9.351 3.788-18.554 5.504-26.513 5.187-10.476 32.899-36.119 95.397-81.945 105.118-74.384 15.78-105.992 63.173-93.663 105.533 7.038 24.182 34.999 52.854 77.073 58.146-.811-2.021-1.506-4.028-2.083-6.01z" fill="#e03d9c"/><path d="m65.881 356.089c-12.329-42.36 19.28-89.753 93.663-105.532 38.949-8.263 63.316-54.65 76.186-88.588-.753.087-1.501.15-2.238.167-5.032-9.193-4.761-23.619.827-38.622-9.351 3.788-18.554 5.504-26.513 5.187-10.476 32.899-36.119 95.397-81.945 105.118-74.383 15.779-105.991 63.172-93.662 105.532 6.152 21.136 28.283 45.709 61.854 55.099-14.669-11.237-24.411-25.439-28.172-38.361z" fill="#c53287"/><g><path d="m234.319 123.514c-5.588 15.003-5.859 29.43-.827 38.622 10.21-.232 22.206-7.314 32.25-19.096 2.807 15.226 9.655 27.357 18.381 32.663 8.954-5.445 15.933-18.074 18.595-33.861 2.983 3.825 6.179 7.205 9.474 10.114 1.32-3.765 2.51-7.341 3.566-10.659h.002c-6.484-.258-12.279-1.641-16.933-4.188.273-12.005 8.513-26.091 22.256-37.946-5.96-6.916-12.588-12.188-19.117-15.356-4.656-2.259-7.356-7.224-6.635-12.348l7.178-51.084c.267-1.898-.924-3.697-2.776-4.193-1.852-.496-3.782.466-4.5 2.244l-19.325 47.83c-1.939 4.798-6.759 7.747-11.921 7.376-11.262-.81-25.272 2.645-38.679 10.385-19.228 11.101-31.451 27.687-31.758 41.159 9.631 5.27 25.005 4.723 40.769-1.662z" fill="#0ed290"/></g><g><g><path d="m241.736 110.3c13.406-7.74 27.417-11.196 38.679-10.385 5.161.371 9.982-2.578 11.921-7.376l5.084-12.583c-1.714-2.41-2.521-5.422-2.089-8.497l7.178-51.084c.267-1.898-.924-3.697-2.776-4.193s-3.782.466-4.5 2.244l-19.325 47.83c-1.939 4.798-6.759 7.747-11.921 7.376-11.262-.81-25.272 2.645-38.679 10.385-19.228 11.101-31.451 27.687-31.758 41.159 6.802 3.723 16.474 4.53 27.12 2.441 5.35-6.354 12.512-12.379 21.066-17.317z" fill="#00c285"/></g></g></g></g><g><g><path d="m186.086 376.517c37.518-37.518 82.786-53.079 101.109-34.756l11.516 11.516c29.72-19.819 59.059-25.394 72.938-11.516l11.27 11.27c6.005-3.982 11.989-7.375 17.833-10.147 38.107-59.579 50.722-125.102 54.884-163.462-9.326-4.157-18.911-11.954-27.15-22.518-3.161 18.751-11.45 33.75-22.085 40.217-10.364-6.302-18.498-20.71-21.832-38.794-11.929 13.994-26.177 22.405-38.304 22.681-5.976-10.918-5.655-28.052.982-45.872-11.106 4.499-22.037 6.537-31.49 6.161-12.443 39.075-42.898 113.303-97.326 124.849-88.345 18.741-125.886 75.03-111.244 125.341 4.894 16.816 18.306 35.464 38.612 49.297 5.138-19.786 19.262-43.242 40.287-64.267z" fill="#e03d9c"/><path d="m154.932 417.944c-1.108-2.574-2.053-5.131-2.785-7.646-14.643-50.311 22.899-106.6 111.244-125.341 46.218-9.805 75.148-64.808 90.444-105.105-2.584.698-5.12 1.1-7.568 1.156-5.976-10.918-5.655-28.052.982-45.872-11.106 4.499-22.037 6.537-31.49 6.161-12.443 39.075-42.898 113.303-97.326 124.849-88.345 18.741-125.886 75.03-111.244 125.341 4.894 16.815 18.311 35.454 38.617 49.282 1.875-7.218 4.959-14.926 9.126-22.825z" fill="#c53287"/><g><path d="m298.828 137.108c.364-16.001 14.882-35.7 37.719-48.885 15.923-9.193 32.563-13.297 45.939-12.335 6.13.441 11.856-3.062 14.158-8.761l22.953-56.807c.853-2.111 3.146-3.254 5.345-2.665 2.199.589 3.613 2.726 3.297 4.98l-8.526 60.673c-.855 6.086 2.351 11.983 7.881 14.666 12.065 5.855 24.424 17.729 33.617 33.652 13.185 22.837 15.908 47.155 8.223 61.195-13.036-.297-28.525-9.989-40.947-25.918-3.161 18.751-11.45 33.75-22.085 40.217-10.364-6.302-18.498-20.71-21.832-38.794-11.929 13.994-26.177 22.405-38.304 22.681-5.976-10.918-5.655-28.052.982-45.872-18.723 7.585-36.982 8.234-48.42 1.973z" fill="#00c285"/></g><g><path d="m329.004 140.378c6.263-7.209 14.489-14.026 24.238-19.655 15.923-9.193 32.563-13.297 45.939-12.335 6.13.441 11.856-3.062 14.158-8.761l7.505-18.575c-1.078-2.366-1.512-5.033-1.132-7.744l8.526-60.673c.317-2.254-1.097-4.391-3.297-4.98-2.199-.589-4.492.554-5.345 2.665l-22.953 56.807c-2.302 5.699-8.028 9.202-14.158 8.761-13.376-.962-30.016 3.142-45.939 12.335-22.837 13.185-37.355 32.884-37.719 48.885 7.644 4.184 18.339 5.264 30.177 3.27z" fill="#07b27b"/></g></g></g><g><path d="m474.67 360.936-19.175-19.175c-13.823-13.823-42.98-8.353-72.576 11.27l7.905 7.905c18.323 18.323 2.762 63.591-34.756 101.109-9.215 9.215-18.898 17.097-28.534 23.486l11.27 11.27c18.323 18.323 63.591 2.762 101.109-34.756s53.079-82.786 34.757-101.109z" fill="#c53287"/><path d="m455.494 341.76c-13.823-13.823-42.98-8.353-72.576 11.27l7.905 7.905c18.323 18.323 2.762 63.591-34.756 101.109-8.396 8.396-17.18 15.682-25.963 21.746 21.856 6.736 58.999-9.286 90.634-40.921 37.518-37.518 53.079-82.786 34.756-101.109z" fill="#fff9e2"/><g><path d="m455.494 341.76c-13.823-13.823-42.98-8.353-72.576 11.27l7.905 7.905c3.723 3.723 6.024 8.572 7.049 14.228 22.276-17.192 45.262-26.634 62.556-26.138-1.225-2.731-2.849-5.18-4.934-7.265z" fill="#fff5c6"/></g></g><g><path d="m390.823 360.936-19.175-19.175c-13.879-13.879-43.218-8.304-72.938 11.516l7.66 7.66c18.323 18.323 2.762 63.591-34.756 101.109-9.1 9.1-18.655 16.895-28.172 23.241l11.516 11.516c18.323 18.323 63.591 2.762 101.109-34.756 37.518-37.52 53.079-82.788 34.756-101.111z" fill="#c53287"/><path d="m371.648 341.76c-13.879-13.879-43.218-8.304-72.938 11.516l7.66 7.66c18.323 18.323 2.762 63.591-34.756 101.109-8.33 8.33-17.043 15.571-25.757 21.606 21.799 7.065 59.203-8.949 91.035-40.781 37.518-37.519 53.079-82.787 34.756-101.11z" fill="#fff9e2"/><g><path d="m306.37 360.936c4.213 4.213 6.613 9.862 7.389 16.502 21.747-17.8 44.56-28.277 62.387-29.35-1.17-2.354-2.654-4.483-4.498-6.327-13.879-13.879-43.218-8.304-72.938 11.516z" fill="#fff5c6"/></g></g><g><g><path d="m186.086 376.517c-37.518 37.518-53.079 82.786-34.756 101.109l19.175 19.175c18.323 18.323 63.591 2.762 101.109-34.756s53.079-82.786 34.756-101.109l-19.175-19.175c-18.323-18.323-63.591-2.762-101.109 34.756z" fill="#c53287"/></g><g><ellipse cx="219.262" cy="409.693" fill="#fff9e2" rx="96.071" ry="46.919" transform="matrix(.707 -.707 .707 .707 -225.476 275.038)"/></g><g><path d="m214.302 388.31c25.459-25.459 54.477-40.789 76.232-42.301-.955-1.536-2.055-2.966-3.339-4.249-18.323-18.323-63.591-2.762-101.109 34.756s-53.079 82.786-34.756 101.109c5.889 5.889 14.572 8.26 24.877 7.544-12.679-20.391 3.205-61.969 38.095-96.859z" fill="#fff5c6"/></g></g><path d="m479.973 355.632-19.175-19.175c-9.595-9.596-24.636-12.261-42.896-7.774 5.376-9.78 10.346-19.992 14.897-30.632 1.629-3.809-.138-8.216-3.946-9.845-3.806-1.628-8.216.138-9.845 3.946-6.848 16.009-14.679 30.997-23.457 44.93-3.851 1.911-7.716 4.043-11.573 6.401l-7.026-7.026c-10.998-10.998-29.144-12.898-51.098-5.352-8.554 2.94-17.353 7.229-26.098 12.609l-7.258-7.258c-10.998-10.998-29.144-12.898-51.098-5.352-20.154 6.928-41.682 21.172-60.618 40.108-17.885 17.885-31.576 38.082-38.879 57.25-14.508-12.078-23.864-26.536-27.513-39.072-5.575-19.156-2.814-38.818 7.983-56.861 16.947-28.319 51.614-49.289 97.615-59.047 56.066-11.894 87.513-83.177 101.301-124.717 4.776-.233 9.767-.958 14.874-2.188-2.99 14.655-1.825 28.261 3.523 38.031 1.345 2.458 3.941 3.955 6.75 3.897 11.103-.253 23.123-5.774 34.196-15.487 4.733 13.948 12.382 24.74 21.871 30.51 1.197.728 2.547 1.092 3.897 1.092s2.7-.364 3.897-1.092c9.517-5.787 17.329-16.988 22.066-31.174 4.883 4.64 10.015 8.466 15.204 11.389-2.467 20.327-7.262 47.215-16.588 76.269-1.266 3.944.905 8.167 4.849 9.433 3.945 1.265 8.167-.905 9.433-4.849 9.131-28.45 14.078-54.661 16.76-75.172 2.447.533 4.868.842 7.24.896 2.83.067 5.405-1.439 6.75-3.897 8.431-15.404 6.482-39.369-5.087-62.544-1.851-3.707-6.356-5.21-10.06-3.361-3.706 1.85-5.211 6.354-3.361 10.06 7.96 15.947 10.611 32.863 7.222 44.104-9.819-2.281-21.023-10.461-30.327-22.391-1.828-2.345-4.869-3.386-7.752-2.659-2.883.729-5.063 3.092-5.557 6.024-2.329 13.812-7.785 25.553-14.686 32.049-6.661-6.289-12.026-17.537-14.46-30.739-.524-2.846-2.639-5.136-5.435-5.885-2.796-.748-5.772.177-7.648 2.379-8.709 10.216-18.979 17.275-27.893 19.391-2.728-9.077-1.582-21.973 3.307-35.099 1.038-2.787.332-5.923-1.801-7.996-2.131-2.073-5.288-2.689-8.043-1.573-14.026 5.681-27.823 7.163-37.467 4.226 2.968-12.774 15.911-27.634 33.332-37.692 14.042-8.106 29.223-12.246 41.651-11.349 9.431.674 18.13-4.722 21.649-13.433l13.822-34.209-5.134 36.537c-1.308 9.305 3.528 18.33 12.034 22.458 4.702 2.281 9.415 5.592 14.007 9.841 3.042 2.814 7.786 2.628 10.599-.412 2.813-3.041 2.628-7.786-.413-10.599-5.677-5.252-11.614-9.399-17.645-12.325-2.628-1.275-4.127-4.038-3.728-6.875l8.525-60.673c.843-5.997-2.933-11.701-8.782-13.269-5.852-1.571-11.972 1.484-14.24 7.1l-22.95 56.809c-1.073 2.656-3.753 4.297-6.666 4.09-15.344-1.11-33.652 3.75-50.227 13.32-3.895 2.249-7.58 4.681-11.026 7.258-5.205-5.068-10.822-9.157-16.53-11.927-1.749-.849-2.747-2.68-2.482-4.557l7.178-51.083c.794-5.642-2.758-11.008-8.261-12.483-5.499-1.472-11.261 1.396-13.395 6.679l-19.326 47.83c-.709 1.757-2.487 2.846-4.429 2.706-13.153-.948-28.813 3.198-42.967 11.371-21.191 12.234-35.128 30.873-35.506 47.484-.064 2.801 1.439 5.404 3.897 6.75 2.4 1.314 5.055 2.327 7.902 3.064-2.971 8.513-6.77 18.244-11.465 28.146-12.108 25.538-32.708 57.287-62.082 63.518-42.532 9.023-74.912 28.958-91.176 56.136-10.957 18.309-13.845 39.201-8.132 58.829 5.697 19.573 25.465 46.726 62.43 58.832 5.437 1.781 10.993 3.123 16.65 4.052 4.727 10.119 11.862 20.101 20.764 28.901 3.9 3.855 8.1 7.442 12.544 10.749-3.192 16.479-.254 30.054 8.641 38.948l19.175 19.175c6.572 6.572 15.697 9.896 26.662 9.896 7.383 0 15.602-1.507 24.436-4.544 8.558-2.942 17.363-7.215 26.113-12.594l7.242 7.242c6.572 6.572 15.697 9.896 26.662 9.896 7.383 0 15.602-1.507 24.436-4.544 8.435-2.899 17.109-7.096 25.735-12.365l7.014 7.014c6.572 6.572 15.697 9.896 26.662 9.896 7.383 0 15.602-1.507 24.436-4.544 20.154-6.928 41.682-21.172 60.618-40.108s33.18-40.464 40.108-60.618c7.546-21.956 5.645-40.103-5.352-51.101zm-250.914-265.122c11.622-6.709 24.155-10.133 34.391-9.4 8.441.608 16.255-4.233 19.412-12.047l8.022-19.854-2.979 21.205c-1.173 8.345 3.162 16.438 10.788 20.14 3.988 1.935 7.954 4.778 11.719 8.299-11.748 11.908-18.794 25.512-19.081 38.084-.06 2.624 1.267 5.06 3.454 6.466-2.028 9.623-5.877 17.771-10.656 22.714-5.05-5.238-9.104-14.095-11.01-24.437-.525-2.846-2.64-5.136-5.435-5.885-.643-.172-1.295-.256-1.941-.256-2.165 0-4.263.939-5.708 2.635-6.823 8.004-14.762 13.647-21.754 15.658-1.827-7.311-.771-17.396 3.066-27.701 1.038-2.786.332-5.923-1.801-7.996-2.131-2.072-5.287-2.69-8.043-1.573-11.037 4.47-21.853 5.807-29.635 3.839 2.593-8.951 11.376-20.76 27.191-29.891zm-189.659 246.745c-4.6-15.804-2.317-32.034 6.601-46.935 14.098-23.557 43.012-41.018 81.417-49.165 47.415-10.058 74.086-69.736 85.91-105.034 3.277-.203 6.661-.667 10.115-1.409-2.171 11.946-1.019 22.824 3.47 31.025 1.346 2.458 3.943 3.957 6.75 3.897 9.179-.209 19.055-4.545 28.223-12.203 4.111 11.215 10.495 19.908 18.341 24.68 1.197.728 2.547 1.092 3.897 1.092s2.7-.364 3.897-1.092c2.078-1.264 4.049-2.804 5.904-4.583-15.825 35.139-40.976 73.629-77.048 81.281-50.127 10.634-88.26 34.08-107.374 66.019-11.754 19.64-15.561 41.816-10.954 63.053-2.246-.566-4.405-1.186-6.452-1.857-29.4-9.628-47.651-31.432-52.697-48.769zm375.176 8.036c7.206-2.477 13.797-3.708 19.473-3.708 6.932 0 12.497 1.836 16.142 5.48 6.628 6.629 7.274 19.61 1.773 35.615-6.201 18.04-19.174 37.533-36.529 54.888s-36.848 30.328-54.888 36.529c-3.165 1.088-6.209 1.931-9.109 2.537 3.372-2.952 6.693-6.044 9.933-9.284 18.936-18.936 33.18-40.464 40.108-60.618 7.546-21.954 5.646-40.101-5.352-51.098l-1.226-1.226c6.634-3.826 13.247-6.905 19.675-9.115zm-83.846 0c7.206-2.477 13.797-3.708 19.473-3.708 6.932 0 12.497 1.836 16.142 5.48 6.628 6.629 7.275 19.61 1.773 35.615-6.201 18.04-19.174 37.533-36.529 54.888s-36.848 30.328-54.888 36.529c-3.45 1.186-6.748 2.07-9.881 2.683 3.429-2.996 6.805-6.137 10.098-9.43 18.936-18.936 33.18-40.464 40.108-60.618 7.546-21.954 5.646-40.101-5.352-51.098l-1.004-1.004c6.763-3.928 13.507-7.085 20.06-9.337zm-119.307 147.98c-15.027 5.165-27.372 4.893-34.311-.646 4.6-.343 9.476-1.222 14.574-2.648 17.604-4.925 37.155-16.139 55.051-31.577 3.136-2.706 3.486-7.442.78-10.578-2.706-3.137-7.441-3.487-10.578-.78-31.787 27.42-67.06 38.524-80.306 25.28-6.628-6.628-7.274-19.61-1.772-35.615 6.201-18.04 19.174-37.533 36.529-54.888s36.848-30.328 54.888-36.529c16.006-5.503 28.986-4.855 35.615 1.772 12.502 12.502 3.271 45.06-21.475 75.73-2.601 3.224-2.096 7.946 1.127 10.546s7.946 2.096 10.546-1.127c13.969-17.313 23.94-35.947 28.078-52.467 1.065-4.25 1.719-8.332 2.006-12.226 5.557 6.935 5.838 19.289.666 34.335-6.201 18.04-19.174 37.533-36.529 54.888s-36.849 30.329-54.889 36.53zm84.453 0c-15.033 5.167-27.397 4.91-34.336-.634 6.206-.472 12.917-1.909 20.037-4.356 20.154-6.928 41.682-21.172 60.618-40.108s33.18-40.464 40.108-60.618c2.448-7.12 3.885-13.831 4.357-20.037 5.543 6.94 5.801 19.303.633 34.336-6.201 18.04-19.174 37.533-36.529 54.888s-36.848 30.328-54.888 36.529zm175.263-91.417c-6.201 18.04-19.174 37.533-36.529 54.888s-36.848 30.328-54.888 36.529c-15.032 5.167-27.397 4.91-34.336-.634 6.206-.472 12.917-1.909 20.037-4.356 20.154-6.928 41.682-21.172 60.618-40.108s33.18-40.463 40.108-60.618c2.448-7.121 3.885-13.832 4.357-20.037 5.542 6.939 5.801 19.303.633 34.336z"/></g></svg>