<svg id="Capa_1" enable-background="new 0 0 512 512" height="512" viewBox="0 0 512 512" width="512" xmlns="http://www.w3.org/2000/svg"><g><g><g><path d="m331.084 181.638c1.691 7.824.594 16.278-3.724 23.757-9.227 15.982-29.664 21.458-45.646 12.231-.016-.009-.033-.019-.049-.028-3.035-1.76-6.751-1.866-9.79-.112l-22.975 13.264h-.001c43.967 4.696 79.529 38.602 86.765 81.788 9.681-3.192 20.018-4.925 30.755-4.925 14.68 0 28.616 3.235 41.142 9.021 5.071-11.855 7.882-24.898 7.882-38.587 0-48.81-35.709-89.43-82.374-97.125-.656.258-1.316.501-1.985.716z" fill="#e03d9c"/></g><path d="m321.325 213.022c-9.053 8.527-22.303 11.392-34.188 7.112-7.171 3.713-13.569 8.712-18.884 14.7 34.748 11.112 61.271 41.068 67.41 77.704 9.681-3.192 20.018-4.925 30.755-4.925 2.849 0 5.669.129 8.458.367 4.658-8.971 7.308-19.146 7.308-29.933 0-34.487-26.927-62.789-60.859-65.025z" fill="#c53287"/><path d="m334.091 304.994c8.908-5.671 14.835-15.626 14.835-26.946 0-17.605-14.322-31.927-31.927-31.927-6.506 0-12.561 1.96-17.613 5.315 16.885 13.352 29.336 32.091 34.705 53.558z" fill="#e03d9c"/></g><g><g><path d="m96.551 205.395c9.227 15.982 29.664 21.458 45.646 12.231.016-.009.033-.019.049-.028 3.036-1.76 6.751-1.866 9.79-.112l22.976 13.265c3.442-.368 6.935-.561 10.471-.561h3.763v-25.72c-1.848-2.016-4.494-3.166-7.307-3.16-.019 0-.038 0-.057 0-18.455 0-33.415-14.96-33.415-33.415 0-8.636 3.276-16.505 8.653-22.436-5.377-5.931-8.653-13.8-8.653-22.436 0-8.635 3.276-16.505 8.653-22.436-5.377-5.93-8.653-13.8-8.653-22.436 0-8.04 2.844-15.412 7.576-21.176-9.733-9.503-24.573-12.298-37.285-6.44-.518-1.205-1.102-2.394-1.774-3.557-9.227-15.982-29.664-21.458-45.646-12.231-15.982 9.228-21.458 29.664-12.231 45.646.672 1.163 1.409 2.264 2.194 3.315-13.941 9.855-18.326 28.891-9.621 43.968 4.318 7.479 11.09 12.656 18.712 15.104-1.691 7.824-.594 16.278 3.724 23.757s11.09 12.656 18.712 15.104c-1.692 7.821-.595 16.275 3.723 23.754z" fill="#05e39c"/><g><g><path d="m138.581 205.395c-4.318-7.479-5.415-15.932-3.724-23.757-7.622-2.448-14.394-7.625-18.712-15.104s-5.415-15.932-3.724-23.757c-7.622-2.448-14.394-7.625-18.712-15.104-8.705-15.077-4.32-34.113 9.621-43.968-.785-1.051-1.522-2.151-2.194-3.315-8.341-14.447-4.666-32.532 7.922-42.689-10.439-8.439-25.401-10.07-37.721-2.957-15.982 9.229-21.457 29.665-12.23 45.647.672 1.163 1.409 2.264 2.194 3.315-13.941 9.855-18.326 28.891-9.621 43.968 4.318 7.479 11.09 12.656 18.712 15.104-1.691 7.824-.594 16.278 3.724 23.757s11.09 12.656 18.712 15.104c-1.691 7.824-.594 16.278 3.724 23.757 9.227 15.982 29.664 21.458 45.646 12.231.016-.009.033-.019.049-.028 2.009-1.165 4.313-1.588 6.524-1.244-4.059-2.748-7.575-6.431-10.19-10.96z" fill="#0ed290"/></g></g></g><g><path d="m362.611 83.706c.785-1.051 1.522-2.151 2.194-3.315 9.227-15.982 3.751-36.419-12.231-45.646s-36.419-3.751-45.646 12.231c-.672 1.163-1.256 2.353-1.774 3.557-12.712-5.858-27.553-3.063-37.285 6.44 4.732 5.764 7.576 13.136 7.576 21.176 0 8.636-3.277 16.506-8.653 22.436 5.377 5.931 8.653 13.801 8.653 22.436 0 8.636-3.277 16.505-8.653 22.436 5.377 5.931 8.653 13.8 8.653 22.436 0 18.455-14.961 33.415-33.415 33.415-.019 0-.038 0-.057 0-2.813-.005-5.459 1.145-7.307 3.16v25.72h3.763c3.536 0 7.028.193 10.471.561l22.976-13.265c3.039-1.754 6.754-1.648 9.79.112.016.01.033.019.049.028 15.982 9.228 36.419 3.751 45.646-12.231 4.318-7.479 5.415-15.932 3.724-23.757 7.622-2.448 14.394-7.625 18.712-15.104s5.415-15.932 3.724-23.757c7.622-2.448 14.394-7.625 18.712-15.104 8.704-15.074 4.319-34.11-9.622-43.965z" fill="#05e39c"/><g><path d="m352.574 34.745c-15.982-9.227-36.419-3.751-45.646 12.231-.672 1.163-1.256 2.353-1.774 3.557-12.712-5.858-27.552-3.063-37.285 6.44 4.732 5.764 7.576 13.136 7.576 21.176 0 1.611-.115 3.195-.335 4.746 8.827-9.294 22.339-12.743 34.571-8.74 2.058.674 4.264-.235 5.344-2.112.007-.012.013-.023.02-.035 9.227-15.982 29.664-21.458 45.646-12.231 3.272 1.889 6.095 4.254 8.45 6.948 1.142-12.572-4.917-25.254-16.567-31.98z" fill="#0ed290"/></g></g></g><g><path d="m181.882 201.309h.057c3.509-.007 6.78 1.76 8.534 4.798l13.904 24.083h15.158l13.904-24.083c1.754-3.039 5.025-4.805 8.534-4.798h.057c18.455 0 33.415-14.96 33.415-33.415 0-8.636-3.277-16.505-8.653-22.436 5.377-5.931 8.653-13.8 8.653-22.436 0-8.635-3.277-16.505-8.653-22.436 5.377-5.93 8.653-13.8 8.653-22.436 0-17.409-13.315-31.703-30.316-33.267.154-1.302.243-2.624.243-3.968 0-18.455-14.961-33.415-33.415-33.415-18.455 0-33.415 14.96-33.415 33.415 0 1.343.088 2.665.243 3.968-17.001 1.564-30.316 15.857-30.316 33.267 0 8.636 3.276 16.506 8.653 22.436-5.377 5.931-8.653 13.801-8.653 22.436 0 8.636 3.276 16.505 8.653 22.436-5.377 5.931-8.653 13.8-8.653 22.436-.002 18.454 14.958 33.415 33.413 33.415z" fill="#00c285"/><path d="m181.882 201.309h.057c3.509-.007 6.78 1.76 8.534 4.798l13.904 24.083h15.158l9.214-15.958-4.691-8.125c-1.754-3.039-5.025-4.805-8.534-4.798-.019 0-.038 0-.057 0-18.455 0-33.415-14.96-33.415-33.415 0-8.636 3.277-16.505 8.653-22.436-5.377-5.931-8.653-13.8-8.653-22.436 0-8.635 3.277-16.505 8.653-22.436-5.377-5.93-8.653-13.8-8.653-22.436 0-17.409 13.315-31.703 30.316-33.267-.154-1.302-.243-2.624-.243-3.968 0-12.331 6.685-23.095 16.623-28.885-4.935-2.875-10.669-4.53-16.792-4.53-18.455 0-33.415 14.96-33.415 33.415 0 1.343.088 2.665.243 3.968-17.001 1.564-30.316 15.857-30.316 33.267 0 8.636 3.276 16.506 8.653 22.436-5.377 5.931-8.653 13.801-8.653 22.436 0 8.636 3.276 16.505 8.653 22.436-5.377 5.931-8.653 13.8-8.653 22.436-.001 18.454 14.959 33.415 33.414 33.415z" fill="#07b27b"/></g><path d="m267.974 406.057c0-43.546 28.423-80.572 67.689-93.518-7.802-46.567-48.539-82.349-97.234-82.349h-52.946c-54.224 0-98.589 44.365-98.589 98.589 0 46.788 33.032 86.235 76.927 96.175 11.283 2.555 21.256 9.109 27.755 18.679l17.461 58.69c.864 2.903 4.975 2.903 5.839 0l17.461-58.69c6.499-9.57 16.472-16.124 27.755-18.679 3.141-.711 6.219-1.59 9.24-2.595-.888-5.306-1.358-10.75-1.358-16.302z" fill="#c53287"/><g><g><path d="m237.588 410.132c-6.499-9.57-16.472-16.124-27.755-18.679-43.895-9.939-76.927-49.387-76.927-96.175 0-22.34 7.535-43.002 20.183-59.582-38.436 13.478-66.195 50.193-66.195 93.082 0 46.788 33.032 86.235 76.926 96.175 11.283 2.555 21.256 9.109 27.755 18.679l17.461 58.69c.864 2.903 4.975 2.903 5.839 0l17.461-58.69c3.167-4.664 7.164-8.604 11.73-11.722z" fill="#98246a"/></g></g><g><g><circle cx="366.418" cy="406.057" fill="#98246a" r="98.443"/></g><g><circle cx="366.418" cy="406.057" fill="#c53287" r="65.186"/></g><g><circle cx="366.418" cy="406.057" fill="#e03d9c" r="31.928"/></g></g><g><path d="m417.009 312.994c3.838-10.947 5.933-22.706 5.933-34.947 0-20.916-6.119-41.165-17.697-58.558-2.295-3.449-6.952-4.385-10.398-2.088-3.448 2.295-4.383 6.951-2.088 10.398 9.933 14.924 15.184 32.299 15.184 50.247 0 10.022-1.637 19.667-4.646 28.691-5.666-2.111-11.56-3.75-17.633-4.869 2.601-7.466 4.022-15.48 4.022-23.822 0-33.976-23.444-62.549-54.998-70.471 2.877-5.521 4.447-11.563 4.622-17.702 11.096 2.802 21.594 7.705 31.046 14.579 3.349 2.437 8.039 1.697 10.477-1.654 2.437-3.35 1.695-8.041-1.654-10.477-8.759-6.37-18.291-11.279-28.328-14.668 2.066-2.229 3.897-4.693 5.442-7.37 4.02-6.963 5.875-14.871 5.418-22.787 6.061-3.064 11.334-7.626 15.211-13.23 2.355-3.407 1.504-8.079-1.903-10.436-3.405-2.356-8.077-1.505-10.435 1.903-3.266 4.722-7.884 8.146-13.354 9.901-3.675 1.18-5.854 4.955-5.039 8.727 1.361 6.296.336 12.838-2.888 18.423-3.224 5.583-8.376 9.742-14.51 11.712-3.674 1.18-5.853 4.954-5.038 8.726 1.361 6.296.336 12.839-2.888 18.422-3.461 5.995-9.05 10.283-15.736 12.075-6.686 1.79-13.67.871-19.665-2.59-.03-.018-.061-.034-.091-.052-5.378-3.094-11.982-3.128-17.248-.088l-12.97 7.488 9.557-16.553c10.303-6.89 17.311-18.328 18.14-31.42l49.341-85.461c2.071-3.587.842-8.174-2.745-10.245-3.59-2.071-8.175-.843-10.245 2.745l-41.069 71.134c-.584-1.096-1.201-2.177-1.886-3.22 4.351-6.626 6.696-14.399 6.696-22.437s-2.346-15.811-6.696-22.436c4.351-6.626 6.696-14.399 6.696-22.437 0-7.095-1.776-13.771-4.928-19.591 7.081-4.206 15.981-4.91 23.998-1.214 1.837.846 3.939.913 5.827.19 1.889-.726 3.404-2.184 4.203-4.042.429-.998.879-1.902 1.378-2.767 3.461-5.995 9.05-10.283 15.735-12.075 6.689-1.792 13.672-.871 19.665 2.589 12.375 7.145 16.631 23.026 9.487 35.399-.498.862-1.057 1.706-1.708 2.577-1.211 1.621-1.716 3.662-1.4 5.661s1.427 3.785 3.079 4.953c3.251 2.298 5.865 5.241 7.77 8.748 1.977 3.64 6.526 4.988 10.17 3.012 3.64-1.977 4.988-6.529 3.012-10.17-1.836-3.381-4.162-6.502-6.87-9.239 9.758-19.225 2.852-43.025-16.039-53.932-9.463-5.464-20.489-6.92-31.047-4.087-9.829 2.634-18.154 8.684-23.665 17.143-11.526-3.079-23.565-.914-33.153 5.528-4.469-3.764-9.775-6.593-15.648-8.17-1.175-21.514-19.052-38.66-40.856-38.66s-39.681 17.146-40.854 38.663c-5.874 1.578-11.179 4.407-15.648 8.17-9.589-6.442-21.627-8.607-33.153-5.528-5.512-8.459-13.838-14.51-23.665-17.143-10.556-2.83-21.583-1.377-31.048 4.087-18.883 10.904-25.793 34.689-16.049 53.911-12.874 12.889-15.784 32.931-6.354 49.264 4.02 6.96 9.938 12.52 17.018 16.082-.455 7.914 1.4 15.819 5.419 22.778 4.018 6.96 9.937 12.52 17.017 16.082-.454 7.913 1.4 15.818 5.419 22.778 7.57 13.112 21.35 20.451 35.503 20.449 6.936 0 13.963-1.763 20.389-5.473.01-.006.021-.013.033-.02.01-.005.02-.011.029-.017.767-.445 1.619-.484 2.276-.104l5.918 3.417c-43.279 13.38-74.81 53.766-74.81 101.381 0 24.135 8.408 47.798 23.677 66.629 15.036 18.547 36.023 31.638 59.094 36.86 9.248 2.095 17.221 7.286 22.569 14.67l17.114 57.522c1.341 4.51 5.402 7.54 10.107 7.54 4.706 0 8.768-3.03 10.108-7.539l17.114-57.523c5.349-7.384 13.321-12.575 22.569-14.67.635-.144 1.262-.32 1.894-.477 11.527 46.023 53.231 80.211 102.775 80.211 58.417 0 105.943-47.526 105.943-105.943.001-40.107-22.402-75.079-55.351-93.063zm-42.325-34.946c0 7.843-1.584 15.32-4.433 22.142-1.273-.045-2.549-.077-3.833-.077-6.089 0-12.058.523-17.869 1.515 4.936-6.581 7.878-14.738 7.878-23.58 0-21.74-17.688-39.428-39.428-39.428-6.069 0-11.817 1.387-16.956 3.849-5.591-4.003-11.594-7.459-17.918-10.331 1.857-1.414 3.809-2.706 5.832-3.891 6.83 1.818 14.045 1.838 21.055-.039 5.481-1.469 10.489-4.009 14.808-7.428 28.603 3.387 50.864 27.77 50.864 57.268zm-37.086 13.099c-5.368-14.098-13.644-26.772-24.114-37.265 1.149-.167 2.321-.262 3.515-.262 13.47 0 24.428 10.958 24.428 24.428-.001 4.819-1.41 9.311-3.829 13.099zm-158.128-238.795c2.014-.186 3.867-1.176 5.14-2.748 1.273-1.571 1.857-3.59 1.621-5.598-.128-1.09-.19-2.101-.19-3.091 0-14.29 11.625-25.915 25.915-25.915s25.916 11.625 25.916 25.915c0 .991-.062 2.001-.191 3.085-.237 2.009.346 4.029 1.619 5.602 1.272 1.573 3.127 2.564 5.142 2.75 13.399 1.232 23.504 12.323 23.504 25.798 0 6.447-2.383 12.627-6.71 17.399-2.592 2.858-2.591 7.217.001 10.075 4.326 4.771 6.709 10.95 6.709 17.397s-2.383 12.627-6.71 17.399c-2.592 2.858-2.591 7.217.001 10.075 4.326 4.771 6.709 10.95 6.709 17.397 0 14.29-11.625 25.915-25.959 25.915-.01 0-.02 0-.029 0-6.217 0-11.967 3.273-15.013 8.549l-7.488 12.969v-39.13l29.505-38.966c2.5-3.302 1.851-8.006-1.452-10.507-3.303-2.5-8.007-1.851-10.507 1.452l-17.546 23.172v-25.807l29.505-38.965c2.5-3.302 1.851-8.006-1.452-10.507s-8.005-1.851-10.507 1.452l-17.546 23.172v-39.441c0-4.143-3.357-7.5-7.5-7.5s-7.5 3.357-7.5 7.5v39.441l-17.545-23.17c-2.501-3.303-7.204-3.953-10.507-1.452s-3.952 7.205-1.452 10.507l29.504 38.962v25.808l-17.545-23.17c-2.501-3.303-7.207-3.952-10.507-1.452-3.303 2.501-3.952 7.205-1.452 10.507l29.504 38.963v39.132l-7.487-12.969c-3.046-5.275-8.796-8.549-15.057-8.549-.009 0-.02 0-.029 0-14.29 0-25.915-11.625-25.915-25.915 0-6.447 2.383-12.626 6.709-17.398 2.591-2.857 2.591-7.216 0-10.074-4.326-4.772-6.709-10.952-6.709-17.399s2.383-12.626 6.709-17.398c2.591-2.857 2.591-7.216 0-10.074-4.326-4.772-6.709-10.952-6.709-17.399-.002-13.476 10.102-24.567 23.501-25.799zm-32.177 156.381c-2.987 0-5.993.771-8.692 2.309-.047.026-.093.053-.153.089-12.375 7.145-28.257 2.889-35.401-9.486-3.224-5.584-4.249-12.126-2.888-18.422.814-3.771-1.364-7.546-5.038-8.726-6.133-1.97-11.286-6.129-14.51-11.713-3.224-5.583-4.249-12.125-2.889-18.423.814-3.771-1.364-7.545-5.038-8.725-6.133-1.97-11.285-6.129-14.51-11.713-6.737-11.669-3.531-26.326 7.455-34.094 1.652-1.168 2.762-2.953 3.078-4.95.316-1.998-.187-4.039-1.396-5.659-.653-.875-1.212-1.719-1.709-2.579-7.145-12.375-2.89-28.256 9.485-35.401 5.995-3.462 12.979-4.378 19.665-2.589 6.687 1.792 12.275 6.08 15.737 12.077.495.857.945 1.762 1.376 2.765.799 1.858 2.314 3.316 4.203 4.042 1.887.723 3.989.655 5.827-.19 8.016-3.694 16.916-2.99 23.999 1.215-3.151 5.82-4.927 12.495-4.927 19.59 0 8.037 2.346 15.811 6.696 22.437-4.351 6.625-6.696 14.398-6.696 22.436s2.346 15.811 6.696 22.437c-.685 1.043-1.302 2.124-1.886 3.221l-41.07-71.135c-2.071-3.588-6.66-4.815-10.245-2.745-3.587 2.071-4.816 6.658-2.745 10.245l49.342 85.463c.829 13.08 7.826 24.509 18.129 31.4l9.567 16.571-12.97-7.489c-2.607-1.507-5.54-2.258-8.492-2.258zm111.142 208.906c-13.345 3.021-24.816 10.756-32.303 21.779-.433.638-.765 1.337-.984 2.075l-13.191 44.341-13.192-44.341c-.22-.738-.552-1.438-.984-2.075-7.486-11.023-18.958-18.758-32.303-21.779-41.188-9.326-71.083-46.697-71.083-88.86 0-50.227 40.862-91.089 91.089-91.089h52.946c42.974 0 79.079 29.918 88.614 70.016-38.976 15.66-66.569 53.842-66.569 98.351 0 3.696.192 7.348.563 10.948-.863.224-1.73.436-2.603.634zm107.982 79.361c-50.146 0-90.943-40.797-90.943-90.943s40.797-90.943 90.943-90.943 90.943 40.797 90.943 90.943-40.796 90.943-90.943 90.943z"/><path d="m431.14 416.791c-3.981-1.142-8.136 1.158-9.277 5.141-7.062 24.617-29.861 41.811-55.445 41.811-31.808 0-57.686-25.878-57.686-57.686s25.878-57.686 57.686-57.686c25.97 0 48.861 17.515 55.668 42.594 1.086 3.997 5.21 6.362 9.203 5.273 3.997-1.085 6.358-5.205 5.273-9.203-8.577-31.597-37.421-53.664-70.145-53.664-40.079 0-72.686 32.606-72.686 72.686s32.606 72.686 72.686 72.686c32.238 0 60.967-21.66 69.863-52.674 1.143-3.982-1.158-8.136-5.14-9.278z"/><path d="m326.99 406.057c0 21.74 17.688 39.428 39.428 39.428s39.428-17.688 39.428-39.428-17.688-39.428-39.428-39.428-39.428 17.687-39.428 39.428zm63.855 0c0 13.47-10.958 24.428-24.428 24.428s-24.428-10.958-24.428-24.428 10.958-24.428 24.428-24.428 24.428 10.958 24.428 24.428z"/></g></g></svg>