<?xml version="1.0" encoding="UTF-8"?>
<svg xmlns="http://www.w3.org/2000/svg" viewBox="0 0 64 64" width="512" height="512"><g id="Filled_outline" data-name="Filled outline"><path d="M16,49a13.026,13.026,0,0,1-3-7,14.466,14.466,0,0,1-2-1L3,38c0,2,0,6,1,8a11.845,11.845,0,0,0,10,7c2.1.253,4.608-.612,6-1A8.393,8.393,0,0,1,16,49Z" style="fill:#8ec13f"/><path d="M8.058,28.973A10.293,10.293,0,0,1,14,24a7.914,7.914,0,0,1,0-2,10.449,10.449,0,0,1,2.079-4.894C15.345,16.6,5.932,9.9,5,9c-.731,2.532-2.173,10.916,1,17a16.969,16.969,0,0,0,2,3Z" style="fill:#8ec13f"/><path d="M28,54a12.148,12.148,0,0,1,1-8c1.941-3.517,4.44-2.715,8-7,2.859-3.441,2.645-5.64,6-8,1.83-1.287,2.659-1.171,4-2,1.926-1.19,3.909-3.714,4.676-9.42A7.829,7.829,0,0,0,48,18a7.423,7.423,0,0,0-2,0,12.286,12.286,0,0,0-7-7c-4.2-1.458-9.554-.342-12,3a6.81,6.81,0,0,0-1,2,8.221,8.221,0,0,0-7-1c-4.256,1.563-4.95,6.614-5,7a7.914,7.914,0,0,0,0,2A9.9,9.9,0,0,0,7,34a9.732,9.732,0,0,0,6,8,13.026,13.026,0,0,0,3,7c3.178,3.614,8.235,4.734,12,5Z" style="fill:#f2f1d7"/><path d="M28,54a12.148,12.148,0,0,1,1-8c1.941-3.517,4.44-2.715,8-7,2.859-3.441,2.645-5.64,6-8,1.83-1.287,2.659-1.171,4-2,2.379-1.47,4.847-4.972,5-14a31.127,31.127,0,0,1,4,4c5.141,6.592,6.013,15.453,3,22C54.627,50.5,39,58,28,54Z" style="fill:#8ec13f"/><path d="M13.881,53.993a7.682,7.682,0,0,0,.914.052,18.014,18.014,0,0,0,4.886-.912l.226-.066a23.005,23.005,0,0,0,7.906,1.921A20.311,20.311,0,0,0,34.594,56.1c10.443,0,21.745-6.926,25.314-14.684,3.3-7.16,2.041-16.416-3.119-23.033a32.144,32.144,0,0,0-4.172-4.172,1,1,0,0,0-1.617.77c-.018,1.03-.07,2-.149,2.916a8.393,8.393,0,0,0-2.715-.89,8.583,8.583,0,0,0-1.505-.068,13.074,13.074,0,0,0-7.3-6.886C34.555,8.4,28.784,9.87,26.193,13.409a7.538,7.538,0,0,0-.7,1.162,8.788,8.788,0,0,0-6.839-.51,7.61,7.61,0,0,0-2.715,1.725c-2.411-1.7-9.513-6.795-10.244-7.5a1,1,0,0,0-1.657.441c-.029.1-2.867,10.182,1.074,17.739a17.923,17.923,0,0,0,1.751,2.685,9.9,9.9,0,0,0,.7,9.5l-4.211-1.58A1,1,0,0,0,2,38c0,2.179,0,6.236,1.105,8.447A12.854,12.854,0,0,0,13.881,53.993Zm6.366-3.005a4.8,4.8,0,0,0,2.459-1.28,4.382,4.382,0,0,0,.6-.736,4.358,4.358,0,0,0,1.266.93,4.283,4.283,0,0,0,1.865.414c.124,0,.235-.015.352-.024a15.2,15.2,0,0,0,.051,2.592A19.481,19.481,0,0,1,20.247,50.988Zm6.839-2.743a2.524,2.524,0,0,1-1.654-.147,2.624,2.624,0,0,1-1.34-1.7c.012-.233.011-.449,0-.645a7.824,7.824,0,0,0,5.7-6.322,8.73,8.73,0,0,0,2.864.491,9.307,9.307,0,0,0,2.444-.342,15.092,15.092,0,0,1-3.14,2.3,8.881,8.881,0,0,0-3.841,3.639A10.729,10.729,0,0,0,27.086,48.245ZM52.917,17.159a25.84,25.84,0,0,1,2.3,2.456c4.712,6.043,5.869,14.469,2.88,20.967-2.232,4.85-7.738,9.346-14.052,11.742a10.148,10.148,0,0,0,1.749-1.71,17.172,17.172,0,0,0,3.2-12.764l-1.976.3a15.135,15.135,0,0,1-2.8,11.236c-1.978,2.543-5.947,3.826-7.855,4.443a7.061,7.061,0,0,0-.673.276,19.291,19.291,0,0,1-6.789-.855,10.678,10.678,0,0,1,.981-6.767,6.308,6.308,0,0,1,2.58-2.567,11.7,11.7,0,0,1,6.267.044A11.468,11.468,0,0,1,42.4,45.8l1.2-1.6a13.385,13.385,0,0,0-7.646-2.682,16.739,16.739,0,0,0,1.817-1.878,20.261,20.261,0,0,0,2.2-3.268,8.769,8.769,0,0,0,1.237-2.148,8.646,8.646,0,0,1,2.366-2.4,8.831,8.831,0,0,1,2.238-1.16,9.293,9.293,0,0,0,1.712-.807C50.739,27.865,52.511,23.7,52.917,17.159ZM14.992,22.128c.064-.493.727-4.858,4.353-6.19a7.27,7.27,0,0,1,6.1.895,1,1,0,0,0,1.508-.533,5.8,5.8,0,0,1,.853-1.709c2.1-2.872,6.876-4.034,10.865-2.646A9.653,9.653,0,0,1,41.8,13.76a5.36,5.36,0,0,0-2.14.3A5.807,5.807,0,0,0,36.005,20.1l1.99-.194a3.789,3.789,0,0,1,2.341-3.961,3.842,3.842,0,0,1,4.726,2.407h0l.007.018a1,1,0,0,0,1.062.624,6.48,6.48,0,0,1,1.732,0,6.551,6.551,0,0,1,2.73,1.065c-.638,4.074-2.014,6.792-4.12,8.093a7.389,7.389,0,0,1-1.373.64,10.826,10.826,0,0,0-2.676,1.393c-.2.143-.383.285-.563.427a10.539,10.539,0,0,0-3.159-7.32L37.3,24.711a8.236,8.236,0,0,1,2.114,8.616c-.315.5-.595,1-.875,1.51-.082.15-.282.5-.3.517a7.264,7.264,0,0,1-8.754,1.77A7.047,7.047,0,0,1,26,30.986l-2,.028A9.112,9.112,0,0,0,27.932,38.5c-.557,3.86-3.424,5.564-5.907,5.5a5.448,5.448,0,0,1-4.183-2.54,5.188,5.188,0,0,1-.559-1.185,5.221,5.221,0,0,0,2.14.469,6.137,6.137,0,0,0,3.01-.843l-.866-1.8c-.032.015-.083.042-.149.079a3.507,3.507,0,0,1-3.869-.014,6.057,6.057,0,0,1-1.7-7.628,6.934,6.934,0,0,1,7.873-2.577,1,1,0,0,0,1.219-1.307,4.4,4.4,0,0,1-.024-3.245c.845-1.9,3.328-2.917,5.9-2.425l.375-1.964c-3.477-.662-6.881.84-8.1,3.575a5.833,5.833,0,0,0-.428,3.114,8.748,8.748,0,0,0-8.5,3.757,8.061,8.061,0,0,0,.834,9.043,7.559,7.559,0,0,0,1.169,4.033A7.423,7.423,0,0,0,21.975,46H22a5.172,5.172,0,0,0,.065.533,2.87,2.87,0,0,1-.772,1.759,3.574,3.574,0,0,1-4.607-.031,11.972,11.972,0,0,1-2.695-6.385,1,1,0,0,0-.6-.795A8.689,8.689,0,0,1,8,33.917a8.926,8.926,0,0,1,6.314-8.966,1,1,0,0,0,.682-1.075A6.956,6.956,0,0,1,14.992,22.128Zm-.312-4.786a11.92,11.92,0,0,0-1.626,4.234c-.865-1.109-1.832-2.562-2.729-3.912-.508-.765-1.013-1.526-1.5-2.233a17.266,17.266,0,0,1-1.8-3.608C9.545,13.685,13.08,16.208,14.68,17.342Zm-7.793,8.2c-2.081-3.99-2.065-9.1-1.613-12.7a18.484,18.484,0,0,0,1.9,3.727c.483.7.981,1.448,1.481,2.2a47.483,47.483,0,0,0,3.531,4.891,11.372,11.372,0,0,0-4.24,3.6A15.843,15.843,0,0,1,6.887,25.538ZM10.548,41.9a12.96,12.96,0,0,0,1.541.792,14.681,14.681,0,0,0,1.44,4.43,18.988,18.988,0,0,1-5.771-4.773c-.406-.472-1.784-1.978-2.035-2.258ZM6.242,43.653c3.042,3.528,6.148,5.619,9.239,6.252a13.158,13.158,0,0,0,2,1.757,9.943,9.943,0,0,1-3.361.345,10.87,10.87,0,0,1-9.225-6.454,12.449,12.449,0,0,1-.82-4.307C4.377,41.587,5.849,43.2,6.242,43.653Z"/></g></svg>
