<svg id="Capa_1" enable-background="new 0 0 512 512" height="512" viewBox="0 0 512 512" width="512" xmlns="http://www.w3.org/2000/svg"><g><g><path d="m153.168 223.993c11.6 9.513 22.444 20.209 32.43 31.887-.195-6.885-.3-13.854-.3-20.904 0-27.232 1.49-53.343 4.217-77.545-15.812-24.974-34.923-45.134-56.19-58.567l-.622-.393c-2.235-1.411-5.071.547-4.541 3.137z" fill="#05e39c"/><path d="m153.168 223.993c11.175 9.165 21.654 19.422 31.336 30.602l-28.155-137.792c-7.331-6.858-15.021-12.884-23.024-17.938l-.622-.393c-2.235-1.411-5.071.547-4.541 3.137z" fill="#0ed290"/><path d="m326.702 234.977c0 7.801-.123 15.51-.361 23.109 9.851-11.528 20.54-22.097 31.965-31.52l25.532-124.956c.529-2.59-2.307-4.548-4.542-3.137l-.622.393c-21.267 13.432-40.378 33.592-56.19 58.566 2.729 24.202 4.218 50.313 4.218 77.545z" fill="#05e39c"/><path d="m326.177 207.198c13.334-32.208 31.328-59.802 52.485-80.253l5.177-25.336c.529-2.59-2.307-4.548-4.542-3.137l-.622.393c-21.267 13.432-40.378 33.592-56.19 58.567 1.786 15.843 3.038 32.507 3.692 49.766z" fill="#0ed290"/></g><path d="m240.969 469.12c-5.249-.577-10.451-1.64-15.558-3.171l6.061 34.418c.421 2.39 2.497 4.133 4.924 4.133h39.207c2.427 0 4.503-1.743 4.924-4.133l5.646-32.063c-14.663 4.335-30.092 4.865-45.204.816z" fill="#05e39c"/><g><g><path d="m244.125 370.312 12.169 45.412 11.581-43.279c11.376-42.457 31.746-81.133 58.407-112.658.275-8.15.42-16.425.42-24.81 0-125.632-31.654-227.477-70.702-227.477s-70.702 101.845-70.702 227.477c0 7.624.119 15.158.347 22.59 26.696 31.54 47.093 70.248 58.48 112.745z" fill="#fedf30"/></g><g><path d="m236.68 346.582c-5.782-32.973-9.084-71.046-9.084-111.605 0-101.928 20.837-188.194 49.553-217.12-6.678-6.727-13.782-10.357-21.149-10.357-39.048 0-70.702 101.845-70.702 227.477 0 7.624.119 15.158.347 22.59 21.635 25.561 39.121 55.833 51.035 89.015z" fill="#fed402"/></g></g><g><path d="m256.293 411.858-11.202-41.806c-21.083-78.683-72.485-144.078-138.085-175.675l-3.598-1.733c-2.312-1.113-4.864 1.001-4.2 3.479l49.432 184.482c13.229 49.37 51.303 84.012 92.329 88.513z" fill="#0ed290"/><path d="m243.528 459.558c-27.951-14.227-51.176-42.59-60.919-78.952l-45.133-168.439c-9.747-6.743-19.922-12.708-30.47-17.789l-3.598-1.733c-2.312-1.113-4.864 1.001-4.2 3.479l49.432 184.482c13.229 49.371 51.303 84.014 92.329 88.513z" fill="#00c285"/><g><path d="m404.995 196.511c-65.6 31.597-117.002 96.991-138.085 175.675l-25.94 96.934c51.157 13.707 105.953-25.035 122.391-86.38l49.432-184.482c.664-2.479-1.888-4.593-4.2-3.479z" fill="#0ed290"/></g><g><path d="m300.01 380.309c17.505-65.328 55.922-121.475 106.001-156.744l6.781-25.307c.664-2.479-1.888-4.593-4.2-3.479l-3.598 1.733c-65.6 31.597-117.002 96.991-138.086 175.675l-25.94 96.934c11.594 3.107 23.374 3.511 34.853 1.577z" fill="#00c285"/></g></g><g><path d="m263.314 34.839h-14.629c-4.143 0-7.5 3.358-7.5 7.5s3.357 7.5 7.5 7.5h14.629c4.143 0 7.5-3.358 7.5-7.5s-3.357-7.5-7.5-7.5z"/><path d="m263.314 74.199h-14.629c-4.143 0-7.5 3.358-7.5 7.5s3.357 7.5 7.5 7.5h14.629c4.143 0 7.5-3.358 7.5-7.5s-3.357-7.5-7.5-7.5z"/><path d="m263.314 113.559h-14.629c-4.143 0-7.5 3.358-7.5 7.5s3.357 7.5 7.5 7.5h14.629c4.143 0 7.5-3.358 7.5-7.5s-3.357-7.5-7.5-7.5z"/><path d="m263.314 152.918h-14.629c-4.143 0-7.5 3.358-7.5 7.5s3.357 7.5 7.5 7.5h14.629c4.143 0 7.5-3.358 7.5-7.5s-3.357-7.5-7.5-7.5z"/><path d="m263.314 192.278h-14.629c-4.143 0-7.5 3.358-7.5 7.5s3.357 7.5 7.5 7.5h14.629c4.143 0 7.5-3.358 7.5-7.5s-3.357-7.5-7.5-7.5z"/><path d="m263.314 231.638h-14.629c-4.143 0-7.5 3.358-7.5 7.5s3.357 7.5 7.5 7.5h14.629c4.143 0 7.5-3.358 7.5-7.5s-3.357-7.5-7.5-7.5z"/><path d="m263.314 270.998h-14.629c-4.143 0-7.5 3.358-7.5 7.5s3.357 7.5 7.5 7.5h14.629c4.143 0 7.5-3.358 7.5-7.5s-3.357-7.5-7.5-7.5z"/><path d="m263.314 310.357h-14.629c-4.143 0-7.5 3.358-7.5 7.5s3.357 7.5 7.5 7.5h14.629c4.143 0 7.5-3.358 7.5-7.5s-3.357-7.5-7.5-7.5z"/><path d="m416.594 189.396c-3.15-2.611-7.567-3.149-11.258-1.375l-3.597 1.733c-11.119 5.356-21.843 11.679-32.107 18.844l3.151-15.418c.829-4.058-1.789-8.021-5.847-8.85s-8.021 1.788-8.851 5.847l-6.622 32.404c-5.96 5.035-11.729 10.367-17.281 15.984.006-1.197.019-2.39.019-3.59 0-26.149-1.356-51.646-3.953-75.68 12.779-19.711 27.658-36.192 44.022-48.322l-9.178 44.911c-.829 4.058 1.789 8.021 5.847 8.85s8.021-1.788 8.851-5.847l11.396-55.778c.845-4.129-.851-8.346-4.318-10.741s-8.011-2.49-11.578-.237l-.619.391c-17.298 10.925-33.229 26.17-47.215 44.704-3.497-23.944-8.302-46.029-14.3-65.328-18.47-59.424-41.276-71.898-57.156-71.898s-38.686 12.474-57.156 71.9c-5.998 19.298-10.803 41.384-14.3 65.328-13.986-18.534-29.916-33.778-47.214-44.703l-.623-.394c-3.562-2.25-8.106-2.158-11.575.239-3.468 2.396-5.163 6.612-4.319 10.741l21.039 102.965c-10.143-7.03-20.7-13.21-31.591-18.455l-3.6-1.734c-3.687-1.775-8.104-1.235-11.254 1.375-3.151 2.61-4.503 6.851-3.443 10.803l49.432 184.483c11.711 43.706 42.07 76.541 77.391 89.03l5.299 30.091c1.055 5.987 6.231 10.332 12.311 10.332h39.207c6.079 0 11.256-4.345 12.311-10.332l4.861-27.603c8.888-3.1 17.581-7.524 25.877-13.271 3.405-2.359 4.254-7.031 1.895-10.436-2.357-3.405-7.029-4.254-10.436-1.895-18.786 13.014-39.776 18.214-59.86 14.984l23.902-89.319c19.902-74.277 67.835-136.711 128.827-168.229l-46.864 174.9c-4.498 16.785-11.988 31.955-22.263 45.089-2.552 3.263-1.977 7.976 1.286 10.528s7.977 1.976 10.528-1.286c11.524-14.732 19.914-31.706 24.937-50.449l49.432-184.482c1.059-3.953-.293-8.193-3.443-10.804zm-278.865-78.421c16.363 12.13 31.243 28.612 44.022 48.323-2.597 24.034-3.953 49.53-3.953 75.679 0 .458.01.909.011 1.366-5.732-5.788-11.677-11.266-17.817-16.413zm124.288 368.418c4.938 0 9.883-.415 14.805-1.229l-3.317 18.836h-35.01l-3.742-21.247c1.493.256 2.99.484 4.491.666 7.497 1.988 15.124 2.975 22.773 2.974zm-2.353-109.145-3.376 12.616-3.953-14.752c-.304-1.134-.619-2.265-.935-3.395h9.821c-.529 1.839-1.06 3.678-1.557 5.531zm6.294-20.531h-19.174c-5.32-15.859-11.897-31.232-19.656-45.886-1.938-3.661-6.475-5.059-10.138-3.119-3.66 1.938-5.057 6.477-3.118 10.138 10.198 19.263 18.265 39.835 23.975 61.144l10.682 39.865-13.069 48.837c-35.561-6.893-67.875-38.37-79.575-82.031l-46.865-174.901c33.458 17.286 63.434 44.077 86.968 77.792 2.371 3.396 7.045 4.229 10.443 1.857 3.396-2.371 4.228-7.046 1.857-10.443-3.566-5.109-7.279-10.062-11.118-14.865h13.727c4.143 0 7.5-3.358 7.5-7.5s-3.357-7.5-7.5-7.5h-18.051c-.03-2.701-.047-5.41-.047-8.128 0-5.484.064-10.892.181-16.231h17.918c4.143 0 7.5-3.358 7.5-7.5s-3.357-7.5-7.5-7.5h-17.435c.362-8.481.868-16.754 1.507-24.803.789.282 1.634.443 2.52.443h14.628c4.143 0 7.5-3.358 7.5-7.5s-3.357-7.5-7.5-7.5h-14.628c-.412 0-.814.042-1.208.106.864-8.442 1.874-16.61 3.018-24.477.074.002.146.011.221.011h14.628c4.143 0 7.5-3.358 7.5-7.5s-3.357-7.5-7.5-7.5h-12.448c1.497-8.538 3.151-16.671 4.944-24.36h10.756c4.143 0 7.5-3.358 7.5-7.5s-3.357-7.5-7.5-7.5h-6.934c12.342-44.444 29.431-70.666 45.533-70.666 14.88 0 30.892 22.936 42.832 61.353.942 3.031 1.85 6.142 2.73 9.313h-6.961c-4.143 0-7.5 3.358-7.5 7.5s3.357 7.5 7.5 7.5h10.781c1.817 7.801 3.466 15.935 4.939 24.36h-12.469c-4.143 0-7.5 3.358-7.5 7.5s3.357 7.5 7.5 7.5h14.628c.078 0 .154-.009.231-.012 1.148 7.923 2.152 16.056 3.002 24.372h-13.392c-4.143 0-7.5 3.358-7.5 7.5s3.357 7.5 7.5 7.5h14.628c.039 0 .076-.005.115-.006.628 7.992 1.117 16.125 1.47 24.366h-17.431c-4.143 0-7.5 3.358-7.5 7.5s3.357 7.5 7.5 7.5h17.919c.118 5.375.179 10.788.179 16.231 0 2.728-.016 5.437-.046 8.128h-18.053c-4.143 0-7.5 3.358-7.5 7.5s3.357 7.5 7.5 7.5h15.546c-21.623 26.509-38.997 57.64-50.69 91.612z"/></g></g></svg>