<svg height="511pt" viewBox="0 0 511 511.99816" width="511pt" xmlns="http://www.w3.org/2000/svg"><path d="m136.132812 177.855469s7.441407 37.324219-20.484374 69.050781c-23.246094 26.402344-58.648438 23.332031-79.125 4.671875-43.921876-40.023437-33.886719-120.039063 8.09375-162.121094 1.355468-1.359375 2.738281-2.671875 4.148437-3.945312l-.105469-.105469c103.609375-103.859375 271.582032-103.875 375.175782-.039062l2.304687 2.308593c103.589844 103.839844 103.574219 272.210938-.039063 376.070313l-.105468-.109375c-1.269532 1.414062-2.582032 2.800781-3.9375 4.160156-41.980469 42.082031-121.808594 52.136719-161.734375 8.113281-18.617188-20.527344-21.679688-56.011718 4.660156-79.3125 31.652344-27.996094 68.886719-20.535156 68.886719-20.535156l20.550781-20.550781s-63.007813-62.011719-115.507813-3.511719c.105469-.109375.222657-.210938.332032-.316406-24.746094 32.925781-70.972656 99.011718-76.679688 109.367187-.992187 1.804688-2.089844 3.546875-3.320312 5.199219-24.417969 32.730469-72.511719 36.550781-101.738282 7.257812l-18.585937-18.632812c-29.226563-29.292969-25.414063-77.503906 7.242187-101.976562 1.644532-1.238282 3.382813-2.335938 5.183594-3.332032 10.28125-5.695312 75.628906-51.613281 108.632813-76.5l.433593.433594c63-70-8-116-8-116l-16.5 20.5" fill="#fff7d7"/><path d="m238.910156 352c8.15625-9.085938 16.5625-15.261719 24.949219-19.21875-22.628906-9.039062-52.703125-11.140625-79.949219 19.21875.109375-.109375.222656-.210938.332032-.316406-24.742188 32.925781-70.96875 99.011718-76.675782 109.367187-.996094 1.804688-2.089844 3.546875-3.324218 5.199219-7.160157 9.597656-16.363282 16.691406-26.523438 21.210938 27.921875 12.496093 62.164062 4.742187 81.523438-21.210938 1.234374-1.652344 2.328124-3.394531 3.324218-5.199219 5.707032-10.355469 51.933594-76.441406 76.675782-109.367187-.109376.105468-.222657.207031-.332032.316406zm0 0" fill="#fff2bd"/><path d="m426.140625 87.679688-2.304687-2.3125c-58.792969-58.933594-138.324219-84.394532-215.058594-76.425782 58.449218 6.070313 115.269531 31.535156 160.054687 76.425782l2.304688 2.3125c103.59375 103.835937 103.574219 272.207031-.035157 376.066406l-.105468-.105469c-1.269532 1.410156-2.582032 2.800781-3.9375 4.160156-16.625 16.664063-39.183594 28.296875-62.851563 33.546875 39.949219 9.835938 88.285157-3.914062 117.851563-33.546875 1.355468-1.363281 2.667968-2.75 3.9375-4.160156l.105468.105469c103.613282-103.859375 103.628907-272.230469.039063-376.066406zm0 0" fill="#fff2bd"/><path d="m178.054688 258.609375c.289062-.347656.597656-.683594.914062-1.003906 30.972656-31.582031 29.878906-82.917969-3.28125-113.089844-29.644531-26.972656-75.535156-26.914063-105.125.132813-33.207031 30.347656-34.816406 82.671874-3.402344 114.160156l.15625.15625c-11.542968-22.191406-8.027344-50.273438 10.542969-68.890625 22.902344-22.957031 60.164063-22.960938 83.0625-.007813s21.894531 59.976563-1.007813 82.933594l.066407.066406c5.632812-4.246094 10.328125-7.886718 13.644531-10.601562 1.519531-1.25 3.167969-2.34375 4.429688-3.855469zm0 0" fill="#fba72d"/><path d="m367.128906 336.414062c-30.097656-33.238281-81.316406-34.332031-112.816406-3.285156-.324219.316406-.65625.621094-1.003906.910156-1.507813 1.265626-2.597656 2.917969-3.84375 4.445313-2.636719 3.230469-6.136719 7.761719-10.21875 13.199219 22.925781-22.640625 59.652344-23.3125 82.441406-.46875 22.898438 22.953125 22.894531 60.304687-.007812 83.261718-18.574219 18.617188-46.585938 22.140626-68.726563 10.570313l.15625.152344c31.414063 31.488281 83.613281 29.878906 113.890625-3.410157 26.980469-29.65625 27.039062-75.65625.128906-105.375zm0 0" fill="#fba72d"/><path d="m485.167969 374.109375c-3.808594-1.636719-8.21875.121094-9.855469 3.929687-25.695312 59.792969-76.3125 120.636719-147.015625 118.929688-25.539063-.609375-47.707031-9.875-62.417969-26.097656-3.140625-3.460938-5.734375-7.367188-7.742187-11.554688 14.90625 10.800782 32.914062 16.410156 51.941406 15.984375 23.742187-.546875 46.511719-10.921875 62.46875-28.460937 14.304687-15.730469 22.199219-36.222656 22.226563-57.707032.027343-21.484374-7.816407-41.996093-22.085938-57.753906-15.867188-17.519531-37.5625-27.539062-61.09375-28.207031-23.207031-.644531-46.039062 8.253906-62.546875 24.609375-14.15625 14.03125-24.867187 31.496094-36.464844 47.59375-11.671875 16.195312-23.445312 32.386719-34.5 49.015625-19.375 29.144531-36.757812 64.4375-77.589843 61.25-9.644532-.773437-10.808594 14.207031-1.160157 14.957031 28.523438 2.210938 54.757813-11.976562 69.804688-35.929687 13.597656-21.648438 28.523437-42.484375 43.320312-63.328125 13.925781-19.609375 26.585938-43.476563 49.0625-54.078125 23.257813-10.96875 50.746094-1.996094 63.292969 20.421875-14.347656-.433594-40.929688 2.183594-64.796875 23.296875-13.222656 11.695312-20.703125 26.789062-21.632813 43.648437-.929687 16.925782 5.039063 33.808594 16.382813 46.316406 17.5 19.292969 43.484375 30.308594 73.175781 31.015626 77.089844 1.78125 132.949219-62.375 161.152344-128 1.636719-3.804688-.121094-8.214844-3.925781-9.851563zm-202.304688-46.703125c-3.40625 0-6.785156.273438-10.117187.800781 11.453125-6.929687 24.65625-10.421875 38.421875-10.042969 19.402343.550782 37.304687 8.820313 50.402343 23.285157 24.214844 26.742187 24.164063 68.601562-.117187 95.296875-13.207031 14.519531-32.058594 23.105468-51.71875 23.558594-6.347656.15625-12.546875-.519532-18.503906-1.953126 13.203125-2.246093 25.738281-8.535156 35.757812-18.578124 25.816407-25.875 25.820313-67.980469.007813-93.851563-11.910156-11.941406-27.582032-18.515625-44.132813-18.515625zm-29.5625 110.148438c.417969-37.328126 43.90625-58.707032 77.140625-54.4375 3.085938 16.179687-1.601562 33.566406-14.070312 46.0625-8.074219 8.089843-18.703125 13.289062-30.039063 14.691406-6.167969.761718-12.777343.492187-18.742187-1.363282-4.773438-1.488281-9.164063-4.71875-14.289063-4.953124zm0 0"/><path d="m501.886719 204.222656c-12.355469-45.902344-36.710938-88.03125-70.4375-121.839844l-2.304688-2.3125c-51.511719-51.632812-120.007812-80.070312-192.863281-80.070312-56.066406 0-111.417969 17.398438-157.171875 49.851562-44.949219 31.882813-79.945313 76.253907-78.570313 133.960938.707032 29.742188 11.691407 55.777344 30.933594 73.308594 12.480469 11.371094 29.332032 17.367187 46.21875 16.433594 16.835938-.929688 31.910156-8.429688 43.585938-21.691407 21.0625-23.925781 23.664062-50.566406 23.230468-64.9375 4.015626 2.265625 7.757813 5.085938 11.105469 8.441407 10.140625 10.167968 15.300781 24.417968 13.8125 38.722656-1.292969 12.421875-7.964843 27.609375-17.699219 35.800781-32.539062 27.386719-95.277343 68.28125-104.011718 73.117187-2.207032 1.222657-4.1875 2.496094-6.054688 3.890626-17.382812 13.03125-28.25 32.996093-29.816406 54.769531-1.5625 21.753906 6.371094 43.078125 21.765625 58.511719l18.585937 18.628906c6.832032 6.851562 17.453126-3.746094 10.621094-10.59375l-18.585937-18.628906c-12.324219-12.355469-18.675781-29.425782-17.421875-46.84375 1.25-17.4375 9.945312-33.417969 23.847656-43.839844 20.730469-15.53125 43.464844-28.992188 64.617188-44.039063 22.898437-16.289062 43.636718-30.859375 69.046874-52.003906 18.117188-15.074219 25.222657-39.085937 24.550782-62.683594-.671875-23.570312-10.664063-45.304687-28.136719-61.203125-29.527344-26.867187-74.601563-29.546875-107.171875-6.371094-7.882812 5.609376.816406 17.832032 8.695312 12.222657 26.867188-19.117188 64.035157-16.910157 88.382813 5.242187 14.429687 13.128906 22.679687 31.078125 23.234375 50.535156.394531 13.832032-3.136719 27.097657-10.082031 38.605469 3.09375-19.414062-2.714844-39.550781-17.5625-54.433593-12.492188-12.519532-29.125-19.414063-46.832031-19.414063-.003907 0 0 0 0 0-17.714844 0-34.355469 6.898437-46.851563 19.421875-9.929687 9.957031-16.179687 22.390625-18.464844 35.496094-3.578125-15.085938-2.300781-31.394532 4.308594-46.222656 3.941406-8.835938-9.761719-14.941407-13.699219-6.105469-12.667968 28.425781-9.070312 61.398437 8.449219 85.863281-4.1875-2.011719-8.097656-4.617188-11.5625-7.777344-16.183594-14.746094-25.433594-36.96875-26.042969-62.574218-1.28125-53.886719 32.925782-94.273438 75.039063-123.3125 42.683593-29.433594 93.886719-45.148438 145.707031-45.148438 68.84375 0 133.566406 26.871094 182.242188 75.664062 32.679687 32.609376 56.851562 72.769532 68.878906 117.457032 11.328125 42.089844 11.859375 86.730468 1.539062 129.105468-2.261718 9.292969 12.292969 12.925782 14.574219 3.546876 10.914063-44.8125 10.351563-92.035157-1.628906-136.550782zm-418.71875-8.851562c9.660156-9.683594 22.527343-15.015625 36.230469-15.015625 3.285156 0 6.519531.316406 9.675781.914062.980469 7.671875 2.777343 35.875-19.058594 60.679688-11.316406 12.855469-24.269531 16.136719-33.148437 16.625-.6875.039062-1.375.054687-2.0625.0625-.046876-1.066407-.316407-2.132813-.835938-3.132813-10.410156-20.015625-6.714844-44.179687 9.199219-60.132812zm0 0"/><path d="m452.273438 286.273438c3.992187.261718 7.707031-3.011719 7.960937-7.007813 3.851563-60.316406-19.855469-104.867187-20.867187-106.734375-4.605469-8.507812-17.796876-1.367188-13.1875 7.140625.226562.421875 22.664062 42.582031 19.089843 98.640625-.265625 4.132812 2.871094 7.699219 7.003907 7.960938zm0 0"/></svg>