<svg id="Слой_1" enable-background="new 0 0 512 512" height="512" viewBox="0 0 512 512" width="512" xmlns="http://www.w3.org/2000/svg"><g><path d="m455 309.8c-1.4-1.9-3.6-3.1-6-3.1h-.6c-1.7 0-3.3 0-4.9-.1-3.7-.2-7.4-.5-11.1-.9-.3 0-.6 0-.9 0-3.2 0-6.1 2-7.2 5.1-13.4 39.8-44.9 107.3-110.4 138.4 33.4-35.7 58.3-87.6 74-154 .5-2.2 0-4.5-1.3-6.3-1.5-2-2.2-4-2.1-6.1.1-3 2.4-8.6 8.3-15.5.9-1 1.5-2.3 1.7-3.6 3.8-20.8 6.5-42.1 8.2-63.2.2-2-.5-4-1.8-5.5s-3.2-2.5-5.2-2.6l-.9-.1c-1.7-.1-3.3-.2-4.8-.4-3.2-.3-6.5-.8-10.3-1.4-.4-.1-.8-.1-1.2-.1-1.7 0-3.3.6-4.7 1.6-1.7 1.3-2.7 3.2-2.9 5.3-3.7 44.1-18.1 153.8-71.7 220.9-.2.2-.3.5-.5.7 8.5-53.3 10-118.7 4.7-195.4-2.9-41.7-7.4-78.4-10.7-101.7-.7-5.1-1.3-9.6-1.9-13.7-.5-3.7-3.7-6.5-7.5-6.5-.1 0-.1 0-.2 0-1.8 0-3.3.1-4.7.1-.6 0-1.1 0-1.7 0-2.6 0-5.4-.1-8.7-.3-.1 0-.3 0-.4 0-2.1 0-4.2.9-5.6 2.5-1.5 1.7-2.2 4-1.9 6.2 5.1 33.3 13.8 100 15.6 172 0 1.8.8 3.6 2 5 6.2 6.6 9 12.5 9 15.4 0 3.3-2.4 6.5-7.1 9.4-2.2 1.4-3.6 3.8-3.6 6.3-.5 42.7-3.9 80.1-10.2 111.8-.1-.3-.1-.5-.2-.8-13.3-39.8-16.2-76.5-16.4-100.2 0-2.1-.9-4.1-2.4-5.5-1.4-1.3-3.2-2-5.1-2-.2 0-.4 0-.5 0-3.5.2-7 .4-10.3.4-.3 0-.7 0-1 0-.6 0-1.2 0-1.7 0h-.2-.1c-2 0-3.9.8-5.3 2.2s-2.2 3.4-2.2 5.4c0 18.4 1.8 47.2 9.8 80.1-16.5-28.2-30.1-58.5-40.6-90.8-.6-2-2.1-3.6-4-4.5-4.9-2.3-10.8-6.1-10.8-11.1 0-1.3.4-4.9 4.4-11 1.2-1.8 1.6-3.9 1-6-11.2-45.1-14.2-83.7-14.7-108.2 0-2.1-1-4.1-2.5-5.5-1.4-1.2-3.2-1.9-5-1.9-.2 0-.5 0-.7 0-1.6.2-3.1.3-4.4.4-4.4.3-9 .5-13.7.5-2 0-3.9.8-5.4 2.3-1.4 1.4-2.2 3.4-2.2 5.4.2 14.4 1.2 29.4 2.9 44.6.2 1.6.8 3.1 1.9 4.2 3.7 4.1 6.2 8.1 6.7 10.9.5 3-.4 6.1-2.9 9.4-1.2 1.7-1.7 3.8-1.4 5.8 6.5 38.2 17.2 75.2 31.7 110.2 10.3 24.8 22.6 48.5 36.8 71-60.3-40.9-96.7-93.5-108.5-156.2-.4-2-1.6-3.8-3.3-4.9-1.2-.8-2.7-1.2-4.1-1.2-.6 0-1.1.1-1.7.2-3.3.8-6.6 1.4-10 2-3.3.6-7 1.1-11.2 1.5-2.1.2-4 1.4-5.3 3.1s-1.7 3.9-1.3 6c17.8 83.6 72.2 149.9 161.7 196.8 1.1.6 2.3.9 3.5.9 2.2 0 4.3-.9 5.8-2.7 1.6-2 2.1-4.5 1.5-6.9 3 3.8 6 7.6 9.2 11.4 1.5 1.8 3.6 2.7 5.8 2.7 1 0 2.1-.2 3.1-.7 3.1-1.4 4.9-4.6 4.4-8 0-.3-.1-.5-.1-.8 1.6 4.1 4.8 7.6 9.2 9.1 1.4.5 2.8.8 4.2.8h.5.2c5.5 0 10.4-3.1 13.1-8-.1 1.9.6 3.8 1.9 5.3 1.5 1.6 3.5 2.5 5.6 2.5.6 0 1.3-.1 1.9-.2 45.8-11.7 84.7-38.3 115.6-78.9 25.3-33.2 39.6-68.6 47.2-92.5.6-2.4.2-4.9-1.2-6.8z" fill="#ffe4ab"/><g fill="#b85b36"><path d="m487.7 261.4c-7.5-6.7-23.1-18-42.8-18.9-.8 0-1.7-.1-2.5-.1-13.9 0-28.3 5.5-40.7 15.5-8.5 6.9-17.3 17.2-17.7 24.7-.3 6.3 5.8 11.9 18 16.6 7.9 3.1 21.5 7 41.6 7.9 2.8.1 5.5.2 8.2.2 17.4 0 29.3-2.7 36.2-4.9 11.3-3.6 16.9-8.3 17.2-14.2.1-6.4-7-17.4-17.5-26.8z"/><path d="m226.1 93.6c13.5 5.3 31.5 8.3 50.7 8.5h2.3c17.7 0 34.7-2.6 47.8-7.2 10.1-3.6 22.1-9.9 22.2-19.7.1-8.1-8.9-21.8-21.8-33.2-9.2-8.1-28.1-21.8-51.6-22-.2 0-.4 0-.6 0-17.2 0-34.8 7.5-49.6 21-11.9 10.9-20.3 24.4-20.3 32.8-.2 7.5 7.3 14.5 20.9 19.8z"/><path d="m224.2 140.8c-.6-8.7-12.9-20.2-23.3-27.4-9.2-6.4-28-17.2-50.5-17.2-1.7 0-3.4.1-5 .2-23.1 1.7-39.7 13.8-49.6 23.6-9.1 9-18.6 22.7-17.9 31.4.5 6.2 6.7 11.3 18.7 15.1 7.6 2.5 20.9 5.4 40.7 5.4 5 0 10.3-.2 15.6-.6 25-1.8 41.5-7 51-11 9.6-4 20.9-10.7 20.3-19.5z"/><path d="m121.5 214.5c-8.4-5.4-25.3-14.5-45.5-14.5-3.7 0-7.5.3-11.1.9-16.3 2.8-31.9 12.5-43.8 27.4-8.1 10.2-15.6 24.5-14.1 33.7 2 11.8 23.8 16 43.5 16 9.2 0 19-.9 29.1-2.6 17.5-3 33.7-8.3 45.8-15 9.1-5 19.6-12.9 18.1-21.9-1.3-8-12.7-17.9-22-24z"/><path d="m269.2 278.4c-12.4-9.4-26.6-14.6-39.9-14.6h-.3c-18.4.1-32.4 9.8-39.2 15.6-10.3 8.9-15.7 18.6-15.7 23.6 0 .6.1 1.2.2 1.8 1.2 5 7.2 9.2 17.7 12.5 7.2 2.3 19.7 5.1 37.8 5.1h1.1c18.4-.1 31.1-3 38.4-5.4 10.5-3.5 16.5-7.7 17.8-12.7.2-.8.3-1.7.2-2.5-.6-7.6-10.1-17.3-18.1-23.4z"/><path d="m407 193.2c16.5 0 27.7-2.5 34.3-4.6 10.9-3.5 16.7-8.4 17.3-14.5.8-8.3-8.5-22.2-17.4-31.6-7.8-8.1-24.1-22.1-45.7-24.3-1.9-.2-3.8-.3-5.7-.3-19.1 0-34.6 9.5-42.1 15.1-11.9 8.9-20.7 20.3-21.4 27.9-.4 3.9 1.4 11.6 17.7 19.6 12 5.9 28.3 10.1 46 11.9 5.7.5 11.5.8 17 .8z"/></g><path d="m492.3 256.2c-8.2-7.3-25.2-19.7-47.1-20.7-15.1-.7-29.4 4.5-41 12 2.8-18.4 4.5-34.6 5.6-47.4 28.9-.5 54.1-8.5 55.8-25.4 1.8-18-29.9-59.5-69.3-63.5-17.7-1.8-36.4 4-52.7 16.2-13.5 10.1-23.3 23.3-24.2 32.7-.7 6.9 2.5 17.2 21.6 26.5 6.7 3.3 14.6 6 23.3 8.2-3.4 42.5-15.1 132-54.9 196.9 5.2-48.2 5.5-104.6 1-168.9-2.9-41.9-7.5-78.7-10.7-102.2-.6-4.7-1.2-8.8-1.8-12.6 31.2-3.2 57.9-14.3 58-32.8.1-10.2-9.6-25.6-24.1-38.4-9.9-8.8-30.4-23.5-56.2-23.7-.2 0-.4 0-.6 0-44.1 0-76.7 42.5-76.9 60.7-.1 10.5 8.9 19.8 25.4 26.3 8.4 3.3 18.4 5.7 29.3 7.2 4.8 30.5 13.3 93.1 15.8 162.1-11.1-7.3-24.8-12.6-39.3-12.6-.1 0-.2 0-.4 0-15.3.1-30.8 6.2-43.6 17.3-.2.2-.4.4-.6.6-9.5-41.5-11.9-76.7-12.3-98.5 32.4-5.3 60.1-18 58.8-35.8-1.3-18.2-43-54-86.2-50.9-42.8 3.1-75.4 43.3-74 62.5 1.2 16 25 24.5 53.7 26.5.1 8.8.6 19.2 1.5 31-16.8-11.1-40-19.2-62.4-15.4-40.1 6.9-66.8 50.1-63.5 69.2 2.6 15.2 24.2 21.8 50.1 21.8 1.4 0 2.8-.1 4.2-.1 18.6 91 78.8 161.7 179.2 210.4 3.7 1.8 8 2.8 12.3 2.9h.7c1.6 0 3.2-.2 4.8-.4 1.7.4 3.4.6 5.2.6h.6c2.3 0 4.6-.3 6.8-1 2.3.8 4.8 1.3 7.3 1.3h.6c1.3 0 2.7-.1 4-.3 126-20.5 173.8-137.3 188.1-184.7 25.1-1.9 47.1-9.8 47.8-25.2.5-10.6-10.3-24.1-19.7-32.4zm-145-82.5c-11.1-5.5-13.7-10.3-13.5-12.1.4-3.8 6.5-13.6 18.5-22.6 7.1-5.3 20.9-13.6 37.6-13.6 1.6 0 3.3.1 4.9.2 33.3 3.3 57.1 39.4 56.3 47.6-.6 6.1-24 15.1-60.4 11.5-16.8-1.6-32.2-5.5-43.4-11zm-42.1 249.1c54-67.6 69.2-175.1 73.3-225 3.5.6 7.1 1.1 10.7 1.4 2 .2 4 .3 6 .4-1.3 16.2-3.7 38-8.1 62.5-6.2 7.1-9.9 14.4-10.1 20.1-.2 4.1 1.2 7.7 3.7 11-12.3 51.9-34 109.7-72.2 150.6-2.6 1.2-5.3 2.3-8 3.4 1.7-7.7 3.3-15.9 4.7-24.4zm87.9-119.9c6.7 3.4 15 6 23.9 7.9-10.1 29.2-32 77.8-73.3 111.2 23.9-36.5 39.4-79.2 49.4-119.1zm-164.3-216.3c-11.2-4.4-16.2-9.5-16.2-12.6.1-10.9 26.8-46.3 62.4-46.3h.5c21.1.2 38.3 12.7 46.7 20.1 13.2 11.6 19.2 23.2 19.2 27.4-.1 8-25.9 19.9-64.6 19.4-18.2-.2-35.3-3.1-48-8zm-34.1 198.5c5.9-5.1 18.3-13.7 34.3-13.8h.3c27.3 0 50 24.6 50.5 31-.9 3.4-17.1 12.3-49 12.5s-48.3-8.6-49.1-11.9c0-1.7 3.2-9.4 13-17.8zm74.4 39.1c-.5 24.9-2 49.7-5.1 73.4-6.4-28.3-7.9-53.3-7.9-70.5 4.7-.7 9-1.7 13-2.9zm-53.7 42c-6.1-13.5-11.4-26.8-16-39.8 4.4.9 9.1 1.6 13.9 2.1 0 10.5.6 23.3 2.1 37.7zm-130-215.3c-.6-8.2 22.3-44.2 60.6-47 1.5-.1 3-.2 4.5-.2 35.4 0 65.6 29.6 66.2 37.6.4 5.3-21.1 19.3-64.4 22.5s-66.5-7.6-66.9-12.9zm-70.8 109.9c-1.7-9.9 17.8-46.6 51.7-52.4 3.3-.6 6.6-.8 9.8-.8 31.4 0 58.8 24.5 60.1 32.3 1.1 6.2-20 21.7-57.7 28.2-37.8 6.4-62.9-1.1-63.9-7.3zm169.1 147.6c-57.6-49.4-72.9-102.2-78.4-132 10.7-3.4 20.5-7.7 28.1-12.6 8.1 42.7 23 93.2 50.3 144.6zm-114.5-124.4c3.9-.4 7.8-.9 11.7-1.6 3.5-.6 7-1.3 10.4-2.1 6.8 36.4 27.4 103.8 111.6 161 7.3 11.5 15.3 23 24.1 34.3-87.5-45.9-140.5-110.2-157.8-191.6zm180.5 181c-1.3 4-1.4 8-.7 11.9 0 1.1.1 2.2.2 3.3-65.1-78.2-92.1-163.2-103.1-227.5 3.6-4.8 5.2-9.9 4.3-15.3-.7-4.3-3.8-9.5-8.5-14.7-1.9-17.2-2.6-32.1-2.8-43.9 4.7 0 9.5-.2 14.2-.5 1.5-.1 3-.2 4.5-.4.5 24.6 3.5 64 15 109.9-3.6 5.5-5.7 10.8-5.7 15.2 0 7.8 6 13.7 15.2 17.9 14 43.4 36 90.4 70 135.3-.8 3-1.7 6-2.6 8.8zm7.3-26.9c-7-9.8-13.4-19.7-19.4-29.6-7.8-31.6-9.8-59.6-9.8-79.3h2.1 1c3.7 0 7.3-.2 10.8-.4.1 24.2 3.1 61.8 16.8 102.5-.5 2.4-1 4.6-1.5 6.8zm13.7 42.6c-.1 0-.1 0-.2 0-.7 0-1.5-.2-2.2-.4-4.1-1.5-6.3-6.3-4.9-10.8 14.2-43.7 19.5-97.8 20.1-151.4 8.7-5.3 10.8-11.3 10.7-15.9 0-5.5-4.1-13.1-11-20.5-1.8-72.1-10.5-138.8-15.6-173 3 .2 6 .3 9 .3h1.8c1.6 0 3.2 0 4.9-.1.6 4.1 1.2 8.6 1.9 13.7 3.2 23.3 7.7 59.7 10.6 101.2 7.5 106.8 1.4 191.3-17.9 251.1-1 3.5-3.9 5.8-7.2 5.8zm20.7-.2c.1-.3.3-.7.4-1 1.6-4.9 3.1-10.1 4.5-15.3 83.6-27 121.2-109.5 135.2-151.1 3.9.4 7.8.7 11.6.9 1.9.1 3.8.1 5.8.1-14.2 44.8-56 140.4-157.5 166.4zm152.4-180.9c-34.4-1.6-52.5-12.5-52.3-16.6.3-7.2 22.4-33 50.8-33 .7 0 1.4 0 2.2.1 17.5.8 31.4 11 38.2 17 10.6 9.4 15 18.4 14.9 20.8-.3 4.1-19.3 13.3-53.8 11.7z" fill="#1d2228"/></g></svg>