<svg id="Capa_1" enable-background="new 0 0 512 512" height="512" viewBox="0 0 512 512" width="512" xmlns="http://www.w3.org/2000/svg"><g><g><g><path d="m265.076 261.353c13.641 4.835 26.214 11.979 37.245 20.956 0 0 0 0-.001 0 17.486-10.093 37.776-15.869 59.416-15.869 10.671 0 21.011 1.412 30.852 4.046.89-5.039 1.356-10.223 1.356-15.513 0-49.059-39.913-88.972-88.972-88.972-41.453 0-76.375 28.497-86.207 66.929 13.143 12.59 28.937 22.266 46.311 28.423z" fill="#f6c2e0"/></g><g><path d="m265.076 261.353c13.641 4.835 26.214 11.979 37.245 20.956 0 0 0 0-.001 0 17.486-10.093 37.776-15.869 59.416-15.869.341 0 .679.01 1.019.013.737-3.715 1.131-7.552 1.131-11.48 0-32.485-26.429-58.914-58.914-58.914-31.787 0-57.758 25.308-58.861 56.831 6.06 3.298 12.397 6.135 18.965 8.463z" fill="#fcd1e8"/></g><path d="m302.321 282.308c-.001.001-.001.001 0 0 8.294-4.787 17.221-8.603 26.623-11.292 3.083-4.591 4.885-10.111 4.885-16.044 0-15.911-12.944-28.856-28.856-28.856-15.911 0-28.856 12.944-28.856 28.856 0 4.374.983 8.521 2.732 12.24 8.391 4.167 16.265 9.232 23.472 15.096z" fill="#f6c2e0"/></g><g><g><path d="m189.967 200.014c1.648-15.708 4.692-34.135 10.198-53.106v-15.988c0-26.836-1.542-53.649-4.618-80.308l-4.905-42.51c-.093-.803-1.258-.803-1.351 0l-4.905 42.51c-3.076 26.659-4.618 53.473-4.618 80.308v15.988c5.507 18.971 8.551 37.398 10.199 53.106z" fill="#07b27b"/></g><g><g><path d="m209.222 222.726h-20.873c1.713-45.865 15.123-147.378 97.845-186.935.701-.335 1.326.585.757 1.114-14.581 13.551-70.814 72.784-77.729 185.821z" fill="#05e39c"/></g><g><path d="m170.712 222.726c-6.915-113.036-63.149-172.27-77.728-185.821-.569-.529.055-1.449.757-1.114 82.722 39.558 96.132 141.07 97.845 186.935z" fill="#05e39c"/></g></g></g><g><g><path d="m242.706 385.47c0-44.099 23.982-82.594 59.615-103.161-11.03-8.977-23.603-16.121-37.245-20.956-21.813-7.73-41.15-20.991-55.854-38.627h-38.509c-14.704 17.636-34.041 30.897-55.854 38.627-48.583 17.218-83.625 63.722-83.625 118.014 0 68.823 56.31 125.133 125.133 125.133h67.202c25.845 0 49.925-7.942 69.921-21.504-30.706-21.527-50.784-57.18-50.784-97.526z" fill="#e03d9c"/><path d="m242.706 385.47c0-29.566 10.784-56.61 28.627-77.425-8.894-21.326-21.633-37.865-36.509-46.692-13.027-7.731-24.576-20.991-33.358-38.627h-22.999c-8.781 17.636-20.33 30.897-33.358 38.627-29.015 17.218-49.943 63.722-49.943 118.014 0 68.823 33.63 125.133 74.732 125.133h40.134c23.199 0 44.016-17.942 57.751-45.944-15.712-20.173-25.077-45.535-25.077-73.086z" fill="#c53287"/><g><path d="m186.119 222.726h7.695c2.938 17.636 6.802 30.897 11.161 38.627 9.708 17.218 16.711 63.722 16.711 118.014 0 68.823-11.252 125.133-25.005 125.133h-13.429c-13.753 0-25.005-56.31-25.005-125.133 0-54.292 7.002-100.796 16.71-118.014 4.36-7.73 8.224-20.991 11.162-38.627z" fill="#e03d9c"/></g></g></g><g><g><circle cx="361.736" cy="385.47" fill="#fcd1e8" r="119.03"/></g><g><circle cx="361.736" cy="385.47" fill="#f6c2e0" r="88.972"/></g><g><circle cx="361.736" cy="385.47" fill="#fcd1e8" r="58.914"/></g><g><circle cx="361.736" cy="385.47" fill="#f6c2e0" r="28.856"/></g></g><g><path d="m400.888 265.147c.354-3.346.557-6.737.557-10.176 0-53.194-43.277-96.472-96.473-96.472-38.784 0-72.277 23.016-87.587 56.097 3.725-43.617 15.255-83.456 34.407-118.492 16.335-29.88 33.6-47.513 40.265-53.707 2.983-2.773 3.483-7.229 1.19-10.598-2.293-3.366-6.624-4.531-10.289-2.776-32.797 15.684-58.203 41.948-75.714 78.195-.641-19.21-2.052-38.454-4.246-57.467l-4.905-42.514c-.478-4.126-3.971-7.237-8.126-7.237-.001 0-.003 0-.005 0-4.157.003-7.648 3.119-8.12 7.242l-4.905 42.511c-2.194 19.01-3.605 38.254-4.247 57.465-17.511-36.247-42.916-62.509-75.708-78.19-3.671-1.761-8-.594-10.294 2.773-2.293 3.368-1.792 7.824 1.19 10.598 6.665 6.195 23.93 23.828 40.264 53.707 19.968 36.528 31.676 78.263 34.864 124.072-13.473 15.344-30.919 27.112-50.652 34.106-53.007 18.785-88.62 69.053-88.62 125.084-.001 73.133 59.498 132.632 132.632 132.632h67.201c25.658 0 49.626-7.342 69.947-20.009 19.698 12.659 43.118 20.009 68.222 20.009 69.77 0 126.53-56.761 126.53-126.53.001-56.11-36.714-103.797-87.378-120.323zm-95.916-91.647c44.924 0 81.473 36.548 81.473 81.472 0 2.137-.098 4.251-.266 6.346-4.891-.961-9.88-1.645-14.953-2.023.096-1.43.162-2.868.162-4.322 0-36.621-29.793-66.414-66.414-66.414-8.692 0-17.169 1.674-25.193 4.976-3.83 1.575-5.658 5.958-4.082 9.789 1.575 3.829 5.957 5.663 9.789 4.082 6.205-2.553 12.762-3.847 19.486-3.847 28.35 0 51.414 23.064 51.414 51.414 0 1.381-.076 2.742-.186 4.095-5.196.225-10.311.766-15.328 1.602.295-1.857.456-3.758.456-5.698 0-20.047-16.31-36.355-36.356-36.355-19.945 0-36.182 16.144-36.348 36.05-.348-.127-.693-.259-1.043-.383-4.674-1.656-9.214-3.589-13.608-5.765.973-7.692 3.673-15.069 7.966-21.623 2.27-3.466 1.3-8.114-2.165-10.384-3.466-2.27-8.114-1.3-10.384 2.165-4.403 6.722-7.507 14.115-9.231 21.849-4.532-3.037-8.84-6.372-12.9-9.977 10.4-33.026 41.294-57.049 77.711-57.049zm-31.527 121.43c-6.492-12.75-14.449-23.59-23.562-31.729 4.124 1.937 8.355 3.685 12.688 5.22 9.557 3.387 18.457 7.949 26.6 13.453-5.59 3.929-10.848 8.298-15.726 13.056zm10.171-39.958c0-11.775 9.58-21.355 21.355-21.355 11.776 0 21.356 9.58 21.356 21.355 0 3.505-.865 6.807-2.367 9.728-7.26 2.276-14.236 5.195-20.87 8.68-5.748-4.328-11.874-8.22-18.345-11.606-.721-2.14-1.129-4.422-1.129-6.802zm-69.725-125.38c8.551-22.17 19.806-40.863 33.656-55.953-19.568 30.759-40.168 77.376-45.313 141.587h-3.498c-.277-4.754-.675-9.864-1.226-15.245 2.229-20.848 6.9-45.81 16.381-70.389zm-26.622 1.328c0-20.303.906-40.772 2.698-61.074 1.792 20.303 2.698 40.773 2.698 61.074v14.979c-.967 3.38-1.875 6.747-2.697 10.082-.827-3.356-1.725-6.739-2.699-10.141zm-54.886-57.287c13.853 15.091 25.109 33.786 33.661 55.959 11.926 30.919 16.257 62.467 17.665 85.634h-6.008c-5.146-64.216-25.748-110.833-45.318-141.593zm-5.416 395.599c-12.8-18.778-21.173-44.657-23.576-72.869-.352-4.128-3.99-7.189-8.109-6.836-4.127.352-7.188 3.982-6.836 8.109 2.618 30.741 11.897 59.168 26.127 80.044 4.11 6.029 8.562 11.31 13.276 15.816-51.128-12.78-89.115-59.1-89.115-114.131 0-49.691 31.599-94.276 78.63-110.944 4.314-1.529 8.529-3.268 12.636-5.195-22.493 19.999-38.042 56.107-41.569 98.146-.347 4.128 2.719 7.755 6.847 8.101 4.104.329 7.755-2.719 8.101-6.847 3.636-43.338 21.52-80.558 45.561-94.824 8.973-5.325 17.228-12.964 24.443-22.523-1.565 5.141-3.237 9.34-4.957 12.391-10.738 19.046-17.678 66.815-17.678 121.697 0 33.765 2.66 65.672 7.491 89.845 2.326 11.642 4.99 20.796 8.064 27.604-14.231-1.402-28.078-11.067-39.336-27.584zm69.089 27.768h-12.178c-2.007-1.628-7.333-10.42-11.837-35.511-4.059-22.611-6.294-51.776-6.294-82.122 0-50.875 6.475-97.89 15.744-114.33 3.193-5.663 6.029-13.535 8.476-23.511 2.447 9.976 5.283 17.848 8.476 23.511 9.27 16.44 15.744 63.455 15.744 114.33 0 30.346-2.235 59.511-6.294 82.122-4.504 25.09-9.83 33.883-11.837 35.511zm17.573-.179c3.074-6.809 5.739-15.964 8.066-27.609 4.831-24.173 7.491-56.081 7.491-89.845 0-54.882-6.939-102.651-17.678-121.697-1.72-3.051-3.391-7.25-4.956-12.391 7.216 9.559 15.471 17.199 24.444 22.525 12.297 7.297 23.464 21.12 31.65 39.074-17.169 21.601-27.441 48.918-27.441 78.592 0 27.468 8.802 52.917 23.729 73.683-11.585 21.67-27.667 35.948-45.305 37.668zm38.536-3.343c6.179-5.938 11.906-13.231 17.037-21.808 3.51 3.766 7.246 7.317 11.187 10.633-8.787 4.872-18.248 8.673-28.224 11.175zm109.571 3.522c-61.498 0-111.53-50.032-111.53-111.53s50.032-111.53 111.53-111.53 111.53 50.032 111.53 111.53-50.032 111.53-111.53 111.53z"/><path d="m450.553 394.63c-4.062-.767-7.992 1.908-8.761 5.979-7.251 38.436-40.92 66.332-80.056 66.332-44.924 0-81.473-36.548-81.473-81.472s36.549-81.472 81.473-81.472c38.254 0 71.773 27.15 79.702 64.558.858 4.052 4.845 6.639 8.892 5.781 4.053-.858 6.642-4.84 5.782-8.893-9.389-44.296-49.08-76.446-94.376-76.446-53.195 0-96.473 43.277-96.473 96.472s43.277 96.472 96.473 96.472c46.342 0 86.209-33.035 94.796-78.551.768-4.07-1.909-7.993-5.979-8.76z"/><path d="m361.736 319.056c-36.621 0-66.414 29.793-66.414 66.414s29.793 66.414 66.414 66.414 66.414-29.793 66.414-66.414-29.793-66.414-66.414-66.414zm0 117.828c-28.35 0-51.414-23.064-51.414-51.414s23.064-51.414 51.414-51.414 51.414 23.064 51.414 51.414-23.064 51.414-51.414 51.414z"/><path d="m361.736 349.114c-20.047 0-36.356 16.309-36.356 36.355s16.31 36.355 36.356 36.355 36.355-16.309 36.355-36.355-16.308-36.355-36.355-36.355zm0 57.711c-11.776 0-21.356-9.58-21.356-21.355s9.58-21.355 21.356-21.355c11.775 0 21.355 9.58 21.355 21.355s-9.579 21.355-21.355 21.355z"/></g></g></svg>