<svg id="Capa_1" enable-background="new 0 0 512 512" height="512" viewBox="0 0 512 512" width="512" xmlns="http://www.w3.org/2000/svg"><path d="m471.298 135.188c-29.605-74.018-117.336-93.808-185.786-59.382-41.952 21.099-81.525 44.155-154.766 53.721-101.64 13.275-154.267 129.023-103.892 229.186 130.933 260.339 498.146-89.262 444.444-223.525z" fill="#d29380"/><path d="m453.53 104.56c-37.93-17.51-85.09-16.09-125.52 4.24-41.95 21.1-81.52 44.16-154.76 53.72-101.64 13.28-154.27 129.03-103.9 229.19 9.2 18.3 19.57 33.58 30.89 46.14-28.36-14.32-53.58-39.75-73.39-79.14-50.37-100.16 2.26-215.91 103.9-229.18 73.24-9.57 112.81-32.62 154.76-53.72 57.79-29.07 129.33-19.49 168.02 28.75z" fill="#c97e67"/><path d="m503.205 346.573c-8.743 57.617-123.069 103.615-233.064 103.615-58.172-1.034-105.084-60.12-105.084-132.85 0-73.379 47.741-132.859 106.622-132.859 10.423 0 20.496 1.863 30.013 5.34 38.888 15.689 70.607 18.974 101.419 23.657 64.682 9.816 109.714 69.713 100.094 133.097z" fill="#c97e67"/><path d="m378.309 317.337c0 66.826-42.019 132.85-108.168 132.85-58.172-1.034-105.084-60.12-105.084-132.85 0-73.379 47.741-132.859 106.622-132.859 61.699.001 106.63 62.836 106.63 132.859z" fill="#ffdd81"/><path d="m288.86 448.35c-6 1.21-12.24 1.84-18.72 1.84-58.17-1.04-105.08-60.12-105.08-132.85 0-73.38 47.74-132.86 106.62-132.86 6.04 0 11.92.6 17.61 1.76-50.61 10.34-89.23 65.1-89.23 131.1 0 65.8 38.4 120.43 88.8 131.01z" fill="#fed22b"/><path d="m466.89 234.177c11.429-25.277 17.224-48.53 17.224-69.19 0-55.038-52.016-113.067-130.013-113.067-66.2 0-88.622 35.601-167.129 58.427-3.977 1.157-6.265 5.318-5.108 9.296 1.157 3.977 5.322 6.266 9.296 5.108 19.468-5.66 36.271-12.367 51.757-19.452 14.057 10.756 16.307 22.604 16.419 23.249.581 3.689 3.766 6.332 7.398 6.332.367 0 .738-.027 1.111-.082 4.098-.608 6.926-4.423 6.317-8.52-.099-.665-2.328-14.588-16.428-28.027 30.896-15.19 54.597-31.33 96.368-31.33 50.457 0 92.693 27.229 110.226 71.062 10.719 26.786 1.737 60.66-9.811 87.09-43.448-28.089-76.781-14.57-143.669-39.728-33.432-14.835-72.777-10.452-104.65 17.107-1.98-8.297-6.256-19.085-15.375-30.256-2.618-3.209-7.344-3.689-10.553-1.068-3.209 2.619-3.687 7.344-1.068 10.553 13.507 16.548 13.75 31.273 13.645 34.263-54.689 64.338-44.148 174.946 20.657 222.253-28.918 7.769-58.957 9.796-87.378 1.735-3.982-1.129-8.132 1.186-9.262 5.17s1.185 8.131 5.17 9.262c35.764 10.143 73.556 5.914 109.007-5.766 13.305 6.21 27.597 9.093 39.094 9.093 109.94 0 230.751-45.912 240.475-109.987 6.696-44.121-11.283-86.489-43.72-113.527zm28.891 111.272c-6.313 41.596-79.317 80.151-166.043 92.848 9.294-6.7 17.796-15.057 25.271-24.956 19.569-25.913 30.792-60.905 30.792-96.002.001-11.501-1.163-23.01-3.461-34.207-.832-4.059-4.806-6.672-8.853-5.84-4.058.832-6.673 4.796-5.84 8.853 2.094 10.208 3.155 20.702 3.154 31.193 0 66.094-42.876 129.435-104.586 125.165-38.937-2.753-73.758-34.973-87.468-81.503-26.955-91.394 36.499-186.795 113.365-166.336 31.274 8.304 54.615 34.12 67.175 64.224 1.596 3.824 5.992 5.63 9.809 4.034 3.823-1.595 5.629-5.987 4.034-9.809-6.598-15.813-15.518-29.869-26.203-41.464 49.01 10.916 72.521 5.745 105.402 30.14.437.428.931.807 1.481 1.125 30.728 23.598 48.086 62.241 41.971 102.535z"/><path d="m411.818 248.969c-3.57 2.101-4.762 6.697-2.662 10.267 9.715 16.513 6.93 29.266 6.77 29.948-.999 3.99 1.404 8.046 5.393 9.08 3.998 1.04 8.1-1.361 9.141-5.378.198-.766 4.712-19.006-8.376-41.255-2.1-3.57-6.697-4.762-10.266-2.662z"/><path d="m451.821 322.825c-4.048.876-6.619 4.868-5.743 8.917 4.055 18.733-2.594 29.975-2.953 30.563-2.196 3.476-1.185 8.08 2.279 10.31 3.488 2.247 8.126 1.234 10.366-2.243.429-.665 10.428-16.577 4.968-41.804-.877-4.048-4.864-6.623-8.917-5.743z"/><path d="m413.902 163.848c.257.026.511.039.764.039 3.803 0 7.062-2.882 7.453-6.746.092-.908 2.032-22.505-16.924-45.731-2.618-3.209-7.343-3.689-10.553-1.068-3.209 2.619-3.687 7.344-1.068 10.553 14.759 18.084 13.681 33.999 13.617 34.792-.387 4.097 2.607 7.746 6.711 8.161z"/><path d="m118.499 187.901c3.803 0 7.062-2.882 7.453-6.746.085-.837 1.727-19.272-12.881-40.349 16.1-4.563 21.59-3.316 48.374-8.757 4.059-.824 6.682-4.783 5.857-8.842-.823-4.059-4.785-6.683-8.842-5.857-9.18 1.863-18.831 3.462-28.683 4.749-79.019 10.317-129.777 79.299-129.777 156.625 0 28.724 6.779 56.769 20.15 83.357 18.696 37.175 43.133 64.2 72.634 80.323 1.142.624 2.374.92 3.59.92 7.714 0 10.416-10.359 3.603-14.082-45.431-24.831-84.977-87.11-84.977-150.518 0-60.555 33.497-111.763 83.271-132.725 13.841 17.626 12.815 32.924 12.752 33.701-.413 4.386 3.034 8.201 7.476 8.201z"/><path d="m67.04 336.612c.257.026.511.039.764.039 3.803 0 7.062-2.882 7.453-6.746.092-.908 2.032-22.505-16.924-45.731-2.618-3.208-7.343-3.688-10.553-1.068-3.209 2.619-3.687 7.344-1.068 10.553 14.759 18.084 13.681 33.999 13.617 34.792-.387 4.097 2.607 7.746 6.711 8.161z"/><path d="m126.366 398.489c-.386 4.099 2.608 7.747 6.712 8.162.257.026.511.039.764.039 3.803 0 7.062-2.882 7.453-6.746.092-.908 2.032-22.506-16.924-45.731-2.618-3.208-7.344-3.689-10.553-1.068-3.209 2.619-3.687 7.344-1.068 10.553 14.758 18.082 13.68 33.998 13.616 34.791z"/><path d="m91.721 236.555c.257.026.511.039.764.039 3.803 0 7.062-2.882 7.453-6.746.092-.908 2.032-22.505-16.924-45.731-2.618-3.208-7.343-3.689-10.553-1.068-3.209 2.619-3.687 7.344-1.068 10.553 14.759 18.084 13.681 33.999 13.617 34.792-.387 4.098 2.607 7.746 6.711 8.161z"/><path d="m356.298 133.213c.463 3.798 3.693 6.594 7.435 6.594.285 0 .573-.017.863-.05 4.115-.472 7.069-4.189 6.598-8.305-.104-.907-2.813-22.422-26.289-41.07-3.243-2.578-7.961-2.037-10.537 1.207-2.577 3.243-2.036 7.961 1.207 10.537 18.276 14.518 20.618 30.297 20.723 31.087z"/></svg>