<svg id="Capa_1" enable-background="new 0 0 512 512" height="512" viewBox="0 0 512 512" width="512" xmlns="http://www.w3.org/2000/svg"><g><path d="m81.44 173.956c2.613-25.119 24.001-44.874 49.782-44.874h26.951c4.394 0 8.658.58 12.726 1.656.367-10.979 4.311-21.087 10.702-29.196-1.306-2.117-2.785-4.161-4.443-6.112-17.823-20.979-49.571-23.562-70.551-5.739l-20.54 17.449c-19.841 16.856-23.216 46.161-8.449 67.039 1.26-.127 2.537-.193 3.822-.223z" fill="#ea9b58"/><g><g><path d="m297.91 132.415c0 2.229-.163 4.421-.449 6.575.462-.013.922-.04 1.387-.04h26.952c22.401 0 41.486 14.916 47.819 35.305 3.071.349 6.057.988 8.938 1.872 10.972-19.12 8.323-44.078-7.965-60.367l-19.057-19.057c-19.466-19.465-51.318-19.465-70.784 0-.324.324-.629.661-.942.991 8.713 9.018 14.101 21.267 14.101 34.721z" fill="#f6a96c"/></g><path d="m297.91 132.415c0 2.229-.163 4.421-.449 6.575.462-.013.922-.04 1.387-.04h1.737c2.376-7.08 6.36-13.726 11.974-19.339 14.926-14.926 37.13-18.393 55.453-10.429l-12.479-12.479c-19.466-19.465-51.318-19.465-70.784 0-.324.324-.629.661-.942.991 8.715 9.018 14.103 21.267 14.103 34.721z" fill="#ea9b58"/></g><g><path d="m94.868 213.429c-8.475-8.976-13.698-21.052-13.698-34.295 0-1.748.093-3.475.27-5.178-23.38.56-42.918 17.346-47.713 39.474h61.141z" fill="#f6a96c"/><g><path d="m416.889 213.429c-4.489-20.71-21.891-36.744-43.27-39.174 1.449 4.667 2.233 9.619 2.233 14.746 0 8.857-2.342 17.19-6.422 24.427h47.459z" fill="#ffbd86"/></g></g><path d="m272.286 384.129c0-4.458.599-8.78 1.706-12.901h-149.809v40.061c0 2.761 2.239 5 5 5h154.89c-7.343-8.714-11.787-19.941-11.787-32.16z" fill="#fee97d"/><g><path d="m172 411.29v-40.061h-47.817v40.061c0 2.761 2.239 5 5 5h47.817c-2.761 0-5-2.239-5-5z" fill="#fedf30"/></g><g><g><path d="m204.183 159.496c5.829-2.392 12.195-3.722 18.86-3.722h26.951c3.612 0 7.134.397 10.533 1.133 8.921-10.625 22.154-17.509 36.934-17.917.286-2.154.449-4.346.449-6.575 0-27.528-22.523-50.052-50.052-50.052h-26.951c-26.966 0-49.115 21.616-50.009 48.375 14.973 3.962 27.251 14.73 33.285 28.758z" fill="#ffbd86"/></g><path d="m204.183 159.496c5.829-2.392 12.195-3.722 18.86-3.722h3.796c-3.719-6.984-5.839-14.934-5.839-23.36 0-23.538 16.472-43.404 38.455-48.672-3.727-.893-7.606-1.38-11.597-1.38h-26.951c-26.966 0-49.115 21.616-50.009 48.375 14.973 3.963 27.251 14.731 33.285 28.759z" fill="#f6a96c"/></g><g><path d="m204.183 159.496c-7.674-17.839-25.443-30.414-46.01-30.414h-26.951c-27.528 0-50.052 22.523-50.052 50.052 0 13.243 5.223 25.319 13.698 34.295h78.704c-.382-2.481-.581-5.02-.581-7.603 0-20.864 12.943-38.843 31.192-46.33z" fill="#ffbd86"/><path d="m137.633 213.429c-8.474-8.974-13.687-21.054-13.687-34.295 0-24.837 18.337-45.593 42.14-49.415-2.579-.414-5.221-.636-7.912-.636h-26.951c-27.528 0-50.052 22.523-50.052 50.052 0 13.243 5.223 25.319 13.698 34.295h42.764z" fill="#f6a96c"/></g><path d="m325.8 138.95h-26.951c-15.341 0-29.121 7-38.321 17.957 22.514 4.873 39.518 25.002 39.518 48.919 0 2.583-.199 5.122-.581 7.603h69.965c4.08-7.237 6.422-15.57 6.422-24.427-.001-27.529-22.524-50.052-50.052-50.052z" fill="#ea9b58"/><g><path d="m299.465 213.429c.382-2.481.581-5.02.581-7.603 0-27.529-22.523-50.052-50.052-50.052h-26.951c-27.528 0-50.052 22.523-50.052 50.052 0 2.583.199 5.122.581 7.603z" fill="#f6a96c"/><path d="m215.592 213.429c-.383-2.482-.592-5.019-.592-7.603 0-24.971 18.533-45.822 42.523-49.481-2.457-.375-4.971-.571-7.529-.571h-26.951c-27.528 0-50.052 22.523-50.052 50.052 0 2.583.199 5.123.581 7.603z" fill="#ea9b58"/></g><g><path d="m322.338 334.078h5.37c-.283-2.142-.444-4.32-.444-6.535 0-27.528 22.523-50.052 50.052-50.052h26.951c12.839 0 24.587 4.903 33.472 12.924 3.489-11.03 5.377-22.772 5.377-34.956v-37.029c0-2.761-2.239-5-5-5h-425.616c-2.761 0-5 2.239-5 5v37.029c0 63.938 51.832 115.77 115.77 115.77h150.721c5.729-21.328 25.276-37.151 48.347-37.151z" fill="#fedf30"/></g><g><path d="m85 255.458v-37.029c0-2.761 2.239-5 5-5h-77.5c-2.761 0-5 2.239-5 5v37.029c0 63.938 51.832 115.77 115.77 115.77h77.5c-63.938.001-115.77-51.832-115.77-115.77z" fill="#fed402"/></g><g><path d="m349.289 334.078c15.784 0 29.913 7.413 39.104 18.921 9.191-11.508 23.32-18.921 39.104-18.921h26.378c.283-2.142.444-4.32.444-6.535 0-27.528-22.523-50.052-50.052-50.052h-26.951c-27.528 0-50.052 22.523-50.052 50.052 0 2.216.161 4.394.444 6.535z" fill="#f6a96c"/><path d="m349.289 334.078c9.321 0 18.064 2.589 25.558 7.074-1.233-4.332-1.901-8.895-1.901-13.609 0-24.329 17.596-44.736 40.687-49.154-3.037-.581-6.165-.897-9.365-.897h-26.951c-27.528 0-50.052 22.523-50.052 50.052 0 2.216.161 4.394.444 6.535h21.58z" fill="#ea9b58"/></g><g><path d="m377.445 384.129c0-11.744 4.109-22.569 10.947-31.131-9.191-11.508-23.32-18.921-39.104-18.921h-26.951c-27.528 0-50.052 22.523-50.052 50.052 0 27.529 22.523 50.052 50.052 50.052h26.951c15.784 0 29.913-7.413 39.104-18.921-6.837-8.562-10.947-19.386-10.947-31.131z" fill="#ffbd86"/><g><path d="m314.945 384.129c0-24.857 18.366-45.628 42.197-49.426-2.561-.408-5.183-.626-7.854-.626h-26.951c-27.528 0-50.052 22.523-50.052 50.052 0 27.529 22.523 50.052 50.052 50.052h26.951c2.671 0 5.293-.218 7.854-.626-23.83-3.798-42.197-24.568-42.197-49.426z" fill="#f6a96c"/></g></g><g><g><path d="m454.448 434.181h-26.951c-27.528 0-50.052-22.523-50.052-50.052 0-27.528 22.523-50.052 50.052-50.052h26.951c27.528 0 50.052 22.523 50.052 50.052 0 27.529-22.523 50.052-50.052 50.052z" fill="#f6a96c"/></g><g><path d="m419.945 384.129c0-24.885 18.407-45.676 42.277-49.44-2.535-.4-5.131-.612-7.775-.612h-26.951c-27.528 0-50.052 22.523-50.052 50.052 0 27.529 22.523 50.052 50.052 50.052h26.951c2.643 0 5.239-.212 7.775-.611-23.87-3.764-42.277-24.555-42.277-49.441z" fill="#ea9b58"/></g></g><g><path d="m133.107 113.738c1.716 0 3.442-.586 4.853-1.784l5.696-4.839c3.157-2.682 3.542-7.415.86-10.571-2.682-3.158-7.414-3.542-10.572-.86l-5.696 4.839c-3.157 2.682-3.542 7.415-.86 10.571 1.484 1.747 3.594 2.644 5.719 2.644z"/><path d="m311.91 114.842 5.285 5.284c1.465 1.464 3.384 2.196 5.303 2.196s3.839-.732 5.304-2.197c2.929-2.929 2.928-7.678 0-10.606l-5.285-5.284c-2.93-2.928-7.678-2.929-10.607.001-2.929 2.928-2.929 7.677 0 10.606z"/><path d="m210.36 126.035c4.142 0 7.5-3.357 7.5-7.5s-3.358-7.5-7.5-7.5h-7.474c-4.142 0-7.5 3.357-7.5 7.5s3.358 7.5 7.5 7.5z"/><path d="m257.338 119.629h7.474c4.142 0 7.5-3.357 7.5-7.5s-3.358-7.5-7.5-7.5h-7.474c-4.142 0-7.5 3.357-7.5 7.5s3.358 7.5 7.5 7.5z"/><path d="m113.201 172.754h7.474c4.142 0 7.5-3.357 7.5-7.5s-3.358-7.5-7.5-7.5h-7.474c-4.142 0-7.5 3.357-7.5 7.5s3.358 7.5 7.5 7.5z"/><path d="m142.028 194.997h7.474c4.142 0 7.5-3.357 7.5-7.5s-3.358-7.5-7.5-7.5h-7.474c-4.142 0-7.5 3.357-7.5 7.5s3.358 7.5 7.5 7.5z"/><path d="m167.653 166.348h7.474c4.142 0 7.5-3.357 7.5-7.5s-3.358-7.5-7.5-7.5h-7.474c-4.142 0-7.5 3.357-7.5 7.5s3.358 7.5 7.5 7.5z"/><path d="m336.347 196.997h7.474c4.142 0 7.5-3.357 7.5-7.5s-3.358-7.5-7.5-7.5h-7.474c-4.142 0-7.5 3.357-7.5 7.5s3.358 7.5 7.5 7.5z"/><path d="m307.52 174.21h7.474c4.142 0 7.5-3.357 7.5-7.5s-3.358-7.5-7.5-7.5h-7.474c-4.142 0-7.5 3.357-7.5 7.5s3.357 7.5 7.5 7.5z"/><path d="m212.496 184.446h-7.474c-4.142 0-7.5 3.357-7.5 7.5s3.358 7.5 7.5 7.5h7.474c4.142 0 7.5-3.357 7.5-7.5s-3.358-7.5-7.5-7.5z"/><path d="m266.947 178.04h-7.474c-4.142 0-7.5 3.357-7.5 7.5s3.358 7.5 7.5 7.5h7.474c4.142 0 7.5-3.357 7.5-7.5s-3.358-7.5-7.5-7.5z"/><path d="m359.295 321.162h7.474c4.142 0 7.5-3.357 7.5-7.5s-3.358-7.5-7.5-7.5h-7.474c-4.142 0-7.5 3.357-7.5 7.5s3.358 7.5 7.5 7.5z"/><path d="m413.747 314.756h7.474c4.142 0 7.5-3.357 7.5-7.5s-3.358-7.5-7.5-7.5h-7.474c-4.142 0-7.5 3.357-7.5 7.5s3.357 7.5 7.5 7.5z"/><path d="m311.79 362.75h-7.474c-4.142 0-7.5 3.357-7.5 7.5s3.358 7.5 7.5 7.5h7.474c4.142 0 7.5-3.357 7.5-7.5s-3.358-7.5-7.5-7.5z"/><path d="m340.618 393.713h-7.474c-4.142 0-7.5 3.357-7.5 7.5s3.358 7.5 7.5 7.5h7.474c4.142 0 7.5-3.357 7.5-7.5s-3.358-7.5-7.5-7.5z"/><path d="m461.807 327.065c-.123-15.024-6.033-28.686-15.605-38.879 2.013-7.328 3.365-14.874 3.994-22.564.337-4.128-2.736-7.748-6.864-8.086-4.129-.34-7.749 2.736-8.086 6.865-.372 4.553-1.033 9.049-1.965 13.469-8.526-4.999-18.437-7.88-29.014-7.88h-26.951c-31.433 0-57.045 25.333-57.529 56.653-23.448 1.028-43.288 16.15-51.253 37.086h-145.263c-59.701 0-108.271-48.57-108.271-108.27v-34.529h420.615v9.082c0 4.143 3.358 7.5 7.5 7.5s7.5-3.357 7.5-7.5v-11.582c0-6.893-5.607-12.5-12.5-12.5h-15.513c-4.936-14.909-15.81-27.128-29.808-33.853 2.553-6.573 3.896-13.639 3.896-20.924 0-15.412-5.965-29.864-16.796-40.695l-19.057-19.058c-21.05-21.05-54.483-22.353-77.066-3.908-9.852-7.892-22.336-12.628-35.912-12.628h-26.951c-14.882 0-28.451 5.689-38.677 14.992-20.654-23.513-56.542-26.219-80.51-5.856l-.097.083c-3.143 2.698-3.503 7.434-.805 10.576s7.433 3.504 10.576.805l.067-.058c17.881-15.191 44.788-13.001 59.979 4.879.335.394.644.801.962 1.204-3.916 6.121-6.701 13.028-8.071 20.427-2.025-.217-4.079-.335-6.16-.335h-26.951c-24.135 0-44.834 14.94-53.37 36.053-3.995-13.461-1.297-28.632 8.122-39.798 2.671-3.167 2.269-7.898-.897-10.569-3.166-2.669-7.898-2.267-10.568.897-8.665 10.273-13.467 23.397-13.522 36.957-.034 8.258 1.716 16.354 5.037 23.764-17.905 5.415-32.149 19.333-38.012 37.044h-15.511c-6.893 0-12.5 5.607-12.5 12.5v37.029c0 65.761 51.762 119.657 116.683 123.093v32.737c0 6.893 5.607 12.5 12.5 12.5h51.817c4.142 0 7.5-3.357 7.5-7.5s-3.358-7.5-7.5-7.5h-49.317v-30.061h133.365c-.166 1.779-.261 3.579-.261 5.401 0 8.82 2 17.18 5.562 24.659h-54.349c-4.142 0-7.5 3.357-7.5 7.5s3.358 7.5 7.5 7.5h64.691c10.49 11.01 25.274 17.893 41.646 17.893h26.951c15.087 0 28.822-5.852 39.095-15.385 10.275 9.538 24.021 15.385 39.113 15.385h26.951c31.734 0 57.552-25.817 57.552-57.552.001-29.238-21.923-53.437-50.192-57.063zm-281.316-121.239c0-23.463 19.089-42.552 42.552-42.552h26.951c23.463 0 42.552 19.089 42.552 42.552 0 .035-.002.069-.002.104h-112.05c0-.035-.003-.069-.003-.104zm118.358-59.376h26.951c23.463 0 42.552 19.089 42.552 42.552 0 6.016-1.265 11.737-3.53 16.928h-57.278c0-.035.002-.069.002-.104 0-22.849-13.385-42.628-32.725-51.914 6.841-4.703 15.116-7.462 24.028-7.462zm107.625 59.48h-25.692c1.656-5.356 2.569-11.035 2.569-16.928 0-1.602-.083-3.184-.212-4.754 10.295 3.944 18.669 11.766 23.335 21.682zm-56.244-103.923 19.057 19.058c7.998 7.997 12.403 18.683 12.403 30.088 0 5.384-.995 10.601-2.875 15.456-1.972-4.651-4.55-8.98-7.616-12.913 2.55-2.946 2.434-7.403-.365-10.202l-5.285-5.285c-2.929-2.93-7.678-2.929-10.607-.001-.253.253-.477.524-.686.802-8.4-4.8-18.11-7.559-28.458-7.559h-20.414c-.205-12.362-4.318-23.786-11.167-33.086 7.614-5.86 16.764-8.8 25.923-8.8 10.897-.002 21.796 4.147 30.09 12.442zm-129.322-12.144h26.951c23.355 0 42.37 18.916 42.544 42.231-12.712 1.882-24.072 7.929-32.66 16.716-2.536-.343-5.119-.536-7.748-.536h-3.415c-.585-3.559-3.667-6.276-7.392-6.276h-7.474c-3.724 0-6.806 2.717-7.392 6.276h-1.279c-5.224 0-10.283.712-15.097 2.023-6.536-11.24-16.762-20.077-29.013-24.834 3.329-20.166 20.88-35.6 41.975-35.6zm-89.686 46.719h26.951c15.015 0 28.232 7.821 35.807 19.601-17.027 10.007-28.488 28.506-28.488 49.644 0 .035.002.069.002.104h-67.274c-5.959-7.321-9.549-16.642-9.549-26.796-.001-23.464 19.088-42.553 42.551-42.553zm-57.45 45.792c.473 8.465 2.775 16.449 6.531 23.555h-36.182c5.587-11.874 16.503-20.756 29.651-23.555zm303.544 102.616h26.951c23.14 0 42.011 18.57 42.527 41.588h-19.297c-15.092 0-28.838 5.847-39.113 15.385-10.273-9.533-24.008-15.385-39.095-15.385h-14.5c.516-23.018 19.387-41.588 42.527-41.588zm-54.979 141.692c-23.463 0-42.552-19.089-42.552-42.552s19.089-42.552 42.552-42.552h26.951c11.453 0 21.849 4.561 29.504 11.947-2.002 3.175-3.702 6.556-5.061 10.107-.113-4.044-3.419-7.288-7.489-7.288h-7.474c-4.142 0-7.5 3.357-7.5 7.5s3.358 7.5 7.5 7.5h7.474c2.386 0 4.507-1.118 5.881-2.854-1.408 4.977-2.178 10.219-2.178 15.64 0 11.242 3.252 21.732 8.847 30.604-7.654 7.387-18.051 11.947-29.504 11.947h-26.951zm132.111 0h-26.951c-23.463 0-42.552-19.089-42.552-42.552s19.089-42.552 42.552-42.552h26.951c23.463 0 42.552 19.089 42.552 42.552s-19.089 42.552-42.552 42.552z"/><path d="m416.95 362.75h-7.474c-4.142 0-7.5 3.357-7.5 7.5s3.358 7.5 7.5 7.5h7.474c4.142 0 7.5-3.357 7.5-7.5s-3.358-7.5-7.5-7.5z"/><path d="m445.777 393.713h-7.474c-4.142 0-7.5 3.357-7.5 7.5s3.358 7.5 7.5 7.5h7.474c4.142 0 7.5-3.357 7.5-7.5s-3.358-7.5-7.5-7.5z"/><path d="m471.402 356.344h-7.474c-4.142 0-7.5 3.357-7.5 7.5s3.358 7.5 7.5 7.5h7.474c4.142 0 7.5-3.357 7.5-7.5s-3.358-7.5-7.5-7.5z"/></g></g></svg>