<svg id="Capa_1" enable-background="new 0 0 512 512" height="512" viewBox="0 0 512 512" width="512" xmlns="http://www.w3.org/2000/svg"><g><g><g><path d="m436.469 222.47c2.352 2.352 6.213 2.301 8.452-.158 45.822-50.334 44.404-128.591-4.243-177.238s-126.904-50.064-177.237-4.242c-2.46 2.239-2.51 6.1-.158 8.452z" fill="#68ca44"/></g><g><path d="m419.985 205.987c38.699-38.699 38.682-101.461-.038-140.182s-101.482-38.738-140.182-.038z" fill="#d7f8c4"/></g><g><path d="m313.002 65.768c15.101-15.101 33.868-24.278 53.438-27.59-30.571-5.172-63.089 4.004-86.675 27.59l140.22 140.22c5.728-5.728 10.586-11.993 14.617-18.619z" fill="#bbf49b"/></g></g><g><path d="m97.697 183.124c16.101-9.244 34.38-15.056 53.81-16.425 4.187-9.357 9.95-18.197 17.297-26.109-4.179-15.835-12.498-30.858-24.968-43.328-25.45-25.45-61.526-33.658-93.465-24.517-9.141 31.938-.933 68.014 24.517 93.465 6.916 6.915 14.62 12.547 22.809 16.914z" fill="#3ec3a4"/><path d="m97.697 183.124c8.284-4.756 17.14-8.609 26.438-11.409-7.738-4.269-15.032-9.666-21.607-16.241-23.572-23.572-32.341-56.258-26.246-86.33-8.744-.005-17.472 1.186-25.91 3.602-9.141 31.938-.933 68.014 24.517 93.465 6.915 6.914 14.619 12.546 22.808 16.913z" fill="#0bb494"/></g><g><path d="m161.478 166.387c32.802.274 62.626 13.021 84.973 33.726 20.544-24.831 26.689-57.47 18.335-86.658-31.938-9.141-68.014-.933-93.465 24.517-8.56 8.56-15.16 18.325-19.815 28.727 3.293-.232 6.618-.34 9.972-.312z" fill="#3ec3a4"/><path d="m161.478 166.387c7.415.062 14.676.766 21.735 2.05 1.563-1.813 3.2-3.585 4.92-5.306 21.977-21.977 51.876-31.085 80.193-27.279-.276-7.564-1.448-15.09-3.54-22.398-31.938-9.141-68.014-.933-93.465 24.517-8.56 8.56-15.16 18.325-19.815 28.727 3.293-.231 6.618-.339 9.972-.311z" fill="#0bb494"/></g><path d="m210.597 379.543c0-50.435 30.28-93.926 73.614-113.262-12.207-56.76-62.444-99.391-122.733-99.894-69.253-.578-126.596 55.307-127.715 124.553-.933 57.726 36.762 106.789 88.926 123.036 4.939 1.538 9.242 4.659 12.081 8.984 5.571 8.488 15.121 13.844 25.629 13.844 10.505 0 20.054-5.353 25.625-13.838 2.851-4.342 7.179-7.46 12.138-9.006 5.402-1.685 10.637-3.742 15.701-6.104-2.133-9.097-3.266-18.575-3.266-28.313z" fill="#68ca44"/><g><path d="m185.72 406.156c-2.838-4.325-7.142-7.446-12.081-8.984-52.164-16.247-89.859-65.31-88.926-123.036.737-45.575 25.83-85.359 62.642-107.07-62.759 6.514-112.55 59.397-113.592 123.874-.933 57.726 36.762 106.789 88.926 123.036 4.939 1.538 9.242 4.659 12.081 8.984 5.571 8.488 15.121 13.844 25.629 13.844 10.505 0 20.054-5.353 25.625-13.838 2.215-3.373 5.327-5.995 8.928-7.728-3.659-2.321-6.82-5.406-9.232-9.082z" fill="#4fc123"/></g><g><g><path d="m322.221 145.591c.877 0 1.686.467 2.122 1.226l20.897 36.344c2.702 4.314 4.129 9.289 4.129 14.387 0 14.969-12.177 27.147-27.149 27.147-14.967 0-27.147-12.177-27.147-27.147 0-5.098 1.429-10.073 4.127-14.387l20.902-36.344c.435-.759 1.246-1.226 2.119-1.226z" fill="#d7f8c4"/></g></g><g><path d="m320.706 197.548c0-5.098 1.429-10.073 4.127-14.387l10.205-17.744-10.695-18.6c-.436-.758-1.245-1.226-2.122-1.226-.873 0-1.684.467-2.118 1.226l-20.902 36.344c-2.698 4.314-4.127 9.289-4.127 14.387 0 14.969 12.18 27.147 27.147 27.147 4.633 0 8.997-1.169 12.817-3.223-8.523-4.584-14.332-13.587-14.332-23.924z" fill="#bbf49b"/></g><g><g><circle cx="334.554" cy="379.543" fill="#4fc123" r="124.957"/></g><g><circle cx="334.554" cy="379.543" fill="#d7f8c4" r="96.686"/></g><g><path d="m271.63 379.543c0-47.555 34.512-87.2 79.805-95.208-5.483-.969-11.124-1.478-16.881-1.478-53.313 0-96.686 43.373-96.686 96.686s43.373 96.686 96.686 96.686c5.757 0 11.398-.508 16.881-1.478-45.293-8.008-79.805-47.652-79.805-95.208z" fill="#bbf49b"/></g><g><circle cx="334.554" cy="379.543" fill="#fff" r="14.135"/></g></g><g><path d="m455.503 50.343c-2.609-3.215-7.333-3.709-10.549-1.101-3.217 2.609-3.71 7.332-1.101 10.55 18.087 22.3 27.625 50.494 26.858 79.388-.754 28.41-11.449 55.6-30.157 76.769l-10.148-10.148c16.884-19.39 26.1-43.933 26.093-69.898-.008-28.479-11.105-55.257-31.249-75.4-39.798-39.797-103.466-41.515-145.295-5.153l-10.151-10.151c20.18-17.829 46.06-28.467 73.08-30.004 27.397-1.551 54.712 6.265 76.917 22.027 3.376 2.396 8.06 1.604 10.457-1.775 2.398-3.377 1.604-8.059-1.774-10.457-24.968-17.724-55.668-26.524-86.452-24.771-31.035 1.765-60.739 14.219-83.641 35.066-2.668 2.43-4.247 5.898-4.331 9.517-.085 3.644 1.343 7.21 3.919 9.785l173.187 173.187c2.503 2.503 5.942 3.922 9.477 3.922.104 0 .207-.001.31-.003 3.619-.085 7.086-1.664 9.515-4.332 21.858-24.011 34.373-55.186 35.239-87.782.861-32.468-9.866-64.158-30.204-89.236zm-14.004 85.564c.001 2.879-.138 5.737-.398 8.569l-67.077-11.923 61.356-29.607c3.999 10.38 6.116 21.505 6.119 32.961zm-150.912-69.925c10.699-9.087 23.017-15.295 35.929-18.67l11.802 66.401zm50.7-21.281c13.991-1.297 28.222.609 41.503 5.708l-29.589 61.32zm55.013 12.226c6.549 3.852 12.727 8.566 18.344 14.183 5.565 5.565 10.315 11.725 14.214 18.327l-62.89 30.347zm-24.261 90.507 66.468 11.815c-3.44 13.163-9.786 25.401-18.735 35.919z"/><path d="m322.221 232.194c19.105 0 34.649-15.542 34.649-34.646 0-6.459-1.796-12.764-5.194-18.242l-20.832-36.229c-1.769-3.075-5.073-4.985-8.623-4.985-3.553 0-6.857 1.914-8.62 4.986l-20.837 36.231c-3.396 5.482-5.19 11.786-5.19 18.239 0 19.104 15.542 34.646 34.647 34.646zm-16.661-45.057c.049-.078.096-.157.142-.237l16.52-28.725 16.516 28.724c.047.082.096.163.146.242 1.954 3.119 2.986 6.718 2.986 10.407 0 10.833-8.814 19.646-19.649 19.646-10.833 0-19.647-8.813-19.647-19.646 0-3.687 1.033-7.287 2.986-10.411z"/><path d="m334.554 247.087c-15.561 0-30.947 2.779-45.417 8.06-6.084-20.773-17.188-39.854-32.692-55.75 18.217-25.321 24.219-57.721 15.552-88.005-.712-2.489-2.658-4.435-5.147-5.147-33.003-9.443-68.527-1.481-94.653 20.743-2.424-6.101-5.434-12.012-9.044-17.633-2.239-3.486-6.878-4.496-10.364-2.258-3.485 2.238-4.496 6.878-2.257 10.363 4.292 6.683 7.583 13.843 9.9 21.26-5.295 6.208-9.776 12.95-13.415 20.064l-53.273-53.274c-2.929-2.928-7.678-2.928-10.606 0-2.929 2.93-2.929 7.678 0 10.607l46.386 46.386c-11.184 2.661-21.842 6.728-31.772 12.01-6.311-3.737-12.226-8.274-17.559-13.607-21.649-21.648-30.522-52.729-23.673-82.01 24.693-5.753 51.286-.278 71.92 14.983 3.33 2.463 8.026 1.763 10.49-1.569 2.463-3.33 1.76-8.026-1.57-10.489-25.497-18.861-58.788-24.946-89.052-16.287-2.489.713-4.435 2.658-5.147 5.147-10.212 35.684-.087 74.32 26.425 100.832 4.354 4.354 9.042 8.252 13.984 11.703-34.013 23.892-56.587 63.145-57.306 107.602-.479 29.631 8.515 57.86 26.01 81.639 16.891 22.957 41.106 40.245 68.186 48.68 3.358 1.046 6.213 3.154 8.04 5.938 7.079 10.787 19.004 17.228 31.899 17.228 12.891 0 24.814-6.438 31.894-17.221 1.83-2.786 4.708-4.904 8.102-5.963 2.544-.794 5.061-1.673 7.55-2.624 16.674 54.087 67.123 93.505 126.609 93.505 73.037 0 132.457-59.42 132.457-132.457-.001-73.036-59.421-132.456-132.457-132.456zm-157.929-103.812c21.65-21.65 52.731-30.522 82.013-23.672 5.628 24.052.644 49.315-13.314 69.571-8.632-7.084-18.025-13-27.979-17.671l14.676-14.676c2.929-2.93 2.929-7.678 0-10.607-2.929-2.928-7.678-2.928-10.606 0l-19.267 19.267c-12.138-3.96-24.899-6.186-37.979-6.546 3.508-5.601 7.659-10.869 12.456-15.666zm157.929 353.725c-64.766 0-117.457-52.691-117.457-117.457 0-24.252 7.333-47.533 21.208-67.327 2.377-3.392 1.555-8.068-1.837-10.446-3.391-2.376-8.068-1.556-10.446 1.837-15.652 22.33-23.925 48.588-23.925 75.937 0 8.287.773 16.395 2.235 24.264-2.762 1.105-5.565 2.106-8.404 2.992-6.7 2.091-12.443 6.37-16.174 12.051-4.298 6.545-11.533 10.453-19.355 10.453-7.825 0-15.062-3.909-19.358-10.458-3.729-5.682-9.454-9.954-16.121-12.03-24.047-7.489-45.556-22.848-60.564-43.247-15.534-21.112-23.519-46.185-23.094-72.507 1.048-64.82 54.4-117.179 119.149-117.179.334 0 .669.002 1.003.005 31.613.264 61.292 12.774 83.57 35.228 14.591 14.706 24.889 32.557 30.264 52.01-8.459 4.229-16.483 9.368-23.896 15.36-3.221 2.604-3.722 7.326-1.118 10.548 2.604 3.22 7.326 3.72 10.548 1.118 20.793-16.808 46.993-26.063 73.771-26.063 64.766 0 117.457 52.69 117.457 117.456s-52.691 117.455-117.456 117.455z"/><path d="m334.554 275.357c-57.448 0-104.186 46.737-104.186 104.186s46.738 104.187 104.186 104.187 104.186-46.738 104.186-104.187-46.738-104.186-104.186-104.186zm7.5 15.319c18.965 1.587 36.26 9.133 50.005 20.756l-48.464 48.464c-.504-.233-1.017-.451-1.541-.645zm-75.612 31.362 48.464 48.464c-.233.504-.451 1.017-.645 1.541h-68.575c1.587-18.965 9.133-36.26 20.756-50.005zm-20.756 65.005h68.575c.194.524.412 1.037.645 1.542l-48.464 48.464c-11.623-13.746-19.169-31.041-20.756-50.006zm81.368 81.368c-18.965-1.587-36.26-9.133-50.005-20.756l48.464-48.464c.504.233 1.017.451 1.541.645zm0-109.161c-.524.194-1.037.412-1.541.645l-48.464-48.464c13.745-11.623 31.04-19.169 50.005-20.755zm7.5 26.929c-3.659 0-6.635-2.977-6.635-6.636 0-3.658 2.977-6.635 6.635-6.635s6.635 2.977 6.635 6.635c0 3.659-2.976 6.636-6.635 6.636zm7.5 82.232v-68.575c.524-.194 1.037-.412 1.541-.645l48.464 48.464c-13.746 11.624-31.04 19.169-50.005 20.756zm60.611-31.362-48.464-48.464c.233-.504.451-1.017.645-1.542h68.574c-1.586 18.965-9.132 36.26-20.755 50.006zm-47.818-65.006c-.194-.524-.412-1.037-.645-1.541l48.464-48.464c11.623 13.745 19.169 31.04 20.756 50.005z"/></g></g></svg>