<svg id="Capa_1" enable-background="new 0 0 512.041 512.041" height="512" viewBox="0 0 512.041 512.041" width="512" xmlns="http://www.w3.org/2000/svg"><g><g><path d="m317.52 317.958-9.022 14.376c-1.902 3.03-2.469 6.682-1.574 10.127l4.233 16.289c1.257 4.836-.391 9.95-4.255 13.211l-13.065 11.025c-2.72 2.296-4.39 5.558-4.638 9.061l-1.183 16.735c-.356 5.029-3.617 9.418-8.401 11.306l-16.012 6.32c-3.267 1.29-5.888 3.777-7.301 6.931l-6.863 15.314c-2.105 4.697-6.808 7.774-12.055 7.887l-17.236.371c-3.429.074-6.7 1.421-9.148 3.768l-12.215 11.711c-3.796 3.639-9.426 4.759-14.376 2.859l-15.962-6.128c-3.17-1.217-6.694-1.217-9.863 0l-15.963 6.128c-4.95 1.9-10.58.781-14.376-2.859l-12.215-11.712c-2.448-2.347-5.719-3.694-9.148-3.768l-17.236-.371c-5.247-.113-9.95-3.19-12.055-7.887l-6.863-15.314c-1.413-3.154-4.034-5.641-7.301-6.931l-16.012-6.32c-4.784-1.888-8.046-6.278-8.401-11.307l-1.183-16.734c-.248-3.504-1.917-6.766-4.638-9.062l-13.065-11.025c-3.864-3.261-5.512-8.375-4.255-13.211l4.233-16.29c.895-3.445.327-7.097-1.574-10.127l-9.022-14.377c-2.651-4.225-2.651-9.546 0-13.771l9.022-14.376c1.902-3.03 2.469-6.682 1.574-10.127l-4.233-16.289c-1.257-4.836.391-9.95 4.255-13.211l13.065-11.025c2.72-2.296 4.39-5.558 4.638-9.061l1.183-16.735c.356-5.029 3.617-9.418 8.401-11.306l16.012-6.32c3.267-1.29 5.888-3.777 7.301-6.931l6.863-15.314c2.105-4.697 6.808-7.774 12.055-7.887l17.236-.371c3.429-.074 6.7-1.421 9.148-3.768l12.215-11.711c3.796-3.639 9.426-4.759 14.376-2.859l15.962 6.128c3.17 1.217 6.694 1.217 9.863 0l15.963-6.128c4.95-1.9 10.58-.781 14.376 2.859l12.215 11.712c2.448 2.347 5.719 3.694 9.148 3.768l17.236.371c5.247.113 9.95 3.19 12.055 7.887l6.863 15.314c1.413 3.154 4.034 5.641 7.301 6.931l16.012 6.32c4.784 1.888 8.046 6.278 8.401 11.307l1.183 16.734c.248 3.504 1.917 6.766 4.638 9.062l13.065 11.025c3.865 3.261 5.512 8.375 4.255 13.211l-4.233 16.29c-.895 3.445-.328 7.097 1.574 10.127l9.022 14.377c2.652 4.224 2.652 9.546 0 13.771z" fill="#ff546a"/><g><path d="m317.52 317.958c2.651-4.225 2.651-9.546 0-13.771l-9.022-14.377c-1.901-3.03-2.469-6.682-1.574-10.127l4.233-16.29c1.257-4.836-.391-9.95-4.255-13.211l-13.065-11.025c-2.72-2.296-4.39-5.558-4.638-9.062l-1.183-16.734c-.355-5.029-3.617-9.418-8.401-11.307l-16.012-6.32c-3.267-1.29-5.888-3.777-7.301-6.931l-6.863-15.314c-2.105-4.697-6.808-7.774-12.055-7.887l-17.236-.371c-3.429-.074-6.7-1.421-9.148-3.768l-12.215-11.712c-3.796-3.639-9.426-4.759-14.376-2.859l-15.071 5.786 9.162 8.784c2.448 2.347 5.719 3.694 9.148 3.768l17.236.371c5.247.113 9.95 3.19 12.055 7.887l6.863 15.314c1.413 3.154 4.034 5.641 7.301 6.931l16.012 6.32c4.784 1.888 8.046 6.278 8.401 11.307l1.183 16.734c.248 3.504 1.917 6.766 4.638 9.062l13.065 11.025c3.865 3.261 5.512 8.375 4.255 13.211l-4.233 16.29c-.895 3.445-.327 7.097 1.574 10.127l9.022 14.377c2.651 4.225 2.651 9.546 0 13.771l-9.022 14.376c-1.902 3.03-2.469 6.682-1.574 10.127l4.233 16.29c1.257 4.835-.391 9.95-4.255 13.211l-13.065 11.025c-2.72 2.296-4.39 5.558-4.638 9.062l-1.183 16.735c-.356 5.029-3.617 9.418-8.401 11.306l-16.012 6.32c-3.267 1.29-5.888 3.777-7.301 6.931l-6.863 15.314c-2.105 4.697-6.808 7.774-12.055 7.887l-17.236.371c-3.429.074-6.7 1.421-9.148 3.768l-9.161 8.784 15.07 5.786c4.95 1.9 10.581.781 14.376-2.859l12.215-11.711c2.448-2.347 5.719-3.694 9.148-3.768l17.236-.371c5.247-.113 9.95-3.19 12.055-7.887l6.863-15.314c1.413-3.154 4.034-5.641 7.301-6.931l16.012-6.32c4.784-1.888 8.045-6.278 8.401-11.306l1.183-16.735c.248-3.504 1.917-6.766 4.638-9.062l13.065-11.025c3.864-3.261 5.512-8.375 4.255-13.211l-4.233-16.29c-.895-3.445-.328-7.097 1.574-10.127z" fill="#ff3650"/></g><path d="m169.304 120.336-25.263 3.757c-31.521 4.688-60.874-17.064-65.562-48.585l-3.757-25.263c-.713-4.797 2.597-9.264 7.394-9.977l25.263-3.757c31.521-4.688 60.874 17.064 65.562 48.585l3.757 25.263c.713 4.797-2.598 9.264-7.394 9.977z" fill="#6ce79a"/><path d="m107.378 36.511-25.263 3.757c-4.797.713-8.107 5.18-7.394 9.977l1.067 7.172 15.883-2.362c31.521-4.688 60.874 17.064 65.562 48.585l2.691 18.091 9.38-1.395c4.797-.713 8.107-5.18 7.394-9.977l-3.757-25.263c-4.689-31.521-34.042-53.273-65.563-48.585z" fill="#00d8a2"/><circle cx="348.526" cy="287.255" fill="#faf7f8" r="126.495"/><path d="m222.031 287.256c0 69.862 56.634 126.495 126.495 126.495s126.495-56.634 126.495-126.495c0-1.774-.046-3.537-.118-5.294h-252.754c-.072 1.756-.118 3.519-.118 5.294z" fill="#f0eef0"/><path d="m194.521 304.186c-2.651 4.225-2.651 9.546 0 13.771l9.022 14.377c1.901 3.03 2.469 6.682 1.574 10.127l-4.233 16.29c-1.256 4.835.391 9.95 4.255 13.211l13.065 11.025c2.721 2.296 4.39 5.558 4.638 9.062l1.183 16.734c.356 5.029 3.617 9.418 8.401 11.307l16.012 6.32c3.267 1.29 5.888 3.777 7.301 6.931l6.863 15.314c2.105 4.697 6.808 7.774 12.055 7.887l17.236.371c3.429.074 6.7 1.421 9.148 3.768l12.215 11.712c3.796 3.639 9.426 4.759 14.376 2.859l15.963-6.128c3.17-1.217 6.693-1.217 9.863 0l15.962 6.128c4.95 1.9 10.581.781 14.376-2.859l12.215-11.711c2.448-2.347 5.719-3.694 9.148-3.768l17.236-.371c5.247-.113 9.95-3.19 12.055-7.887l6.863-15.314c1.413-3.154 4.034-5.641 7.301-6.931l16.012-6.32c4.784-1.888 8.045-6.278 8.401-11.306l1.184-16.735c.248-3.504 1.917-6.766 4.638-9.062l13.065-11.025c3.865-3.261 5.512-8.375 4.255-13.211l-4.233-16.29c-.895-3.445-.328-7.097 1.574-10.127l9.022-14.376c2.651-4.225 2.651-9.546 0-13.771l-1.298-2.069h-305.415z" fill="#ff3650"/></g><g><path d="m508.884 321.945c4.209-6.707 4.209-15.038.001-21.743l-1.298-2.069c-1.371-2.187-3.771-3.515-6.354-3.515h-18.918c.136-2.464.205-4.924.205-7.362 0-23.252-6.055-46.164-17.51-66.261-2.051-3.6-6.631-4.853-10.229-2.802s-4.854 6.631-2.802 10.229c10.167 17.838 15.541 38.182 15.541 58.833 0 2.436-.078 4.897-.23 7.362h-237.529c-.153-2.465-.231-4.925-.231-7.362 0-65.614 53.381-118.995 118.995-118.995 32.872 0 64.596 13.801 87.038 37.863 2.823 3.028 7.569 3.196 10.6.369 3.029-2.824 3.194-7.57.369-10.6-25.268-27.094-60.99-42.633-98.007-42.633-32.671 0-62.649 11.754-85.927 31.255l-6.315-14.092c-3.276-7.31-10.632-12.145-18.738-12.317l-17.235-.371c-1.559-.034-3.021-.632-4.119-1.685l-12.215-11.71c-5.878-5.636-14.611-7.382-22.256-4.448l-4.715 1.811c4.646-19.053 14.52-42.664 35.488-54.925 3.575-2.091 4.779-6.685 2.688-10.261-2.092-3.577-6.686-4.777-10.261-2.688-9.426 5.512-16.962 12.735-22.988 20.756l-1.575-10.592c-2.645-17.783-12.661-33.846-27.481-44.07-3.407-2.351-8.08-1.495-10.433 1.915-2.352 3.409-1.495 8.08 1.915 10.433 11.58 7.989 19.097 20.039 21.163 33.93l3.757 25.264c.064.434-.094.757-.238.95-.144.194-.406.439-.841.505l-25.263 3.758c-13.264 1.97-26.5-1.338-37.274-9.322-10.773-7.985-17.792-19.686-19.765-32.949l-3.758-25.264c-.064-.434.094-.757.238-.95.144-.194.406-.439.841-.505l25.264-3.758c4.019-.597 8.113-.704 12.178-.318 4.123.381 7.783-2.634 8.176-6.758.392-4.123-2.634-7.783-6.758-8.176-5.269-.498-10.587-.36-15.803.416l-25.263 3.757c-4.302.64-8.097 2.916-10.687 6.41s-3.663 7.787-3.022 12.089l3.758 25.264c2.562 17.226 11.679 32.424 25.671 42.793 11.352 8.412 24.81 12.83 38.684 12.829 3.227 0 6.478-.239 9.729-.723l19.903-2.96c-1.913 6.071-3.316 11.932-4.343 17.251l-15.395-5.911c-7.641-2.932-16.376-1.188-22.255 4.447l-12.215 11.711c-1.099 1.053-2.562 1.65-4.12 1.685l-17.236.37c-8.106.175-15.461 5.01-18.738 12.317l-6.861 15.314c-.616 1.375-1.757 2.447-3.212 3.021l-16.011 6.32c-7.421 2.928-12.574 9.896-13.13 17.753l-1.184 16.737c-.105 1.491-.813 2.861-1.993 3.857l-13.065 11.027c-6.114 5.162-8.674 13.143-6.677 20.829l4.232 16.287c.379 1.456.142 2.968-.667 4.257l-9.021 14.376c-4.209 6.707-4.209 15.038 0 21.744l9.021 14.377c.809 1.289 1.045 2.8.668 4.255l-4.232 16.289c-1.998 7.686.561 15.667 6.677 20.829l13.064 11.024c1.18.996 1.888 2.366 1.993 3.859l.792 11.191c.28 3.952 3.572 6.972 7.474 6.971.178 0 .357-.006.537-.019 4.132-.293 7.244-3.879 6.952-8.011l-.792-11.189c-.387-5.487-3.041-10.688-7.282-14.266l-13.063-11.024c-1.663-1.403-2.366-3.547-1.834-5.594l4.233-16.291c1.405-5.414.501-11.245-2.481-15.998l-9.021-14.378c-1.122-1.787-1.122-4.009 0-5.797l9.021-14.376c2.982-4.753 3.887-10.584 2.48-16.001l-4.233-16.288c-.531-2.047.172-4.19 1.834-5.594l13.064-11.025c4.241-3.578 6.896-8.778 7.282-14.264l1.184-16.735c.152-2.163 1.561-4.024 3.674-4.858l16.01-6.32c5.12-2.02 9.166-5.869 11.395-10.84l6.861-15.313c.919-2.05 3.028-3.406 5.373-3.457l17.236-.37c5.324-.115 10.359-2.193 14.177-5.853l12.215-11.712c1.704-1.633 4.256-2.133 6.497-1.271l15.963 6.129c.856.329 1.727.6 2.608.814-.544 5.468-.607 9.02-.614 9.628-.045 4.142 3.275 7.537 7.417 7.583h.085c4.104 0 7.452-3.304 7.498-7.417.002-.165.083-4.687.953-11.648l13.254-5.089c2.246-.861 4.795-.362 6.499 1.271l12.215 11.71c3.815 3.659 8.851 5.738 14.177 5.854l17.237.371c2.345.051 4.453 1.407 5.372 3.456l6.861 15.311c.512 1.144 1.131 2.239 1.844 3.272-22.779 24.03-36.77 56.469-36.77 92.115 0 2.439.069 4.898.205 7.362h-18.917c-2.582 0-4.982 1.328-6.354 3.515l-1.297 2.067c-4.209 6.707-4.209 15.038 0 21.744l9.021 14.377c.809 1.289 1.045 2.8.668 4.254l-4.233 16.291c-1.997 7.686.562 15.666 6.678 20.829l13.064 11.023c1.18.996 1.888 2.366 1.993 3.859l1.184 16.734c.556 7.855 5.708 14.824 13.129 17.754l16.011 6.318c.702.277 1.33.671 1.862 1.158l-4.95 11.044c-.919 2.05-3.028 3.406-5.373 3.457l-17.236.37c-5.324.115-10.359 2.193-14.177 5.853l-12.215 11.712c-1.704 1.633-4.255 2.132-6.497 1.271l-15.963-6.129c-4.914-1.887-10.326-1.885-15.24 0l-15.96 6.129c-2.247.862-4.797.361-6.5-1.271l-12.216-11.713c-3.817-3.66-8.853-5.738-14.176-5.852l-17.237-.371c-2.345-.051-4.453-1.407-5.372-3.456l-6.861-15.312c-2.227-4.97-6.271-8.819-11.393-10.842l-4.991-1.97c-3.851-1.519-8.209.371-9.729 4.224s.37 8.209 4.224 9.729l4.989 1.969c1.455.575 2.596 1.648 3.212 3.023l6.862 15.313c3.276 7.31 10.632 12.145 18.738 12.317l17.237.371c1.558.033 3.02.632 4.117 1.684l12.215 11.711c5.876 5.636 14.61 7.38 22.256 4.448l15.961-6.129c1.446-.557 3.042-.558 4.488 0l15.962 6.129c2.463.945 5.039 1.405 7.597 1.404 5.378 0 10.675-2.032 14.658-5.852l12.214-11.711c1.099-1.053 2.562-1.65 4.12-1.685l17.236-.37c7.897-.17 15.08-4.764 18.475-11.757 3.395 6.995 10.578 11.587 18.475 11.756l17.237.371c1.558.033 3.02.632 4.117 1.683l12.215 11.713c5.876 5.633 14.608 7.379 22.255 4.447l15.962-6.129c1.447-.557 3.042-.557 4.487 0l15.963 6.129c2.463.945 5.039 1.405 7.597 1.404 5.378 0 10.675-2.032 14.658-5.852l12.214-11.711c1.099-1.053 2.562-1.65 4.119-1.685l17.237-.37c8.106-.175 15.461-5.01 18.738-12.317l6.861-15.314c.616-1.375 1.757-2.448 3.211-3.021l16.012-6.32c7.421-2.928 12.574-9.896 13.13-17.753l1.184-16.737c.105-1.491.812-2.861 1.993-3.857l13.065-11.025c6.114-5.162 8.673-13.143 6.677-20.829l-4.233-16.289c-.378-1.455-.141-2.966.668-4.255zm-12.705-7.974-9.021 14.376c-2.982 4.753-3.887 10.585-2.48 16l4.233 16.289c.531 2.047-.172 4.19-1.834 5.594l-13.064 11.025c-4.241 3.578-6.896 8.778-7.282 14.264l-1.184 16.735c-.152 2.163-1.561 4.024-3.674 4.858l-16.012 6.32c-5.119 2.021-9.165 5.87-11.393 10.841l-6.861 15.312c-.919 2.05-3.028 3.406-5.373 3.457l-17.237.37c-5.324.115-10.358 2.193-14.176 5.853l-12.215 11.712c-1.704 1.633-4.254 2.132-6.497 1.271l-15.964-6.129c-2.456-.943-5.038-1.414-7.619-1.414s-5.163.472-7.62 1.414l-15.962 6.129c-2.243.86-4.793.363-6.498-1.271l-12.216-11.712c-3.817-3.66-8.853-5.738-14.176-5.852l-17.237-.371c-2.345-.051-4.453-1.407-5.372-3.456l-6.861-15.312c-2.227-4.97-6.272-8.82-11.394-10.842l-16.01-6.318c-2.113-.835-3.521-2.696-3.674-4.86l-1.184-16.732c-.387-5.487-3.041-10.688-7.282-14.266l-13.063-11.024c-1.663-1.403-2.366-3.547-1.835-5.593l4.234-16.292c1.405-5.414.501-11.245-2.481-15.998l-9.021-14.378c-.835-1.33-1.049-2.899-.642-4.353h296.589c.407 1.453.193 3.023-.642 4.353z"/><path d="m386.971 414.934-3.963-3.303c-3.181-2.648-7.91-2.221-10.563.96-2.651 3.182-2.222 7.911.96 10.563l3.963 3.303c1.402 1.168 3.104 1.738 4.798 1.738 2.148 0 4.282-.919 5.766-2.698 2.651-3.181 2.221-7.911-.961-10.563z"/><path d="m314.402 394.117-3.964-3.303c-3.183-2.653-7.911-2.222-10.562.961-2.651 3.182-2.222 7.911.961 10.562l3.964 3.303c1.402 1.169 3.104 1.738 4.797 1.738 2.148 0 4.282-.919 5.766-2.699 2.65-3.181 2.22-7.91-.962-10.562z"/><path d="m271.362 332.953-5.144.404c-4.129.324-7.214 3.935-6.889 8.064.309 3.93 3.593 6.912 7.469 6.912.196 0 .396-.008.596-.023l5.144-.404c4.129-.324 7.214-3.935 6.889-8.064s-3.91-7.213-8.065-6.889z"/><path d="m447.833 336.724-3.963-3.303c-3.181-2.649-7.91-2.221-10.563.96-2.651 3.182-2.222 7.911.96 10.563l3.963 3.303c1.402 1.168 3.104 1.738 4.798 1.738 2.148 0 4.282-.919 5.766-2.698 2.651-3.181 2.221-7.911-.961-10.563z"/><path d="m390.273 368.356c-3.183-2.652-7.911-2.222-10.562.961l-3.303 3.964c-2.651 3.182-2.222 7.911.961 10.562 1.402 1.169 3.104 1.738 4.797 1.738 2.148 0 4.282-.919 5.766-2.699l3.303-3.964c2.65-3.181 2.221-7.911-.962-10.562z"/><path d="m342.806 334.742c-3.182-2.649-7.91-2.222-10.563.96l-3.303 3.963c-2.651 3.182-2.222 7.911.96 10.563 1.402 1.168 3.104 1.738 4.798 1.738 2.148 0 4.282-.919 5.766-2.698l3.303-3.963c2.65-3.181 2.221-7.91-.961-10.563z"/><path d="m144.64 205.861-3.964-3.303c-3.183-2.652-7.911-2.222-10.562.961-2.651 3.182-2.222 7.911.961 10.562l3.964 3.303c1.402 1.169 3.104 1.738 4.797 1.738 2.148 0 4.282-.919 5.766-2.699 2.65-3.181 2.221-7.911-.962-10.562z"/><path d="m123.508 371.299c-2.651 3.182-2.222 7.911.961 10.562l3.964 3.303c1.402 1.169 3.104 1.738 4.797 1.738 2.148 0 4.282-.919 5.766-2.699 2.651-3.182 2.222-7.911-.961-10.562l-3.964-3.303c-3.183-2.652-7.911-2.221-10.563.961z"/><path d="m178.778 402.219-5.144.404c-4.129.324-7.214 3.935-6.889 8.064.309 3.93 3.593 6.912 7.469 6.912.196 0 .396-.008.596-.023l5.144-.404c4.129-.324 7.214-3.935 6.889-8.064s-3.915-7.209-8.065-6.889z"/><path d="m185.75 256.364 3.964 3.303c1.402 1.169 3.104 1.738 4.797 1.738 2.148 0 4.282-.919 5.766-2.699 2.651-3.182 2.222-7.911-.961-10.563l-3.964-3.303c-3.183-2.652-7.911-2.222-10.562.961-2.653 3.182-2.223 7.911.96 10.563z"/><path d="m94.553 320.309c4.109-.519 7.021-4.271 6.501-8.38l-.646-5.119c-.52-4.11-4.282-7.03-8.38-6.501-4.109.519-7.021 4.271-6.501 8.38l.646 5.119c.479 3.791 3.707 6.562 7.431 6.562.313-.001.631-.02.949-.061z"/><path d="m87.392 244.51c-3.183-2.653-7.91-2.222-10.562.961l-3.303 3.964c-2.651 3.182-2.222 7.911.961 10.563 1.402 1.169 3.104 1.738 4.797 1.738 2.148 0 4.282-.919 5.766-2.699l3.303-3.964c2.65-3.182 2.221-7.912-.962-10.563z"/><path d="m145.497 304.613c1.402 1.168 3.104 1.738 4.798 1.738 2.148 0 4.282-.919 5.766-2.698l3.303-3.963c2.651-3.182 2.222-7.911-.96-10.563-3.181-2.649-7.91-2.222-10.563.96l-3.303 3.963c-2.653 3.181-2.223 7.91.959 10.563z"/><path d="m78.481 359.774-3.303 3.963c-2.651 3.182-2.222 7.911.96 10.563 1.402 1.168 3.104 1.738 4.798 1.738 2.148 0 4.282-.919 5.766-2.698l3.303-3.963c2.651-3.182 2.222-7.911-.96-10.563-3.181-2.65-7.911-2.221-10.564.96z"/></g></g></svg>