<svg id="Layer_1" enable-background="new 0 0 512 512" height="512" viewBox="0 0 512 512" width="512" xmlns="http://www.w3.org/2000/svg"><g><path d="m427.346 155.544c-10.277-42.554-36.409-101.264-124.82-126.736-102.758-29.607-184.332 64.679-203.605 103.894s-61.827 106.102-74.28 118.927-45.459 81.045 35.123 114.764c80.454 33.665 162.997 27.239 266.701-27.975s108.966-149.4 100.881-182.874z" fill="#f25226"/><path d="m369.188 309.179c-36.768-61.846-111.317-120.937-157.31-180.141-26.221-33.753-28.642-63.263-21.962-86.636-46.438 24.702-79.603 67.12-90.995 90.3-19.272 39.215-61.827 106.102-74.28 118.927-12.452 12.825-45.459 81.046 35.123 114.764 80.454 33.665 162.997 27.239 266.701-27.975 16.672-8.876 30.786-18.763 42.723-29.239z" fill="#f27126"/><path d="m86.802 155.657c-21.268 38.231-51.911 85.415-62.161 95.972-12.452 12.825-45.459 81.046 35.123 114.764 40.692 17.027 81.924 23.779 126.153 19.169-68.77-74.034-92.205-163.027-99.115-229.905z" fill="#f29018"/><path d="m389.402 288.579c-241.571 112.988-338.328 2.362-363.942-37.827-.284.312-.56.61-.819.876-12.452 12.825-45.459 81.045 35.123 114.764 80.454 33.665 162.997 27.239 266.701-27.975 27.275-14.52 47.733-31.739 62.937-49.838z" fill="#9e441a" opacity=".17"/><path d="m275.633 237.445-224.587 162.726 8.88 22.752c52.098 35.652 123.055 36.76 177.108-2.404s75.102-106.937 57.453-167.548z" fill="#f25226"/><path d="m262.296 247.111-198.54 143.853 8.894 21.555c46.207 29.824 107.864 30.026 155.077-4.182s66.227-92.861 52.28-146.059z" fill="#ffcb2e"/><g><path d="m389.855 181.553c37.71 61.897 112.447 85.53 112.447 85.53s13.599-76.721-24.111-138.618-93.558-54.524-93.558-54.524-32.488 45.715 5.222 107.612z" fill="#57a633"/></g><g><path d="m502.303 267.091s13.592-76.737-24.112-138.62c-37.704-61.898-93.564-54.539-93.564-54.539z" fill="#407a26"/></g><path d="m232.005 424.013c-105.634 3.552-147.868-21.376-163.604-36.418l-17.356 12.575 8.88 22.752c50.498 34.557 118.713 36.659 172.08 1.091z" fill="#9e441a" opacity=".17"/><path d="m340.768 485.689c79.927-16.893 131.026-95.381 114.134-175.307l-289.442 61.174c16.893 79.927 95.381 131.026 175.308 114.133z" fill="#f25226"/><path d="m338.017 469.557c71.086-15.024 116.533-84.83 101.509-155.916l-257.425 54.407c15.024 71.086 84.83 116.534 155.916 101.509z" fill="#ffcb2e"/><path d="m171.313 391.938c24.862 68 96.555 109.159 169.454 93.752 28.232-5.967 52.86-19.626 72.173-38.312-119.698 42.552-206.428-21.596-241.627-55.44z" fill="#9e441a" opacity=".17"/><path d="m499.397 156.318c-1.358-3.789-5.53-5.759-9.316-4.403-3.788 1.357-5.759 5.527-4.404 9.316 13.981 39.046 12.234 78.708 10.532 95.829-20.039-8.052-71.599-32.425-100.154-79.296-19.364-31.786-23.262-67.871-7.203-96.785 4.932-.117 14.912.295 26.884 4.179 22.757 7.382 41.669 23.229 56.211 47.099 2.096 3.437 6.578 4.527 10.013 2.431 3.436-2.093 4.524-6.576 2.431-10.012-20.655-33.904-46.72-47.878-64.949-53.631-9.449-2.982-17.816-4.13-24.083-4.503.814-.787 1.508-1.473 2.013-1.995 3.348-3.461 3.257-8.982-.204-12.331-3.463-3.349-8.982-3.258-12.332.204-1.15 1.189-3.985 3.876-6.974 6.664-19.866-16.435-44.405-28.939-73.342-37.276-74.638-21.506-142.161 18.867-185.405 68.918-2.631 3.045-2.294 7.646.751 10.276 3.043 2.631 7.645 2.295 10.276-.751 23.607-27.332 87.467-88.325 170.345-64.442 26.556 7.651 48.762 18.769 66.815 33.464-2.836 4.603-.443 11.145 4.86 12.77-11.564 29.804-13.782 61.886 11.449 103.3 9.238 15.164 20.528 28.082 32.404 38.982-13.407 45.252-43.824 80.427-89.44 105.727l-23.594 4.987c6.807-27.12 6.632-56.109-1.521-84.106-.41-1.406-1.233-2.656-2.364-3.587l-18.854-15.526c-2.559-2.107-6.22-2.221-8.906-.276l-66.162 47.938c-3.259 2.361-3.986 6.916-1.625 10.175 2.36 3.259 6.918 3.986 10.175 1.625l61.602-44.635 12.748 10.499c7.475 27.203 6.732 55.349-1.139 81.283l-123.004 25.997c-3.881.799-6.44 4.762-5.622 8.635 5.058 23.931 15.41 45.41 29.572 63.471-40.68 11.847-85.509 5.795-122.019-18.382l-6.004-15.384 126.494-91.652c3.259-2.361 3.986-6.916 1.625-10.175s-6.918-3.986-10.175-1.625l-94.143 68.212c-31.115-9.915-62.217-27.706-67.957-55.745-5.163-25.221 8.763-49.536 14.144-55.078 12.975-13.364 55.78-80.479 75.591-120.789 1.774-3.611.286-7.978-3.326-9.752-3.61-1.775-7.976-.287-9.752 3.325-18.936 38.531-60.909 104.646-72.967 117.065-8.257 8.504-24.245 37.472-17.965 68.151 6.44 31.46 32.721 50.595 67.856 63.239l-22.533 16.329c-2.686 1.946-3.718 5.46-2.512 8.549l8.88 22.751c.532 1.365 1.464 2.537 2.672 3.364 42.213 28.893 94.946 35.607 142.55 19.605 36.339 37.758 91.297 55.398 143.913 44.278 41.665-8.806 77.031-33.557 99.582-69.693 2.131-3.413 1.09-7.908-2.323-10.038-3.412-2.132-7.907-1.091-10.038 2.323-20.435 32.744-52.482 55.172-90.234 63.151-73.479 15.531-145.926-29.639-164.984-101.423l274.82-58.083c3.811 24.071 1.335 48.609-7.262 71.408-1.42 3.765.482 7.969 4.246 9.388 3.767 1.421 7.968-.481 9.388-4.246 10.435-27.675 12.704-57.665 6.561-86.73-.818-3.871-4.77-6.46-8.635-5.622l-88.203 18.642c29.902-23.637 51.399-53.101 62.896-87.308 34.535 27.31 69.866 38.762 72.018 39.442 1.992.63 4.173.375 5.971-.715 1.794-1.087 3.033-2.894 3.399-4.961.406-2.291 9.724-56.784-10.058-112.035z"/></g></svg>