<svg id="icons" height="512" viewBox="0 0 340 340" width="512" xmlns="http://www.w3.org/2000/svg"><path d="m98.533 11.615 8.019 6.372a6.851 6.851 0 0 1 1.335 9.361 39.333 39.333 0 0 0 -7.537 25.429h-14.533s-1.998-26.158 12.716-41.162z" fill="#4c4c4c"/><path d="m157.527 192.578c-29.808-55.654-12.147-67.426-21.1-108.522-8.926-20.218-23.148-32.256-42.8-35.9-6.568-.221-39.334-.009-47.284 34-2.436 10.905-3.462 28.406-3.05 44.642.252 9.969 1.1 27.8-18.052 62.423 0 0-33.55 56.957 26.749 112.429 8.918 8.205 36.522 22.951 41.637 19.924 104.289-61.712 63.9-128.996 63.9-128.996z" fill="#80b297"/><path d="m87.4 318.746c-16.091-8.847-34.377-31.11-39.84-65.14a2.3 2.3 0 0 1 4.428-1.163c7.143 19.8 21.683 47.35 48.991 56.695z" fill="#3e6a51"/><path d="m48.146 190.079a3.222 3.222 0 0 0 6.28 1.316c2.62-8.369 6.4-18.124 11.364-25.385 15.538-22.216 5.723-62.725 8.211-93.7a4.187 4.187 0 0 0 -8-2.244 31.445 31.445 0 0 0 -2.394 12.634v33.846s.6 33.82-6.206 46.29c-.001 0-7.587 12.301-9.255 27.243z" fill="#3e6a51"/><path d="m52 301.634a197.373 197.373 0 0 0 33.321 24.337 16.342 16.342 0 0 0 16.619 0c104.286-61.7 60.077-136.757 60.077-136.757-19.148-34.628-18.305-52.454-18.052-62.423.411-16.236-.614-33.737-3.05-44.642-8.207-36.733-47.285-34-47.285-34s-.279-.019-.787-.032l-.042.032s20.179 2.43 20.179 32.194c-.027 14.179-1.479 30.089-1.6 44.505a110.17 110.17 0 0 0 8.681 45.763l7.875 18.6c7.621 21.464 12.309 52.874-5.676 96.621-.001.003-19.184 48.357-70.26 15.802z" fill="#3e6a51"/><path d="m45.012 226.389c-3.2-3.353 1.71-8.19 5.017-4.948 3.196 3.353-1.71 8.19-5.017 4.948z" fill="#3e6a51"/><path d="m298.016 95.221c22.671 6.431 32.063 32.084 22.146 52.892a113.019 113.019 0 0 0 -5.585 50.251c2.435 17.454-.466 44.975-8.96 62.979-25.306 39.631-69.317 59.657-126.29 66.107z" fill="#80b297"/><path d="m223.776 292.5a258.578 258.578 0 0 0 -28.576 3.9l-15.873 31.05c52.2 12.049 106.152-18.486 126.271-66.115-14.93 14.757-39.955 27.608-81.822 31.165z" fill="#3e6a51"/><path d="m278.8 94.71a12.772 12.772 0 0 0 -6.461-9.2 13.2 13.2 0 0 0 -12.926.5c-6.572 3.92-19.187 13.491-32.985 34.742-24.035 38.414-67.192 54.451-75.768 107.5-5.852 40.269 10.546 78.769 17.943 93.59a10.342 10.342 0 0 0 10.721 5.61c26.219-3.744 114.024-24.5 114.681-134.622a122.417 122.417 0 0 1 9.561-46.243c5.39-12.965 9.38-29.71 2.29-42.756-7.328-13.483-16.805-10.552-22.308-7.1a3.119 3.119 0 0 1 -4.748-2.021z" fill="#ffa750"/><path d="m262.436 131.5s5.732 6.305 4.131 19.62c-1.737 14.441-8.916 21.378-8.916 41.964 0 0 6.381 48.65-23.872 72.016-33.961 26.232-45.62 28.729-45.62 28.729-27.1-59.937 7.633-108.8 58.511-131.144l-3.233-14.685s10.325-8.855 18.999-16.5z" fill="#f47b5b"/><g fill="#2b2b2b"><path d="m256.785 154.586a10.978 10.978 0 0 1 -10.977 10.978c-14.546-.538-14.542-21.419 0-21.955a10.978 10.978 0 0 1 10.977 10.977z"/><path d="m237.974 225a11.8 11.8 0 0 1 -11.8 11.8c-15.637-.579-15.633-23.026 0-23.6a11.8 11.8 0 0 1 11.8 11.8z"/><path d="m201.086 222.607a10.851 10.851 0 0 1 -10.851 10.851c-14.378-.532-14.375-21.172 0-21.7a10.851 10.851 0 0 1 10.851 10.849z"/><path d="m199.041 265.1a11.8 11.8 0 0 1 -11.8 11.8c-15.637-.579-15.633-23.026 0-23.6a11.8 11.8 0 0 1 11.8 11.8z"/><path d="m195.626 242.55a11.805 11.805 0 0 1 -11.806 11.8c-15.642-.579-15.638-23.034 0-23.61a11.805 11.805 0 0 1 11.806 11.81z"/><path d="m217.361 236.357a11.36 11.36 0 0 1 -11.361 11.36c-15.053-.557-15.049-22.166 0-22.72a11.36 11.36 0 0 1 11.361 11.36z"/><path d="m209.8 264.071c-12.024.082-15.934 16.057-5.569 21.764 4.55-2.766 10.2-6.479 17.092-11.433a11.593 11.593 0 0 0 -11.523-10.331z"/><path d="m241.134 258.176a11.8 11.8 0 0 0 -10.919-7.331c-11.8.048-16.154 15.463-6.367 21.727 5.452-4.11 12.637-8.922 17.286-14.396z"/><path d="m247.5 223.192c-16.591.8-15.106 24.763 1.436 23.506a78.245 78.245 0 0 0 6.985-19.965 11.76 11.76 0 0 0 -8.421-3.541z"/><path d="m232.636 189.214a12.044 12.044 0 0 1 -12.045 12.045c-15.96-.59-15.955-23.5 0-24.089a12.044 12.044 0 0 1 12.045 12.044z"/><path d="m239.657 203.2a10.118 10.118 0 0 1 -10.117 10.118c-13.407-.5-13.4-19.741 0-20.235a10.117 10.117 0 0 1 10.117 10.117z"/><path d="m257.651 193.087a76.229 76.229 0 0 1 .467-8.621c-7.453-9.524-23.246-4.154-23.186 8.112-.058 12.3 15.812 17.65 23.231 8.05-.137-4.672-.512-7.541-.512-7.541z"/><path d="m246.087 173.266a11.156 11.156 0 0 1 -11.155 11.156c-14.782-.547-14.778-21.767 0-22.311a11.155 11.155 0 0 1 11.155 11.155z"/><path d="m257.651 159.74c-15.97.658-15.329 23.688.627 23.445 1.188-8.942 3.838-14.949 5.9-21.463a11.681 11.681 0 0 0 -6.527-1.982z"/><path d="m12.723 234.712c1.871 24.978 15.679 61.6 70.835 94.239a19.782 19.782 0 0 0 20.144 0c20.476-12.115 36.748-25.654 48.485-40.294a199.134 199.134 0 0 0 13.318 34.727 13.772 13.772 0 0 0 13.625 7.567c79.828 16.977 149.246-53.6 138.886-132.972a110.266 110.266 0 0 1 5.411-48.713c10.617-22.3-.07-50.326-24.131-57.284-5.381-3-12.853-1.3-17.192 1.582a15.951 15.951 0 0 0 -8.133-11.1 16.71 16.71 0 0 0 -16.33.581c-6.614 3.945-19.84 13.844-34.116 35.83-15.676 26.234-41.443 40.22-59.333 67.1-17.455-32.118-17.039-48.612-16.781-58.524 1.047-42.006-2.84-75.314-42.348-81.912a42.34 42.34 0 0 1 7.058-15.649 11.22 11.22 0 0 0 -2.168-15.39l-9.117-7.245a3.464 3.464 0 0 0 -4.626.287c-11.197 11.417-14.376 28.052-15.235 38.208-38.654 7.083-42.12 40.762-41.125 81.694.262 10.073.7 26.933-17.589 60.013-.474.805-11.58 20.01-9.538 47.255zm298.228-127.912a33.516 33.516 0 0 1 7.975 34.332c-6.979 18.058-10.132 37.859-7.79 57.621 9.334 66.24-43.679 129.991-111.106 127.8 36.839-10.429 96.889-41.582 97.439-133.7a118.454 118.454 0 0 1 9.3-44.933c6.671-16.063 8.082-30.146 4.182-41.12zm-113.97 52.875a179.107 179.107 0 0 0 32.352-37.03c13.6-20.374 31.957-39.65 41.375-34.077 5.924 3.166 4.946 10.936 4.9 11.266-.567 3.234 3.763 5.29 5.935 2.871 4.993-4.948 14.71-10.124 21.27 2.781 6.6 12.142 2.312 28.332-2.445 39.774a125.358 125.358 0 0 0 -9.826 47.551c-.639 107.043-85.662 127.5-111.706 131.215a6.871 6.871 0 0 1 -7.137-3.73c-25.489-52.008-31.827-113.742 25.282-160.624zm-97.902-144.975 6.566 5.218a4.308 4.308 0 0 1 .868 5.9 49.245 49.245 0 0 0 -8.353 18.93 85.818 85.818 0 0 0 -10.145.072c.872-8.48 3.485-20.885 11.064-30.12zm-52.307 112.563c-1.685-50.857 7.524-75.526 47.1-75.657 38.854.352 48.257 24.523 46.636 75.1-.679 10.036.168 32.253 19.447 66.013-16.008 24.744-16.595 60.768-9.923 87.392-11.348 15.6-28.12 30.025-49.851 42.883a12.849 12.849 0 0 1 -13.092 0c-41.469-24.536-64.786-55.119-67.429-88.44-2-25.172 8.469-43.4 8.619-43.662 19.243-34.812 18.755-53.558 18.493-63.629z"/><path d="m175.522 255.347c-5.867 6.568-4.042 18.026 3.33 22.494a93.283 93.283 0 0 0 6.22 17.558 3.469 3.469 0 0 0 3.812 1.819c.508-.109 12.821-2.966 47.012-29.375 30.694-23.707 25.732-70.758 25.218-74.971.03-11.578 2.453-18.617 4.8-25.426 4.583-11.556 6.467-26.578.846-35.694a26.483 26.483 0 0 0 4-7.476c1.365-4.341-5.053-6.481-6.569-2.191a19.8 19.8 0 0 1 -4.132 6.9c-3.576 3.15-7.911 6.928-12.887 11.231-10.051-1.168-18.372 9.155-15.117 18.72a14.61 14.61 0 0 0 -11.715 14.785 15.518 15.518 0 0 0 -14.852 12.043 101.224 101.224 0 0 0 -18.835 23c-8.381 1.919-13.332 12.142-9.33 19.989-10.73 4.893-11.794 20.3-1.801 26.594zm7.751 2.443a14.533 14.533 0 0 0 5.616-.855c9.753 2.072 8.33 16.368-1.649 16.507-8.549.04-11.492-11.63-3.967-15.652zm6.729 31.7a95.023 95.023 0 0 1 -3.265-9.151 14.892 14.892 0 0 0 8.233-2.1 14.927 14.927 0 0 0 3.273 7.08 83.391 83.391 0 0 1 -8.243 4.173zm14.348-7.812c-5.508-4.75-1.845-14.3 5.452-14.147a8.12 8.12 0 0 1 7.648 5.38c-5.084 3.605-9.424 6.477-13.1 8.769zm27.313-19.316c-2.7 2.086-5.252 4.012-7.672 5.8-7.337-8.85 5.744-19.46 12.9-10.5a47.98 47.98 0 0 1 -5.228 4.702zm9.745-10.1c-8.752-9.77-25.654-3.812-26.4 9.266a15.116 15.116 0 0 0 -12.712 1.1 15.18 15.18 0 0 0 -6.74-10.33 15.278 15.278 0 0 0 2.234-3.615c8.44 5.971 21.091.567 22.757-9.515a15.221 15.221 0 0 0 12.177-.41 15.3 15.3 0 0 0 10.483 10.87q-.858 1.342-1.799 2.64zm-43.3-15.911c.273-10.414 15.523-10.412 15.795 0 .022 8.471-11.773 10.865-15.107 3.209a15.113 15.113 0 0 0 -.608-2.143 7.983 7.983 0 0 1 -.088-1.06zm28.07-19.7c10.967.276 11.014 16.358 0 16.678-11.024-.343-11.024-16.322-.005-16.671zm-3.294-13.451a6.686 6.686 0 0 1 9.224-6.135 16.468 16.468 0 0 0 4.028 6.974c-1.172 8.146-13.09 7.442-13.252-.839zm23.847 40.089a8.333 8.333 0 1 1 5.308-15.286 75.155 75.155 0 0 1 -5.308 15.29zm6.69-22.374a15.3 15.3 0 0 0 -12.475.31 15.243 15.243 0 0 0 -3.781-6.8 13.646 13.646 0 0 0 5.06-6.423 16.415 16.415 0 0 0 12.433-.39 110.018 110.018 0 0 1 -1.237 13.307zm1.215-21.552c-8.472 8.122-21.218-3.07-14.32-12.523a14.667 14.667 0 0 0 6.346-4.893 15.185 15.185 0 0 0 7.8 4.384c-.451 5.497-.262 5.884.174 13.036zm.739-19.939a8.3 8.3 0 0 1 -5.832-6.291 14.623 14.623 0 0 0 -.154-1.919 8.307 8.307 0 0 1 10.548-7.694 103.006 103.006 0 0 0 -4.562 15.908zm6.222-42.581c2.08 3.676 2.348 13.807.36 20.055a15.129 15.129 0 0 0 -1.847-.417 14.408 14.408 0 0 0 -5.645-13.427c2.576-2.23 4.967-4.311 7.135-6.207zm-15.789 10.224a7.552 7.552 0 0 1 7.1 9.975 15.256 15.256 0 0 0 -7.75 5.794 14.656 14.656 0 0 0 -4.9-3.173c-4.396-4.57-.831-12.774 5.55-12.592zm-10.876 18.5a7.7 7.7 0 0 1 7.53 6.12 15.247 15.247 0 0 0 .148 1.863c-.606 9.939-15.131 9.676-15.372-.29a7.7 7.7 0 0 1 7.694-7.687zm-14.341 15.059a8.64 8.64 0 0 1 1.862.209 14.635 14.635 0 0 0 9.795 6.785 16.59 16.59 0 0 0 -.54 2.179 13.609 13.609 0 0 0 -14.324 7.38c-8.626-3.46-6.198-16.496 3.207-16.547zm-14.47 14.19a15.405 15.405 0 0 0 9.88 9.206 13.507 13.507 0 0 0 2.88 7.565 15.292 15.292 0 0 0 -7.744 10.878 14.728 14.728 0 0 0 -6.639-.86 14.331 14.331 0 0 0 -9.852-12.605 93.39 93.39 0 0 1 11.475-14.178zm-15.886 20.4a7.392 7.392 0 0 1 7.173 9.084 14.888 14.888 0 0 0 -4.814 5.773 15.159 15.159 0 0 0 -8.049-2.757c-4.008-4.551-.405-12.279 5.69-12.097zm-6.415 18.988a8.354 8.354 0 0 1 7.64 5 14.436 14.436 0 0 0 .611 2.166 8.354 8.354 0 0 1 -8.251 9.52c-11.02-.347-11.02-16.334 0-16.683z"/></g><circle cx="242.117" cy="150.895" fill="#afafaf" r="3.691"/><circle cx="231.139" cy="169.255" fill="#afafaf" r="3.691"/><circle cx="242.117" cy="189.986" fill="#afafaf" r="3.691"/><circle cx="222.89" cy="222.607" fill="#afafaf" r="3.691"/><circle cx="188.492" cy="220.243" fill="#afafaf" r="3.691"/><circle cx="178.494" cy="240.489" fill="#afafaf" r="3.691"/><circle cx="201.898" cy="234.993" fill="#afafaf" r="3.691"/><circle cx="226.581" cy="259.226" fill="#afafaf" r="3.691"/><circle cx="184.765" cy="262.917" fill="#afafaf" r="3.691"/><circle cx="226.581" cy="199.712" fill="#afafaf" r="3.691"/></svg>