<svg height="512" viewBox="0 0 48 48" width="512" xmlns="http://www.w3.org/2000/svg"><g id="_27-passion_fruit" data-name="27-passion fruit"><path d="m35 23a16.655 16.655 0 0 1 -17 17 16.661 16.661 0 0 1 -17-17c0-9.94 7.616-19 17-19s17 9.06 17 19z" fill="#860052"/><circle cx="31" cy="31" fill="#fdf1c1" r="16"/><circle cx="31" cy="31" fill="#faba01" r="12"/><path d="m18 1-1.886 7.544a3.962 3.962 0 0 0 1.886.456 4.326 4.326 0 0 0 1.032-.129l1.968-7.871z" fill="#436600"/><path d="m35 23a16.655 16.655 0 0 1 -17 17 16.661 16.661 0 0 1 -17-17c0-9.94 7.616-19 17-19s17 9.06 17 19z" fill="#860052"/><path d="m12.857 12.457a3.921 3.921 0 0 0 1.218-1.681 1.313 1.313 0 0 0 -.175-1.107 1.35 1.35 0 0 0 -1.1-.524 2.467 2.467 0 0 0 -.847.183 6.544 6.544 0 0 0 -3.147 2.823 3.392 3.392 0 0 0 -.657 2.25c.172.942 1.123.917 1.9.331a31.976 31.976 0 0 0 2.808-2.275z" fill="#a10062"/><path d="m20.183 11.177a1 1 0 0 0 -.119.881 1.428 1.428 0 0 0 .525.471 28.349 28.349 0 0 1 7.6 7.124 3.9 3.9 0 0 0 .939 1.03 1.651 1.651 0 0 0 1.462.232 1.487 1.487 0 0 0 .7-.678 6 6 0 0 0 .26-5.155 16 16 0 0 0 -3.043-4.72 15.016 15.016 0 0 0 -2.344-2.3 5.015 5.015 0 0 0 -2.21-1.026c-2.643-.408-3.088 2.698-3.77 4.141z" fill="#a10062"/><ellipse cx="17.5" cy="8.5" fill="#6e0043" rx="3" ry="1.5"/><ellipse cx="17.5" cy="9" fill="#4d002f" rx="2.5" ry="1"/><path d="m18 1-1.886 7.544a3.962 3.962 0 0 0 1.886.456 4.326 4.326 0 0 0 1.032-.129l1.968-7.871z" fill="#436600"/><path d="m19.75 1-2 7.985c.082.005.162.015.246.015a4.326 4.326 0 0 0 1.032-.129l1.972-7.871z" fill="#589e00"/><ellipse cx="22" cy="17" fill="#a10062" rx="2" ry="4" transform="matrix(.707 -.707 .707 .707 -5.577 20.536)"/><path d="m21.5 34c-8 0-15.5-4.668-15.5-14.056a23.77 23.77 0 0 1 5.011-14.163 19.7 19.7 0 0 0 -10.011 17.219 16.661 16.661 0 0 0 17 17 16.614 16.614 0 0 0 16.945-15.843 14.271 14.271 0 0 1 -13.445 9.843z" fill="#4d002f"/><circle cx="31" cy="31" fill="#fdf1c1" r="16"/><path d="m31 15a16 16 0 1 0 16 16 15.994 15.994 0 0 0 -16-16zm0 31a15 15 0 1 1 15-15 14.994 14.994 0 0 1 -15 15z" fill="#860052"/><path d="m31 16a15 15 0 1 0 15 15 14.993 14.993 0 0 0 -15-15zm0 29a14 14 0 1 1 14-14 13.994 13.994 0 0 1 -14 14z" fill="#ff829d"/><circle cx="31" cy="31" fill="#faba01" r="12"/><path d="m31 19a12 12 0 1 0 12 12 11.994 11.994 0 0 0 -12-12zm0 23a11 11 0 1 1 11-11 10.994 10.994 0 0 1 -11 11z" fill="#fda893"/><ellipse cx="39" cy="27" fill="#ffd417" rx="1.65" ry="2.297" transform="matrix(.707 -.707 .707 .707 -7.666 35.501)"/><ellipse cx="29" cy="27" fill="#f8ef00" rx="1.65" ry="2.297" transform="matrix(.707 -.707 .707 .707 -10.597 28.428)"/><ellipse cx="34" cy="30" fill="#fc6b00" rx="1.65" ry="2.297" transform="matrix(.707 -.707 .707 .707 -11.254 32.844)"/><ellipse cx="34" cy="26" fill="#fc6b00" rx="1.65" ry="2.297" transform="matrix(.707 -.707 .707 .707 -8.424 31.671)"/><ellipse cx="31" cy="23" fill="#fc6b00" rx="1.65" ry="2.297" transform="matrix(.707 -.707 .707 .707 -7.182 28.67)"/><ellipse cx="37" cy="32" fill="#ffd417" rx="1.65" ry="2.297" transform="matrix(.707 -.707 .707 .707 -11.789 35.552)"/><ellipse cx="35" cy="38" fill="#fc6b00" rx="1.65" ry="2.297" transform="matrix(.707 -.707 .707 .707 -16.62 35.896)"/><ellipse cx="27" cy="36" fill="#ffd417" rx="1.65" ry="2.297" transform="matrix(.707 -.707 .707 .707 -17.55 29.651)"/><ellipse cx="29" cy="31" fill="#f8ef00" rx="1.65" ry="2.297" transform="matrix(.707 -.707 .707 .707 -13.427 29.6)"/><ellipse cx="24" cy="37" fill="#fc6b00" rx="1.65" ry="2.297" transform="matrix(.707 -.707 .707 .707 -19.137 27.822)"/><ellipse cx="34" cy="35" fill="#fc6b00" rx="2.297" ry="1.65" transform="matrix(.707 -.707 .707 .707 -14.791 34.31)"/><ellipse cx="31" cy="34" fill="#ffd417" rx="2.297" ry="1.65" transform="matrix(.707 -.707 .707 .707 -14.963 31.894)"/><ellipse cx="38" cy="36" fill="#ffd417" rx="2.297" ry="1.65" transform="matrix(.707 -.707 .707 .707 -14.325 37.432)"/><ellipse cx="23" cy="29" fill="#ffd417" rx="1.65" ry="2.297" transform="matrix(.707 -.707 .707 .707 -13.771 24.77)"/><ellipse cx="26" cy="32" fill="#fc6b00" rx="1.65" ry="2.297"/><ellipse cx="32" cy="38" fill="#f8ef00" rx="1.65" ry="2.297"/><ellipse cx="40" cy="31" fill="#fc6b00" rx="1.65" ry="2.297"/><ellipse cx="35" cy="24" fill="#f8ef00" rx="1.65" ry="2.297"/><ellipse cx="23" cy="32" fill="#ffd417" rx="2.297" ry="1.65" transform="matrix(.707 -.707 .707 .707 -15.893 25.649)"/><ellipse cx="25" cy="27" fill="#fc6b00" rx="2.297" ry="1.65" transform="matrix(.707 -.707 .707 .707 -11.77 25.598)"/><ellipse cx="27" cy="23" fill="#ffd417" rx="2.297" ry="1.65" transform="matrix(.707 -.707 .707 .707 -8.354 25.841)"/><ellipse cx="30" cy="39" fill="#ffd417" rx="2.297" ry="1.65" transform="matrix(.707 -.707 .707 .707 -18.793 32.653)"/><ellipse cx="37" cy="36" fill="#ff9202" rx="1.65" ry="2.297" transform="matrix(.707 -.707 .707 .707 -14.619 36.725)"/><ellipse cx="36.606" cy="35.947" fill="#745a00" rx=".825" ry="1.148" transform="matrix(.707 -.707 .707 .707 -14.696 36.431)"/><ellipse cx="39" cy="32" fill="#ff9202" rx="1.65" ry="2.297" transform="matrix(.707 -.707 .707 .707 -11.203 36.967)"/><ellipse cx="38.606" cy="31.947" fill="#745a00" rx=".825" ry="1.148" transform="matrix(.707 -.707 .707 .707 -11.281 36.673)"/><ellipse cx="33" cy="32" fill="#ff9202" rx="1.65" ry="2.297" transform="matrix(.707 -.707 .707 .707 -12.962 32.723)"/><ellipse cx="32.606" cy="31.947" fill="#745a00" rx=".825" ry="1.148" transform="matrix(.707 -.707 .707 .707 -13.039 32.429)"/><ellipse cx="33" cy="37" fill="#ff9202" rx="1.65" ry="2.297" transform="matrix(.707 -.707 .707 .707 -16.498 34.189)"/><ellipse cx="32.606" cy="36.947" fill="#745a00" rx=".825" ry="1.148" transform="matrix(.707 -.707 .707 .707 -16.576 33.895)"/><ellipse cx="24" cy="34" fill="#ff9202" rx="2.297" ry="1.65" transform="matrix(.707 -.707 .707 .707 -17.01 26.915)"/><ellipse cx="24.394" cy="33.947" fill="#745a00" rx="1.148" ry=".825" transform="matrix(.707 -.707 .707 .707 -16.857 27.177)"/><ellipse cx="29" cy="34" fill="#ff9202" rx="2.297" ry="1.65" transform="matrix(.707 -.707 .707 .707 -15.547 30.449)"/><ellipse cx="29.394" cy="33.947" fill="#745a00" rx="1.148" ry=".825" transform="matrix(.707 -.707 .707 .707 -15.394 30.712)"/><ellipse cx="22" cy="30" fill="#ff9202" rx="2.297" ry="1.65" transform="matrix(.707 -.707 .707 .707 -14.768 24.331)"/><ellipse cx="22.394" cy="29.947" fill="#745a00" rx="1.148" ry=".825" transform="matrix(.707 -.707 .707 .707 -14.615 24.593)"/><ellipse cx="27" cy="30" fill="#ff9202" rx="2.297" ry="1.65" transform="matrix(.707 -.707 .707 .707 -13.304 27.865)"/><ellipse cx="27.394" cy="29.947" fill="#745a00" rx="1.148" ry=".825" transform="matrix(.707 -.707 .707 .707 -13.152 28.127)"/><ellipse cx="26" cy="38" fill="#ff9202" rx="2.297" ry="1.65" transform="matrix(.707 -.707 .707 .707 -19.252 29.499)"/><ellipse cx="26.394" cy="37.947" fill="#745a00" rx="1.148" ry=".825" transform="matrix(.707 -.707 .707 .707 -19.099 29.762)"/><ellipse cx="36" cy="25" fill="#ff9202" rx="2.297" ry="1.65" transform="matrix(.707 -.707 .707 .707 -7.136 32.763)"/><ellipse cx="36.394" cy="24.947" fill="#745a00" rx="1.148" ry=".825" transform="matrix(.707 -.707 .707 .707 -6.983 33.026)"/><ellipse cx="36.59" cy="28.642" fill="#ff9202" rx="2.297" ry="1.65" transform="matrix(.707 -.707 .707 .707 -9.538 34.246)"/><ellipse cx="36.197" cy="28.695" fill="#745a00" rx="1.148" ry=".825" transform="matrix(.707 -.707 .707 .707 -9.691 33.984)"/><ellipse cx="30" cy="39" fill="#ff9202" rx="1.65" ry="2.297"/><ellipse cx="30.241" cy="38.684" fill="#745a00" rx=".825" ry="1.148"/><ellipse cx="33" cy="23" fill="#ff9202" rx="1.65" ry="2.297"/><ellipse cx="32.759" cy="23.316" fill="#745a00" rx=".825" ry="1.148"/><ellipse cx="31" cy="28" fill="#ff9202" rx="1.65" ry="2.297"/><ellipse cx="31.241" cy="28.316" fill="#745a00" rx=".825" ry="1.148"/><ellipse cx="27" cy="25" fill="#ff9202" rx="1.65" ry="2.297"/><ellipse cx="27.241" cy="25.316" fill="#745a00" rx=".825" ry="1.148"/><g fill="#fdf1c1"><ellipse cx="39.746" cy="31.5" rx=".413" ry=".574" transform="matrix(.707 -.707 .707 .707 -10.631 37.348)"/><ellipse cx="37.746" cy="35.5" rx=".413" ry=".574" transform="matrix(.707 -.707 .707 .707 -14.046 37.106)"/><ellipse cx="33.746" cy="32.5" rx=".413" ry=".574" transform="matrix(.707 -.707 .707 .707 -13.097 33.397)"/><ellipse cx="31.746" cy="27.5" rx=".413" ry=".574"/><ellipse cx="33.746" cy="22.5" rx=".413" ry=".574"/><ellipse cx="27.746" cy="24.5" rx=".413" ry=".574"/><ellipse cx="30.746" cy="39.5" rx=".413" ry=".574"/><ellipse cx="33.746" cy="36.5" rx=".413" ry=".574" transform="matrix(.707 -.707 .707 .707 -15.926 34.57)"/><ellipse cx="28.746" cy="33.5" rx=".574" ry=".413" transform="matrix(.707 -.707 .707 .707 -15.268 30.123)"/><ellipse cx="36.746" cy="27.5" rx=".574" ry=".413" transform="matrix(.707 -.707 .707 .707 -8.685 34.022)"/><ellipse cx="21.746" cy="29.5" rx=".574" ry=".413" transform="matrix(.707 -.707 .707 .707 -14.489 24.005)"/><ellipse cx="26.746" cy="29.5" rx=".574" ry=".413" transform="matrix(.707 -.707 .707 .707 -13.025 27.539)"/><ellipse cx="35.746" cy="24.5" rx=".574" ry=".413" transform="matrix(.707 -.707 .707 .707 -6.857 32.437)"/><ellipse cx="23.746" cy="33.5" rx=".574" ry=".413" transform="matrix(.707 -.707 .707 .707 -16.731 26.589)"/><ellipse cx="25.746" cy="37.5" rx=".574" ry=".413" transform="matrix(.707 -.707 .707 .707 -18.973 29.173)"/></g><path d="m24.207 16.528c.3-.141.6-.277.912-.4q-.525-.51-1.082-1c-.324.04-.645.088-.962.147.113.1.229.2.339.307a7.562 7.562 0 0 1 .793.946z" fill="#4d002f"/><path d="m15 31a15.966 15.966 0 0 1 5.836-12.36c-.083-.076-.169-.144-.25-.226a6.981 6.981 0 0 1 -1.369-1.891 15.962 15.962 0 0 0 -7.055 22.488 17.761 17.761 0 0 0 5.6.978 15.93 15.93 0 0 1 -2.762-8.989z" fill="#4d002f"/><path d="m28.5 15.214a14.682 14.682 0 0 0 -4.462-.082q.558.488 1.082 1a15.9 15.9 0 0 1 3.38-.918z" fill="#6e0043"/><path d="m23.414 15.586c-.11-.111-.226-.206-.339-.307a15.827 15.827 0 0 0 -3.858 1.244 6.981 6.981 0 0 0 1.369 1.891c.081.082.167.15.25.226a15.98 15.98 0 0 1 3.371-2.112 7.562 7.562 0 0 0 -.793-.942z" fill="#6e0043"/><path d="m15.125 32.912a14.541 14.541 0 0 1 -5.068-3.046c-.026.376-.057.751-.057 1.134a15.912 15.912 0 0 0 2.162 8.011 17.761 17.761 0 0 0 5.6.978 15.9 15.9 0 0 1 -2.637-7.077z" fill="#30001e"/><path d="m31.114 34.049a16.988 16.988 0 0 0 3.886-11.049c0-9.94-7.606-19-17-19a15 15 0 0 0 -7.512 2.074 38 38 0 0 0 20.626 27.975z" fill="#a10062"/><path d="m12.857 12.457a3.921 3.921 0 0 0 1.218-1.681 1.313 1.313 0 0 0 -.175-1.107 1.35 1.35 0 0 0 -1.1-.524 2.467 2.467 0 0 0 -.847.183 4.98 4.98 0 0 0 -.71.361q.438 1.669 1.019 3.276c.201-.165.406-.33.595-.508z" fill="#cf007e"/><path d="m34.945 24.157a14.885 14.885 0 0 1 -6.889 8.2q1.471.909 3.031 1.681a16.846 16.846 0 0 0 3.858-9.881z" fill="#4d002f"/><path d="m20.183 11.177a1 1 0 0 0 -.119.881 1.428 1.428 0 0 0 .525.471 28.349 28.349 0 0 1 7.6 7.124 3.9 3.9 0 0 0 .939 1.03 1.651 1.651 0 0 0 1.462.232 1.487 1.487 0 0 0 .7-.678 6 6 0 0 0 .26-5.155 16 16 0 0 0 -3.043-4.72 15.016 15.016 0 0 0 -2.344-2.3 5.015 5.015 0 0 0 -2.21-1.026c-2.643-.408-3.088 2.698-3.77 4.141z" fill="#cf007e"/><ellipse cx="17.5" cy="8.5" fill="#860052" rx="3" ry="1.5"/><ellipse cx="17.5" cy="9" fill="#4d002f" rx="2.5" ry="1"/><path d="m18 1-1.886 7.544a3.962 3.962 0 0 0 1.886.456 4.326 4.326 0 0 0 1.032-.129l1.968-7.871z" fill="#436600"/><path d="m19.75 1-2 7.985c.082.005.162.015.246.015a4.326 4.326 0 0 0 1.032-.129l1.972-7.871z" fill="#589e00"/><ellipse cx="22" cy="17" fill="#cf007e" rx="2" ry="4" transform="matrix(.707 -.707 .707 .707 -5.577 20.536)"/><path d="m24.207 16.528c.3-.141.6-.277.912-.4q-.525-.51-1.082-1c-.324.04-.645.088-.962.147.113.1.229.2.339.307a7.562 7.562 0 0 1 .793.946z" fill="#4d002f"/><path d="m28.5 15.214a14.682 14.682 0 0 0 -4.462-.082q.558.488 1.082 1a15.9 15.9 0 0 1 3.38-.918z" fill="#6e0043"/><path d="m23.414 15.586c-.11-.111-.226-.206-.339-.307a15.827 15.827 0 0 0 -3.858 1.244 6.981 6.981 0 0 0 1.369 1.891c.081.082.167.15.25.226a15.98 15.98 0 0 1 3.371-2.112 7.562 7.562 0 0 0 -.793-.942z" fill="#6e0043"/><path d="m20.836 18.64c-.083-.076-.169-.144-.25-.226a6.981 6.981 0 0 1 -1.369-1.891 16.025 16.025 0 0 0 -4.006 2.69 37.782 37.782 0 0 0 2.2 3.34 16.087 16.087 0 0 1 3.425-3.913z" fill="#4d002f"/><path d="m45.418 37.9a15.985 15.985 0 0 0 -28-15.336 37.924 37.924 0 0 0 28 15.336z" fill="#fdfdd7"/><path d="m31 16a14.983 14.983 0 0 1 13.348 21.822c.354.034.712.057 1.07.081a15.985 15.985 0 0 0 -28-15.336c.212.287.433.567.653.848a14.975 14.975 0 0 1 12.929-7.415z" fill="#a10062"/><path d="m31 16a14.975 14.975 0 0 0 -12.928 7.415c.219.28.435.562.662.835a14 14 0 0 1 24.56 13.45c.35.043.7.088 1.054.122a14.983 14.983 0 0 0 -13.348-21.822z" fill="#ffb3c3"/><path d="m31 20a10.994 10.994 0 0 0 -10.1 6.642 37.9 37.9 0 0 0 19.2 10.533 11 11 0 0 0 -9.1-17.175z" fill="#f8ef00"/><path d="m31 20a11 11 0 0 1 9.1 17.175c.348.073.7.136 1.051.2a11.99 11.99 0 1 0 -20.988-11.506q.363.392.737.773a10.994 10.994 0 0 1 10.1-6.642z" fill="#ffb3a1"/><ellipse cx="39" cy="27" fill="#fdf1c1" rx="1.65" ry="2.297" transform="matrix(.707 -.707 .707 .707 -7.666 35.501)"/><ellipse cx="29" cy="27" fill="#fdf48b" rx="1.65" ry="2.297" transform="matrix(.707 -.707 .707 .707 -10.597 28.428)"/><ellipse cx="34" cy="30" fill="#ff7f00" rx="1.65" ry="2.297" transform="matrix(.707 -.707 .707 .707 -11.254 32.844)"/><ellipse cx="34" cy="26" fill="#ff7f00" rx="1.65" ry="2.297" transform="matrix(.707 -.707 .707 .707 -8.424 31.671)"/><ellipse cx="31" cy="23" fill="#ff7f00" rx="1.65" ry="2.297" transform="matrix(.707 -.707 .707 .707 -7.182 28.67)"/><ellipse cx="37" cy="32" fill="#fdf1c1" rx="1.65" ry="2.297" transform="matrix(.707 -.707 .707 .707 -11.789 35.552)"/><ellipse cx="29" cy="31" fill="#fdf48b" rx="1.65" ry="2.297" transform="matrix(.707 -.707 .707 .707 -13.427 29.6)"/><ellipse cx="40" cy="31" fill="#ff7f00" rx="1.65" ry="2.297"/><ellipse cx="35" cy="24" fill="#fdf48b" rx="1.65" ry="2.297"/><ellipse cx="25" cy="27" fill="#ff7f00" rx="2.297" ry="1.65" transform="matrix(.707 -.707 .707 .707 -11.77 25.598)"/><ellipse cx="27" cy="23" fill="#fdf1c1" rx="2.297" ry="1.65" transform="matrix(.707 -.707 .707 .707 -8.354 25.841)"/><path d="m35.894 33.787c-.355-.878-1.49-1.047-2.536-.377a3.118 3.118 0 0 0 -.4.309 2.617 2.617 0 0 1 -.422 1q1.416.632 2.89 1.149a2.2 2.2 0 0 0 .468-2.081z" fill="#ff7f00"/><path d="m32.894 32.787c-.355-.878-1.49-1.047-2.536-.377a3.138 3.138 0 0 0 -.838.8c.9.5 1.819.962 2.759 1.39l.256.115a2.617 2.617 0 0 0 .422-1 1.669 1.669 0 0 0 -.063-.928z" fill="#fdf1c1"/><path d="m39.894 34.787c-.355-.878-1.49-1.047-2.536-.377a3.024 3.024 0 0 0 -1.276 1.676q1.592.525 3.244.91a2.261 2.261 0 0 0 .568-2.209z" fill="#fdf1c1"/><path d="m24.59 28.358a2.544 2.544 0 0 0 -2.8-1.252 1.293 1.293 0 0 0 -.265.151 38.079 38.079 0 0 0 3.375 2.921 2.094 2.094 0 0 0 -.31-1.82z" fill="#fdf48b"/><path d="m26.481 29.8a1.307 1.307 0 0 0 -1.524.417q1.3.993 2.686 1.869a2.371 2.371 0 0 0 -1.162-2.286z" fill="#ff7f00"/><ellipse cx="39" cy="32" fill="#ffa008" rx="1.65" ry="2.297" transform="matrix(.707 -.707 .707 .707 -11.203 36.967)"/><ellipse cx="38.606" cy="31.947" fill="#977b00" rx=".825" ry="1.148" transform="matrix(.707 -.707 .707 .707 -11.281 36.673)"/><ellipse cx="33" cy="32" fill="#ffa008" rx="1.65" ry="2.297" transform="matrix(.707 -.707 .707 .707 -12.962 32.723)"/><ellipse cx="32.606" cy="31.947" fill="#977b00" rx=".825" ry="1.148" transform="matrix(.707 -.707 .707 .707 -13.039 32.429)"/><ellipse cx="36" cy="25" fill="#ffa008" rx="2.297" ry="1.65" transform="matrix(.707 -.707 .707 .707 -7.136 32.763)"/><ellipse cx="36.394" cy="24.947" fill="#977b00" rx="1.148" ry=".825" transform="matrix(.707 -.707 .707 .707 -6.983 33.026)"/><ellipse cx="36.59" cy="28.642" fill="#ffa008" rx="2.297" ry="1.65" transform="matrix(.707 -.707 .707 .707 -9.538 34.246)"/><ellipse cx="36.197" cy="28.695" fill="#977b00" rx="1.148" ry=".825" transform="matrix(.707 -.707 .707 .707 -9.691 33.984)"/><ellipse cx="33" cy="23" fill="#ffa008" rx="1.65" ry="2.297"/><ellipse cx="32.759" cy="23.316" fill="#977b00" rx=".825" ry="1.148"/><ellipse cx="31" cy="28" fill="#ffa008" rx="1.65" ry="2.297"/><ellipse cx="31.241" cy="28.316" fill="#977b00" rx=".825" ry="1.148"/><ellipse cx="27" cy="25" fill="#ffa008" rx="1.65" ry="2.297"/><ellipse cx="27.241" cy="25.316" fill="#977b00" rx=".825" ry="1.148"/><ellipse cx="39.746" cy="31.5" fill="#f6fafd" rx=".413" ry=".574" transform="matrix(.707 -.707 .707 .707 -10.631 37.348)"/><ellipse cx="33.746" cy="32.5" fill="#f6fafd" rx=".413" ry=".574" transform="matrix(.707 -.707 .707 .707 -13.097 33.397)"/><ellipse cx="31.746" cy="27.5" fill="#f6fafd" rx=".413" ry=".574"/><ellipse cx="33.746" cy="22.5" fill="#f6fafd" rx=".413" ry=".574"/><ellipse cx="27.746" cy="24.5" fill="#f6fafd" rx=".413" ry=".574"/><ellipse cx="36.746" cy="27.5" fill="#f6fafd" rx=".574" ry=".413" transform="matrix(.707 -.707 .707 .707 -8.685 34.022)"/><ellipse cx="35.746" cy="24.5" fill="#f6fafd" rx=".574" ry=".413" transform="matrix(.707 -.707 .707 .707 -6.857 32.437)"/><path d="m36 35a1.205 1.205 0 0 1 1.263.466.348.348 0 0 1 .18-.439.634.634 0 0 1 .7.313c.168.261.126.545-.094.634a.57.57 0 0 1 -.562-.154.936.936 0 0 1 .053.713c.474.135.952.264 1.434.382a2.241 2.241 0 0 0 -.384-1.557 2.544 2.544 0 0 0 -2.8-1.252 1.364 1.364 0 0 0 -.743 1.63c.207.074.418.14.626.211a.713.713 0 0 1 .327-.947z" fill="#ffa008"/><path d="m37.487 35.82a.79.79 0 0 1 -.139-.159.673.673 0 0 1 -.085-.2 1.205 1.205 0 0 0 -1.263-.461.713.713 0 0 0 -.33.947q.924.316 1.87.586a.936.936 0 0 0 -.053-.713z" fill="#977b00"/><path d="m38.143 35.34a.634.634 0 0 0 -.7-.313.348.348 0 0 0 -.18.439.673.673 0 0 0 .085.2.79.79 0 0 0 .139.159.57.57 0 0 0 .562.154c.22-.094.262-.379.094-.639z" fill="#f6fafd"/><path d="m30.213 32.106a2.137 2.137 0 0 0 -1.954.378c.326.2.66.383.992.572a.959.959 0 0 1 .749-.056.644.644 0 0 1 .375.67c.176.093.354.183.532.273a1.418 1.418 0 0 0 -.694-1.837z" fill="#ffa008"/><path d="m30 33a.959.959 0 0 0 -.749.056q.556.317 1.124.614a.644.644 0 0 0 -.375-.67z" fill="#977b00"/><path d="m23.213 28.106a1.649 1.649 0 0 0 -.876-.073q.809.741 1.659 1.433a1.3 1.3 0 0 0 -.783-1.36z" fill="#ff9202"/><path d="m28.59 30.642c.67-1.046.5-2.181-.377-2.536a2.758 2.758 0 0 0 -3.172 2.18q1.056.8 2.17 1.527a3.087 3.087 0 0 0 1.379-1.171zm-1.8.252a.708.708 0 0 1 -.342-.92c-.22-.089-.262-.373-.1-.634a.636.636 0 0 1 .7-.313.3.3 0 0 1 .113.086 1 1 0 0 1 .839-.113c.439.177.524.745.189 1.268a1.273 1.273 0 0 1 -1.402.626z" fill="#ffa008"/><path d="m28 29a1 1 0 0 0 -.838.113.458.458 0 0 1 -.019.548.636.636 0 0 1 -.7.313.708.708 0 0 0 .342.92 1.273 1.273 0 0 0 1.4-.626c.339-.523.254-1.091-.185-1.268z" fill="#977b00"/><path d="m27.162 29.113a.3.3 0 0 0 -.113-.086.636.636 0 0 0 -.7.313c-.167.261-.125.545.1.634a.636.636 0 0 0 .7-.313.458.458 0 0 0 .013-.548z" fill="#f6fafd"/><ellipse cx="24" cy="9" fill="#f6fafd" rx="1.65" ry="2.297" transform="matrix(.707 -.707 .707 .707 .669 19.615)"/><ellipse cx="28" cy="11" fill="#f6fafd" rx=".825" ry="1.148" transform="matrix(.707 -.707 .707 .707 .427 23.03)"/><ellipse cx="25.746" cy="12.5" fill="#f6fafd" rx=".413" ry=".574" transform="matrix(.707 -.707 .707 .707 -1.295 21.876)"/><path d="m47.868 28.876-1.984.248a15.191 15.191 0 0 1 .116 1.876 14.981 14.981 0 1 1 -.473-3.754l1.936-.5a17.083 17.083 0 1 0 .405 2.13z" fill="#001a1f"/><path d="m31 20v-2a12.989 12.989 0 1 0 2.166.18l-.332 1.972a11.011 11.011 0 1 1 -1.834-.152z" fill="#001a1f"/><path d="m2 23c0-8.745 6.268-16.611 13.925-17.822l-.456 1.822h-1.469c0 1.683 1.757 3 4 3s4-1.317 4-3h-1.469l.417-1.669a16.643 16.643 0 0 1 10.5 8.165l1.736-.992a18.662 18.662 0 0 0 -11.751-9.112l.537-2.15a1 1 0 0 0 -.97-1.242h-3a1 1 0 0 0 -.97.758l-.585 2.342c-9.11.913-16.445 9.717-16.445 19.9a17.56 17.56 0 0 0 13.779 17.533l.443-1.951a15.594 15.594 0 0 1 -12.222-15.582zm16.781-21h.938l-1.5 5.987c-.075 0-.145.013-.223.013a3.353 3.353 0 0 1 -.7-.075z" fill="#001a1f"/></g></svg>