<svg id="icons" height="512" viewBox="0 0 340 340" width="512" xmlns="http://www.w3.org/2000/svg"><path d="m156.9 69.17s-52.2-21.265-87.38 11.985c-70.783 59.384-79.2 199.72 14.335 238.621 15.341 5.21 36.526 4.647 49.071-6.646 0 0 31.317 16.628 66.113 10.054l80.805-146.919s18.944-95.5-85.058-111.348c0 0-22.037-3.093-37.886 4.253z" fill="#ff9773"/><path d="m129.453 85.327c15.219-12.56 43.9-13.9 61.956 8.74 2.8 2.882 1.863 8.314-1.716 9.5-28.6 8.454-45.768-6.8-76.929 14.708-3.248-.165-4.474-2.759-2.222-9.534a71.315 71.315 0 0 1 18.911-23.414z" fill="#de5d47"/><path d="m211.208 68.338c3.892 1.286 41.188 15.125 47.077 74.887a21.28 21.28 0 0 1 -9.708 19.862 15.344 15.344 0 0 0 -6.567 8.969s-34.864 6.054-38.655 46.726a19.819 19.819 0 0 0 -11.768 19.106 25.081 25.081 0 0 1 -8.668 19.5c-13.224 11.607-38.644 24.549-71.861-2.7-15.374-12.613-21.089-42.106-14.558-81.166 1.437-8.6-10.97-11.558-13.556-3.234-9.059 29.159-10.779 69.07 15.374 115.478 6.683 11.86-.759 26.818-14.288 28.34a46.332 46.332 0 0 1 -14.043-.775c13.806 8.331 30.165 11.883 45.93 8.137 6.006-1.379 12.539-3.865 17.012-8.339 0 0 31.317 16.629 66.113 10.055l80.805-146.919s16.845-85.021-68.639-107.927z" fill="#de5d47"/><path d="m15.411 11.6s9.126 94.444 119.934 60.877c0-.002 6.698-81.159-119.934-60.877z" fill="#80b297"/><path d="m197.874 264.8-12.637 15.887a26.988 26.988 0 0 0 1.943 36c7.963 7.812 20.766 14.648 41.192 14.648 47.661 0 74.906-47.117 74.906-47.117z" fill="#ff9773"/><path d="m197.873 264.8 94.807-110.831a8.8 8.8 0 0 1 14.238 1.21c41.982 61.689 7.844 180.906-86.781 150.9-16.774-4.864-36.484-24.043-22.264-41.279z" fill="#ffd066"/><path d="m209.051 239.439a15.292 15.292 0 0 0 11.1 14.8c6.37 1.894 16.561 3.5 27.2-.553a24.74 24.74 0 0 1 8.3-4.391c18-12.429 32.579-42.4 21.8-64-6.513-13.225-22.722-5.769-23.625 3.019l-6.708-.466c-6.51.439-15.7 3.737-17.741 18.371l-6.754 3.65c-2.826 2.738-5.282 7.448-4.429 15.469l-7.864 8.556a14.294 14.294 0 0 0 -1.279 5.545z" fill="#b24242"/><path d="m172.87 21.907 4.67 4.744a11.025 11.025 0 0 1 1.884 12.875c-4.871 9.272-12.5 28.912-14.587 63.454a3.116 3.116 0 0 1 -3.115 2.919h-6.01a3.114 3.114 0 0 1 -3.085-2.641c-1.676-10.919-6.333-53.272 16.712-81.189a2.38 2.38 0 0 1 3.531-.162z" fill="#7f4c45"/><path d="m65.166 163.48c-2.288 9.271-10.039 15.33-17.311 13.535-17.24-5.056-9.317-37.121 8.288-33.57 7.272 1.795 11.312 10.765 9.023 20.035z" fill="#ffded7"/><path d="m12.042 217.49c4.615 59.316 47.786 117.876 104.628 107.272 7.015-1.613 12.659-4.161 16.82-7.588 7.957 4.621 40.02 14.234 62.164 9.992 54.022 26.911 100.66-22.432 110.413-41.028 18.281-24.4 25.942-56.981 20.855-86.631a131.585 131.585 0 0 0 -17.11-46.073c-3.96-7.031-14.627-7.956-19.7-1.661l-5.552 6.489c1.678-55.663-44.955-100.481-108.193-97.1a102.494 102.494 0 0 1 7.649-20.062 14.366 14.366 0 0 0 -2.468-16.817l-6.48-6.581a3.33 3.33 0 0 0 -2.485-1.008 3.382 3.382 0 0 0 -2.437 1.121c-12.059 13.435-17.483 30.285-19.646 45.685a118.313 118.313 0 0 0 -12.533-2.829c-10.798-51.112-59.788-62.344-123.089-52.409a3.379 3.379 0 0 0 -2.83 3.661c1.4 17.3 16.045 57.6 54.176 67.721-39.794 38.08-58.031 84.448-54.182 137.846zm177.5 96.785c-9.552-9.209-8.867-24.378.268-33.917 5.53 32.38 60.513 40.413 87.776 28.2-21.341 20.047-64.686 28.578-88.04 5.717zm105.7-158.11a5.455 5.455 0 0 1 8.778.757c16.443 23.739 30.6 81.45-3.558 125.445-31.753 46.778-122.943 19.461-100.231-15.113l.239-.3 11.518-13.454c40.861 27.476 93.371-39.025 64.338-75.213zm-62.981 66.466a13.957 13.957 0 0 0 -10.8-2.1c.433-5.259 2.839-8.035 4.988-9.481 2.108 6.338 7.816 8.661 15.695 8.07 5.6-.444 7.774 1.2 10.228 3.57 3.236 3.026 7.842-1.716 4.694-4.861-9.609-9.808-17.087-2.357-23.263-7.173a5.156 5.156 0 0 1 -1.09-3.968c1.231-11.172 8.831-16.448 18-15.422.561 3.047 3.484 7.507 8.348 8.138 3.749.055 4.668-5.469 1.035-6.595-6.9-3.1-.289-10.447 5.09-11.167 13.383-2.226 14.181 23.566 10.831 32.586-4.642-7.932-16.218-9.326-16.63-9.314a3.378 3.378 0 0 0 -.664 6.724c5.436.613 16.111 4.39 11.668 15.919-6.151 10.422-13.281 18.181-23.124 22.519-6.152-2.879-7.438-10.843-4.282-14.683 2.3-2.417 6.966 1.868 7.04 1.939 3.249 3.011 7.824-1.745 4.68-4.875-14.613-13.607-27.316 6.016-15.53 19.939a41.135 41.135 0 0 1 -18.066-1.386 11.874 11.874 0 0 1 -8.687-11.483c.176-7.07 7.338-11.2 7.4-11.23a1.7 1.7 0 0 1 .2-.123c.042-.027 4.286-2.719 8.488.083a3.362 3.362 0 0 0 1.871.567c3.213.12 4.676-4.474 1.885-6.193zm-59.41-197.554c3.712 3.719 8.06 7.062 5.183 12.878-4.707 8.959-12.774 29.092-14.953 64.566h-5.542c-1.598-10.729-5.815-50.872 15.312-77.444zm-23.118 45.242a140.83 140.83 0 0 0 -.433 15.621 101.68 101.68 0 0 0 -10.522-14.586c.022-.877.024-2.124-.053-3.683a109.969 109.969 0 0 1 11.008 2.648zm-40.781-44.34c13.958 8.819 21.941 27.837 22.585 37.766a133.147 133.147 0 0 0 -15.411-12.6c-8.596-5.077-8.934-17.802-7.174-25.166zm-6.052-3.769a42.431 42.431 0 0 0 -.494 20.5 176.953 176.953 0 0 0 -19.89-9.268 24.95 24.95 0 0 1 -9-12.942 24.68 24.68 0 0 0 -3.741-7.922q19.409 2.156 33.125 9.632zm-54.342 41.552a34.37 34.37 0 0 0 14.863-7.2 50.394 50.394 0 0 1 11.9-7.121c4.034-1.841 1.4-7.9-2.7-6.192-13.285 5.476-17.685 14.951-31.321 14.451-15.639-15.191-20.652-35.547-22.047-43.278a220.7 220.7 0 0 1 38.215-2.666c.282.049 6.939 1.311 9.543 10.568a29.8 29.8 0 0 0 2.764 6.594 162.1 162.1 0 0 0 -22.005-5.491 3.379 3.379 0 0 0 -1.035 6.678 181.882 181.882 0 0 1 57.065 21.269c-5.283 1.326-17.837 10.368-12.279 14.361a3.383 3.383 0 0 0 4.706-.8c.9-1.259 8.908-11.854 19.5-5.663a116.14 116.14 0 0 1 13.314 11.5c-33.915 9.152-60.366 7.161-80.483-7.01zm25.611 17.762c20.223 3.452 38.069.973 60-5.18a90.319 90.319 0 0 1 15.711 26.177 59.2 59.2 0 0 0 -25.616 4.884 19.745 19.745 0 0 0 -13.9-16.993 3.379 3.379 0 0 0 -1.775 6.52c1 .285 9.4 3.016 9.063 13.93-36.974 22.1-38.377 66.661-38.419 68.589a3.378 3.378 0 1 0 6.755.147c-1.027-10.957 12.991-70.046 61.645-70.32h27.308a33.915 33.915 0 0 0 13.483-2.336c11.418-4.56 10.752-21.653-1.128-25.1-.527 1.6-1.515 4.842-1.97 6.464a6.585 6.585 0 0 1 .513 12.4 27.244 27.244 0 0 1 -10.594 1.828c-.071-.005-.143-.007-.215-.007h-5.182a214.1 214.1 0 0 1 4.759-34.411 91.938 91.938 0 0 1 19.666.147c80.08 12.2 84.971 72.546 83.305 98.164l-7.419 8.674c-7.279-1.817-16.205 2.983-18.8 9.436-11.442-1.276-22.6 5.219-24.967 19-5.34 1.933-12.28 7.715-11.728 20.086-6.25 4.1-12.323 14.674-6.955 24.476-6.539 7.384-19.088 22.662-25.125 30.489a30.356 30.356 0 0 0 4.513 42.618c-66 1.345-99.749-44.681-102.923-94.385a3.378 3.378 0 0 0 -6.756-.065c-.359 24.087 15.267 66.506 49.6 86.76-11.857 7.124-28.85 7.7-42.074 3.069-90.123-36.202-83.278-176.833-10.775-235.061z" fill="#2b2b2b"/></svg>