<svg id="Capa_1" enable-background="new 0 0 512 512" height="512" viewBox="0 0 512 512" width="512" xmlns="http://www.w3.org/2000/svg"><g><g><path d="m259.414 123.155c-11.196-13.319-19.594-28.795-24.71-45.426-13.657-44.403-40.784-70.205-72.025-70.205s-58.368 25.801-72.026 70.205c-5.115 16.631-13.513 32.107-24.71 45.426-18.459 21.959-29.58 50.29-29.58 81.222 0 69.762 56.553 135.209 126.315 135.209s126.315-65.447 126.315-135.209c.001-30.931-11.12-59.263-29.579-81.222z" fill="#b9ea6a"/></g><g><path d="m259.414 123.155c-11.196-13.319-19.594-28.795-24.709-45.426-13.658-44.403-40.785-70.205-72.026-70.205-2.963 0-5.889.235-8.77.693 9.173 11.347 16.795 26.121 22.257 43.88 5.115 16.631 13.513 32.107 24.709 45.426 18.459 21.959 29.58 50.29 29.58 81.222 0 69.762-56.553 135.209-126.315 135.209-5.079 0-10.086-.357-15.008-1.027 20.715 16.53 46.107 26.66 73.547 26.66 69.762 0 126.315-65.447 126.315-135.209 0-30.932-11.12-59.264-29.58-81.223z" fill="#a1e42c"/></g><g><circle cx="162.679" cy="205.077" fill="#7db723" r="60.973"/></g><g><path d="m185.978 148.725c2.975 7.187 4.623 15.062 4.619 23.324-.015 33.675-27.325 60.961-61 60.946-8.244-.004-16.101-1.652-23.272-4.621 9.149 22.105 30.915 37.665 56.327 37.676 33.675.015 60.985-27.272 61-60.946.011-25.431-15.552-47.223-37.674-56.379z" fill="#78a61f"/></g><g><path d="m397.827 123.155c-11.196-13.319-19.594-28.795-24.71-45.426-13.657-44.403-40.785-70.205-72.025-70.205s-58.368 25.801-72.026 70.205c-5.115 16.631-13.513 32.107-24.71 45.426-18.459 21.959-29.58 50.29-29.58 81.222 0 69.762 56.553 135.209 126.315 135.209s126.315-65.447 126.315-135.209c.001-30.931-11.12-59.263-29.579-81.222z" fill="#3c5959"/></g><g><path d="m397.827 123.155c-11.196-13.319-19.594-28.795-24.709-45.426-13.658-44.403-40.786-70.205-72.026-70.205-2.963 0-5.889.235-8.77.693 9.173 11.347 16.795 26.121 22.257 43.88 5.115 16.631 13.513 32.107 24.709 45.426 18.459 21.959 29.58 50.29 29.58 81.222 0 69.762-56.553 135.209-126.315 135.209-5.079 0-10.086-.357-15.008-1.027 20.715 16.53 46.107 26.66 73.547 26.66 69.762 0 126.315-65.447 126.315-135.209 0-30.932-11.121-59.264-29.58-81.223z" fill="#394949"/></g><g><path d="m412.032 221.282c-15.078-8.684-28.265-20.352-38.762-34.228-28.028-37.049-62.347-52.01-91.701-41.32s-46.015 44.217-43.654 90.613c.884 17.377-1.71 34.793-7.673 51.139-9.831 26.95-10.585 57.376 0 86.441 23.872 65.55 99.407 107.694 164.957 83.822s96.293-104.721 72.421-170.271c-10.585-29.063-30.729-51.879-55.588-66.196z" fill="#b9ea6a"/></g><g><path d="m467.62 287.479c-10.585-29.064-30.729-51.88-55.588-66.197-15.078-8.684-28.265-20.352-38.763-34.228-28.028-37.049-62.347-52.01-91.701-41.32-.932.339-1.851.703-2.758 1.088 17.13 6.521 34.207 20.11 49.429 40.231 10.498 13.876 23.684 25.545 38.763 34.228 24.859 14.316 45.003 37.132 55.588 66.197 23.872 65.55-6.871 146.399-72.421 170.271-5.379 1.959-10.826 3.465-16.306 4.558 20.2 3.865 41.236 2.762 61.336-4.558 65.55-23.871 96.293-104.72 72.421-170.27z" fill="#a1e42c"/></g><g><circle cx="349.17" cy="331.361" fill="#c56e37" r="60.973"/></g><g><path d="m406.462 310.496c-5.809-15.951-17.585-27.998-31.886-34.555.679 1.485 1.321 2.997 1.889 4.557 11.523 31.642-4.786 66.634-36.427 78.157-15.691 5.714-32.202 4.577-46.27-1.873 13.094 28.614 46.187 42.825 76.268 31.87 31.64-11.522 47.949-46.514 36.426-78.156z" fill="#a95e2c"/></g><g><circle cx="162.679" cy="443.463" fill="#c56e37" r="60.973"/></g><g><path d="m219.971 422.599c-5.809-15.951-17.585-27.998-31.886-34.555.679 1.485 1.321 2.997 1.889 4.557 11.523 31.642-4.786 66.634-36.427 78.157-15.691 5.714-32.202 4.577-46.27-1.873 13.094 28.614 46.187 42.825 76.268 31.87 31.64-11.523 47.95-46.515 36.426-78.156z" fill="#a95e2c"/></g><g><path d="m474.689 284.904c-8.346-22.919-22.803-43.041-41.566-58.234 1.2-7.414 1.808-14.898 1.808-22.293 0-31.455-11.132-62.02-31.345-86.064-10.583-12.589-18.415-26.988-23.277-42.797-14.544-47.285-44.158-75.516-79.217-75.516-28.314 0-53.072 18.421-69.213 50.413-6.621-13.083-14.771-24.083-24.025-32.318-13.301-11.838-28.923-18.095-45.175-18.095-17.499 0-34.121 7.189-48.067 20.791-2.975 2.901-3.035 7.665-.133 10.64 2.901 2.975 7.664 3.034 10.64.134 11.079-10.805 24.067-16.516 37.56-16.516 25.648 0 47.847 19.788 61.197 54.393-.692 1.993-1.367 4.009-2.003 6.076-4.861 15.807-12.693 30.206-23.277 42.797-5.658 6.731-10.604 13.973-14.794 21.603-6.786-2.202-13.854-3.333-21.095-3.337-.011 0-.02 0-.03 0-18.283 0-35.479 7.117-48.414 20.041-12.943 12.932-20.075 30.13-20.083 48.426-.017 37.77 30.698 68.511 68.468 68.527h.03c7.112 0 14.078-1.094 20.772-3.225 8.195 16.024 19.283 30.658 32.794 42.852-.199 1.514-.365 3.031-.513 4.55-16.542 9.369-34.812 14.31-53.053 14.31-63.281 0-118.791-59.666-118.791-127.685 0-27.917 9.878-55.043 27.815-76.38 11.889-14.143 20.684-30.312 26.141-48.056 2.583-8.395 5.714-16.22 9.305-23.258 1.889-3.701.419-8.234-3.282-10.122-3.699-1.888-8.233-.42-10.122 3.282-3.984 7.812-7.444 16.449-10.283 25.674-4.861 15.807-12.693 30.206-23.277 42.797-20.213 24.045-31.344 54.609-31.344 86.064 0 35.642 14.2 71.665 38.959 98.833 25.8 28.309 59.495 43.9 94.88 43.9 17.938 0 35.864-4.156 52.497-12.102.453 14.07 3.113 28.088 7.995 41.494 12.197 33.49 37.866 62.48 70.427 79.535 20.338 10.652 41.775 16.04 62.849 16.04 14.083 0 28.007-2.407 41.325-7.257 33.248-12.109 59.575-38.288 74.129-73.717 13.97-34.001 14.986-72.709 2.788-106.2zm-312.01-26.378c-.008 0-.017 0-.024 0-29.471-.013-53.438-24-53.425-53.472.013-29.465 23.986-53.426 53.449-53.426h.024c4.977.002 9.845.692 14.549 2.023-6.544 15.986-9.998 33.217-9.998 50.726 0 17.789 3.496 35.509 9.985 52.143-4.712 1.332-9.589 2.006-14.56 2.006zm19.622-54.149c0-27.918 9.878-55.043 27.815-76.38 11.889-14.143 20.684-30.312 26.142-48.056 12.497-40.634 36.735-64.893 64.834-64.893 28.098 0 52.336 24.259 64.833 64.893 5.46 17.747 14.255 33.915 26.142 48.056 17.938 21.337 27.816 48.463 27.816 76.38 0 4.129-.22 8.291-.643 12.452-1.141-.704-2.288-1.397-3.452-2.067-14.254-8.209-26.54-19.058-36.517-32.247-29.847-39.454-67.331-55.847-100.277-43.85-32.943 11.997-51.109 48.657-48.593 98.066.841 16.517-1.591 32.726-7.227 48.178-1.293 3.546-2.427 7.136-3.41 10.758-23.64-24.519-37.463-57.784-37.463-91.29zm275.682 181.008c-12.926 31.465-36.138 54.654-65.359 65.295-59.459 21.654-132.038-15.414-155.313-79.327-9.553-26.232-9.553-55.101-.001-81.288 6.331-17.357 9.063-35.559 8.119-54.101-2.161-42.457 12.311-73.545 38.714-83.16 5.371-1.956 10.933-2.914 16.605-2.914 22.213 0 46.09 14.696 66.521 41.703 11.2 14.806 24.997 26.989 41.008 36.209 24.155 13.911 42.719 36.018 52.273 62.251 10.929 30.011 9.993 64.758-2.567 95.332z"/><path d="m403.107 289.112c-2.562-3.272-7.291-3.847-10.563-1.286-3.271 2.562-3.847 7.291-1.285 10.563 3.457 4.416 6.194 9.355 8.135 14.682 10.084 27.693-4.241 58.427-31.933 68.512-27.699 10.087-58.427-4.241-68.513-31.932-4.885-13.415-4.254-27.929 1.777-40.869s16.74-22.757 30.156-27.643c11.561-4.211 23.815-4.349 35.438-.404 3.932 1.336 8.207-.77 9.543-4.706 1.336-3.935-.77-8.208-4.706-9.543-14.69-4.989-30.822-4.806-45.426.512-17.192 6.261-30.917 18.842-38.646 35.426-7.73 16.584-8.538 35.185-2.277 52.376 10.117 27.78 36.446 45.064 64.43 45.062 7.766 0 15.662-1.332 23.371-4.139 35.489-12.924 53.847-52.312 40.923-87.802-2.481-6.817-5.99-13.145-10.424-18.809z"/><path d="m139.24 379.101c-35.489 12.925-53.847 52.313-40.922 87.802 2.697 7.409 6.593 14.218 11.575 20.24 2.651 3.203 7.393 3.648 10.595.999 3.201-2.65 3.648-7.392.999-10.594-3.884-4.693-6.922-10.007-9.03-15.795-10.085-27.692 4.239-58.427 31.932-68.512 27.693-10.088 58.426 4.24 68.513 31.932 4.885 13.415 4.254 27.929-1.777 40.869s-16.74 22.757-30.156 27.642c-11.26 4.1-23.223 4.336-34.596.682-3.956-1.272-8.194.905-9.465 4.862s.906 8.194 4.862 9.465c6.865 2.205 13.893 3.306 20.917 3.306 7.9 0 15.794-1.394 23.431-4.175 17.192-6.261 30.917-18.842 38.646-35.425 7.73-16.584 8.538-35.185 2.277-52.376-12.924-35.489-52.313-53.846-87.801-40.922z"/></g></g></svg>