<svg height="512" viewBox="0 0 64 64" width="512" xmlns="http://www.w3.org/2000/svg"><path d="M37.68 14.72A11.57 11.57 0 0 0 42.45 4c8.28 8.27-1 18.52-2.93 20.48 2-1.93 12.2-11.21 20.48-2.93a11.57 11.57 0 0 0-10.72 4.77l-7.8 7.81-6.59-6.59-.6-7.94z" fill="#90cfa1"/><path d="M32.79 18.27c2.28-5.52-1.28-12.87-1.28-12.87 6.87 6.87 7.44 13.08 6.2 17.66l3.17 3.24c4.58-1.3 10.82-.71 17.72 6.19 0 0-7.41-3.59-12.94-1.26z" fill="#a0d9ae"/><path d="M22.2 16.78a4.83 4.83 0 0 0-4.56 3.53 5.61 5.61 0 0 0-7.48 7.32 5 5 0 0 0-1.89 1.17 4.84 4.84 0 0 0-1 5.42 4.75 4.75 0 0 0-1.89 1.16 4.35 4.35 0 0 0-.23 6.14 3.9 3.9 0 0 0 1.82 1 6.19 6.19 0 0 0-.67.58c-1.88 1.9-2.08 4.76-.45 6.39a4 4 0 0 0 3.26 1.08 3.81 3.81 0 0 0 4.32 4.33 4 4 0 0 0 1.08 3.25c1.63 1.63 4.48 1.43 6.36-.46a6.19 6.19 0 0 0 .58-.67 3.85 3.85 0 0 0 1 1.82 4.35 4.35 0 0 0 6.14-.23 4.75 4.75 0 0 0 1.16-1.89 4.84 4.84 0 0 0 6.59-2.89 5.6 5.6 0 0 0 7.32-7.47 4.84 4.84 0 0 0 2.12-8.08 4.87 4.87 0 0 0-2.07-1.23 5.17 5.17 0 0 0 .62-.52 4.85 4.85 0 0 0-3.6-8.27 4.86 4.86 0 0 0-5-5 4.85 4.85 0 0 0-8.27-3.6 5.17 5.17 0 0 0-.52.62 4.84 4.84 0 0 0-4.57-3.48.54.54 0 0 0-.18 0z" fill="#525768"/><path d="M44.57 19.43c2.5-4.43 4.07-10.66-1.41-16.14a1 1 0 0 0-1.69.89 10.51 10.51 0 0 1-3.46 9 24.88 24.88 0 0 0-5.79-8.44 1 1 0 0 0-1.61 1.15c0 .06 3.09 6.51 1.45 11.49a6.42 6.42 0 0 0-1.16-.11 5.75 5.75 0 0 0-3.66 1.29 5.68 5.68 0 0 0-.81-1 5.84 5.84 0 0 0-8.26 0 5.51 5.51 0 0 0-1.1 1.56 6.59 6.59 0 0 0-8.14 8 5.92 5.92 0 0 0-1.37 1A5.86 5.86 0 0 0 6 33.68a6 6 0 0 0-1.35 1 5.35 5.35 0 0 0-.23 7.55 4.68 4.68 0 0 0 .78.63 5.46 5.46 0 0 0-.09 7.34 4.81 4.81 0 0 0 3 1.35 4.63 4.63 0 0 0 4.31 4.32 4.74 4.74 0 0 0 4.83 4.38h.41a6.09 6.09 0 0 0 3.47-1.47 4.68 4.68 0 0 0 .63.78A5 5 0 0 0 25.33 61a5.68 5.68 0 0 0 4-1.68 6 6 0 0 0 1-1.35 5.86 5.86 0 0 0 5.58-1.53 5.92 5.92 0 0 0 1-1.37 6.59 6.59 0 0 0 8-8.14 5.51 5.51 0 0 0 1.56-1.1 5.84 5.84 0 0 0 0-8.26 5.44 5.44 0 0 0-1-.82 5.87 5.87 0 0 0 1.19-4.81c5-1.64 11.44 1.42 11.5 1.45a1 1 0 0 0 .44.1 1 1 0 0 0 .71-1.71A25.22 25.22 0 0 0 50.87 26a10.39 10.39 0 0 1 9-3.45 1 1 0 0 0 1.02-.55 1 1 0 0 0-.18-1.17c-5.48-5.47-11.71-3.9-16.14-1.4zm-4.49 20a3.76 3.76 0 0 1-1.26.82 6.42 6.42 0 0 0-1.38-2 6.61 6.61 0 0 0-2.23-1.47 5.4 5.4 0 0 0 1.26-.93 5.79 5.79 0 0 0 1.58-2.88 3.83 3.83 0 0 1 2 6.49zM18.85 53.8a3 3 0 0 1-.85-1.66 5.61 5.61 0 0 0 2.63-1.48 5.54 5.54 0 0 0 .77-1 5.73 5.73 0 0 0 1.19 1.74 5.63 5.63 0 0 0 1.67 1.16 3.82 3.82 0 0 1-.71 1 3.36 3.36 0 0 1-4.7.24zm-8.42-13.38a3.82 3.82 0 0 1 1-.71 5.75 5.75 0 0 0 2.89 2.86 5.86 5.86 0 0 0-1 .77A5.6 5.6 0 0 0 11.85 46a2.9 2.9 0 0 1-1.65-.81 3.36 3.36 0 0 1 .23-4.77zM30 23.92a3.88 3.88 0 0 1 1.06 2 5.81 5.81 0 0 0-2.89 1.57 5.62 5.62 0 0 0-.93 1.26 6.61 6.61 0 0 0-1.47-2.23 6.42 6.42 0 0 0-2-1.38 3.76 3.76 0 0 1 .82-1.26 4 4 0 0 1 5.41.04zm5 10.46a3.79 3.79 0 0 1-1.73 1 6.44 6.44 0 0 0-1.71-3 6.56 6.56 0 0 0-3-1.72 3.83 3.83 0 0 1 7.54 1 3.86 3.86 0 0 1-1.04 2.72zM19 45a3.82 3.82 0 0 1 1.53-6.36 6.53 6.53 0 0 0 1.74 3.09 6.46 6.46 0 0 0 3.09 1.74A3.82 3.82 0 0 1 19 45zm8-3.34a4.61 4.61 0 1 1 3.26-1.35A4.58 4.58 0 0 1 27 41.66zm-5.82-15A4.61 4.61 0 0 1 24.4 28a4.7 4.7 0 0 1 1.29 2.59 6.62 6.62 0 0 0-5.22 5.22 4.6 4.6 0 0 1 .66-9.16zm-4.67 9.29a6.62 6.62 0 0 0 2.16 1.43 6 6 0 0 0-1 .8A5.81 5.81 0 0 0 16 41a3.85 3.85 0 0 1-2-6.5 4 4 0 0 1 1-.73 6.76 6.76 0 0 0 1.46 2.14zm-1.7 8.84a3.67 3.67 0 0 1 1.38-.87 5.66 5.66 0 0 0 4 4 3.67 3.67 0 0 1-.87 1.38 3.37 3.37 0 0 1-4.73.24 3.37 3.37 0 0 1 .17-4.79zM24 50a3.88 3.88 0 0 1-1-2 5.81 5.81 0 0 0 2.89-1.57 6 6 0 0 0 .8-1 6.62 6.62 0 0 0 1.43 2.16A6.76 6.76 0 0 0 30.2 49a3.81 3.81 0 0 1-.73 1A4 4 0 0 1 24 50zm8.74-2.53a4.61 4.61 0 0 1-4.55-3.94 6.52 6.52 0 0 0 3.4-1.82 6.6 6.6 0 0 0 1.82-3.41A4.65 4.65 0 0 1 36 39.61a4.62 4.62 0 0 1-3.26 7.87zm5.36-16.59a5.81 5.81 0 0 0-1.66-3.36 5.72 5.72 0 0 0-3.36-1.64c0-.12 0-.23-.06-.35l.15-.18a4 4 0 0 1 5.44 0 3.86 3.86 0 0 1 0 5.44l-.18.14zm5.32-24c4 6.64-2 14.06-4.18 16.46a5.43 5.43 0 0 0-.51-.32 15.7 15.7 0 0 0-.06-7.8 12.74 12.74 0 0 0 4.78-8.38zM34.09 10c2.81 4.07 3.73 8.2 2.76 12.33h-.17a5.86 5.86 0 0 0-1.68-3.4 5.7 5.7 0 0 0-1.11-.86 15.34 15.34 0 0 0 .2-8.07zm-5.91 10.34a3.84 3.84 0 0 1 6.5 2 5.79 5.79 0 0 0-2.42 1.16 5.68 5.68 0 0 0-.81-1 5.81 5.81 0 0 0-3.36-1.66l-.09-.32zm-8.6-1.44a3.85 3.85 0 0 1 5.44 0 3.92 3.92 0 0 1 1.06 2 5.78 5.78 0 0 0-4.21 3.65A6.66 6.66 0 0 0 20 20.74a6.53 6.53 0 0 0-1.1-.88 3.84 3.84 0 0 1 .68-.96zm-7.52 3.26a4.6 4.6 0 0 1 7.81 2.58 6.59 6.59 0 0 0-3.41 1.82A6.5 6.5 0 0 0 14.65 30a4.6 4.6 0 0 1-2.59-7.81zM9 29.51a4.36 4.36 0 0 1 .76-.58 7.15 7.15 0 0 0 .91 1.16 6.59 6.59 0 0 0 3.67 1.85 5.84 5.84 0 0 0-1.73 1.18A5.78 5.78 0 0 0 11 36a3.92 3.92 0 0 1-2-1 3.86 3.86 0 0 1 0-5.44zm-2.9 6.58a3.56 3.56 0 0 1 .76-.58 5.1 5.1 0 0 0 .7.85 5.78 5.78 0 0 0 2.93 1.58A5.94 5.94 0 0 0 9 39a5.65 5.65 0 0 0-1.49 2.62 2.9 2.9 0 0 1-1.65-.81 3.36 3.36 0 0 1 .24-4.72zm.9 7.74c.08-.08.18-.14.27-.22h.11a4.94 4.94 0 0 0 1.39 2.94 4.68 4.68 0 0 0 .78.63 6.3 6.3 0 0 0-1.27 2.39 2.9 2.9 0 0 1-1.73-.79c-1.23-1.23-1.03-3.45.45-4.95zm4.33 4.34c.09-.09.18-.15.27-.23h.11A4.83 4.83 0 0 0 16 52.28s0 .09 0 .13l-.21.25a4.22 4.22 0 0 1-2.65 1.25 2.85 2.85 0 0 1-2.3-.8c-1.19-1.23-.99-3.45.5-4.94zM20.16 57a4.17 4.17 0 0 1-2.64 1.25 2.92 2.92 0 0 1-2.3-.8 2.79 2.79 0 0 1-.79-1.73 6.12 6.12 0 0 0 2.39-1.25 5 5 0 0 0 .62.76 5 5 0 0 0 2.92 1.39.59.59 0 0 0 0 .13c-.06.07-.12.16-.2.25zm7.75.91a3.36 3.36 0 0 1-4.73.23 3 3 0 0 1-.82-1.66A5.61 5.61 0 0 0 25 55a6 6 0 0 0 1.07-1.49 5.81 5.81 0 0 0 1.58 2.94 5.1 5.1 0 0 0 .85.7 3.56 3.56 0 0 1-.59.75zM34.49 55A3.84 3.84 0 0 1 28 53a5.79 5.79 0 0 0 4.07-3.3 6.59 6.59 0 0 0 1.85 3.66 6.38 6.38 0 0 0 1.16.91 4.36 4.36 0 0 1-.59.73zm7.35-3.09a4.61 4.61 0 0 1-6.52 0A4.64 4.64 0 0 1 34 49.35a6.62 6.62 0 0 0 5.23-5.22 4.6 4.6 0 0 1 2.58 7.81zm3.26-7.52a4.11 4.11 0 0 1-1 .69 6.53 6.53 0 0 0-.88-1.1 6.64 6.64 0 0 0-3.83-1.88 5.76 5.76 0 0 0 3.63-4.21 3.85 3.85 0 0 1 2 6.5zm-2-8.51a5.74 5.74 0 0 0-2.66-4.17 5.67 5.67 0 0 0 1.16-2.42 3.92 3.92 0 0 1 2 1.06 3.85 3.85 0 0 1 0 5.44l-.18.15zm2.79-5.83a6 6 0 0 0-.82-1.05 5.87 5.87 0 0 0-3.36-1.66v-.16c4.13-1 8.26 0 12.33 2.76a15.37 15.37 0 0 0-8.12.14zm2.9-4.78a15.7 15.7 0 0 0-7.8-.06 3.36 3.36 0 0 0-.32-.51c2.41-2.23 9.82-8.21 16.46-4.18a12.74 12.74 0 0 0-8.31 4.78z" fill="#242c3c"/></svg>