<svg height="512" viewBox="0 0 48 48" width="512" xmlns="http://www.w3.org/2000/svg"><g id="_05-cherry" data-name="05-cherry"><path d="m25 1v5.52a3.869 3.869 0 0 0 -2-.52 2.741 2.741 0 0 0 -1.95 1.05l-.05-.05v-6z" fill="#4f4600"/><path d="m12.18 19.44a7.418 7.418 0 0 0 2.82.6 7.509 7.509 0 0 0 2.83-.6 3.467 3.467 0 0 1 1.64-.44h.92c5.35 0 8.61 4.67 8.61 10.44a13.617 13.617 0 0 1 -14 13.56 13.617 13.617 0 0 1 -14-13.56c0-5.77 3.26-10.44 8.62-10.44h.92a3.5 3.5 0 0 1 1.64.44z" fill="#b31700"/><path d="m45.955 30.448c2.66 5.66.11 12.419-6.139 15.319s-13.109.49-15.759-5.18c-2.05-4.349-1.16-9.059 3.03-11l.72-.33a3.133 3.133 0 0 1 1.44-.27 6.026 6.026 0 0 0 4.419-2.05 3.167 3.167 0 0 1 1.13-.92l.72-.33c4.19-1.938 8.389.401 10.439 4.761z" fill="#da1202"/><path d="m25 5c7.53 0 16 3 16 12z" fill="#8bc808"/><path d="m25 5 16 12c-9.41 0-16-6-16-12z" fill="#589e00"/><path d="m25 1v5.52a3.869 3.869 0 0 0 -2-.52 2.741 2.741 0 0 0 -1.95 1.05l-.05-.05v-6z" fill="#4f4600"/><path d="m23 6a3.869 3.869 0 0 1 2 .52v-2a3.869 3.869 0 0 0 -2-.52z" fill="#4f4600"/><path d="m21.05 5.05-.05-.05v2l.05.05a2.741 2.741 0 0 1 1.95-1.05v-2a2.741 2.741 0 0 0 -1.95 1.05z" fill="#403700"/><path d="m23 4a3.869 3.869 0 0 1 2 .52v-3.52h-2z" fill="#745a00"/><path d="m12.18 19.44a7.418 7.418 0 0 0 2.82.6 7.509 7.509 0 0 0 2.83-.6 3.467 3.467 0 0 1 1.64-.44h.92c5.35 0 8.61 4.67 8.61 10.44a13.617 13.617 0 0 1 -14 13.56 13.617 13.617 0 0 1 -14-13.56c0-5.77 3.26-10.44 8.62-10.44h.92a3.5 3.5 0 0 1 1.64.44z" fill="#b31700"/><path d="m27.087 29.588.72-.33a3.04 3.04 0 0 1 1.178-.252c-.014-.457-.046-.905-.1-1.345a7.378 7.378 0 0 1 -1.209.767 6.716 6.716 0 0 1 -2.429.56 3.133 3.133 0 0 0 -1.44.27l-.72.33c-4.19 1.94-5.08 6.65-3.03 11a11.013 11.013 0 0 0 .7 1.257 13.758 13.758 0 0 0 3.067-1.8c-1.724-4.194-.753-8.598 3.263-10.457z" fill="#961300"/><path d="m20.39 19h-.92a3.467 3.467 0 0 0 -1.64.44 7.509 7.509 0 0 1 -2.83.6 7.418 7.418 0 0 1 -2.82-.6 3.5 3.5 0 0 0 -1.64-.44h-.92c-5.36 0-8.62 4.67-8.62 10.44a13.617 13.617 0 0 0 14 13.56 13.617 13.617 0 0 0 14-13.56c0-5.77-3.26-10.44-8.61-10.44zm-3.39 21a10.737 10.737 0 0 1 -11-10.735c0-4.565 2.561-8.265 6.773-8.265h.727a2.739 2.739 0 0 1 1.288.348 5.793 5.793 0 0 0 2.212.475 5.866 5.866 0 0 0 2.224-.475 2.711 2.711 0 0 1 1.288-.348h.723c4.204 0 6.765 3.7 6.765 8.265a10.737 10.737 0 0 1 -11 10.735z" fill="#961300"/><path d="m45.955 30.448c2.66 5.66.11 12.419-6.139 15.319s-13.109.49-15.759-5.18c-2.05-4.349-1.16-9.059 3.03-11l.72-.33a3.133 3.133 0 0 1 1.44-.27 6.026 6.026 0 0 0 4.419-2.05 3.167 3.167 0 0 1 1.13-.92l.72-.33c4.19-1.938 8.389.401 10.439 4.761z" fill="#da1202"/><path d="m21.235 21h-.723a2.711 2.711 0 0 0 -1.288.348 4.5 4.5 0 0 1 -1.215.366 3.244 3.244 0 0 1 .41.262l-1.411-.058a2.093 2.093 0 0 1 -2.008 1.082 2.224 2.224 0 0 1 -2-1h-1.445a4.783 4.783 0 0 1 2.43-.931 2.362 2.362 0 0 0 -.485-.069h-.723a6.281 6.281 0 0 0 -5.754 3.672c.198 2.405 4.583 4.328 9.977 4.328s9.78-1.924 9.981-4.329a6.276 6.276 0 0 0 -5.746-3.671z" fill="#da1202"/><path d="m13 22a2.224 2.224 0 0 0 2 1 2.093 2.093 0 0 0 2.008-1.082l1.411.058a3.244 3.244 0 0 0 -.41-.262 6.02 6.02 0 0 1 -1.009.109 5.793 5.793 0 0 1 -2.216-.475 2.989 2.989 0 0 0 -.8-.279 4.783 4.783 0 0 0 -2.43.931z" fill="#b31700"/><path d="m18.9 22.559a1.692 1.692 0 0 0 -.476-.583l-1.411-.058a2.093 2.093 0 0 1 -2.013 1.082 2.224 2.224 0 0 1 -2-1h-1.445a1.675 1.675 0 0 0 -.45.559 4.043 4.043 0 0 0 3.895 2.441 4.043 4.043 0 0 0 3.9-2.441z" fill="#780f00"/><path d="m45.955 30.448c-2.05-4.36-6.249-6.7-10.439-4.76l-.72.33a3.167 3.167 0 0 0 -1.13.92 6.026 6.026 0 0 1 -4.419 2.05 3.133 3.133 0 0 0 -1.44.27l-.72.33c-4.19 1.94-5.08 6.65-3.03 11 2.65 5.67 9.5 8.08 15.759 5.18s8.799-9.66 6.139-15.32zm-5.942 12.543c-5.216 2.373-10.924.4-13.132-4.238-1.708-3.559-.967-7.412 2.525-9l.6-.27a2.653 2.653 0 0 1 1.2-.221 5.676 5.676 0 0 0 2.024-.458 5.568 5.568 0 0 0 1.658-1.219 2.633 2.633 0 0 1 .942-.753l.6-.27c3.491-1.587 6.991.328 8.7 3.895 2.216 4.631.091 10.161-5.117 12.534z" fill="#b31700"/><path d="m36.43 26.563-.6.27a2.633 2.633 0 0 0 -.942.753 5.568 5.568 0 0 1 -1.658 1.219 5.676 5.676 0 0 1 -2.024.458 2.653 2.653 0 0 0 -1.2.221l-.6.27a5.737 5.737 0 0 0 -3.355 6.165c2.125 2.147 7.117 2.138 12.037-.218a16.378 16.378 0 0 0 6.812-5.685c-1.781-3.277-5.127-4.972-8.47-3.453z" fill="#fe4c4a"/><path d="m33.321 33.287a5.018 5.018 0 0 0 .531-.208c.052-.025.1-.053.146-.079l-.02.01c-.221.103-.44.19-.657.277z" fill="#780f00"/><path d="m33.011 31.264a2.216 2.216 0 0 0 1.359-1.614 11.321 11.321 0 0 0 -1.682.625 10.884 10.884 0 0 0 -1.772 1.025 2.356 2.356 0 0 0 2.095-.036z" fill="#b31700"/><path d="m36.173 30.633a3.282 3.282 0 0 0 .2-1.236 5.639 5.639 0 0 0 -2 .253 2.216 2.216 0 0 1 -1.359 1.614 2.356 2.356 0 0 1 -2.1.039 4.586 4.586 0 0 0 -1.411 1.43 3.829 3.829 0 0 0 2.391.787 4.564 4.564 0 0 0 1.425-.233c.217-.086.436-.174.657-.277l.024-.01a4.35 4.35 0 0 0 2.173-2.367z" fill="#961300"/><path d="m33.434 29.965c-1.015-3.45-1.73-7.039-2.354-10.269-1.314-6.8-2.352-12.169-5.574-14.039a4.891 4.891 0 0 0 -2.506-.657 3.684 3.684 0 0 0 -2.684 1.37c-1.976 2.131-3.807 6.9-5.713 14.9q-.187.788-.376 1.618a2.729 2.729 0 0 0 .773.112 2.444 2.444 0 0 0 1.335-.362c.067-.288.134-.564.2-.844 1.789-7.5 3.552-12.236 5.247-14.065a1.835 1.835 0 0 1 1.218-.729 2.874 2.874 0 0 1 1.5.385c2.439 1.415 3.448 6.64 4.618 12.691a110.216 110.216 0 0 0 2.5 10.776c.067.223.131.447.2.669a2.613 2.613 0 0 0 1.2-.257 2.758 2.758 0 0 0 .68-.443c-.098-.284-.179-.57-.264-.856z" fill="#3f7000"/><ellipse cx="15" cy="23" fill="#3f7000" rx="2" ry="1"/><ellipse cx="33" cy="31" fill="#3f7000" rx="1.612" ry=".807" transform="matrix(.906 -.423 .423 .906 -10.023 16.891)"/><path d="m20.783 7.729c-1.7 1.829-3.458 6.562-5.247 14.065-.067.28-.134.556-.2.844a2.34 2.34 0 0 1 -.828.313 2.664 2.664 0 0 0 .492.049 2.444 2.444 0 0 0 1.335-.362c.067-.288.134-.564.2-.844 1.789-7.5 3.552-12.236 5.247-14.065a2.448 2.448 0 0 1 .869-.651 3.163 3.163 0 0 0 -.651-.078 1.835 1.835 0 0 0 -1.217.729z" fill="#63b300"/><path d="m33.434 29.965c-1.015-3.45-1.73-7.039-2.354-10.269-1.314-6.8-2.352-12.169-5.574-14.039a4.891 4.891 0 0 0 -2.506-.657 2.866 2.866 0 0 0 -.332.041 4.77 4.77 0 0 1 1.838.616c3.222 1.87 4.26 7.24 5.574 14.039.624 3.23 1.339 6.819 2.354 10.269.085.286.168.572.257.856a2.758 2.758 0 0 1 -.68.443c-.085.039-.165.068-.246.1.016.053.031.107.048.16a2.613 2.613 0 0 0 1.2-.257 2.758 2.758 0 0 0 .68-.443c-.093-.287-.174-.573-.259-.859z" fill="#63b300"/><path d="m44.666 32.415a14.263 14.263 0 0 0 -1.643-3.487c-.174-.284-.36-.556-.551-.82a1.738 1.738 0 0 0 -2.036-1.036 2.629 2.629 0 0 0 -1.375 3.054c.007.036.02.068.028.1a3.06 3.06 0 0 0 .191.566c.037.038.074.075.112.11.362.33.713.685 1.052 1.055a19.209 19.209 0 0 1 2.843 4.086 2.846 2.846 0 0 0 .488.751.541.541 0 0 0 .7.118 1.081 1.081 0 0 0 .3-.547 7.25 7.25 0 0 0 -.109-3.95z" fill="#fe4c4a"/><path d="m44.154 31.049a18.009 18.009 0 0 0 -1.131-2.121c-.174-.284-.36-.556-.551-.82a1.738 1.738 0 0 0 -2.036-1.036 2.628 2.628 0 0 0 -1.375 3.054c.007.036.02.068.028.1a3.06 3.06 0 0 0 .191.566c.037.038.074.075.111.11.363.33.714.685 1.053 1.055a18.375 18.375 0 0 1 1.231 1.515 14.937 14.937 0 0 0 2.479-2.423z" fill="#f7786d"/><path d="m26.564 25.709a8.724 8.724 0 0 0 -1.188-2.248c-.118-.16-.245-.313-.378-.461a3.192 3.192 0 0 0 -.967-.766c-.052-.025-.105-.049-.159-.07a2.159 2.159 0 0 0 -2.226.336 1.956 1.956 0 0 0 -.646 1.447v.041a2.08 2.08 0 0 0 2.124 1.986c.064 0 .124-.013.187-.018.339.211.679.419 1.015.635a3.6 3.6 0 0 1 .967 1.176.571.571 0 0 0 .129.151.521.521 0 0 0 .278.082 2.471 2.471 0 0 0 .7-.054.8.8 0 0 0 .5-.274c.315-.463-.173-1.505-.336-1.963z" fill="#fe4c4a"/><path d="m26.582 25.755a4.857 4.857 0 0 1 -1.642 1.468c.119.174.231.357.357.544a.571.571 0 0 0 .129.151.521.521 0 0 0 .274.082 2.471 2.471 0 0 0 .7-.054.8.8 0 0 0 .5-.274c.306-.449-.143-1.44-.318-1.917z" fill="#da1202"/><ellipse cx="5" cy="35" fill="#b31700" rx="1.65" ry="2.297" transform="matrix(.707 -.707 .707 .707 -23.292 13.797)"/><ellipse cx="8" cy="38" fill="#b31700" rx=".825" ry="1.148" transform="matrix(.707 -.707 .707 .707 -24.534 16.798)"/><path d="m25 5c7.53 0 16 3 16 12z" fill="#8bc808"/><path d="m25 5 16 12c-9.41 0-16-6-16-12z" fill="#589e00"/><path d="m23 4v-3h-2v4l.05.05a2.741 2.741 0 0 1 1.95-1.05z" fill="#745a00"/><path d="m23 5a4.972 4.972 0 0 1 2 .406v-.886a3.869 3.869 0 0 0 -2-.52z" fill="#745a00"/><path d="m22.668 5.041a2.866 2.866 0 0 1 .332-.041v-1a2.741 2.741 0 0 0 -1.95 1.05l-.05-.05v.746a3.346 3.346 0 0 1 1.668-.7z" fill="#4f4600"/><path d="m25 4.52v-3.52h-2v3a3.869 3.869 0 0 1 2 .52z" fill="#977b00"/><path d="m18.419 21.976-1.411-.058c0 .01-.013.03-.019.044q.6.849 1.249 1.664a3.066 3.066 0 0 0 .657-1.067 1.692 1.692 0 0 0 -.476-.583z" fill="#b31700"/><path d="m27.954 28.271a9.832 9.832 0 0 0 -.973-3.6 2.38 2.38 0 0 1 -.4 1.084c.059.161.148.382.23.62l.014.04c.024.07.045.14.065.212.007.023.015.046.021.069.018.069.032.136.046.2.005.025.012.05.016.075a1.787 1.787 0 0 1 .019.188c0 .025.006.051.006.075a.948.948 0 0 1 -.016.172.607.607 0 0 1 -.007.063.56.56 0 0 1 -.084.2.8.8 0 0 1 -.5.274 2.471 2.471 0 0 1 -.7.054.521.521 0 0 1 -.271-.077.571.571 0 0 1 -.129-.151c-.126-.187-.237-.369-.356-.542a10.938 10.938 0 0 1 -2.379 1.014c.394.354.794.7 1.2 1.041l.044-.02a3.133 3.133 0 0 1 1.44-.27 6.716 6.716 0 0 0 2.429-.56c.09-.043.192-.108.285-.161z" fill="#da1202"/><path d="m18.009 21.714c-.182.034-.36.061-.53.079a4.513 4.513 0 0 1 -.476.03c-.033 0-.079-.006-.115-.007.034.049.069.1.1.146.006-.014.016-.034.019-.044l1.411.058a3.244 3.244 0 0 0 -.41-.262z" fill="#da1202"/><path d="m31.009 28.672a5.888 5.888 0 0 1 -1.762.316c-.088 0-.175.015-.262.018a3.589 3.589 0 0 0 -.574.064 2.8 2.8 0 0 0 -.411.13c-.064.023-.129.033-.191.061l-.72.33a8.028 8.028 0 0 0 -.732.387c-.081.049-.154.1-.232.156-.145.094-.291.187-.425.289-.079.06-.15.126-.226.189l-.03.027.031-.027q.762.563 1.554 1.086c.02-.028.041-.055.061-.082.034-.047.067-.093.1-.138a5.47 5.47 0 0 1 .56-.624c.013-.011.027-.021.039-.032.032-.03.068-.056.1-.085a5.513 5.513 0 0 1 .532-.415c.061-.043.123-.084.186-.125.118-.075.239-.146.365-.215.141-.077.281-.156.433-.225l.6-.27a2.654 2.654 0 0 1 1.167-.219c-.053-.201-.111-.398-.163-.596z" fill="#da1202"/><path d="m45.955 30.448c-2.05-4.36-6.249-6.7-10.439-4.76l-.72.33a3.167 3.167 0 0 0 -1.13.92 4.583 4.583 0 0 1 -.844.774c.1.378.2.754.307 1.131.031-.013.073-.025.1-.038a5.568 5.568 0 0 0 1.658-1.219 2.633 2.633 0 0 1 .942-.753l.6-.27a6.528 6.528 0 0 1 .641-.251c.074-.025.149-.041.223-.063.138-.04.276-.083.414-.113.092-.02.183-.03.274-.046.12-.02.239-.043.357-.056.1-.01.2-.012.3-.017s.213-.014.318-.014.218.01.327.016.19.01.284.02c.116.013.23.034.344.054.084.015.169.028.253.047.122.027.241.061.36.1.074.021.147.041.219.065.127.042.252.091.376.142.062.025.124.049.186.077.131.059.259.123.386.191.052.028.1.054.154.083.134.076.265.157.395.243.041.027.082.054.123.083q.2.141.4.3l.093.076q.206.169.4.356l.066.064c.136.132.267.27.395.414l.045.051c.132.151.26.309.383.472l.026.035c.127.17.25.346.367.529l.01.017a9.5 9.5 0 0 1 .577 1.026 8.775 8.775 0 0 1 .081 7.429c.465.034.931.061 1.4.078a10.872 10.872 0 0 0 -.651-7.523z" fill="#da1202"/><path d="m33.453 30.026a1.353 1.353 0 0 1 .777.072 1.8 1.8 0 0 0 .14-.448c-.3.085-.616.193-.936.315z" fill="#da1202"/><path d="m30.916 31.3a2.086 2.086 0 0 0 .588.189.83.83 0 0 1 .167-.444c-.019-.065-.039-.13-.059-.2-.245.155-.483.305-.696.455z" fill="#da1202"/><path d="m28.885 27.661c-.6-4.919-3.709-8.661-8.5-8.661h-.92a3.467 3.467 0 0 0 -1.64.44 4.206 4.206 0 0 1 -.783.292c-.142.554-.284 1.123-.426 1.713.086.125.177.247.264.371.036 0 .082.007.115.007.138 0 .3-.012.476-.03s.35-.046.53-.079c.091-.016.181-.036.27-.055.141-.032.28-.065.41-.1.038-.011.071-.024.108-.036a2.808 2.808 0 0 0 .427-.171 2.711 2.711 0 0 1 1.296-.352h.723a6.757 6.757 0 0 1 .877.061c.088.012.173.03.26.045.2.034.389.075.576.126.091.024.181.051.269.079.188.061.37.131.547.208.071.031.143.058.212.092a5.86 5.86 0 0 1 .7.394l.009.006a6.187 6.187 0 0 1 .625.482c.056.049.109.1.164.153.145.136.285.277.418.426.055.061.109.123.161.186q.2.244.385.51c.036.052.074.1.109.156a7.911 7.911 0 0 1 .433.747 9.832 9.832 0 0 1 .973 3.6c-.093.053-.2.118-.278.157a6.716 6.716 0 0 1 -2.429.56 3.133 3.133 0 0 0 -1.44.27l-.044.02c.556.461 1.128.9 1.709 1.331.076-.063.147-.129.226-.189.134-.1.28-.2.425-.289.078-.051.151-.107.232-.156a8.028 8.028 0 0 1 .732-.387l.72-.33c.062-.028.127-.038.191-.061a2.8 2.8 0 0 1 .412-.129 3.086 3.086 0 0 1 .574-.064c-.014-.457-.046-.905-.1-1.344z" fill="#b31700"/><path d="m34.37 29.65a1.8 1.8 0 0 1 -.14.448.476.476 0 0 1 .231.22c.188.4-.314 1.037-1.12 1.413s-1.613.355-1.8-.049a.435.435 0 0 1 -.035-.19 2.086 2.086 0 0 1 -.588-.189 4.586 4.586 0 0 0 -1.411 1.43 3.829 3.829 0 0 0 2.391.787 4.564 4.564 0 0 0 1.425-.233c.217-.086.436-.174.657-.277l.02-.01a4.35 4.35 0 0 0 2.175-2.367 3.282 3.282 0 0 0 .2-1.236 5.639 5.639 0 0 0 -2.005.253z" fill="#b31700"/><path d="m34.461 30.318a.476.476 0 0 0 -.231-.22 1.353 1.353 0 0 0 -.777-.072c.078.266.155.531.238.8a2.823 2.823 0 0 1 -.28.216.269.269 0 0 0 -.027.02 3.034 3.034 0 0 1 -.373.207 2.847 2.847 0 0 1 -.346.134c-.061.02-.117.032-.176.046s-.094.026-.139.034a2.186 2.186 0 0 1 -.232.032c-.017 0-.034 0-.051.006a2.429 2.429 0 0 1 -.254.005c-.017-.053-.032-.107-.048-.16.081-.029.161-.058.246-.1a2.758 2.758 0 0 0 .68-.443c-.049-.157-.1-.315-.142-.473l-.005-.018c-.036-.122-.074-.243-.11-.365-.081-.275-.148-.555-.226-.832s-.159-.578-.236-.868c-.772-2.916-1.372-5.867-1.892-8.567-.507-2.622-.974-5.028-1.54-7.107-.758-2.783-1.7-4.965-3.154-6.274-.126-.113-.253-.224-.386-.324a5.281 5.281 0 0 0 -.494-.334 4.73 4.73 0 0 0 -1.506-.545c-.112-.022-.217-.061-.332-.075a3.346 3.346 0 0 0 -1.668.705 5.43 5.43 0 0 0 -.684.624c-1.789 1.93-3.459 6.03-5.173 12.73.176.3.353.6.537.9.07.112.143.222.214.333.032-.127.064-.249.1-.375 1.629-6.44 3.237-10.558 4.789-12.229a1.835 1.835 0 0 1 1.217-.729 3.163 3.163 0 0 1 .652.078.973.973 0 0 1 .348-.078 2.874 2.874 0 0 1 1.5.385c2.439 1.415 3.448 6.64 4.618 12.691.523 2.7 1.118 5.657 1.893 8.6.052.2.11.395.164.593.144.53.281 1.061.439 1.587.02.066.04.131.059.2a.83.83 0 0 0 -.167.444.435.435 0 0 0 .035.19c.189.4.995.426 1.8.049s1.308-1.017 1.12-1.421z" fill="#4e8c00"/><path d="m20.783 7.729c-1.552 1.674-3.16 5.789-4.793 12.226-.032.126-.064.248-.1.375.237.375.477.749.727 1.115.142-.59.284-1.159.426-1.713 1.613-6.309 3.2-10.348 4.736-12a3.338 3.338 0 0 1 .42-.384l.066-.049a1.7 1.7 0 0 1 .383-.218 3.163 3.163 0 0 0 -.648-.081 1.835 1.835 0 0 0 -1.217.729z" fill="#8bc808"/><path d="m33.434 29.965c-.109-.371-.2-.748-.3-1.122s-.21-.753-.307-1.131c-.7-2.733-1.253-5.484-1.742-8.016-.413-2.137-.8-4.133-1.234-5.924-.1-.4-.2-.793-.3-1.175-.027-.1-.055-.2-.083-.3-.081-.285-.163-.564-.248-.836-.032-.105-.066-.209-.1-.312q-.135-.412-.278-.8c-.028-.077-.056-.156-.085-.231a14.046 14.046 0 0 0 -.857-1.852c-.019-.034-.039-.065-.059-.1q-.2-.357-.428-.677c-.036-.052-.073-.1-.11-.152-.143-.2-.293-.381-.448-.555-.036-.04-.071-.082-.108-.121a5.859 5.859 0 0 0 -.6-.561c-.053-.043-.109-.082-.163-.123a5.163 5.163 0 0 0 -.473-.32c-.055-.032-.114-.055-.17-.084-.111-.059-.221-.117-.336-.167a4.972 4.972 0 0 0 -2.005-.406 2.866 2.866 0 0 0 -.332.041c.115.014.22.053.332.075a4.73 4.73 0 0 1 1.506.541 5.281 5.281 0 0 1 .494.334c.133.1.26.211.386.324 1.455 1.309 2.4 3.491 3.154 6.274.566 2.079 1.033 4.485 1.54 7.107.522 2.7 1.12 5.655 1.892 8.569q.115.435.236.868c.078.277.145.557.226.832.036.122.074.243.11.365l.005.018c.047.158.093.316.142.473a2.758 2.758 0 0 1 -.68.443c-.085.039-.165.068-.246.1.016.053.031.107.048.16a2.429 2.429 0 0 0 .254-.005l.051-.006c.075-.007.152-.017.232-.032.045-.008.093-.022.139-.034s.115-.026.176-.046a3.022 3.022 0 0 0 .346-.134 2.962 2.962 0 0 0 .373-.207.269.269 0 0 1 .027-.02 2.944 2.944 0 0 0 .28-.216c-.083-.264-.16-.529-.238-.8z" fill="#8bc808"/><path d="m41.676 33.475a14.956 14.956 0 0 0 2.477-2.425c-.162-.367-.34-.724-.527-1.072l-.013-.025c-.188-.349-.386-.691-.591-1.024-.174-.284-.36-.556-.551-.82a1.738 1.738 0 0 0 -2.036-1.036 2.628 2.628 0 0 0 -1.375 3.054c.007.036.02.068.028.1a3.06 3.06 0 0 0 .191.566c.037.038.074.075.111.11.363.33.714.685 1.053 1.055.224.244.44.5.651.761.2.244.391.5.58.754z" fill="#fda893"/><path d="m40.444 31.96c-.339-.37-.69-.725-1.053-1.055-.037-.035-.074-.072-.111-.11a3.06 3.06 0 0 1 -.191-.566c-.008-.035-.021-.067-.028-.1a2.628 2.628 0 0 1 1.375-3.054 1.738 1.738 0 0 1 2.036 1.036c.191.264.377.536.551.82.2.333.4.676.591 1.024l.013.025q.283.521.527 1.072a10.926 10.926 0 0 0 .743-1.033q-.164-.3-.345-.584l-.01-.017c-.117-.183-.24-.359-.367-.529l-.026-.035q-.184-.245-.383-.472l-.045-.051q-.19-.216-.395-.414l-.066-.064q-.195-.186-.4-.356l-.093-.076q-.2-.157-.4-.3c-.041-.029-.082-.056-.123-.083-.13-.086-.261-.167-.395-.243-.051-.029-.1-.056-.154-.083-.127-.068-.256-.132-.386-.191-.062-.027-.124-.052-.186-.077-.124-.051-.249-.1-.376-.142-.072-.024-.145-.044-.219-.065-.119-.035-.239-.069-.36-.1-.084-.019-.169-.032-.253-.047-.114-.02-.228-.041-.344-.054-.094-.01-.189-.014-.284-.02s-.216-.016-.326-.016-.212.008-.318.014-.2.007-.3.017c-.118.013-.237.036-.357.056-.091.016-.182.026-.274.046-.138.03-.276.073-.414.113-.074.022-.149.038-.223.063a6.528 6.528 0 0 0 -.641.251l-.6.27a2.633 2.633 0 0 0 -.942.753 5.568 5.568 0 0 1 -1.658 1.219c-.028.013-.07.025-.1.038.1.374.2.751.3 1.122.32-.122.635-.23.936-.315a5.639 5.639 0 0 1 2-.253 3.282 3.282 0 0 1 -.2 1.236 4.35 4.35 0 0 1 -2.17 2.37c-.051.026-.094.054-.146.079a5.018 5.018 0 0 1 -.531.208 4.564 4.564 0 0 1 -1.425.233 3.829 3.829 0 0 1 -2.391-.787 4.586 4.586 0 0 1 1.411-1.43c.213-.153.451-.3.7-.451-.158-.526-.295-1.057-.439-1.587a2.654 2.654 0 0 0 -1.167.219l-.6.27c-.156.071-.289.16-.434.239-.121.067-.25.128-.364.2-.063.041-.125.083-.186.125a5.577 5.577 0 0 0 -.533.421c-.032.028-.069.051-.1.079-.012.011-.026.021-.039.032a5.48 5.48 0 0 0 -.56.624c-.035.045-.068.091-.1.138-.02.027-.035.058-.054.086.193.128.391.251.587.376.323.2.646.409.976.6a37.773 37.773 0 0 0 8.095 3.626c.461-.18.923-.374 1.385-.595a19.339 19.339 0 0 0 3.587-2.226q-.284-.386-.58-.754c-.209-.264-.424-.525-.648-.765z" fill="#f7786d"/><path d="m44.666 32.415a10.874 10.874 0 0 0 -.512-1.366c-.167.211-.344.419-.532.626a15.694 15.694 0 0 1 -1.945 1.8 19.814 19.814 0 0 1 1.612 2.571 2.846 2.846 0 0 0 .488.751.541.541 0 0 0 .7.118 1.081 1.081 0 0 0 .3-.547 7.25 7.25 0 0 0 -.111-3.953z" fill="#f7786d"/><path d="m25.376 23.461c-.118-.16-.245-.313-.378-.461a3.192 3.192 0 0 0 -.967-.766c-.052-.025-.105-.049-.159-.07a2.159 2.159 0 0 0 -2.226.336 1.956 1.956 0 0 0 -.646 1.447v.041a2.08 2.08 0 0 0 2.124 1.986c.064 0 .124-.013.187-.018.339.211.679.419 1.015.635a2.156 2.156 0 0 1 .61.632q.273-.162.513-.334h.007a5.471 5.471 0 0 0 .444-.354 3.815 3.815 0 0 0 .674-.771l-.018-.046a8.724 8.724 0 0 0 -1.18-2.257z" fill="#f7786d"/><g fill="#f75749"><path d="m44.552 29.432c.122.189.226.4.336.6l.009-.013q-.164-.304-.345-.587z"/><path d="m45.129 30.458c-.072-.151-.161-.285-.241-.429a11.02 11.02 0 0 1 -.734 1.02 10.874 10.874 0 0 1 .512 1.366 7.25 7.25 0 0 1 .106 3.953 1.081 1.081 0 0 1 -.3.547.541.541 0 0 1 -.7-.118 2.846 2.846 0 0 1 -.488-.751 19.814 19.814 0 0 0 -1.612-2.571 19.339 19.339 0 0 1 -3.584 2.225c-.462.221-.924.415-1.385.595a37.913 37.913 0 0 0 8.507 1.591 8.775 8.775 0 0 0 -.081-7.428z"/><path d="m27.789 30.819c.031-.028.068-.051.1-.079a5.577 5.577 0 0 1 .533-.421 5.513 5.513 0 0 0 -.532.415c-.033.029-.069.055-.101.085z"/><path d="m27.034 31.7c.019-.028.034-.059.054-.086-.02.027-.041.054-.061.082z"/><path d="m28.608 30.194c.114-.073.243-.134.364-.2.145-.079.278-.168.434-.239-.152.069-.292.148-.433.225-.126.068-.247.139-.365.214z"/><path d="m24.33 26.591c-.336-.216-.676-.424-1.015-.635-.063 0-.123.018-.187.018a2.08 2.08 0 0 1 -2.128-1.986c0-.014 0-.027 0-.041a1.956 1.956 0 0 1 .646-1.447 2.159 2.159 0 0 1 2.226-.336c.054.021.107.045.159.07a3.192 3.192 0 0 1 .969.766c.133.148.26.3.378.461a8.724 8.724 0 0 1 1.188 2.248l.018.046a2.38 2.38 0 0 0 .4-1.084 7.911 7.911 0 0 0 -.433-.747c-.035-.054-.073-.1-.109-.156q-.183-.265-.385-.51c-.052-.063-.106-.125-.161-.186-.133-.149-.273-.291-.418-.426-.055-.051-.108-.1-.164-.153a6.187 6.187 0 0 0 -.625-.482l-.009-.006a5.86 5.86 0 0 0 -.7-.394c-.069-.034-.141-.061-.212-.092-.177-.077-.359-.147-.547-.208-.088-.028-.178-.055-.269-.079-.187-.051-.38-.092-.576-.126-.087-.015-.172-.033-.26-.045a6.757 6.757 0 0 0 -.881-.061h-.723a2.711 2.711 0 0 0 -1.288.348 2.808 2.808 0 0 1 -.427.171c-.037.012-.07.025-.108.036-.13.039-.269.073-.41.1-.091.02-.177.038-.27.055a3.244 3.244 0 0 1 .41.262 1.692 1.692 0 0 1 .476.583 3.066 3.066 0 0 1 -.657 1.067 38.173 38.173 0 0 0 4.323 4.611 10.938 10.938 0 0 0 2.379-1.014 2.156 2.156 0 0 0 -.61-.628z"/><path d="m26.974 26.974c0-.025-.011-.05-.016-.075-.014-.067-.028-.134-.046-.2-.006-.023-.014-.046-.021-.069-.02-.071-.041-.143-.065-.212l-.014-.04c-.082-.238-.171-.459-.23-.62a3.815 3.815 0 0 1 -.674.771 5.65 5.65 0 0 1 -.444.354h-.007q-.24.173-.513.334c.119.173.23.355.356.542a.571.571 0 0 0 .129.151.521.521 0 0 0 .271.09 2.471 2.471 0 0 0 .7-.054.8.8 0 0 0 .5-.274.56.56 0 0 0 .084-.2.607.607 0 0 0 .007-.063.948.948 0 0 0 .009-.172c0-.024 0-.05-.006-.075a1.787 1.787 0 0 0 -.02-.188z"/></g><path d="m26.5 9.934a21.138 21.138 0 0 1 1.157 3.366 16.34 16.34 0 0 0 1.343 1.112q-.251-1.086-.526-2.075a12.582 12.582 0 0 1 -1.974-2.403z" fill="#2c4f00"/><path d="m30.181 15.235-.001-.001z" fill="#3f7000"/><path d="m30.18 15.234q-.2-.915-.412-1.769a14.126 14.126 0 0 1 -1.3-1.128q.276.987.526 2.075c.382.288.774.565 1.186.823z" fill="#3f7000"/><path d="m24.108 5.125.038.007z" fill="#3f7000"/><path d="m23.2 5.161a13.427 13.427 0 0 0 .452 1.917 2.714 2.714 0 0 1 .847.307 4.348 4.348 0 0 1 1.414 1.462 9.324 9.324 0 0 1 -.818-2.791 5.284 5.284 0 0 0 -.588-.4 4.718 4.718 0 0 0 -1.307-.495z" fill="#2c4f00"/><path d="m24.146 5.132-.038-.007a5.219 5.219 0 0 0 -.938-.115c.008.051.02.1.029.151a4.718 4.718 0 0 1 1.307.5 5.284 5.284 0 0 1 .588.4c-.027-.211-.055-.423-.065-.636a4.724 4.724 0 0 0 -.883-.293z" fill="#3f7000"/><path d="m25 5c7.53 0 16 3 16 12z" fill="#9cdf00"/><path d="m25 5 16 12c-9.41 0-16-6-16-12z" fill="#63b300"/><ellipse cx="38" cy="12" fill="#c9ff39" rx=".825" ry="1.148" transform="matrix(.707 -.707 .707 .707 2.651 30.397)"/><ellipse cx="36.746" cy="10.5" fill="#c9ff39" rx=".413" ry=".574" transform="matrix(.707 -.707 .707 .707 3.344 29.07)"/><ellipse cx="41" cy="30" fill="#f6fafd" rx="1.65" ry="2.297" transform="matrix(.707 -.707 .707 .707 -9.202 37.795)"/><ellipse cx="39" cy="32" fill="#f6fafd" rx=".825" ry="1.148" transform="matrix(.707 -.707 .707 .707 -11.203 36.967)"/><ellipse cx="37.746" cy="28.5" fill="#f6fafd" rx=".413" ry=".574" transform="matrix(.707 -.707 .707 .707 -9.095 35.054)"/><ellipse cx="24" cy="23" fill="#f6fafd" rx=".825" ry="1.148" transform="matrix(.707 -.707 .707 .707 -9.234 23.719)"/><ellipse cx="23.746" cy="24.5" fill="#f6fafd" rx=".413" ry=".574" transform="matrix(.707 -.707 .707 .707 -10.369 23.979)"/><path d="m9.615 20h.921a2.489 2.489 0 0 1 1.169.318 8.292 8.292 0 0 0 2.955.714c-.143.6-.287 1.222-.431 1.856a2.082 2.082 0 0 1 -1.229-.888h-2c0 1.223 1.559 3 4 3s4-1.777 4-3l-1.992-.082a1.677 1.677 0 0 1 -.672.72c.147-.63.291-1.23.435-1.811a6.248 6.248 0 0 0 1.525-.51 2.493 2.493 0 0 1 1.168-.317h.921c3.534 0 6.238 2.336 7.232 6.249l1.938-.492c-1.215-4.785-4.729-7.757-9.17-7.757h-.921a4.472 4.472 0 0 0 -2.107.551c2.761-10.296 4.814-11.551 5.643-11.551v-2a2.989 2.989 0 0 0 -1 .19v-3.19h2v4h.071c.718 7.217 9.078 12 16.929 12a1 1 0 0 0 1-1c0-9.2-8.085-12.7-16-12.974v-3.026a1 1 0 0 0 -1-1h-4a1 1 0 0 0 -1 1v5.726c-1.684 2.068-3.247 6.065-4.847 12.312-.051 0-.105 0-.153 0a6.574 6.574 0 0 1 -2.356-.491 4.469 4.469 0 0 0 -2.108-.547h-.921a8.873 8.873 0 0 0 -7.825 4.483l1.71 1.034a6.938 6.938 0 0 1 6.115-3.517zm16.757-12.721 11.235 8.426c-5.901-1.014-10.033-4.587-11.235-8.426zm13.422 7.567-11.515-8.636c5.447.696 10.465 3.24 11.515 8.636z" fill="#001a1f"/><path d="m15 42a12.652 12.652 0 0 1 -13-12.565 12.466 12.466 0 0 1 .659-4.106l-1.888-.658a14.435 14.435 0 0 0 -.771 4.764 14.63 14.63 0 0 0 15 14.565 15.607 15.607 0 0 0 6.408-1.339l-.816-1.826a13.614 13.614 0 0 1 -5.592 1.165z" fill="#001a1f"/><path d="m46.859 30.024a12.7 12.7 0 0 0 -.876-1.574l-1.673 1.1a10.708 10.708 0 0 1 .739 1.328 9.913 9.913 0 0 1 .342 7.657 11.288 11.288 0 0 1 -6 6.329c-5.635 2.609-11.975.55-14.436-4.692a8.323 8.323 0 0 1 -.565-6.356 5.812 5.812 0 0 1 3.12-3.315l.718-.333a2.129 2.129 0 0 1 .976-.174 6.649 6.649 0 0 0 2.043-.346c.175.63.367 1.254.563 1.877a1.972 1.972 0 0 1 -1.066-.32l-1.81.851a3.288 3.288 0 0 0 2.966 1.464 4.643 4.643 0 0 0 1.956-.441 4.353 4.353 0 0 0 2.321-2.446 2.692 2.692 0 0 0 .05-1.968l-1.839.772a1.89 1.89 0 0 1 -.7 1.381c-.214-.683-.429-1.366-.617-2.06a6.372 6.372 0 0 0 1.385-1.2 2.09 2.09 0 0 1 .759-.629l.719-.333c2.707-1.253 5.587-.49 7.7 2.045l1.535-1.283c-2.694-3.221-6.555-4.209-10.081-2.577l-.719.333a4.073 4.073 0 0 0 -1.5 1.216 2.548 2.548 0 0 1 -.33.326c-.572-2.387-1.046-4.766-1.473-6.973-.261-1.351-.513-2.657-.775-3.891l-1.957.416c.26 1.223.51 2.516.768 3.854.466 2.411.988 5.025 1.638 7.648a5.416 5.416 0 0 1 -1.461.282 3.98 3.98 0 0 0 -1.9.357l-.719.334a7.771 7.771 0 0 0 -4.159 4.445 10.3 10.3 0 0 0 .634 7.89 12.206 12.206 0 0 0 11.214 6.976 13.95 13.95 0 0 0 5.872-1.319 13.275 13.275 0 0 0 7.038-7.46 11.9 11.9 0 0 0 -.4-9.191z" fill="#001a1f"/><path d="m38 27v2c1.626 0 3 .916 3 2h2c0-2.206-2.243-4-5-4z" fill="#001a1f"/><path d="m21 21v2a3.163 3.163 0 0 1 3 3h2a5.131 5.131 0 0 0 -5-5z" fill="#001a1f"/></g></svg>