<svg id="icons" height="512" viewBox="0 0 340 340" width="512" xmlns="http://www.w3.org/2000/svg"><path d="m145.8 13.808 8.478 5.285s-20.218 14.875-12.834 44.828l-17.932 8.558s-7.35-33.977 8.516-56.006a10.281 10.281 0 0 1 13.772-2.665z" fill="#6d5046"/><path d="m129.479 62.745-23.874-13.107a70.557 70.557 0 0 0 -13.105 21.062s-12.53-3.114-22.586-2.742l-2.234 22.9-22.72 4.477 1.676 24.02-21.228 8.38 7.262 19.738-18.807 15.493 16.573 24.727-18.807 17.69 19.179 13.593s-9.124 12.1-12.662 21.227c0 0 9.5 7.449 20.855 10.428 0 0-2.979 16.572-1.862 26.814h22.9l67.578 26.827 47.443-15.48c29.225-69.849 70.293-156.641 59.193-168.8l-6.443-1.757 2.421-28.3s-13.779-5.4-25.883-4.842c0 0-3.537-16.758-9.868-29.793 0 0-18.063 5.959-26.628 7.076l-15.079-15.455z" fill="#aecc76"/><path d="m234.257 120-6.542 11.789s-18.915 6.161-15.621 26.061c0 0-35.949 13.453-26.139 53.531 0 0-25.785 12.052-16.371 40.8l-18.23 36.892-14.877-6.1-24.434 9.139-14.661-14.362-37.34-.305.558 24.765h29.049l9.869 23.648 28.117-14.71 18.249 16.572 41.9-34.448 68.71-167.213z" fill="#84994a"/><path d="m169.584 308.233 97.497-214.534 7.856 20.426 24.511-1.885v25.139l21.369 6.914-9.113 26.082 16.655 20.427-16.655 19.483 12.238 24.511-24.18 10.056 5.971 26.083-24.825 1.257-2.514 24.197-27.026-.314-4.085 20.426-22.626-10.685-16.969 15.084-16.969-17.284z" fill="#aecc76"/><path d="m296.363 188.876c-1.919-38.641-28.036-61.366-40.656-70.151l-73.417 161.55c60.384 19.382 117.147-34.911 114.073-91.399z" fill="#fff7e1"/><path d="m207.055 265.8c-5.411-1.451-21.238-4.9-18.5-24.238 0 0 3.794-16.836 17.693-21.006-10.576-16.679 2.51-51.717 23.859-52.583-4.845-13.217 8.019-29.417 24.019-26.718 17.422 7.062 15.171 36.7 4.439 76.063-14.053 24.415-27.992 49.124-51.51 48.482z" fill="#ffd066"/><g fill="#84994a"><path d="m62.172 221.662a3.29 3.29 0 0 1 -2.262-.9l-17.739-16.724a3.32 3.32 0 0 1 -.136-4.665l15.1-16.006-10.872-20.2a3.3 3.3 0 0 1 1.273-4.43l17.045-9.713-3.528-20.686a3.3 3.3 0 0 1 2.1-3.648l18.606-6.918 2.948-16.354a3.3 3.3 0 0 1 3.246-2.718h17.738a3.3 3.3 0 0 1 0 6.6h-14.98l-2.792 15.49a3.3 3.3 0 0 1 -2.1 2.507l-17.807 6.621 3.457 20.271a3.3 3.3 0 0 1 -1.62 3.422l-16.249 9.261 10.47 19.464a3.3 3.3 0 0 1 -.506 3.827l-14.464 15.337 15.337 14.462a3.321 3.321 0 0 1 -2.265 5.7z"/><path d="m124.318 255.479a3.288 3.288 0 0 1 -1.888-.6l-18.63-13.023a3.3 3.3 0 0 1 -1.359-3.277l3.2-18.151-14.988-12.747a3.3 3.3 0 0 1 -.661-4.261l9.726-15.583-12.809-12.4a3.3 3.3 0 0 1 -.415-4.254l12.461-17.936c2.53-3.516 7.835.157 5.419 3.765l-10.861 15.637 12.711 12.3a3.3 3.3 0 0 1 .5 4.119l-9.624 15.432 14.257 12.126a3.3 3.3 0 0 1 1.112 3.086l-3.16 17.942 16.906 11.823a3.315 3.315 0 0 1 -1.897 6.002z"/><path d="m98.077 287.849a3.3 3.3 0 0 1 -2.81-1.566l-10.93-17.683-13.31-2.13a3.3 3.3 0 0 1 -2.769-3.5l1.31-17.762a3.3 3.3 0 0 1 6.58.487l-1.087 14.739 11.81 1.89a3.306 3.306 0 0 1 2.286 1.523l22.886 28.27c.957 1.55-10.684-5.714-12.235-4.756a3.29 3.29 0 0 1 -1.731.488z"/><path d="m223.053 153.107a3.3 3.3 0 0 1 -.945-.139l-25.94-7.75a3.3 3.3 0 0 1 -2.348-3.368l1.431-22.909-20.357-2.4a3.3 3.3 0 0 1 -2.913-3.277v-16.264a3.3 3.3 0 0 1 6.6 0v13.333l20.545 2.421a3.3 3.3 0 0 1 2.907 3.483l-1.462 23.409 23.427 7a3.307 3.307 0 0 1 -.945 6.461z"/><path d="m119.776 104.357c-3.046-3.195 1.629-7.8 4.781-4.715 3.043 3.195-1.63 7.805-4.781 4.715z"/></g><path d="m274.81 161.716c-4.071-11.744-10.167-18.419-20.688-20.459 3.524 2.863 8.959 8.941 7.381 18.394a11.7 11.7 0 0 1 -11.621 9.643 65.148 65.148 0 0 0 -7.183.414 2.581 2.581 0 0 0 -1.285 4.626c10.24 7.36 18.614 21.466 12.149 35.219-3.234 7.721-9.966 14.1-18.385 15.563a41.183 41.183 0 0 1 -16.6-.57 2.587 2.587 0 0 0 -2.663 4.071 24.9 24.9 0 0 0 7.883 6.709c14.812 9.677.324 28.572-16.743 30.466 25.322 5.42 38.8-22.306 38.8-22.306 24.157-5.736 35.033-40.1 21.543-57.448 11.814-7.876 7.412-24.322 7.412-24.322z" fill="#ed9d3e"/><path d="m219.557 214.722c-10.781-.314-10.778-14.533 0-14.845 10.78.314 10.778 14.533 0 14.845z" fill="#fff7e1"/><path d="m205.815 253.981c-7.375-.177-7.373-10 0-10.177 7.375.177 7.374 10.001 0 10.177z" fill="#fff7e1"/><path d="m15.07 239.01a3.3 3.3 0 0 0 1.04 3.79 69.955 69.955 0 0 0 19.166 10.168c-.815 5.332-2.3 16.781-1.417 24.834a3.3 3.3 0 0 0 3.28 2.942h19.677l.486 21.541a3.3 3.3 0 0 0 3.3 3.225h26.85l9.022 21.619a3.32 3.32 0 0 0 4.575 1.653l26.075-13.643 16.542 15.024a3.3 3.3 0 0 0 4.314.106l23.086-18.983 18.576-4.057 15.693 15.982a3.3 3.3 0 0 0 4.546.155l15.34-13.635 20.655 9.754a3.3 3.3 0 0 0 4.643-2.337l3.548-17.743 24.289.284a3.3 3.3 0 0 0 3.321-2.959l2.221-21.386 22-1.114a3.322 3.322 0 0 0 3.05-4.032l-5.35-23.369 21.608-8.986a3.319 3.319 0 0 0 1.686-4.52l-11.262-22.556 15.235-17.821a3.3 3.3 0 0 0 .049-4.229l-15.488-19 8.5-24.34a3.318 3.318 0 0 0 -2.1-4.227l-19.085-6.175v-22.735a3.3 3.3 0 0 0 -3.553-3.29l-22.061 1.7-6.967-18.136a3.3 3.3 0 0 0 -2.982-2.113 3.368 3.368 0 0 0 -3.1 1.933l-13.09 28.8-19.649-5.359 2.186-25.563a3.3 3.3 0 0 0 -2.084-3.352c-.547-.215-12.617-4.89-24.464-5.1-1.277-5.324-4.532-17.624-9.523-27.9a3.3 3.3 0 0 0 -4-1.692c-.167.055-15.76 5.182-24.417 6.69l-13.9-14.24a3.3 3.3 0 0 0 -4.215-.425l-7.759 5.27c.684-18.219 12.539-27.31 13.076-27.712a3.321 3.321 0 0 0 -.21-5.457l-8.477-5.285c-22.652-11.465-29.298 28.832-29.029 41.957l-11.33-6.221a3.3 3.3 0 0 0 -4.065.712 74.569 74.569 0 0 0 -12.617 19.418c-4.377-.921-13.138-2.486-20.721-2.211a3.3 3.3 0 0 0 -3.163 2.978l-2 20.46-20.305 3.998a3.3 3.3 0 0 0 -2.654 3.468l1.508 21.608-18.976 7.489a3.3 3.3 0 0 0 -1.886 4.208l6.454 17.542-17 14a3.3 3.3 0 0 0 -.643 4.384l15.014 22.4-16.771 15.78a3.322 3.322 0 0 0 .354 5.1l16.458 11.661c-2.966 4.202-8.456 12.425-11.11 19.27zm251.757-136.779 5.03 13.079a3.276 3.276 0 0 0 3.333 2.1l20.959-1.612v21.577a3.3 3.3 0 0 0 2.284 3.139l18.156 5.875-8 22.894a3.3 3.3 0 0 0 .557 3.173l14.914 18.292-14.86 17.393a3.3 3.3 0 0 0 -.445 3.618l10.659 21.348-20.914 8.7a3.3 3.3 0 0 0 -1.95 3.783l5.094 22.25-20.9 1.059a3.3 3.3 0 0 0 -3.116 2.954l-2.2 21.2-24.016-.28a3.3 3.3 0 0 0 -3.274 2.652l-3.257 16.288-18.81-8.882a3.3 3.3 0 0 0 -3.6.517l-14.622 13-14.777-15.048a3.286 3.286 0 0 0 -3.058-.911l-14.7 3.211 8.767-19.293c26.5 7.9 51.61 2.207 75.685-14.831 57.3-40.728 48.381-119.488.067-151.857zm-9.79 21.543c44.508 30.858 51.429 103-1.118 140.342-22.633 16.22-45.868 20.969-69.087 14.141l6.672-14.682c25.007 16.422 46.773-2.738 54.58-17.283 23.132-6.174 36.087-39.353 23.768-59.56 18.118-20.022-1.009-49.679-21.142-49.036zm14.6 38.859c.306 1.222 3.339 14.385-6.072 20.66a3.336 3.336 0 0 0 -.688 4.878c12.024 15.486 1.726 47.181-19.74 52.093a3.306 3.306 0 0 0 -2.25 1.775c-2.919 6.718-19.049 28.931-41.577 18.446-.747-.289-11.806-4.516-9.529-18.258.23-.945 3.409-13.263 13.239-17.7 1.862 2.307 6.957 7.683 12.918 9.152a3.311 3.311 0 0 0 1.341-6.315 23.052 23.052 0 0 1 -10.257-8.586c-.3-.472-7.206-11.777.027-28.909 7.925-18.452 20.358-18.591 21.16-18.6.5-.015 12.5-.24 19.257 10.032 2.443 3.592 7.838.023 5.512-3.625-6.742-10.254-17.371-12.441-22.317-12.892-2.531-22.358 30.184-30.896 38.979-2.151zm-136.931-144.233a6.988 6.988 0 0 1 9.352-1.793l4.789 2.985c-4.928 5.133-13.205 16.516-12.243 34.323l-7.304 4.965-4.15-2.28c-.295-11.091 1.156-26.537 9.556-38.2zm-117.878 186.623 15.872-14.923a3.3 3.3 0 0 0 .48-4.241l-14.911-22.247 16.5-13.593a3.3 3.3 0 0 0 1-3.686l-6.15-16.713 18.231-7.2a3.3 3.3 0 0 0 2.079-3.3l-1.475-21.11 19.86-3.91a3.3 3.3 0 0 0 2.647-2.917l1.945-19.939a102.828 102.828 0 0 1 18.8 2.659 3.3 3.3 0 0 0 3.87-2.005 65.438 65.438 0 0 1 10.8-18.079l21.52 11.816a3.3 3.3 0 0 0 3.442-.163l21.003-14.272 13.159 13.48a3.3 3.3 0 0 0 2.788.968c6.8-.886 18.947-4.577 24.434-6.313a156.423 156.423 0 0 1 8.407 26.44 3.291 3.291 0 0 0 3.381 2.614c8.421-.378 17.944 2.377 22.225 3.8l-2.2 25.765a3.3 3.3 0 0 0 2.42 3.464l21.273 5.8c-.027.075-5.317 11.673-5.329 11.741-10.71 3-18.822 15.833-16.834 26.244-19.972 3.864-32.588 35.6-24.34 53.572-12.649 6.1-16.225 21.351-16.383 22.052-1.408 7.46.388 13.374 3.271 17.571l-21.713 47.774-20.906 17.189-16.137-14.656a3.3 3.3 0 0 0 -3.748-.481l-24.929 13.042-8.48-20.326a3.3 3.3 0 0 0 -3.046-2.029h-25.827l-.486-21.541a3.3 3.3 0 0 0 -3.3-3.225h-19.824c-.327-9.645 2.006-22.785 2.032-22.931a3.3 3.3 0 0 0 -2.411-3.775 60.7 60.7 0 0 1 -17.618-8.374c14.022-27.765 19.55-15.26-5.392-34.042z" fill="#2b2b2b"/></svg>