<svg height="512" viewBox="0 0 450 450" width="512" xmlns="http://www.w3.org/2000/svg"><path d="M164.367 169.854c-4.165-4.89-24.343-28.459-6.413-28.459 0-23.367 16.39-23.481 30.096-8.193 16.252-34.53 41.017 23.636 45.357 42.04 5.978-2.97 11.087-31.417 14.265-41.177 2.248-16.907-.494-25.647 5.326-31.689 6.276-6.518 21.058-9.1 21.058 7.761.766 2.575 2.181 2.128 4.68-3.344l1.558-18.325c-.129-13.35 10.064-28.018 19.631-8.41 1.964 2.125 3.128 1.616 3.429-1.722-.769-7.84 7.661-30.727 14.864-16.495 4.817-6.451 13.505-6.723 13.505 2.374 6.589-.184 7.91 8.737 6.071 16.226-1.888 7.691-6.992 13.94-3.06 11.8 17.857-9.71 19.19-3.639 18.027 7.129-.892 8.24-10.38 20.543-15.524 27.798-2.037 3.157-.436 2.78 1.973 1.619 16.521-5.922 28.757-4.747 18.693 15.308 15.834 5.361-26.211 42.338-32.613 49.266-1.526 3.16-.514 3.782 1.561 3.344 2.005-.935 4.013-1.871 6.024-2.803 15.396-7.533 35.609-14.393 51.73-5.948l-11.008 6.597c9.33-1.494 23.572-6.065 29.082 4.636 7.825 3.975 7.433 9.857.728 14.659 9.105 11.485-13.563 15.416-22.633 19.661-170.108 79.569-243.814-1.783-237.216-44.1 1.926-12.438 8.941-19.553 20.809-19.553z" fill="#70cc42"/><path d="M324.268 338.481c52.624 8.518 73.132-19.161 76.965-49.239 4.92-38.611-18.144-80.11-59.71-81.53-47.95-1.64-90.659 34.606-69.037 87.476 8.643 21.142 26.857 39.259 51.782 43.293z" fill="#cbd98f"/><path d="M324.525 334.432c45.1 7.299 65.591-13.119 72.066-38.129-15.291 11.339-90.344 28.898-120.118-56.106-21.234 36.054 7.328 87.647 48.052 94.235z" fill="#b4c274"/><path d="M127.591 192.722c-53.004 16.051-74.182 80.382-36.305 121.41 32.908 35.644 79.97 33.934 106.549 8.17 64.805-62.82 18.986-156.601-70.244-129.58z" fill="#cbd98f"/><path d="M80.202 287.339c2.976 8.43 7.755 16.524 14.513 23.844 31.274 33.881 76.012 32.25 101.267 7.767 34.264-33.212 35.346-72.033 15.536-98.63-3.256 59.401-79.717 106.606-131.316 67.019z" fill="#b4c274"/><path d="M377.643 282.01c15.361-1.447 12.113 15.881 18.176 6.896.412-.614 6.264-11.464 6.071-2.07-.243 11.862 8.474-8.147 8.474 3.151 0 13.984-12.417 10.286-12.417 12.344 0 1.079 3.841 6.331 3.943 7.086.687 5.036-17.196.181-26.673-4.268-10.152-4.776-7.334-22.221 2.426-23.139zM84.955 262.925c-9.553 5.621-10.959 9.275-22.06 9.275-8.158-6.58-6.486 3.35-13.288 8.205-6.232 4.452-12.558-.076-8.88 9.716 6.372 16.928 34.045-.114 49.724 2.99-5.554-11.466-5.051-18.979-5.496-30.186z" fill="#a66b41"/><path d="M310.05 337.946c16.512-43.829-3.142-91.133-48.772-112.039-32.28-14.788-77.462.862-94.658 34.019-26.775 51.627 11.409 125.122 74.527 122.687 30.874-1.189 57.126-13.411 68.903-44.667z" fill="#cbd98f"/><path d="M173.367 257.941c-1.058 1.628-2.008 3.326-2.938 5.042-28.094 51.847 12.406 117.335 71.627 115.044 21.683-.833 39.239-7.392 52.183-22.967-17.945 3.049-122.29 7.016-120.872-97.119z" fill="#b4c274"/><path d="M273.567 374.388c1.859-11.8 9.143-16.279 17.758-16.279.588.807 3.084 2.716 4.288 5.428 1.426 3.201 1.561 7.223 1.842 7.29 5.422 1.406 3.668 7.501.526 12.8-5.422 9.149-17.956 15.451-12.786-.953-3.335-5.477-5.574-7.213-11.628-8.286z" fill="#a66b41"/><path d="M259.986 243.799c13.297 9.345 17.556 26.246 9.509 37.749-8.044 11.505-25.34 13.256-38.637 3.911-13.294-9.342-17.553-26.243-9.509-37.749 8.044-11.505 25.343-13.253 38.637-3.911z" fill="#e3edb6"/><g><path d="M117.372 213.49c10.023-8.114 23.887-7.717 30.97.889 7.083 8.608 4.697 22.157-5.329 30.274-10.023 8.114-23.89 7.717-30.973-.892-7.079-8.605-4.694-22.156 5.332-30.271z" fill="#e3edb6"/></g><path d="M415 290.589c0-1.704 0-6.217-3.771-7.799-1.833-.757-3.42-.403-4.817.316.737-17.825-4.168-35.556-13.35-49.599 9.091-2.707 14.58-6.308 16.29-11.035.614-1.695.953-4.066-.076-6.834 2.724-2.865 4.054-6.08 3.809-9.316-.208-2.756-1.631-6.597-7.042-9.763-4.317-6.983-11.532-8.378-18.526-7.998.36-1.365.237-2.803-.555-4.276-4.525-8.328-34.422-.833-48.748 3.654 19.12-18.845 29.605-31.707 27.606-40.543a8.681 8.681 0 0 0-2.061-3.981c2.087-4.94 4.247-12.546-.208-17.576-3.318-3.744-8.977-4.732-17.36-2.914 6.594-10.704 16.083-28.933 9.532-36.316-3.379-3.797-8.749-3.362-14.156-1.511.26-.795.494-1.616.707-2.464 1.14-4.648 2.441-13.212-1.698-18.345a9.353 9.353 0 0 0-3.169-2.534c-.684-3.692-3.256-6.609-7.173-7.805-3.554-1.084-7.965-.602-11.441 1.54-1.663-1.789-3.879-3.174-6.618-2.914-6.194.617-8.34 8.354-10.824 17.313-.246.894-.532 1.935-.833 2.967-2.853-4.198-6.624-7.603-11.286-7.018-8.439 1.117-11.903 13.662-15.466 31.575a12.905 12.905 0 0 0-4.046-2.596c-7.062-2.844-15.451.561-20.096 5.387-5.007 5.18-5.232 11.558-5.516 19.634-.146 4.154-.31 8.863-.892 13.756l-5.08 15.624c-.453 1.88-.821 4.177-1.207 6.644-.456 2.92-1.038 6.603-1.932 9.734-5.91-16.904-19.029-45.15-33.922-46.702-5.393-.579-10.164 2.034-14.124 7.749-7.755-6.735-15.925-9.222-22.607-6.679-3.756 1.441-9.819 5.7-10.918 18.252-3.861.976-5.718 3.192-6.615 5.133-2.441 5.288.184 12.73 8.547 23.703-11.543 2.739-15.066 10.956-15.697 18.62-3.347.614-6.647 1.348-9.833 2.286-29.666 8.743-63.451 34.904-62.416 79.908-.924.152-1.894.275-3.096.319-1.961-1.348-4.484-2.564-7.296-2.017-3.592.725-5.226 3.768-6.548 6.217-.97 1.809-1.979 3.683-3.645 4.87-1.675 1.187-4.595 1.818-6.34 2.204-1.783.386-5.487 1.187-5.487 5.095 0 6.527 2.146 11.473 6.384 14.694 3.364 2.572 7.84 3.853 13.373 3.853 4.186 0 8.98-.734 14.355-2.204l2.417-.669c1.266-.357 2.45-.672 3.633-.982 14.101 28.734 44.255 47.328 74.635 47.328 5.282 0 10.561-.652 15.764-1.812 2.683 4.241 5.665 8.366 9.146 12.248 17.498 19.526 41.277 29.833 66.491 29.833 11.508 0 23.317-2.184 34.957-6.577 1.359.555 2.376 1.333 3.44 2.751-2.283 3.967-2.607 7.723-.833 10.608 1.564 2.552 4.276 3.835 8.079 3.835 1.371 0 2.885-.17 4.54-.5 4.709-.95 13.966-13.698 14.165-21.052.099-3.666-1.552-6.594-4.525-8.214-.061-.178-.123-.377-.19-.585a157.742 157.742 0 0 0-1.023-3.093c6.352-6.834 11.289-14.434 14.817-22.569 8.877 2.908 17.781 4.39 26.372 4.39 23.478 0 44.448-10.544 55.84-29.237.362.018.76.085 1.111.085 2.47 0 4.61-.433 6.092-1.526 1.847-1.356 2.754-3.531 2.441-5.84-.152-1.093-.602-1.941-1.593-3.522 4.418-1.323 10.112-4.854 10.112-15.208zM164.305 175.367c1.809 0 3.417-1.093 4.171-2.733.76-1.64.456-3.613-.716-4.987-13.405-15.694-12.572-20.228-12.672-20.234.184-.129 1.008-.441 2.8-.441a4.63 4.63 0 0 0 4.633-4.63c0-7.474 1.871-12.476 5.139-13.724 3.362-1.304 9.9.88 16.887 8.646a4.614 4.614 0 0 0 4.119 1.488 4.62 4.62 0 0 0 3.516-2.61c1.818-3.858 4.68-8.383 7.93-8.036 10.149 1.061 24.913 32.899 28.737 49.067a4.635 4.635 0 0 0 2.54 3.128 4.694 4.694 0 0 0 4.031-.041c7.656-3.797 9.325-14.422 10.669-22.961.345-2.195.661-4.244.962-5.568l5.171-16.089c.821-6.165 1.003-11.333 1.149-15.481.263-7.559.485-11.011 2.923-13.531 2.678-2.783 7.349-4.276 9.962-3.227 2.584 1.041 3.125 4.791 3.125 7.752 0 .447.067.894.193 1.324 1.245 4.177 4.192 4.531 5.378 4.437 4.493-.222 5.209-3.905 7.334-14.832 1.339-6.881 4.899-25.15 7.758-27.091.018.009 2.084.824 5.685 8.19.199.406.456.78.763 1.111 1.616 1.751 3.747 2.473 5.87 1.95 4.364-1.064 5.779-6.165 7.919-13.89.684-2.473 1.795-6.48 2.841-8.983.269.453.579 1.008.924 1.687.816 1.616 2.423 2.675 4.323 2.534a4.621 4.621 0 0 0 4.101-2.873c.675-1.663 3.338-2.452 5.054-1.918.646.199 1 .301.716 1.643-.286 1.386.278 2.841 1.187 3.929.906 1.087 2.564 1.564 3.879 1.672.617.494 1.479 4.177-.044 10.365-.702 2.865-1.999 5.662-2.946 7.705-1.438 3.096-2.923 6.296-.14 8.907 1.008.941 3.233 2.242 6.738.345 8.626-4.677 11.61-4.475 11.786-4.7 1.315 3.66-6.457 20.38-15.387 32.961-.772 1.196-3.125 4.841-.421 7.904 2.721 3.06 6.624 1.196 7.846.588 11.035-3.946 15.25-2.844 15.866-2.148.471.532.877 3.543-2.862 10.979-.602 1.196-.471 2.604.038 3.844s1.722 2.204 2.993 2.634c.579 2.303-2.479 10.07-29.468 36.205-2.476 2.397-4.417 4.285-5.454 5.402a4.802 4.802 0 0 0-.769 1.125c-.59 1.216-2.379 4.902-.009 7.936.83 1.079 2.794 2.774 6.688 1.95.348-.07.684-.184 1.003-.33l6.103-2.841c7.547-3.677 28.219-8.261 39-9.152a87.54 87.54 0 0 1-2.678 1.663 4.628 4.628 0 0 0 3.101 8.547 144.13 144.13 0 0 0 4.186-.757c9.871-1.871 17.12-2.78 20.064 2.935a4.703 4.703 0 0 0 2.026 2.005c2.499 1.266 3.233 2.42 3.271 2.903.038.517-.576 1.988-3.148 3.835a4.605 4.605 0 0 0-1.894 3.122 4.638 4.638 0 0 0 .962 3.519c.64.807.979 1.52.868 1.833-.433 1.198-3.911 3.926-13.516 6.264-.368-.421-.69-.892-1.067-1.301-11.748-12.768-27.1-19.827-44.387-20.421-26.197-.757-50.59 9.123-65.217 26.141-4.244-2.824-8.626-5.44-13.282-7.565-12.739-5.817-27.275-7.147-41.467-4.823-16.562-26.506-45.612-35.469-72.545-33.235 1.011-5.511 4.6-9.022 15.161-9.022zm-95.28 115.947-2.362.661c-9.149 2.488-16.314 2.488-19.658-.076-.5-.377-1.745-1.327-2.368-3.891 2.315-.585 5.177-1.508 7.565-3.212 3.426-2.441 5.162-5.662 6.431-8.015.152-.284.324-.602.494-.915.216.152.471.348.763.585a4.658 4.658 0 0 0 2.908 1.026c9.094 0 13.113-2.403 17.714-5.539.24 5.425.763 10.634 2.733 16.588-5.004.207-9.523 1.481-14.22 2.788zm15.644 6.466c1.546 0 3.128.129 4.797.459 1.739.377 3.499-.322 4.569-1.716a4.636 4.636 0 0 0 .506-4.852c-4.44-9.138-4.633-15.486-4.902-24.264l-.137-4.005a4.61 4.61 0 0 0-2.409-3.882 4.55 4.55 0 0 0-4.569.067c-2.344 1.377-4.186 2.622-5.834 3.756 1.292-37.152 30.242-58.976 55.766-66.5 26.834-7.916 61.04-3.554 79.601 22.958-20.783 5.925-39.713 19.623-49.608 38.655-13.236 25.448-13.414 53.589-1.605 77.827-29.017 5.068-61.381-11.348-76.175-38.503zm96.941 53.06c-22.157-24.726-26.346-58.488-10.941-88.102 15.91-30.613 58.146-45.793 88.636-31.867 25.989 11.879 45.524 36.462 50.978 64.167 4.411 22.438-1.079 43.668-15.273 60.306-1.049-.877-2.254-1.424-3.718-1.424-11.765 0-19.713 6.916-22.063 18.939-38.354 12.83-70.239-2.616-87.619-22.019zm107.207 37.178c-.593.102-1.079.152-1.476.178.298-.611.763-1.394 1.456-2.271a4.633 4.633 0 0 0 .322-5.285c-3.072-5.031-5.788-7.658-10.009-9.193 1.777-5.01 5.224-7.714 10.441-8.185.886 1.809 1.979 5.218 2.447 6.679 1.023 3.192 1.646 5.115 4.262 5.454.545 2.354-4.778 10.399-7.443 12.623zm28.994-55.354c3.645-12.353 4.265-25.688 1.564-39.409-4.446-22.595-17.401-43.262-35.398-57.818 12.888-14.592 34.361-23.209 57.359-22.306 14.756.5 27.851 6.527 37.883 17.43 11.581 12.596 18.123 30.996 17.939 49.733-1.59 1.175-2.923 2.949-4.005 4.651-2.452-3.467-6.939-7.761-15.963-6.925-6.419.593-11.409 5.794-12.71 13.244-1.4 8.036 2.116 15.524 8.749 18.632.123.056 6.448 2.897 13.519 4.887-15.474 21.652-44.761 25.607-68.937 17.881zm81.849-35.235c-1.576.208-6.364.848-6.364 5.472 0 1.31.471 2.473 1.459 4.174-.061-.003-.12.02-.181.02-4.566-.813-11.514-2.809-17.398-5.577-3.233-1.517-4.119-5.446-3.554-8.655.453-2.637 2.008-5.387 4.44-5.624.491-.038.944-.067 1.368-.067 4.347 0 5.715 2.271 7.27 4.87 1.102 1.827 2.762 4.598 6.138 4.692 2.517.187 4.355-1.479 5.715-3.166a5.538 5.538 0 0 0 2.376 1.97c1.207.509 2.33.547 3.364.31-1.096 1.111-2.719 1.327-4.633 1.581z" fill="#1c1c1c"/></svg>