<svg id="Capa_1" enable-background="new 0 0 513.366 513.366" height="512" viewBox="0 0 513.366 513.366" width="512" xmlns="http://www.w3.org/2000/svg"><g><g><g><path d="m198.571 59.691c0-15.685-6.108-30.43-17.198-41.521l-8.365-8.365c-3.084-3.084-8.085-3.084-11.17 0l-10.043 10.045c-3.084 3.085-3.084 8.085 0 11.17l8.365 8.365c5.424 5.424 8.411 12.636 8.411 20.307v105.222h30z" fill="#e19974"/></g><g><circle cx="208.74" cy="305.661" fill="#fec165" r="200.205"/><path d="m236.303 105.456h-37.732v-29.466c0-33.396 27.073-60.468 60.468-60.468h30.194c4.163 0 7.538 3.375 7.538 7.538v21.928c.001 33.395-27.072 60.468-60.468 60.468z" fill="#bbec6c"/><path d="m332.071 147.943c-102.084 2.219-184.427 85.961-184.427 188.567 0 48.09 18.093 92.03 47.828 125.378 7.51 8.422-2.9 20.845-12.545 14.988-57.812-35.104-96.445-98.644-96.445-171.215 0-97.233 69.343-178.272 161.255-196.409-12.608-2.488-25.66-3.796-38.997-3.796-110.57 0-200.205 89.635-200.205 200.205s89.635 200.205 200.205 200.205c12.873 0 25.495-1.221 37.694-3.543 92.557-17.626 162.531-98.959 162.531-196.649 0-64.048-30.097-121.084-76.894-157.731z" fill="#fdb441"/><circle cx="336.228" cy="336.498" fill="#fdb441" r="168.603"/><path d="m246.377 336.498c0-79.557 55.117-146.242 129.239-163.977-12.634-3.023-25.827-4.626-39.388-4.626-93.117 0-168.603 75.486-168.603 168.603s75.486 168.604 168.603 168.604c13.56 0 26.76-1.611 39.394-4.634-74.121-17.736-129.245-84.414-129.245-163.97z" fill="#fea713"/><g id="XMLID_383_"><g><circle cx="336.231" cy="336.497" fill="#ffefd2" r="134.12"/></g></g><path d="m309.39 205.056c-61.214 12.434-107.279 66.562-107.279 131.441 0 64.882 46.075 119.012 107.295 131.441-38.424-30.9-63.03-78.298-63.03-131.44.001-53.139 24.596-100.539 63.014-131.442z" fill="#fedba6"/><path d="m302.205 234.174 9.043 37.119c2.806 11.518 13.124 19.624 24.979 19.624 11.855 0 22.173-8.106 24.979-19.624l9.043-37.119c3.37-13.834-5.097-27.234-18.028-30.842-5.246-.624-10.581-.953-15.995-.953-5.413 0-10.749.33-15.995.953-12.929 3.607-21.396 17.008-18.026 30.842z" fill="#f79595"/><path d="m441.697 253.639c-3.305-4.202-6.856-8.202-10.631-11.977l-.003-.002c-3.775-3.775-7.775-7.326-11.977-10.631-11.696-6.597-27.162-3.11-34.563 9.058l-19.852 32.642c-6.16 10.128-4.596 23.157 3.787 31.539 8.383 8.383 21.41 9.947 31.539 3.787l32.642-19.852c12.168-7.402 15.655-22.868 9.058-34.564z" fill="#ee6161"/><path d="m438.552 302.475-37.119 9.043c-11.518 2.806-19.624 13.125-19.624 24.979 0 11.855 8.106 22.173 19.624 24.979l37.119 9.043c13.834 3.371 27.234-5.097 30.842-18.028.623-5.246.953-10.582.953-15.995s-.33-10.749-.953-15.995c-3.608-12.929-17.008-21.396-30.842-18.026z" fill="#f79595"/><path d="m432.64 384.795-32.642-19.852c-10.129-6.161-23.157-4.596-31.539 3.787-8.383 8.383-9.947 21.41-3.787 31.539l19.852 32.642c7.4 12.168 22.867 15.655 34.563 9.058 8.404-6.612 15.999-14.206 22.61-22.61 6.597-11.698 3.11-27.164-9.057-34.564z" fill="#ee6161"/><path d="m370.25 438.823-9.043-37.119c-2.806-11.518-13.124-19.624-24.979-19.624-11.855 0-22.173 8.106-24.979 19.624l-9.043 37.119c-3.37 13.834 5.097 27.234 18.028 30.842 5.246.624 10.581.953 15.995.953 5.413 0 10.749-.33 15.995-.953 12.93-3.608 21.397-17.009 18.026-30.842z" fill="#f79595"/><path d="m303.997 368.729c-8.383-8.383-21.41-9.947-31.539-3.787l-32.642 19.852c-12.168 7.4-15.655 22.867-9.058 34.563 3.305 4.202 6.856 8.202 10.631 11.977l.003.003c3.775 3.775 7.775 7.325 11.977 10.631 11.696 6.597 27.163 3.11 34.563-9.058l19.852-32.642c6.159-10.129 4.595-23.156-3.787-31.539z" fill="#ee6161"/><path d="m233.903 370.521 37.119-9.043c11.518-2.806 19.624-13.124 19.624-24.979 0-11.854-8.106-22.173-19.624-24.979l-37.119-9.043c-13.834-3.37-27.234 5.097-30.842 18.028-.623 5.246-.953 10.582-.953 15.995 0 5.414.33 10.75.953 15.995 3.608 12.929 17.008 21.396 30.842 18.026z" fill="#f79595"/><path d="m241.389 241.662c-3.775 3.775-7.326 7.775-10.631 11.977-6.597 11.696-3.11 27.162 9.058 34.563l32.642 19.852c10.129 6.16 23.157 4.596 31.539-3.787 8.383-8.383 9.947-21.411 3.787-31.539l-19.852-32.642c-7.4-12.167-22.867-15.655-34.563-9.058-4.202 3.305-8.201 6.856-11.977 10.631z" fill="#ee6161"/></g><circle cx="336.228" cy="336.498" fill="#fedba6" r="48.781"/><path d="m281.77 233.149c-8.079-6.301-19.377-7.229-28.416-2.13-4.202 3.305-8.201 6.856-11.977 10.631l-.003.002c-3.775 3.775-7.326 7.775-10.631 11.977-6.597 11.696-3.11 27.162 9.058 34.562l11.653 7.087c5.765-22.936 16.235-44.007 30.316-62.129z" fill="#e94444"/><path d="m246.377 336.498c0-10.352.945-20.481 2.732-30.318l-15.206-3.705c-13.834-3.37-27.234 5.097-30.842 18.028-.623 5.246-.953 10.582-.953 15.995 0 5.414.33 10.75.953 15.995 3.608 12.931 17.008 21.398 30.842 18.028l15.207-3.705c-1.788-9.837-2.733-19.966-2.733-30.318z" fill="#ee6161"/><path d="m281.782 439.837c-14.083-18.121-24.557-39.189-30.323-62.125l-11.632 7.08c-12.168 7.4-15.655 22.867-9.058 34.563 3.305 4.202 6.856 8.202 10.631 11.977l.003.003c3.775 3.775 7.775 7.325 11.977 10.631 9.041 5.099 20.322 4.176 28.402-2.129z" fill="#e94444"/></g><g><path d="m229.877 497.207c-7.053.77-14.165 1.159-21.137 1.159-106.258 0-192.705-86.447-192.705-192.705 0-59.513 26.868-114.765 73.714-151.59 3.256-2.56 3.821-7.275 1.261-10.531-2.561-3.258-7.276-3.821-10.532-1.262-50.487 39.688-79.443 99.238-79.443 163.383 0 114.529 93.176 207.705 207.705 207.705 7.513 0 15.172-.42 22.763-1.247 4.118-.449 7.092-4.151 6.643-8.269-.45-4.118-4.157-7.093-8.269-6.643z"/><path d="m115.388 137.051c28.407-15.763 60.688-24.095 93.352-24.095 37.974 0 74.719 11.043 106.261 31.936 1.274.844 2.712 1.248 4.135 1.248 2.431 0 4.816-1.181 6.26-3.359 2.287-3.453 1.342-8.107-2.111-10.395-17.72-11.737-36.962-20.583-57.118-26.371 22.544-11.075 38.106-34.26 38.106-61.027v-21.929c0-8.291-6.746-15.037-15.038-15.037h-30.195c-2.443 0-4.972.142-7.514.422-4.117.454-7.087 4.159-6.634 8.276.454 4.117 4.16 7.09 8.276 6.634 1.999-.221 3.975-.332 5.872-.332l30.232.037v21.928c0 29.207-23.762 52.969-52.969 52.969h-30.232v-21.966c0-16.75 7.679-32.161 21.068-42.281 3.304-2.498 3.958-7.201 1.46-10.506-2.498-3.304-7.199-3.958-10.505-1.461-6.19 4.679-11.423 10.244-15.592 16.45-3.226-9.427-8.574-18.072-15.827-25.325l-8.366-8.365c-6.003-6.002-15.771-6.003-21.775.001l-10.044 10.044c-2.908 2.908-4.51 6.775-4.509 10.889 0 4.113 1.602 7.979 4.51 10.888l8.364 8.363c4.008 4.009 6.215 9.337 6.215 15.005v43.828c-18.479 4.349-36.337 11.191-52.961 20.417-3.622 2.01-4.929 6.575-2.919 10.196s6.576 4.927 10.198 2.918zm50.075-102.971-8.365-8.364c-.032-.032-.116-.116-.116-.281s.085-.25.116-.282l10.043-10.043c.156-.156.408-.156.563 0l8.365 8.364c9.674 9.675 15.001 22.537 15.001 36.218v39.042c-5.024.429-10.03 1.02-15 1.811v-40.854c.001-9.674-3.766-18.768-10.607-25.611z"/><path d="m476.265 229.723c-2.513-3.293-7.222-3.921-10.513-1.409-3.292 2.514-3.923 7.221-1.409 10.513 21.581 28.262 32.988 62.036 32.988 97.671 0 88.833-72.271 161.104-161.103 161.104s-161.103-72.271-161.103-161.104c0-88.832 72.271-161.103 161.103-161.103 39.682 0 77.813 14.563 107.37 41.008 3.086 2.76 7.827 2.498 10.59-.589 2.762-3.087 2.499-7.828-.588-10.591-32.311-28.908-73.994-44.828-117.372-44.828-97.104 0-176.103 78.999-176.103 176.103s79 176.104 176.103 176.104 176.103-79 176.103-176.104c0-38.953-12.472-75.875-36.066-106.775z"/><path d="m336.228 194.878c-78.089 0-141.62 63.53-141.62 141.62s63.531 141.62 141.62 141.62 141.62-63.53 141.62-141.62-63.531-141.62-141.62-141.62zm104.099 114.884c9.427-2.301 18.844 3.063 21.692 12.24.55 4.827.829 9.701.829 14.495s-.279 9.668-.829 14.495c-2.847 9.178-12.266 14.54-21.691 12.24l-37.119-9.043c-8.184-1.994-13.899-9.27-13.899-17.692s5.716-15.698 13.899-17.692zm-130.835 130.836 9.043-37.119c1.994-8.184 9.27-13.899 17.692-13.899s15.698 5.716 17.692 13.899l9.043 37.119c2.296 9.425-3.062 18.844-12.24 21.69-9.663 1.1-19.328 1.1-28.991 0-9.177-2.846-14.535-12.265-12.239-21.69zm-72.458-25.395c-4.481-8.505-1.612-18.958 6.679-24l32.641-19.853c7.198-4.378 16.383-3.274 22.339 2.683 5.956 5.955 7.059 15.142 2.682 22.338l-19.853 32.642c-5.042 8.293-15.496 11.162-24 6.679-3.765-2.991-7.389-6.222-10.781-9.61-.017-.018-.034-.034-.05-.051-3.404-3.405-6.651-7.046-9.657-10.828zm-26.597-64.209c-.55-4.832-.829-9.705-.829-14.496s.279-9.664.829-14.496c2.847-9.177 12.265-14.539 21.691-12.239l37.119 9.043c8.184 1.994 13.899 9.27 13.899 17.692s-5.716 15.698-13.899 17.692l-37.119 9.043c-9.424 2.295-18.844-3.06-21.691-12.239zm87.709-14.496c0-20.998 17.083-38.081 38.082-38.081s38.082 17.083 38.082 38.081-17.083 38.082-38.082 38.082-38.082-17.084-38.082-38.082zm64.817-104.1-9.042 37.118c-1.995 8.185-9.27 13.9-17.693 13.9s-15.698-5.716-17.692-13.9l-9.043-37.118c-2.296-9.425 3.063-18.844 12.241-21.691 9.662-1.1 19.328-1.1 28.99 0 9.177 2.847 14.535 12.266 12.239 21.691zm-64.27 66.565c-5.957 5.958-15.142 7.061-22.339 2.683l-32.641-19.852c-8.291-5.042-11.161-15.495-6.679-24 3.004-3.781 6.251-7.422 9.658-10.828.016-.017.032-.033.048-.049 3.397-3.393 7.021-6.624 10.782-9.612 8.503-4.482 18.957-1.611 24 6.68l19.853 32.641c4.377 7.195 3.275 16.382-2.682 22.337zm75.069 75.07c3.521-3.521 8.169-5.346 12.87-5.346 3.251 0 6.527.873 9.469 2.663l32.642 19.853c8.291 5.042 11.161 15.495 6.679 24-6.022 7.579-12.911 14.468-20.489 20.488-8.505 4.483-18.958 1.614-24-6.679l-19.852-32.642c-4.378-7.195-3.275-16.381 2.681-22.337zm54.981-92.239-32.642 19.852c-7.199 4.376-16.384 3.273-22.339-2.683-5.956-5.955-7.059-15.142-2.682-22.338l19.853-32.641c3.438-5.654 9.392-8.787 15.529-8.787 2.862 0 5.766.682 8.47 2.107 3.76 2.988 7.385 6.219 10.781 9.611.017.017.033.033.049.05 3.407 3.406 6.654 7.047 9.658 10.828 4.483 8.506 1.613 18.959-6.677 24.001zm-50.626-45.605-1.065 1.751.485-1.992c1.645-6.75 1.125-13.495-1.118-19.516 5.604 1.879 11.034 4.142 16.26 6.754-5.833 2.675-10.958 7.076-14.562 13.003zm-83.198-.24.485 1.991-1.065-1.75c-3.606-5.93-8.736-10.328-14.572-13 5.233-2.619 10.668-4.891 16.282-6.774-2.251 6.025-2.777 12.775-1.13 19.533zm-59 58.661 1.746 1.062-1.987-.484c-6.749-1.644-13.492-1.123-19.512 1.122 1.881-5.61 4.143-11.046 6.759-16.277 2.674 5.836 7.063 10.97 12.994 14.577zm-8.233 84.163c2.634 0 5.313-.313 7.993-.966l1.988-.484-1.748 1.063c-5.93 3.607-10.318 8.742-12.991 14.579-2.618-5.23-4.888-10.664-6.772-16.274 3.631 1.355 7.527 2.082 11.53 2.082zm66.653 58.034 1.065-1.752-.485 1.992c-1.645 6.75-1.117 13.49 1.126 19.512-5.612-1.881-11.051-4.139-16.283-6.755 5.837-2.671 10.97-7.066 14.577-12.997zm83.198.241-.485-1.991 1.065 1.75c3.607 5.931 8.74 10.319 14.577 12.989-5.234 2.62-10.673 4.89-16.287 6.774 2.246-6.023 2.775-12.768 1.13-19.522zm59-58.662-1.748-1.063 1.988.484c2.681.653 5.358.966 7.993.966 3.999 0 7.887-.735 11.515-2.09-1.88 5.607-4.14 11.04-6.754 16.267-2.674-5.832-7.068-10.959-12.994-14.564zm.24-83.198c-.001 0-.001 0 0 0l-1.986.483 1.746-1.062c5.928-3.605 10.328-8.731 12.999-14.565 2.615 5.231 4.881 10.667 6.762 16.278-6.024-2.245-12.769-2.776-19.521-1.134z"/></g></g></svg>