<svg id="Layer_1" enable-background="new 0 0 468 468" height="512" viewBox="0 0 468 468" width="512" xmlns="http://www.w3.org/2000/svg"><g><g><g><g><path d="m322.436 274.969c0-73.975-43.381-136.522-103.029-157.094-1.706-21.16-20.16-37.824-42.69-37.824s-40.983 16.664-42.69 37.824c-59.646 20.572-103.027 83.119-103.027 157.094 0 79.158 49.672 145.232 115.796 160.79 5.33 15.518 16.724 26.241 29.922 26.241s24.592-10.723 29.923-26.241c66.123-15.558 115.795-81.632 115.795-160.79z" fill="#ffe94d"/></g><g><path d="m61 294.969c0-25.471 5.143-49.588 14.323-71.102 22.368-52.425 74.398-85.992 131.396-85.992 25.367 0 49.741 6.663 70.963 18.664-16.265-17.622-36.148-31.033-58.273-38.664-1.706-21.16-20.16-37.824-42.689-37.824s-40.983 16.664-42.689 37.824c-59.65 20.572-103.031 83.119-103.031 157.094 0 67.23 35.834 125.015 87.143 150.436-34.741-30.02-57.143-77.277-57.143-130.436z" fill="#fff380"/></g><g><path d="m322.437 274.969c0-32.387-8.316-62.584-22.671-88.026-10.3-2.429-21.038-3.72-32.079-3.72-76.941 0-139.314 62.406-139.314 139.389 0 22.972 5.565 44.638 15.404 63.742-10.666 13.025-23.165 24.112-37.058 32.706 12.377 7.656 25.845 13.351 40.077 16.7 5.33 15.517 16.724 26.24 29.922 26.24 10.175 0 19.274-6.377 25.353-16.407 1.409-2.326 2.726-8.167 4.57-9.834 2.915-2.635 12.959-3.712 16.702-5.132 57.609-21.919 99.094-83.321 99.094-155.658z" fill="#ffde1a"/></g><g><path d="m176.718 462c10.175 0 19.274-6.377 25.353-16.407 1.222-2.018 2.376-6.678 3.864-8.966h-58.828c5.454 15.046 16.662 25.373 29.611 25.373z" fill="#efc100"/></g></g><g><path d="m63.849 280.109c-3.313 0-6-2.687-6-6 0-36.518 12.715-70.678 35.802-96.188 2.222-2.457 6.018-2.646 8.475-.423 2.457 2.224 2.646 6.018.422 8.475-21.086 23.3-32.698 54.601-32.698 88.137-.001 3.313-2.688 5.999-6.001 5.999z" fill="#333"/></g><g><g><path d="m177.948 78.879c-8.263-38.778 26.395-73.173 65.468-64.973 8.263 38.778-26.394 73.173-65.468 64.973z" fill="#b6dc80"/></g><g><path d="m243.417 13.907c-3.308-.694-6.583-1.076-9.805-1.183 1.005 31.329-25.28 57.385-56.858 56.339.104 3.225.489 6.504 1.195 9.817 39.073 8.199 73.73-26.196 65.468-64.973z" fill="#93cc52"/></g></g></g><g><g><ellipse cx="297.686" cy="322.611" fill="#fff6b3" rx="139.314" ry="139.389"/></g><g><g><path d="m306.584 318.338-17.798-.005-28.457-75.92c-5.854-15.618 5.686-32.267 22.362-32.263l29.931.008c16.676.004 28.225 16.66 22.379 32.275z" fill="#fff380"/></g><g><path d="m303.885 295.299-12.409-.003-19.841-52.932c-4.082-10.889 3.965-22.497 15.591-22.494l20.868.006c11.627.003 19.679 11.616 15.603 22.503z" fill="#ffe94d"/></g></g><g><g><path d="m300.956 313.298-12.589 12.582-73.806-33.561c-15.183-6.904-18.796-26.837-7.001-38.626l21.17-21.159c11.795-11.788 31.739-8.177 38.646 6.997z" fill="#fff380"/></g><g><path d="m282.757 298.916-8.777 8.772-51.458-23.399c-10.586-4.814-13.105-18.711-4.881-26.93l14.76-14.752c8.223-8.219 22.129-5.701 26.945 4.879z" fill="#ffe94d"/></g></g><g><g><path d="m293.413 313.713-.005 17.798-75.92 28.457c-15.618 5.854-32.267-5.686-32.263-22.362l.008-29.931c.004-16.676 16.66-28.225 32.275-22.379z" fill="#fff380"/></g><g><path d="m270.374 316.413-.003 12.409-52.932 19.841c-10.889 4.082-22.497-3.965-22.494-15.591l.006-20.868c.003-11.627 11.616-19.679 22.503-15.603z" fill="#ffe94d"/></g></g><g><g><path d="m288.373 319.341 12.582 12.589-33.561 73.806c-6.904 15.183-26.837 18.796-38.626 7.001l-21.159-21.17c-11.788-11.795-8.177-31.739 6.997-38.646z" fill="#fff380"/></g><g><path d="m273.991 337.541 8.772 8.777-23.399 51.458c-4.814 10.586-18.711 13.105-26.93 4.881l-14.752-14.76c-8.219-8.223-5.701-22.129 4.879-26.945z" fill="#ffe94d"/></g></g><g><g><path d="m288.788 326.885 17.798.005 28.457 75.92c5.854 15.618-5.686 32.267-22.362 32.263l-29.931-.008c-16.676-.004-28.225-16.66-22.379-32.275z" fill="#fff380"/></g><g><path d="m291.488 349.923 12.409.003 19.841 52.932c4.082 10.889-3.965 22.497-15.591 22.494l-20.868-.006c-11.627-.003-19.679-11.616-15.603-22.503z" fill="#ffe94d"/></g></g><g><g><path d="m294.416 331.925 12.589-12.582 73.806 33.561c15.183 6.904 18.796 26.837 7.001 38.626l-21.17 21.159c-11.795 11.788-31.739 8.177-38.646-6.997z" fill="#fff380"/></g><g><path d="m312.616 346.307 8.777-8.772 51.458 23.399c10.586 4.814 13.105 18.711 4.881 26.93l-14.76 14.752c-8.223 8.219-22.129 5.701-26.945-4.879z" fill="#ffe94d"/></g></g><g><g><path d="m301.96 331.509.005-17.798 75.92-28.457c15.618-5.854 32.267 5.686 32.263 22.362l-.008 29.931c-.004 16.676-16.66 28.225-32.275 22.379z" fill="#fff380"/></g><g><path d="m324.998 328.81.003-12.409 52.932-19.841c10.889-4.082 22.497 3.965 22.494 15.591l-.006 20.868c-.003 11.627-11.616 19.679-22.503 15.603z" fill="#ffe94d"/></g></g><g><g><path d="m307 325.882-12.582-12.589 33.561-73.806c6.904-15.183 26.837-18.796 38.626-7.001l21.159 21.17c11.788 11.795 8.177 31.739-6.997 38.646z" fill="#fff380"/></g><g><path d="m321.382 307.682-8.772-8.777 23.399-51.458c4.814-10.586 18.711-13.105 26.93-4.881l14.752 14.76c8.219 8.223 5.701 22.129-4.879 26.945z" fill="#ffe94d"/></g></g><g><ellipse cx="297.686" cy="322.611" fill="#efc100" rx="16.959" ry="16.968"/></g><path d="m398.982 280.632c3.863-10.785 1.108-23.118-6.992-31.219l-21.165-21.17c-8.097-8.099-20.423-10.856-31.201-6.997-4.85-10.248-15.245-17.122-27.014-17.122h-29.933c-11.767 0-22.155 6.878-27.006 17.124-10.778-3.863-23.11-1.105-31.207 6.994l-21.166 21.17c-8.32 8.322-10.797 20.53-6.984 31.206-10.356 4.892-17.13 15.563-17.13 27.023v29.939c0 11.77 6.873 22.17 17.118 27.022-3.858 10.781-1.099 23.109 6.996 31.206l21.166 21.17c8.098 8.099 20.411 10.855 31.203 6.993 4.892 10.356 15.56 17.125 27.01 17.125h29.933c11.768 0 22.164-6.874 27.015-17.122 10.789 3.863 23.105 1.101 31.2-6.996l21.165-21.17c8.32-8.322 10.798-20.53 6.984-31.206 10.357-4.891 17.13-15.563 17.13-27.023v-29.939c0-11.768-6.878-22.155-17.122-27.008zm-52.481-48.858c5.865-1.058 11.634.745 15.843 4.956l21.165 21.17c8.674 8.675 5.851 23.893-5.243 28.941l-59.394 27.028c-2.331-5.644-6.847-10.161-12.489-12.493l27.02-59.404c2.467-5.419 7.24-9.136 13.098-10.198zm-37.89 90.837c0 6.048-4.92 10.968-10.967 10.968-6.048 0-10.968-4.92-10.968-10.968s4.92-10.968 10.968-10.968c6.048.001 10.967 4.92 10.967 10.968zm-25.933-106.486h29.933c7.485 0 14.045 4.647 16.683 11.428-2.825 2.641-5.159 5.83-6.805 9.449l-24.844 54.618-24.845-54.618c-1.646-3.619-3.98-6.809-6.805-9.45 2.638-6.78 9.198-11.427 16.683-11.427zm-70.9 41.774 21.166-21.17c8.671-8.676 23.89-5.855 28.939 5.243l27.021 59.404c-1.627.673-3.159 1.529-4.574 2.54l-64.774-24.271c-3.719-1.393-7.619-1.998-11.478-1.869-2.933-6.66-1.593-14.583 3.7-19.877zm-9.171 96.367c-6.781-2.639-11.428-9.199-11.428-16.685v-29.939c0-12.206 12.694-21.058 24.171-16.758l61.102 22.894c-.667 1.596-1.156 3.283-1.449 5.036l-62.947 28.645c-3.62 1.647-6.809 3.981-9.449 6.807zm52.084 46.45c-1.395 3.723-1.999 7.629-1.869 11.495-6.66 2.93-14.586 1.576-19.877-3.717l-21.166-21.17c-8.674-8.675-5.851-23.893 5.243-28.941l59.394-27.028c.673 1.628 1.529 3.16 2.54 4.576zm57.919 28.382h-29.933c-12.197 0-21.056-12.688-16.756-24.172l22.89-61.117c1.596.668 3.284 1.157 5.038 1.45l28.639 62.962c1.646 3.619 3.98 6.808 6.805 9.449-2.638 6.781-9.197 11.428-16.683 11.428zm70.9-41.775-21.165 21.17c-8.672 8.676-23.89 5.855-28.94-5.243l-27.02-59.404c1.628-.673 3.159-1.529 4.575-2.54l64.774 24.27c3.678 1.378 7.571 1.994 11.49 1.861 2.931 6.662 1.58 14.591-3.714 19.886zm20.6-49.742c0 12.206-12.693 21.058-24.17 16.758l-61.102-22.894c.667-1.595 1.156-3.283 1.449-5.035l62.947-28.645c3.619-1.647 6.808-3.981 9.448-6.808 6.781 2.638 11.428 9.199 11.428 16.686z" fill="#333"/></g><path d="m334.933 20.178h-10v-10c0-3.313-2.687-6-6-6s-6 2.687-6 6v10h-10c-3.313 0-6 2.687-6 6s2.687 6 6 6h10v10c0 3.313 2.687 6 6 6s6-2.687 6-6v-10h10c3.313 0 6-2.687 6-6s-2.687-6-6-6z" fill="#333"/><g><path d="m69 113.162c-13.785 0-25-11.379-25-25.366s11.215-25.366 25-25.366 25 11.38 25 25.366-11.215 25.366-25 25.366zm0-38.732c-7.168 0-13 5.996-13 13.366s5.832 13.366 13 13.366 13-5.996 13-13.366-5.832-13.366-13-13.366z" fill="#333"/></g><g><path d="m379 172.796c-13.785 0-25-11.215-25-25s11.215-25 25-25 25 11.215 25 25-11.215 25-25 25zm0-38c-7.168 0-13 5.832-13 13s5.832 13 13 13 13-5.832 13-13-5.832-13-13-13z" fill="#333"/></g><g><ellipse cx="136.247" cy="210.124" fill="#fff" rx="10.86" ry="17.024"/></g><g><path d="m114.225 263.304c.298 6.155-2.821 10.99-6.967 10.8s-7.748-5.333-8.046-11.488 2.821-10.99 6.967-10.8c4.145.19 7.748 5.334 8.046 11.488z" fill="#fff"/></g><g><path d="m355.122 269.37c.298 6.155-2.821 10.99-6.967 10.8s-7.748-5.333-8.046-11.488 2.821-10.99 6.967-10.8 7.748 5.333 8.046 11.488z" fill="#fff"/></g><g><path d="m215.395 42.628c.187 3.864-1.771 6.9-4.374 6.781s-4.864-3.349-5.052-7.213c-.187-3.864 1.771-6.9 4.374-6.781s4.865 3.349 5.052 7.213z" fill="#fff"/></g><path d="m300.977 177.264c-.88-1.409-1.772-2.812-2.695-4.196-18.42-27.635-44.371-48.677-73.383-59.591-2.057-12.099-8.965-22.623-18.653-29.75 9.919-2.82 19.11-8.132 26.648-15.693 14.543-14.589 20.671-35.291 16.39-55.378-.495-2.322-2.313-4.134-4.636-4.622-23.25-4.88-47.732 4.33-61.931 23.395v-25.429c0-3.313-2.687-6-6-6s-6 2.687-6 6v68.42c-21.29 2.563-38.695 18.553-42.181 39.057-29.012 10.914-54.963 31.957-73.383 59.591-19.726 29.594-30.153 64.831-30.153 101.901 0 39.218 12.165 77.495 34.254 107.78 21.221 29.095 50.609 49.62 83.035 58.073 6.769 16.618 20.008 27.178 34.429 27.178s27.661-10.56 34.43-27.178c.493-.129.98-.278 1.472-.413 23.929 17.347 53.323 27.591 85.067 27.591 80.126 0 145.313-65.221 145.313-145.389 0-79.067-63.411-143.59-142.023-145.347zm-104.008-144.04c10.893-10.926 26.066-16.052 41.255-14.113 1.907 14.828-3.114 29.705-13.828 40.452-10.891 10.925-26.059 16.055-41.254 14.112-1.908-14.828 3.114-29.705 13.827-40.451zm3.997 400.586c-4.631 13.48-14.148 22.19-24.248 22.19-10.099 0-19.616-8.71-24.247-22.19-.67-1.95-2.294-3.419-4.301-3.891-64.416-15.157-111.17-80.323-111.17-154.95 0-70.15 39.779-131.002 98.984-151.422 2.253-.777 3.833-2.814 4.024-5.19 1.462-18.116 17.586-32.307 36.709-32.307s35.248 14.191 36.71 32.307c.191 2.375 1.771 4.413 4.024 5.19 28.476 9.821 52.454 28.998 69.678 54.061-75.217 5.429-134.758 68.387-134.758 145.003 0 43.541 19.235 82.668 49.643 109.336-.45.547-.811 1.173-1.048 1.863zm96.721 22.19c-73.51 0-133.314-59.838-133.314-133.389s59.805-133.389 133.314-133.389 133.313 59.839 133.313 133.389-59.804 133.389-133.313 133.389z" fill="#333"/></g></svg>