<svg id="Plum" enable-background="new 0 0 450 450" height="512" viewBox="0 0 450 450" width="512" xmlns="http://www.w3.org/2000/svg"><g><path d="m140.4 254.5c-47.8-7.3-80.3 14.5-101.9 4.5 99.6 177.5 159 4.5 101.9-4.5" fill="#5fbd2f"/><path d="m277.9 75.6c-212.1-103.3-325.3 240.3-65.2 234.1 132.7-3.1 170.4-182.8 65.2-234.1" fill="#6b3c4d"/><path d="m73.5 141.5c-57.9 107 93.2 274.7 214.5 37.9-70.7 18.1-155.5 44.1-214.5-37.9" fill="#5e2d3f"/><path d="m207.6 369.4c-61.1 25.9-94.6-8.5-126.5-1.3 73-109.4 39.5-78.2 126.5 1.3" fill="#70cc42"/><path d="m144.6 268.4c11.6-101.8 169.5-141.5 238.2-91.3 50.4 42.5 26.5 114.3 1.5 154.6-61.8 99.4-249.7 83.8-239.7-63.3" fill="#6b3c4d"/><path d="m144.3 287.8c-11.5-134.1 225.3-168 258.7-88.2 53.3 127.2-219.5 221.2-231.3 133-5.1-38.1-19.3-25-27.4-44.8" fill="#eecb87"/><path d="m213.4 286.7c36.2 26.2 136.8-20.8 101.8-73.8-47.6-7.1-109.6 22-101.8 73.8" fill="#c56640"/><path d="m277.2 118.6c-10.4 23.2-80.8-7.9-70.4-31 10.4-23.2 80.8 7.9 70.4 31" fill="#87616e"/><path d="m125.8 298.5c-19.7-7-35.7-19.4-47.2-36.9-10.3 2-22.4 5-32.8 3.4 13.1 22.3 33.4 52.2 56.6 64.8 9.4-13.8 16.7-24.2 23.4-31.3m56.4 75.2c-21.4-15.7-36.7-39.4-40.6-71.2-1.5.2-6.6-1.3-8.3-1.7-15.8 15.4-32.2 43.7-45 63.1 19.8-1.4 70.2 19.2 93.9 9.8zm27.7-104.1c5.3-35 41.5-55 73.8-59.8 28.2-4.2 52.8 3 39.9 39.2-15.5 43.6-122.3 77.4-113.7 20.6zm107.1-23c10.5-29.4-8.9-33.4-32.3-29.9-29.2 4.4-63.1 22.1-67.9 53.9-6.5 43 86.8 13.8 100.2-24zm-169.3 40.7c2.6 5.8 7.6 7.9 12.4 11.2 12.5 8.7 13 15.6 13.6 24.8 1.5 23.3 13.5 32.7 35.7 37.4 66.5 14.3 181.6-43.3 197-114.4 8.6-55.6-33.8-80-79.3-86-78.5-10.4-186.9 34.5-179.4 127zm.5 11.6c4.4 43 30.3 70.5 64.2 83.2 35.9 13.4 78.2 9.6 112.7-6.1 40.6-18.5 74-55 81.3-108.7-29.7 63.1-131.1 114.7-198.4 100.3-25.3-5.4-39.5-17.2-41.2-43.8-.5-7.3-.8-12.8-10.6-19.5-2.7-1.9-5.4-3.5-8-5.4zm84.2-134.1c-21.8-24-51.5-26.6-80.2-26.6-3.9 0-3.9-7.1 0-7.1 31.6 0 63.6 3.4 86.8 31.5 30.1-9.8 62.9-12.8 91.7-8.8-34.9-135.9-235.5-118.1-262 12-11.3 55.7 12.4 117.1 72.2 129.7-.2-3.1-.3-6.3-.3-9.6-4-61 39-101.8 91.8-121.1zm182.4 71.6c3.2 73.8-36.5 122.9-86.7 145.8-36.2 16.5-80.4 20.4-118.1 6.3-7.1-2.6-13.8-5.9-20.2-9.7-24.8 13.3-97.8-13.1-108.2-6.9-3.1.6-5.3-2.9-3.5-5.5 6.8-10.3 13.6-20.5 20.4-30.8-26.3-14.7-48.6-48.9-63-74.6-1.8-2.9 1.3-6.5 4.4-5 10.2 4.7 24.3 1.3 34.7-.8-15.1-26.8-18.9-61.1-12.8-90.9 28.2-138.4 241.9-155.3 276.4-9.2 41.6 8.2 79.5 35.5 76.6 81.3z" fill="#1c1c1c"/></g></svg>